ISO-10303-21;
HEADER;
/* Generated by software containing ST-Developer
 * from STEP Tools, Inc. (www.steptools.com) 
 */

FILE_DESCRIPTION(
/* description */ (''),
/* implementation_level */ '2;1');

FILE_NAME(
/* name */ 'big door slotty with toly rinces  .5.stp',
/* time_stamp */ '2026-05-22T23:05:37+12:00',
/* author */ ('Jake'),
/* organization */ (''),
/* preprocessor_version */ 'ST-DEVELOPER v20.1',
/* originating_system */ 'Autodesk Inventor 2026',
/* authorisation */ '');

FILE_SCHEMA (('AUTOMOTIVE_DESIGN { 1 0 10303 214 3 1 1 }'));
ENDSEC;

DATA;
#10=MECHANICAL_DESIGN_GEOMETRIC_PRESENTATION_REPRESENTATION('',(#13,#14),
#1615);
#11=SHAPE_REPRESENTATION_RELATIONSHIP('SRR','None',#1622,#12);
#12=ADVANCED_BREP_SHAPE_REPRESENTATION('',(#15,#16),#1614);
#13=STYLED_ITEM('',(#1631),#15);
#14=STYLED_ITEM('',(#1631),#16);
#15=MANIFOLD_SOLID_BREP('Solid1',#995);
#16=MANIFOLD_SOLID_BREP('Solid1',#996);
#17=FACE_BOUND('',#103,.T.);
#18=FACE_BOUND('',#111,.T.);
#19=FACE_BOUND('',#112,.T.);
#20=FACE_BOUND('',#114,.T.);
#21=FACE_BOUND('',#115,.T.);
#22=ELLIPSE('',#1027,11.3137084989848,8.);
#23=ELLIPSE('',#1028,11.3137084989867,8.);
#24=ELLIPSE('',#1030,11.3137084989848,8.);
#25=ELLIPSE('',#1033,11.3137084989847,8.);
#26=ELLIPSE('',#1036,11.3137084989847,8.);
#27=ELLIPSE('',#1037,11.3137084989846,8.);
#28=ELLIPSE('',#1039,11.3137084989847,8.);
#29=ELLIPSE('',#1041,11.3137084989847,8.);
#30=CYLINDRICAL_SURFACE('',#1026,8.);
#31=CYLINDRICAL_SURFACE('',#1029,8.);
#32=CYLINDRICAL_SURFACE('',#1032,8.);
#33=CYLINDRICAL_SURFACE('',#1034,8.);
#34=CYLINDRICAL_SURFACE('',#1035,8.);
#35=CYLINDRICAL_SURFACE('',#1038,8.);
#36=CYLINDRICAL_SURFACE('',#1040,8.);
#37=CYLINDRICAL_SURFACE('',#1042,8.);
#38=FACE_OUTER_BOUND('',#93,.T.);
#39=FACE_OUTER_BOUND('',#94,.T.);
#40=FACE_OUTER_BOUND('',#95,.T.);
#41=FACE_OUTER_BOUND('',#96,.T.);
#42=FACE_OUTER_BOUND('',#97,.T.);
#43=FACE_OUTER_BOUND('',#98,.T.);
#44=FACE_OUTER_BOUND('',#99,.T.);
#45=FACE_OUTER_BOUND('',#100,.T.);
#46=FACE_OUTER_BOUND('',#101,.T.);
#47=FACE_OUTER_BOUND('',#102,.T.);
#48=FACE_OUTER_BOUND('',#104,.T.);
#49=FACE_OUTER_BOUND('',#105,.T.);
#50=FACE_OUTER_BOUND('',#106,.T.);
#51=FACE_OUTER_BOUND('',#107,.T.);
#52=FACE_OUTER_BOUND('',#108,.T.);
#53=FACE_OUTER_BOUND('',#109,.T.);
#54=FACE_OUTER_BOUND('',#110,.T.);
#55=FACE_OUTER_BOUND('',#113,.T.);
#56=FACE_OUTER_BOUND('',#116,.T.);
#57=FACE_OUTER_BOUND('',#117,.T.);
#58=FACE_OUTER_BOUND('',#118,.T.);
#59=FACE_OUTER_BOUND('',#119,.T.);
#60=FACE_OUTER_BOUND('',#120,.T.);
#61=FACE_OUTER_BOUND('',#121,.T.);
#62=FACE_OUTER_BOUND('',#122,.T.);
#63=FACE_OUTER_BOUND('',#123,.T.);
#64=FACE_OUTER_BOUND('',#124,.T.);
#65=FACE_OUTER_BOUND('',#125,.T.);
#66=FACE_OUTER_BOUND('',#126,.T.);
#67=FACE_OUTER_BOUND('',#127,.T.);
#68=FACE_OUTER_BOUND('',#128,.T.);
#69=FACE_OUTER_BOUND('',#129,.T.);
#70=FACE_OUTER_BOUND('',#130,.T.);
#71=FACE_OUTER_BOUND('',#131,.T.);
#72=FACE_OUTER_BOUND('',#132,.T.);
#73=FACE_OUTER_BOUND('',#133,.T.);
#74=FACE_OUTER_BOUND('',#134,.T.);
#75=FACE_OUTER_BOUND('',#135,.T.);
#76=FACE_OUTER_BOUND('',#136,.T.);
#77=FACE_OUTER_BOUND('',#137,.T.);
#78=FACE_OUTER_BOUND('',#138,.T.);
#79=FACE_OUTER_BOUND('',#139,.T.);
#80=FACE_OUTER_BOUND('',#140,.T.);
#81=FACE_OUTER_BOUND('',#141,.T.);
#82=FACE_OUTER_BOUND('',#142,.T.);
#83=FACE_OUTER_BOUND('',#143,.T.);
#84=FACE_OUTER_BOUND('',#144,.T.);
#85=FACE_OUTER_BOUND('',#145,.T.);
#86=FACE_OUTER_BOUND('',#146,.T.);
#87=FACE_OUTER_BOUND('',#147,.T.);
#88=FACE_OUTER_BOUND('',#148,.T.);
#89=FACE_OUTER_BOUND('',#149,.T.);
#90=FACE_OUTER_BOUND('',#150,.T.);
#91=FACE_OUTER_BOUND('',#151,.T.);
#92=FACE_OUTER_BOUND('',#152,.T.);
#93=EDGE_LOOP('',(#625,#626,#627,#628));
#94=EDGE_LOOP('',(#629,#630,#631,#632));
#95=EDGE_LOOP('',(#633,#634,#635,#636));
#96=EDGE_LOOP('',(#637,#638,#639,#640,#641,#642));
#97=EDGE_LOOP('',(#643,#644,#645,#646));
#98=EDGE_LOOP('',(#647,#648,#649,#650));
#99=EDGE_LOOP('',(#651,#652,#653,#654));
#100=EDGE_LOOP('',(#655,#656,#657,#658));
#101=EDGE_LOOP('',(#659,#660,#661,#662));
#102=EDGE_LOOP('',(#663,#664,#665,#666));
#103=EDGE_LOOP('',(#667,#668,#669,#670));
#104=EDGE_LOOP('',(#671,#672,#673,#674));
#105=EDGE_LOOP('',(#675,#676,#677,#678));
#106=EDGE_LOOP('',(#679,#680,#681,#682));
#107=EDGE_LOOP('',(#683,#684,#685,#686));
#108=EDGE_LOOP('',(#687,#688,#689,#690));
#109=EDGE_LOOP('',(#691,#692,#693,#694));
#110=EDGE_LOOP('',(#695,#696,#697,#698));
#111=EDGE_LOOP('',(#699,#700,#701,#702,#703,#704,#705,#706,#707,#708));
#112=EDGE_LOOP('',(#709,#710,#711,#712));
#113=EDGE_LOOP('',(#713,#714,#715,#716));
#114=EDGE_LOOP('',(#717,#718,#719,#720,#721,#722));
#115=EDGE_LOOP('',(#723,#724,#725,#726,#727,#728,#729,#730,#731,#732));
#116=EDGE_LOOP('',(#733,#734,#735,#736));
#117=EDGE_LOOP('',(#737,#738,#739,#740));
#118=EDGE_LOOP('',(#741,#742,#743,#744));
#119=EDGE_LOOP('',(#745,#746,#747,#748));
#120=EDGE_LOOP('',(#749,#750,#751,#752));
#121=EDGE_LOOP('',(#753,#754,#755,#756));
#122=EDGE_LOOP('',(#757,#758,#759,#760));
#123=EDGE_LOOP('',(#761,#762,#763,#764));
#124=EDGE_LOOP('',(#765,#766,#767,#768));
#125=EDGE_LOOP('',(#769,#770,#771,#772));
#126=EDGE_LOOP('',(#773,#774,#775,#776));
#127=EDGE_LOOP('',(#777,#778,#779,#780));
#128=EDGE_LOOP('',(#781,#782,#783,#784));
#129=EDGE_LOOP('',(#785,#786,#787,#788));
#130=EDGE_LOOP('',(#789,#790,#791,#792));
#131=EDGE_LOOP('',(#793,#794,#795,#796));
#132=EDGE_LOOP('',(#797,#798,#799,#800));
#133=EDGE_LOOP('',(#801,#802,#803,#804));
#134=EDGE_LOOP('',(#805,#806,#807,#808));
#135=EDGE_LOOP('',(#809,#810,#811,#812));
#136=EDGE_LOOP('',(#813,#814,#815,#816));
#137=EDGE_LOOP('',(#817,#818,#819,#820));
#138=EDGE_LOOP('',(#821,#822,#823,#824));
#139=EDGE_LOOP('',(#825,#826,#827,#828));
#140=EDGE_LOOP('',(#829,#830,#831,#832));
#141=EDGE_LOOP('',(#833,#834,#835,#836,#837,#838,#839,#840,#841,#842));
#142=EDGE_LOOP('',(#843,#844,#845,#846,#847,#848,#849,#850,#851,#852));
#143=EDGE_LOOP('',(#853,#854,#855,#856));
#144=EDGE_LOOP('',(#857,#858,#859,#860));
#145=EDGE_LOOP('',(#861,#862,#863,#864));
#146=EDGE_LOOP('',(#865,#866,#867,#868));
#147=EDGE_LOOP('',(#869,#870,#871,#872));
#148=EDGE_LOOP('',(#873,#874,#875,#876));
#149=EDGE_LOOP('',(#877,#878,#879,#880));
#150=EDGE_LOOP('',(#881,#882,#883,#884));
#151=EDGE_LOOP('',(#885,#886,#887,#888));
#152=EDGE_LOOP('',(#889,#890,#891,#892));
#153=LINE('',#1340,#279);
#154=LINE('',#1342,#280);
#155=LINE('',#1344,#281);
#156=LINE('',#1345,#282);
#157=LINE('',#1348,#283);
#158=LINE('',#1350,#284);
#159=LINE('',#1351,#285);
#160=LINE('',#1354,#286);
#161=LINE('',#1356,#287);
#162=LINE('',#1357,#288);
#163=LINE('',#1359,#289);
#164=LINE('',#1361,#290);
#165=LINE('',#1363,#291);
#166=LINE('',#1364,#292);
#167=LINE('',#1367,#293);
#168=LINE('',#1369,#294);
#169=LINE('',#1370,#295);
#170=LINE('',#1373,#296);
#171=LINE('',#1375,#297);
#172=LINE('',#1376,#298);
#173=LINE('',#1378,#299);
#174=LINE('',#1382,#300);
#175=LINE('',#1386,#301);
#176=LINE('',#1390,#302);
#177=LINE('',#1393,#303);
#178=LINE('',#1396,#304);
#179=LINE('',#1397,#305);
#180=LINE('',#1400,#306);
#181=LINE('',#1402,#307);
#182=LINE('',#1404,#308);
#183=LINE('',#1405,#309);
#184=LINE('',#1408,#310);
#185=LINE('',#1411,#311);
#186=LINE('',#1416,#312);
#187=LINE('',#1421,#313);
#188=LINE('',#1425,#314);
#189=LINE('',#1427,#315);
#190=LINE('',#1431,#316);
#191=LINE('',#1433,#317);
#192=LINE('',#1435,#318);
#193=LINE('',#1436,#319);
#194=LINE('',#1439,#320);
#195=LINE('',#1441,#321);
#196=LINE('',#1443,#322);
#197=LINE('',#1445,#323);
#198=LINE('',#1447,#324);
#199=LINE('',#1449,#325);
#200=LINE('',#1451,#326);
#201=LINE('',#1453,#327);
#202=LINE('',#1455,#328);
#203=LINE('',#1456,#329);
#204=LINE('',#1460,#330);
#205=LINE('',#1462,#331);
#206=LINE('',#1464,#332);
#207=LINE('',#1465,#333);
#208=LINE('',#1466,#334);
#209=LINE('',#1469,#335);
#210=LINE('',#1471,#336);
#211=LINE('',#1473,#337);
#212=LINE('',#1475,#338);
#213=LINE('',#1477,#339);
#214=LINE('',#1479,#340);
#215=LINE('',#1481,#341);
#216=LINE('',#1483,#342);
#217=LINE('',#1485,#343);
#218=LINE('',#1486,#344);
#219=LINE('',#1488,#345);
#220=LINE('',#1489,#346);
#221=LINE('',#1491,#347);
#222=LINE('',#1493,#348);
#223=LINE('',#1498,#349);
#224=LINE('',#1500,#350);
#225=LINE('',#1501,#351);
#226=LINE('',#1504,#352);
#227=LINE('',#1506,#353);
#228=LINE('',#1507,#354);
#229=LINE('',#1510,#355);
#230=LINE('',#1511,#356);
#231=LINE('',#1514,#357);
#232=LINE('',#1515,#358);
#233=LINE('',#1518,#359);
#234=LINE('',#1519,#360);
#235=LINE('',#1522,#361);
#236=LINE('',#1523,#362);
#237=LINE('',#1526,#363);
#238=LINE('',#1527,#364);
#239=LINE('',#1530,#365);
#240=LINE('',#1531,#366);
#241=LINE('',#1534,#367);
#242=LINE('',#1535,#368);
#243=LINE('',#1538,#369);
#244=LINE('',#1539,#370);
#245=LINE('',#1542,#371);
#246=LINE('',#1543,#372);
#247=LINE('',#1546,#373);
#248=LINE('',#1547,#374);
#249=LINE('',#1550,#375);
#250=LINE('',#1551,#376);
#251=LINE('',#1554,#377);
#252=LINE('',#1555,#378);
#253=LINE('',#1557,#379);
#254=LINE('',#1560,#380);
#255=LINE('',#1561,#381);
#256=LINE('',#1564,#382);
#257=LINE('',#1565,#383);
#258=LINE('',#1568,#384);
#259=LINE('',#1569,#385);
#260=LINE('',#1572,#386);
#261=LINE('',#1573,#387);
#262=LINE('',#1575,#388);
#263=LINE('',#1579,#389);
#264=LINE('',#1580,#390);
#265=LINE('',#1582,#391);
#266=LINE('',#1584,#392);
#267=LINE('',#1589,#393);
#268=LINE('',#1591,#394);
#269=LINE('',#1593,#395);
#270=LINE('',#1594,#396);
#271=LINE('',#1598,#397);
#272=LINE('',#1600,#398);
#273=LINE('',#1602,#399);
#274=LINE('',#1603,#400);
#275=LINE('',#1605,#401);
#276=LINE('',#1606,#402);
#277=LINE('',#1608,#403);
#278=LINE('',#1610,#404);
#279=VECTOR('',#1086,10.);
#280=VECTOR('',#1087,10.);
#281=VECTOR('',#1088,10.);
#282=VECTOR('',#1089,10.);
#283=VECTOR('',#1092,10.);
#284=VECTOR('',#1093,10.);
#285=VECTOR('',#1094,10.);
#286=VECTOR('',#1097,10.);
#287=VECTOR('',#1098,10.);
#288=VECTOR('',#1099,10.);
#289=VECTOR('',#1102,10.);
#290=VECTOR('',#1103,10.);
#291=VECTOR('',#1104,10.);
#292=VECTOR('',#1105,10.);
#293=VECTOR('',#1108,10.);
#294=VECTOR('',#1109,10.);
#295=VECTOR('',#1110,10.);
#296=VECTOR('',#1113,10.);
#297=VECTOR('',#1114,10.);
#298=VECTOR('',#1115,10.);
#299=VECTOR('',#1118,10.);
#300=VECTOR('',#1121,10.);
#301=VECTOR('',#1124,10.);
#302=VECTOR('',#1129,10.);
#303=VECTOR('',#1132,10.);
#304=VECTOR('',#1135,10.);
#305=VECTOR('',#1136,10.);
#306=VECTOR('',#1137,10.);
#307=VECTOR('',#1138,10.);
#308=VECTOR('',#1139,10.);
#309=VECTOR('',#1140,10.);
#310=VECTOR('',#1143,10.);
#311=VECTOR('',#1148,10.);
#312=VECTOR('',#1153,10.);
#313=VECTOR('',#1160,10.);
#314=VECTOR('',#1165,10.);
#315=VECTOR('',#1168,10.);
#316=VECTOR('',#1171,10.);
#317=VECTOR('',#1172,10.);
#318=VECTOR('',#1173,10.);
#319=VECTOR('',#1174,10.);
#320=VECTOR('',#1175,10.);
#321=VECTOR('',#1176,10.);
#322=VECTOR('',#1177,10.);
#323=VECTOR('',#1178,10.);
#324=VECTOR('',#1179,10.);
#325=VECTOR('',#1180,10.);
#326=VECTOR('',#1181,10.);
#327=VECTOR('',#1182,10.);
#328=VECTOR('',#1183,10.);
#329=VECTOR('',#1184,10.);
#330=VECTOR('',#1187,10.);
#331=VECTOR('',#1188,10.);
#332=VECTOR('',#1189,10.);
#333=VECTOR('',#1190,10.);
#334=VECTOR('',#1191,10.);
#335=VECTOR('',#1192,10.);
#336=VECTOR('',#1193,10.);
#337=VECTOR('',#1194,10.);
#338=VECTOR('',#1195,10.);
#339=VECTOR('',#1196,10.);
#340=VECTOR('',#1197,10.);
#341=VECTOR('',#1198,10.);
#342=VECTOR('',#1199,10.);
#343=VECTOR('',#1200,10.);
#344=VECTOR('',#1201,10.);
#345=VECTOR('',#1204,10.);
#346=VECTOR('',#1205,10.);
#347=VECTOR('',#1208,10.);
#348=VECTOR('',#1211,10.);
#349=VECTOR('',#1218,10.);
#350=VECTOR('',#1219,10.);
#351=VECTOR('',#1220,10.);
#352=VECTOR('',#1223,10.);
#353=VECTOR('',#1224,10.);
#354=VECTOR('',#1225,10.);
#355=VECTOR('',#1228,10.);
#356=VECTOR('',#1229,10.);
#357=VECTOR('',#1232,10.);
#358=VECTOR('',#1233,10.);
#359=VECTOR('',#1236,10.);
#360=VECTOR('',#1237,10.);
#361=VECTOR('',#1240,10.);
#362=VECTOR('',#1241,10.);
#363=VECTOR('',#1244,10.);
#364=VECTOR('',#1245,10.);
#365=VECTOR('',#1248,10.);
#366=VECTOR('',#1249,10.);
#367=VECTOR('',#1252,10.);
#368=VECTOR('',#1253,10.);
#369=VECTOR('',#1256,10.);
#370=VECTOR('',#1257,10.);
#371=VECTOR('',#1260,10.);
#372=VECTOR('',#1261,10.);
#373=VECTOR('',#1264,10.);
#374=VECTOR('',#1265,10.);
#375=VECTOR('',#1268,10.);
#376=VECTOR('',#1269,10.);
#377=VECTOR('',#1272,10.);
#378=VECTOR('',#1273,10.);
#379=VECTOR('',#1276,10.);
#380=VECTOR('',#1279,10.);
#381=VECTOR('',#1280,10.);
#382=VECTOR('',#1283,10.);
#383=VECTOR('',#1284,10.);
#384=VECTOR('',#1287,10.);
#385=VECTOR('',#1288,10.);
#386=VECTOR('',#1291,10.);
#387=VECTOR('',#1292,10.);
#388=VECTOR('',#1295,10.);
#389=VECTOR('',#1302,10.);
#390=VECTOR('',#1303,10.);
#391=VECTOR('',#1306,10.);
#392=VECTOR('',#1309,10.);
#393=VECTOR('',#1314,10.);
#394=VECTOR('',#1315,10.);
#395=VECTOR('',#1316,10.);
#396=VECTOR('',#1317,10.);
#397=VECTOR('',#1320,10.);
#398=VECTOR('',#1321,10.);
#399=VECTOR('',#1322,10.);
#400=VECTOR('',#1323,10.);
#401=VECTOR('',#1326,10.);
#402=VECTOR('',#1327,10.);
#403=VECTOR('',#1330,10.);
#404=VECTOR('',#1333,10.);
#405=VERTEX_POINT('',#1338);
#406=VERTEX_POINT('',#1339);
#407=VERTEX_POINT('',#1341);
#408=VERTEX_POINT('',#1343);
#409=VERTEX_POINT('',#1347);
#410=VERTEX_POINT('',#1349);
#411=VERTEX_POINT('',#1353);
#412=VERTEX_POINT('',#1355);
#413=VERTEX_POINT('',#1360);
#414=VERTEX_POINT('',#1362);
#415=VERTEX_POINT('',#1366);
#416=VERTEX_POINT('',#1368);
#417=VERTEX_POINT('',#1372);
#418=VERTEX_POINT('',#1374);
#419=VERTEX_POINT('',#1380);
#420=VERTEX_POINT('',#1381);
#421=VERTEX_POINT('',#1383);
#422=VERTEX_POINT('',#1385);
#423=VERTEX_POINT('',#1389);
#424=VERTEX_POINT('',#1391);
#425=VERTEX_POINT('',#1395);
#426=VERTEX_POINT('',#1398);
#427=VERTEX_POINT('',#1399);
#428=VERTEX_POINT('',#1401);
#429=VERTEX_POINT('',#1403);
#430=VERTEX_POINT('',#1407);
#431=VERTEX_POINT('',#1413);
#432=VERTEX_POINT('',#1415);
#433=VERTEX_POINT('',#1419);
#434=VERTEX_POINT('',#1423);
#435=VERTEX_POINT('',#1429);
#436=VERTEX_POINT('',#1430);
#437=VERTEX_POINT('',#1432);
#438=VERTEX_POINT('',#1434);
#439=VERTEX_POINT('',#1437);
#440=VERTEX_POINT('',#1438);
#441=VERTEX_POINT('',#1440);
#442=VERTEX_POINT('',#1442);
#443=VERTEX_POINT('',#1444);
#444=VERTEX_POINT('',#1446);
#445=VERTEX_POINT('',#1448);
#446=VERTEX_POINT('',#1450);
#447=VERTEX_POINT('',#1452);
#448=VERTEX_POINT('',#1454);
#449=VERTEX_POINT('',#1458);
#450=VERTEX_POINT('',#1459);
#451=VERTEX_POINT('',#1461);
#452=VERTEX_POINT('',#1463);
#453=VERTEX_POINT('',#1467);
#454=VERTEX_POINT('',#1468);
#455=VERTEX_POINT('',#1470);
#456=VERTEX_POINT('',#1472);
#457=VERTEX_POINT('',#1474);
#458=VERTEX_POINT('',#1476);
#459=VERTEX_POINT('',#1478);
#460=VERTEX_POINT('',#1480);
#461=VERTEX_POINT('',#1482);
#462=VERTEX_POINT('',#1484);
#463=VERTEX_POINT('',#1497);
#464=VERTEX_POINT('',#1499);
#465=VERTEX_POINT('',#1503);
#466=VERTEX_POINT('',#1505);
#467=VERTEX_POINT('',#1509);
#468=VERTEX_POINT('',#1513);
#469=VERTEX_POINT('',#1517);
#470=VERTEX_POINT('',#1521);
#471=VERTEX_POINT('',#1525);
#472=VERTEX_POINT('',#1529);
#473=VERTEX_POINT('',#1533);
#474=VERTEX_POINT('',#1537);
#475=VERTEX_POINT('',#1541);
#476=VERTEX_POINT('',#1545);
#477=VERTEX_POINT('',#1549);
#478=VERTEX_POINT('',#1553);
#479=VERTEX_POINT('',#1559);
#480=VERTEX_POINT('',#1563);
#481=VERTEX_POINT('',#1567);
#482=VERTEX_POINT('',#1571);
#483=VERTEX_POINT('',#1587);
#484=VERTEX_POINT('',#1588);
#485=VERTEX_POINT('',#1590);
#486=VERTEX_POINT('',#1592);
#487=VERTEX_POINT('',#1596);
#488=VERTEX_POINT('',#1597);
#489=VERTEX_POINT('',#1599);
#490=VERTEX_POINT('',#1601);
#491=EDGE_CURVE('',#405,#406,#153,.T.);
#492=EDGE_CURVE('',#406,#407,#154,.T.);
#493=EDGE_CURVE('',#407,#408,#155,.T.);
#494=EDGE_CURVE('',#405,#408,#156,.T.);
#495=EDGE_CURVE('',#409,#405,#157,.T.);
#496=EDGE_CURVE('',#408,#410,#158,.T.);
#497=EDGE_CURVE('',#409,#410,#159,.T.);
#498=EDGE_CURVE('',#411,#409,#160,.T.);
#499=EDGE_CURVE('',#410,#412,#161,.T.);
#500=EDGE_CURVE('',#411,#412,#162,.T.);
#501=EDGE_CURVE('',#406,#411,#163,.T.);
#502=EDGE_CURVE('',#413,#412,#164,.T.);
#503=EDGE_CURVE('',#414,#413,#165,.T.);
#504=EDGE_CURVE('',#407,#414,#166,.T.);
#505=EDGE_CURVE('',#414,#415,#167,.T.);
#506=EDGE_CURVE('',#415,#416,#168,.T.);
#507=EDGE_CURVE('',#416,#407,#169,.T.);
#508=EDGE_CURVE('',#412,#417,#170,.T.);
#509=EDGE_CURVE('',#418,#417,#171,.T.);
#510=EDGE_CURVE('',#418,#413,#172,.T.);
#511=EDGE_CURVE('',#415,#418,#173,.T.);
#512=EDGE_CURVE('',#419,#420,#174,.T.);
#513=EDGE_CURVE('',#420,#421,#22,.T.);
#514=EDGE_CURVE('',#421,#422,#175,.T.);
#515=EDGE_CURVE('',#422,#419,#23,.T.);
#516=EDGE_CURVE('',#422,#423,#176,.T.);
#517=EDGE_CURVE('',#423,#424,#24,.T.);
#518=EDGE_CURVE('',#424,#419,#177,.T.);
#519=EDGE_CURVE('',#425,#424,#178,.T.);
#520=EDGE_CURVE('',#420,#425,#179,.T.);
#521=EDGE_CURVE('',#426,#427,#180,.T.);
#522=EDGE_CURVE('',#427,#428,#181,.T.);
#523=EDGE_CURVE('',#428,#429,#182,.T.);
#524=EDGE_CURVE('',#429,#426,#183,.T.);
#525=EDGE_CURVE('',#423,#430,#184,.T.);
#526=EDGE_CURVE('',#430,#425,#25,.T.);
#527=EDGE_CURVE('',#430,#421,#185,.T.);
#528=EDGE_CURVE('',#431,#421,#26,.T.);
#529=EDGE_CURVE('',#432,#431,#186,.T.);
#530=EDGE_CURVE('',#432,#422,#27,.T.);
#531=EDGE_CURVE('',#433,#430,#28,.T.);
#532=EDGE_CURVE('',#431,#433,#187,.T.);
#533=EDGE_CURVE('',#434,#423,#29,.T.);
#534=EDGE_CURVE('',#433,#434,#188,.T.);
#535=EDGE_CURVE('',#434,#432,#189,.T.);
#536=EDGE_CURVE('',#435,#436,#190,.T.);
#537=EDGE_CURVE('',#436,#437,#191,.T.);
#538=EDGE_CURVE('',#437,#438,#192,.T.);
#539=EDGE_CURVE('',#438,#435,#193,.T.);
#540=EDGE_CURVE('',#439,#440,#194,.T.);
#541=EDGE_CURVE('',#441,#439,#195,.T.);
#542=EDGE_CURVE('',#442,#441,#196,.T.);
#543=EDGE_CURVE('',#443,#442,#197,.T.);
#544=EDGE_CURVE('',#444,#443,#198,.T.);
#545=EDGE_CURVE('',#445,#444,#199,.T.);
#546=EDGE_CURVE('',#446,#445,#200,.T.);
#547=EDGE_CURVE('',#447,#446,#201,.T.);
#548=EDGE_CURVE('',#448,#447,#202,.T.);
#549=EDGE_CURVE('',#440,#448,#203,.T.);
#550=EDGE_CURVE('',#449,#450,#204,.T.);
#551=EDGE_CURVE('',#450,#451,#205,.T.);
#552=EDGE_CURVE('',#451,#452,#206,.T.);
#553=EDGE_CURVE('',#452,#449,#207,.T.);
#554=EDGE_CURVE('',#416,#417,#208,.T.);
#555=EDGE_CURVE('',#453,#454,#209,.T.);
#556=EDGE_CURVE('',#455,#453,#210,.T.);
#557=EDGE_CURVE('',#456,#455,#211,.T.);
#558=EDGE_CURVE('',#457,#456,#212,.T.);
#559=EDGE_CURVE('',#458,#457,#213,.T.);
#560=EDGE_CURVE('',#459,#458,#214,.T.);
#561=EDGE_CURVE('',#460,#459,#215,.T.);
#562=EDGE_CURVE('',#461,#460,#216,.T.);
#563=EDGE_CURVE('',#462,#461,#217,.T.);
#564=EDGE_CURVE('',#454,#462,#218,.T.);
#565=EDGE_CURVE('',#434,#435,#219,.T.);
#566=EDGE_CURVE('',#433,#438,#220,.T.);
#567=EDGE_CURVE('',#431,#437,#221,.T.);
#568=EDGE_CURVE('',#432,#436,#222,.T.);
#569=EDGE_CURVE('',#463,#458,#223,.T.);
#570=EDGE_CURVE('',#463,#464,#224,.T.);
#571=EDGE_CURVE('',#464,#459,#225,.T.);
#572=EDGE_CURVE('',#444,#465,#226,.T.);
#573=EDGE_CURVE('',#466,#465,#227,.T.);
#574=EDGE_CURVE('',#445,#466,#228,.T.);
#575=EDGE_CURVE('',#464,#467,#229,.T.);
#576=EDGE_CURVE('',#467,#460,#230,.T.);
#577=EDGE_CURVE('',#443,#468,#231,.T.);
#578=EDGE_CURVE('',#465,#468,#232,.T.);
#579=EDGE_CURVE('',#469,#457,#233,.T.);
#580=EDGE_CURVE('',#469,#463,#234,.T.);
#581=EDGE_CURVE('',#467,#470,#235,.T.);
#582=EDGE_CURVE('',#470,#461,#236,.T.);
#583=EDGE_CURVE('',#442,#471,#237,.T.);
#584=EDGE_CURVE('',#468,#471,#238,.T.);
#585=EDGE_CURVE('',#472,#456,#239,.T.);
#586=EDGE_CURVE('',#472,#469,#240,.T.);
#587=EDGE_CURVE('',#470,#473,#241,.T.);
#588=EDGE_CURVE('',#473,#462,#242,.T.);
#589=EDGE_CURVE('',#441,#474,#243,.T.);
#590=EDGE_CURVE('',#471,#474,#244,.T.);
#591=EDGE_CURVE('',#475,#455,#245,.T.);
#592=EDGE_CURVE('',#475,#472,#246,.T.);
#593=EDGE_CURVE('',#473,#476,#247,.T.);
#594=EDGE_CURVE('',#476,#454,#248,.T.);
#595=EDGE_CURVE('',#439,#477,#249,.T.);
#596=EDGE_CURVE('',#474,#477,#250,.T.);
#597=EDGE_CURVE('',#478,#453,#251,.T.);
#598=EDGE_CURVE('',#478,#475,#252,.T.);
#599=EDGE_CURVE('',#476,#478,#253,.T.);
#600=EDGE_CURVE('',#440,#479,#254,.T.);
#601=EDGE_CURVE('',#477,#479,#255,.T.);
#602=EDGE_CURVE('',#480,#466,#256,.T.);
#603=EDGE_CURVE('',#446,#480,#257,.T.);
#604=EDGE_CURVE('',#481,#480,#258,.T.);
#605=EDGE_CURVE('',#447,#481,#259,.T.);
#606=EDGE_CURVE('',#482,#481,#260,.T.);
#607=EDGE_CURVE('',#448,#482,#261,.T.);
#608=EDGE_CURVE('',#479,#482,#262,.T.);
#609=EDGE_CURVE('',#427,#450,#263,.T.);
#610=EDGE_CURVE('',#428,#449,#264,.T.);
#611=EDGE_CURVE('',#429,#452,#265,.T.);
#612=EDGE_CURVE('',#426,#451,#266,.T.);
#613=EDGE_CURVE('',#483,#484,#267,.T.);
#614=EDGE_CURVE('',#484,#485,#268,.T.);
#615=EDGE_CURVE('',#485,#486,#269,.T.);
#616=EDGE_CURVE('',#486,#483,#270,.T.);
#617=EDGE_CURVE('',#487,#488,#271,.T.);
#618=EDGE_CURVE('',#488,#489,#272,.T.);
#619=EDGE_CURVE('',#489,#490,#273,.T.);
#620=EDGE_CURVE('',#490,#487,#274,.T.);
#621=EDGE_CURVE('',#488,#483,#275,.T.);
#622=EDGE_CURVE('',#489,#486,#276,.T.);
#623=EDGE_CURVE('',#490,#485,#277,.T.);
#624=EDGE_CURVE('',#487,#484,#278,.T.);
#625=ORIENTED_EDGE('',*,*,#491,.T.);
#626=ORIENTED_EDGE('',*,*,#492,.T.);
#627=ORIENTED_EDGE('',*,*,#493,.T.);
#628=ORIENTED_EDGE('',*,*,#494,.F.);
#629=ORIENTED_EDGE('',*,*,#495,.T.);
#630=ORIENTED_EDGE('',*,*,#494,.T.);
#631=ORIENTED_EDGE('',*,*,#496,.T.);
#632=ORIENTED_EDGE('',*,*,#497,.F.);
#633=ORIENTED_EDGE('',*,*,#498,.T.);
#634=ORIENTED_EDGE('',*,*,#497,.T.);
#635=ORIENTED_EDGE('',*,*,#499,.T.);
#636=ORIENTED_EDGE('',*,*,#500,.F.);
#637=ORIENTED_EDGE('',*,*,#501,.T.);
#638=ORIENTED_EDGE('',*,*,#500,.T.);
#639=ORIENTED_EDGE('',*,*,#502,.F.);
#640=ORIENTED_EDGE('',*,*,#503,.F.);
#641=ORIENTED_EDGE('',*,*,#504,.F.);
#642=ORIENTED_EDGE('',*,*,#492,.F.);
#643=ORIENTED_EDGE('',*,*,#504,.T.);
#644=ORIENTED_EDGE('',*,*,#505,.T.);
#645=ORIENTED_EDGE('',*,*,#506,.T.);
#646=ORIENTED_EDGE('',*,*,#507,.T.);
#647=ORIENTED_EDGE('',*,*,#502,.T.);
#648=ORIENTED_EDGE('',*,*,#508,.T.);
#649=ORIENTED_EDGE('',*,*,#509,.F.);
#650=ORIENTED_EDGE('',*,*,#510,.T.);
#651=ORIENTED_EDGE('',*,*,#503,.T.);
#652=ORIENTED_EDGE('',*,*,#510,.F.);
#653=ORIENTED_EDGE('',*,*,#511,.F.);
#654=ORIENTED_EDGE('',*,*,#505,.F.);
#655=ORIENTED_EDGE('',*,*,#512,.T.);
#656=ORIENTED_EDGE('',*,*,#513,.T.);
#657=ORIENTED_EDGE('',*,*,#514,.T.);
#658=ORIENTED_EDGE('',*,*,#515,.T.);
#659=ORIENTED_EDGE('',*,*,#516,.T.);
#660=ORIENTED_EDGE('',*,*,#517,.T.);
#661=ORIENTED_EDGE('',*,*,#518,.T.);
#662=ORIENTED_EDGE('',*,*,#515,.F.);
#663=ORIENTED_EDGE('',*,*,#512,.F.);
#664=ORIENTED_EDGE('',*,*,#518,.F.);
#665=ORIENTED_EDGE('',*,*,#519,.F.);
#666=ORIENTED_EDGE('',*,*,#520,.F.);
#667=ORIENTED_EDGE('',*,*,#521,.T.);
#668=ORIENTED_EDGE('',*,*,#522,.T.);
#669=ORIENTED_EDGE('',*,*,#523,.T.);
#670=ORIENTED_EDGE('',*,*,#524,.T.);
#671=ORIENTED_EDGE('',*,*,#517,.F.);
#672=ORIENTED_EDGE('',*,*,#525,.T.);
#673=ORIENTED_EDGE('',*,*,#526,.T.);
#674=ORIENTED_EDGE('',*,*,#519,.T.);
#675=ORIENTED_EDGE('',*,*,#513,.F.);
#676=ORIENTED_EDGE('',*,*,#520,.T.);
#677=ORIENTED_EDGE('',*,*,#526,.F.);
#678=ORIENTED_EDGE('',*,*,#527,.T.);
#679=ORIENTED_EDGE('',*,*,#514,.F.);
#680=ORIENTED_EDGE('',*,*,#528,.F.);
#681=ORIENTED_EDGE('',*,*,#529,.F.);
#682=ORIENTED_EDGE('',*,*,#530,.T.);
#683=ORIENTED_EDGE('',*,*,#527,.F.);
#684=ORIENTED_EDGE('',*,*,#531,.F.);
#685=ORIENTED_EDGE('',*,*,#532,.F.);
#686=ORIENTED_EDGE('',*,*,#528,.T.);
#687=ORIENTED_EDGE('',*,*,#525,.F.);
#688=ORIENTED_EDGE('',*,*,#533,.F.);
#689=ORIENTED_EDGE('',*,*,#534,.F.);
#690=ORIENTED_EDGE('',*,*,#531,.T.);
#691=ORIENTED_EDGE('',*,*,#516,.F.);
#692=ORIENTED_EDGE('',*,*,#530,.F.);
#693=ORIENTED_EDGE('',*,*,#535,.F.);
#694=ORIENTED_EDGE('',*,*,#533,.T.);
#695=ORIENTED_EDGE('',*,*,#536,.T.);
#696=ORIENTED_EDGE('',*,*,#537,.T.);
#697=ORIENTED_EDGE('',*,*,#538,.T.);
#698=ORIENTED_EDGE('',*,*,#539,.T.);
#699=ORIENTED_EDGE('',*,*,#540,.F.);
#700=ORIENTED_EDGE('',*,*,#541,.F.);
#701=ORIENTED_EDGE('',*,*,#542,.F.);
#702=ORIENTED_EDGE('',*,*,#543,.F.);
#703=ORIENTED_EDGE('',*,*,#544,.F.);
#704=ORIENTED_EDGE('',*,*,#545,.F.);
#705=ORIENTED_EDGE('',*,*,#546,.F.);
#706=ORIENTED_EDGE('',*,*,#547,.F.);
#707=ORIENTED_EDGE('',*,*,#548,.F.);
#708=ORIENTED_EDGE('',*,*,#549,.F.);
#709=ORIENTED_EDGE('',*,*,#495,.F.);
#710=ORIENTED_EDGE('',*,*,#498,.F.);
#711=ORIENTED_EDGE('',*,*,#501,.F.);
#712=ORIENTED_EDGE('',*,*,#491,.F.);
#713=ORIENTED_EDGE('',*,*,#550,.T.);
#714=ORIENTED_EDGE('',*,*,#551,.T.);
#715=ORIENTED_EDGE('',*,*,#552,.T.);
#716=ORIENTED_EDGE('',*,*,#553,.T.);
#717=ORIENTED_EDGE('',*,*,#496,.F.);
#718=ORIENTED_EDGE('',*,*,#493,.F.);
#719=ORIENTED_EDGE('',*,*,#507,.F.);
#720=ORIENTED_EDGE('',*,*,#554,.T.);
#721=ORIENTED_EDGE('',*,*,#508,.F.);
#722=ORIENTED_EDGE('',*,*,#499,.F.);
#723=ORIENTED_EDGE('',*,*,#555,.F.);
#724=ORIENTED_EDGE('',*,*,#556,.F.);
#725=ORIENTED_EDGE('',*,*,#557,.F.);
#726=ORIENTED_EDGE('',*,*,#558,.F.);
#727=ORIENTED_EDGE('',*,*,#559,.F.);
#728=ORIENTED_EDGE('',*,*,#560,.F.);
#729=ORIENTED_EDGE('',*,*,#561,.F.);
#730=ORIENTED_EDGE('',*,*,#562,.F.);
#731=ORIENTED_EDGE('',*,*,#563,.F.);
#732=ORIENTED_EDGE('',*,*,#564,.F.);
#733=ORIENTED_EDGE('',*,*,#534,.T.);
#734=ORIENTED_EDGE('',*,*,#565,.T.);
#735=ORIENTED_EDGE('',*,*,#539,.F.);
#736=ORIENTED_EDGE('',*,*,#566,.F.);
#737=ORIENTED_EDGE('',*,*,#532,.T.);
#738=ORIENTED_EDGE('',*,*,#566,.T.);
#739=ORIENTED_EDGE('',*,*,#538,.F.);
#740=ORIENTED_EDGE('',*,*,#567,.F.);
#741=ORIENTED_EDGE('',*,*,#529,.T.);
#742=ORIENTED_EDGE('',*,*,#567,.T.);
#743=ORIENTED_EDGE('',*,*,#537,.F.);
#744=ORIENTED_EDGE('',*,*,#568,.F.);
#745=ORIENTED_EDGE('',*,*,#535,.T.);
#746=ORIENTED_EDGE('',*,*,#568,.T.);
#747=ORIENTED_EDGE('',*,*,#536,.F.);
#748=ORIENTED_EDGE('',*,*,#565,.F.);
#749=ORIENTED_EDGE('',*,*,#511,.T.);
#750=ORIENTED_EDGE('',*,*,#509,.T.);
#751=ORIENTED_EDGE('',*,*,#554,.F.);
#752=ORIENTED_EDGE('',*,*,#506,.F.);
#753=ORIENTED_EDGE('',*,*,#560,.T.);
#754=ORIENTED_EDGE('',*,*,#569,.F.);
#755=ORIENTED_EDGE('',*,*,#570,.T.);
#756=ORIENTED_EDGE('',*,*,#571,.T.);
#757=ORIENTED_EDGE('',*,*,#545,.T.);
#758=ORIENTED_EDGE('',*,*,#572,.T.);
#759=ORIENTED_EDGE('',*,*,#573,.F.);
#760=ORIENTED_EDGE('',*,*,#574,.F.);
#761=ORIENTED_EDGE('',*,*,#561,.T.);
#762=ORIENTED_EDGE('',*,*,#571,.F.);
#763=ORIENTED_EDGE('',*,*,#575,.T.);
#764=ORIENTED_EDGE('',*,*,#576,.T.);
#765=ORIENTED_EDGE('',*,*,#544,.T.);
#766=ORIENTED_EDGE('',*,*,#577,.T.);
#767=ORIENTED_EDGE('',*,*,#578,.F.);
#768=ORIENTED_EDGE('',*,*,#572,.F.);
#769=ORIENTED_EDGE('',*,*,#559,.T.);
#770=ORIENTED_EDGE('',*,*,#579,.F.);
#771=ORIENTED_EDGE('',*,*,#580,.T.);
#772=ORIENTED_EDGE('',*,*,#569,.T.);
#773=ORIENTED_EDGE('',*,*,#562,.T.);
#774=ORIENTED_EDGE('',*,*,#576,.F.);
#775=ORIENTED_EDGE('',*,*,#581,.T.);
#776=ORIENTED_EDGE('',*,*,#582,.T.);
#777=ORIENTED_EDGE('',*,*,#543,.T.);
#778=ORIENTED_EDGE('',*,*,#583,.T.);
#779=ORIENTED_EDGE('',*,*,#584,.F.);
#780=ORIENTED_EDGE('',*,*,#577,.F.);
#781=ORIENTED_EDGE('',*,*,#558,.T.);
#782=ORIENTED_EDGE('',*,*,#585,.F.);
#783=ORIENTED_EDGE('',*,*,#586,.T.);
#784=ORIENTED_EDGE('',*,*,#579,.T.);
#785=ORIENTED_EDGE('',*,*,#563,.T.);
#786=ORIENTED_EDGE('',*,*,#582,.F.);
#787=ORIENTED_EDGE('',*,*,#587,.T.);
#788=ORIENTED_EDGE('',*,*,#588,.T.);
#789=ORIENTED_EDGE('',*,*,#542,.T.);
#790=ORIENTED_EDGE('',*,*,#589,.T.);
#791=ORIENTED_EDGE('',*,*,#590,.F.);
#792=ORIENTED_EDGE('',*,*,#583,.F.);
#793=ORIENTED_EDGE('',*,*,#557,.T.);
#794=ORIENTED_EDGE('',*,*,#591,.F.);
#795=ORIENTED_EDGE('',*,*,#592,.T.);
#796=ORIENTED_EDGE('',*,*,#585,.T.);
#797=ORIENTED_EDGE('',*,*,#564,.T.);
#798=ORIENTED_EDGE('',*,*,#588,.F.);
#799=ORIENTED_EDGE('',*,*,#593,.T.);
#800=ORIENTED_EDGE('',*,*,#594,.T.);
#801=ORIENTED_EDGE('',*,*,#541,.T.);
#802=ORIENTED_EDGE('',*,*,#595,.T.);
#803=ORIENTED_EDGE('',*,*,#596,.F.);
#804=ORIENTED_EDGE('',*,*,#589,.F.);
#805=ORIENTED_EDGE('',*,*,#556,.T.);
#806=ORIENTED_EDGE('',*,*,#597,.F.);
#807=ORIENTED_EDGE('',*,*,#598,.T.);
#808=ORIENTED_EDGE('',*,*,#591,.T.);
#809=ORIENTED_EDGE('',*,*,#555,.T.);
#810=ORIENTED_EDGE('',*,*,#594,.F.);
#811=ORIENTED_EDGE('',*,*,#599,.T.);
#812=ORIENTED_EDGE('',*,*,#597,.T.);
#813=ORIENTED_EDGE('',*,*,#540,.T.);
#814=ORIENTED_EDGE('',*,*,#600,.T.);
#815=ORIENTED_EDGE('',*,*,#601,.F.);
#816=ORIENTED_EDGE('',*,*,#595,.F.);
#817=ORIENTED_EDGE('',*,*,#546,.T.);
#818=ORIENTED_EDGE('',*,*,#574,.T.);
#819=ORIENTED_EDGE('',*,*,#602,.F.);
#820=ORIENTED_EDGE('',*,*,#603,.F.);
#821=ORIENTED_EDGE('',*,*,#547,.T.);
#822=ORIENTED_EDGE('',*,*,#603,.T.);
#823=ORIENTED_EDGE('',*,*,#604,.F.);
#824=ORIENTED_EDGE('',*,*,#605,.F.);
#825=ORIENTED_EDGE('',*,*,#548,.T.);
#826=ORIENTED_EDGE('',*,*,#605,.T.);
#827=ORIENTED_EDGE('',*,*,#606,.F.);
#828=ORIENTED_EDGE('',*,*,#607,.F.);
#829=ORIENTED_EDGE('',*,*,#549,.T.);
#830=ORIENTED_EDGE('',*,*,#607,.T.);
#831=ORIENTED_EDGE('',*,*,#608,.F.);
#832=ORIENTED_EDGE('',*,*,#600,.F.);
#833=ORIENTED_EDGE('',*,*,#608,.T.);
#834=ORIENTED_EDGE('',*,*,#606,.T.);
#835=ORIENTED_EDGE('',*,*,#604,.T.);
#836=ORIENTED_EDGE('',*,*,#602,.T.);
#837=ORIENTED_EDGE('',*,*,#573,.T.);
#838=ORIENTED_EDGE('',*,*,#578,.T.);
#839=ORIENTED_EDGE('',*,*,#584,.T.);
#840=ORIENTED_EDGE('',*,*,#590,.T.);
#841=ORIENTED_EDGE('',*,*,#596,.T.);
#842=ORIENTED_EDGE('',*,*,#601,.T.);
#843=ORIENTED_EDGE('',*,*,#598,.F.);
#844=ORIENTED_EDGE('',*,*,#599,.F.);
#845=ORIENTED_EDGE('',*,*,#593,.F.);
#846=ORIENTED_EDGE('',*,*,#587,.F.);
#847=ORIENTED_EDGE('',*,*,#581,.F.);
#848=ORIENTED_EDGE('',*,*,#575,.F.);
#849=ORIENTED_EDGE('',*,*,#570,.F.);
#850=ORIENTED_EDGE('',*,*,#580,.F.);
#851=ORIENTED_EDGE('',*,*,#586,.F.);
#852=ORIENTED_EDGE('',*,*,#592,.F.);
#853=ORIENTED_EDGE('',*,*,#522,.F.);
#854=ORIENTED_EDGE('',*,*,#609,.T.);
#855=ORIENTED_EDGE('',*,*,#550,.F.);
#856=ORIENTED_EDGE('',*,*,#610,.F.);
#857=ORIENTED_EDGE('',*,*,#523,.F.);
#858=ORIENTED_EDGE('',*,*,#610,.T.);
#859=ORIENTED_EDGE('',*,*,#553,.F.);
#860=ORIENTED_EDGE('',*,*,#611,.F.);
#861=ORIENTED_EDGE('',*,*,#524,.F.);
#862=ORIENTED_EDGE('',*,*,#611,.T.);
#863=ORIENTED_EDGE('',*,*,#552,.F.);
#864=ORIENTED_EDGE('',*,*,#612,.F.);
#865=ORIENTED_EDGE('',*,*,#521,.F.);
#866=ORIENTED_EDGE('',*,*,#612,.T.);
#867=ORIENTED_EDGE('',*,*,#551,.F.);
#868=ORIENTED_EDGE('',*,*,#609,.F.);
#869=ORIENTED_EDGE('',*,*,#613,.T.);
#870=ORIENTED_EDGE('',*,*,#614,.T.);
#871=ORIENTED_EDGE('',*,*,#615,.T.);
#872=ORIENTED_EDGE('',*,*,#616,.T.);
#873=ORIENTED_EDGE('',*,*,#617,.T.);
#874=ORIENTED_EDGE('',*,*,#618,.T.);
#875=ORIENTED_EDGE('',*,*,#619,.T.);
#876=ORIENTED_EDGE('',*,*,#620,.T.);
#877=ORIENTED_EDGE('',*,*,#618,.F.);
#878=ORIENTED_EDGE('',*,*,#621,.T.);
#879=ORIENTED_EDGE('',*,*,#616,.F.);
#880=ORIENTED_EDGE('',*,*,#622,.F.);
#881=ORIENTED_EDGE('',*,*,#619,.F.);
#882=ORIENTED_EDGE('',*,*,#622,.T.);
#883=ORIENTED_EDGE('',*,*,#615,.F.);
#884=ORIENTED_EDGE('',*,*,#623,.F.);
#885=ORIENTED_EDGE('',*,*,#620,.F.);
#886=ORIENTED_EDGE('',*,*,#623,.T.);
#887=ORIENTED_EDGE('',*,*,#614,.F.);
#888=ORIENTED_EDGE('',*,*,#624,.F.);
#889=ORIENTED_EDGE('',*,*,#617,.F.);
#890=ORIENTED_EDGE('',*,*,#624,.T.);
#891=ORIENTED_EDGE('',*,*,#613,.F.);
#892=ORIENTED_EDGE('',*,*,#621,.F.);
#893=PLANE('',#1019);
#894=PLANE('',#1020);
#895=PLANE('',#1021);
#896=PLANE('',#1022);
#897=PLANE('',#1023);
#898=PLANE('',#1024);
#899=PLANE('',#1025);
#900=PLANE('',#1031);
#901=PLANE('',#1043);
#902=PLANE('',#1044);
#903=PLANE('',#1045);
#904=PLANE('',#1046);
#905=PLANE('',#1047);
#906=PLANE('',#1048);
#907=PLANE('',#1049);
#908=PLANE('',#1050);
#909=PLANE('',#1051);
#910=PLANE('',#1052);
#911=PLANE('',#1053);
#912=PLANE('',#1054);
#913=PLANE('',#1055);
#914=PLANE('',#1056);
#915=PLANE('',#1057);
#916=PLANE('',#1058);
#917=PLANE('',#1059);
#918=PLANE('',#1060);
#919=PLANE('',#1061);
#920=PLANE('',#1062);
#921=PLANE('',#1063);
#922=PLANE('',#1064);
#923=PLANE('',#1065);
#924=PLANE('',#1066);
#925=PLANE('',#1067);
#926=PLANE('',#1068);
#927=PLANE('',#1069);
#928=PLANE('',#1070);
#929=PLANE('',#1071);
#930=PLANE('',#1072);
#931=PLANE('',#1073);
#932=PLANE('',#1074);
#933=PLANE('',#1075);
#934=PLANE('',#1076);
#935=PLANE('',#1077);
#936=PLANE('',#1078);
#937=PLANE('',#1079);
#938=PLANE('',#1080);
#939=PLANE('',#1081);
#940=ADVANCED_FACE('',(#38),#893,.F.);
#941=ADVANCED_FACE('',(#39),#894,.F.);
#942=ADVANCED_FACE('',(#40),#895,.F.);
#943=ADVANCED_FACE('',(#41),#896,.F.);
#944=ADVANCED_FACE('',(#42),#897,.T.);
#945=ADVANCED_FACE('',(#43),#898,.T.);
#946=ADVANCED_FACE('',(#44),#899,.F.);
#947=ADVANCED_FACE('',(#45),#30,.T.);
#948=ADVANCED_FACE('',(#46),#31,.T.);
#949=ADVANCED_FACE('',(#47,#17),#900,.T.);
#950=ADVANCED_FACE('',(#48),#32,.T.);
#951=ADVANCED_FACE('',(#49),#33,.T.);
#952=ADVANCED_FACE('',(#50),#34,.F.);
#953=ADVANCED_FACE('',(#51),#35,.F.);
#954=ADVANCED_FACE('',(#52),#36,.F.);
#955=ADVANCED_FACE('',(#53),#37,.F.);
#956=ADVANCED_FACE('',(#54,#18,#19),#901,.T.);
#957=ADVANCED_FACE('',(#55,#20,#21),#902,.F.);
#958=ADVANCED_FACE('',(#56),#903,.T.);
#959=ADVANCED_FACE('',(#57),#904,.T.);
#960=ADVANCED_FACE('',(#58),#905,.T.);
#961=ADVANCED_FACE('',(#59),#906,.T.);
#962=ADVANCED_FACE('',(#60),#907,.T.);
#963=ADVANCED_FACE('',(#61),#908,.T.);
#964=ADVANCED_FACE('',(#62),#909,.T.);
#965=ADVANCED_FACE('',(#63),#910,.T.);
#966=ADVANCED_FACE('',(#64),#911,.T.);
#967=ADVANCED_FACE('',(#65),#912,.T.);
#968=ADVANCED_FACE('',(#66),#913,.T.);
#969=ADVANCED_FACE('',(#67),#914,.T.);
#970=ADVANCED_FACE('',(#68),#915,.T.);
#971=ADVANCED_FACE('',(#69),#916,.T.);
#972=ADVANCED_FACE('',(#70),#917,.T.);
#973=ADVANCED_FACE('',(#71),#918,.T.);
#974=ADVANCED_FACE('',(#72),#919,.T.);
#975=ADVANCED_FACE('',(#73),#920,.T.);
#976=ADVANCED_FACE('',(#74),#921,.T.);
#977=ADVANCED_FACE('',(#75),#922,.T.);
#978=ADVANCED_FACE('',(#76),#923,.T.);
#979=ADVANCED_FACE('',(#77),#924,.T.);
#980=ADVANCED_FACE('',(#78),#925,.T.);
#981=ADVANCED_FACE('',(#79),#926,.T.);
#982=ADVANCED_FACE('',(#80),#927,.T.);
#983=ADVANCED_FACE('',(#81),#928,.T.);
#984=ADVANCED_FACE('',(#82),#929,.F.);
#985=ADVANCED_FACE('',(#83),#930,.T.);
#986=ADVANCED_FACE('',(#84),#931,.T.);
#987=ADVANCED_FACE('',(#85),#932,.T.);
#988=ADVANCED_FACE('',(#86),#933,.T.);
#989=ADVANCED_FACE('',(#87),#934,.F.);
#990=ADVANCED_FACE('',(#88),#935,.T.);
#991=ADVANCED_FACE('',(#89),#936,.F.);
#992=ADVANCED_FACE('',(#90),#937,.F.);
#993=ADVANCED_FACE('',(#91),#938,.F.);
#994=ADVANCED_FACE('',(#92),#939,.F.);
#995=CLOSED_SHELL('',(#940,#941,#942,#943,#944,#945,#946,#947,#948,#949,
#950,#951,#952,#953,#954,#955,#956,#957,#958,#959,#960,#961,#962,#963,#964,
#965,#966,#967,#968,#969,#970,#971,#972,#973,#974,#975,#976,#977,#978,#979,
#980,#981,#982,#983,#984,#985,#986,#987,#988));
#996=CLOSED_SHELL('',(#989,#990,#991,#992,#993,#994));
#997=DERIVED_UNIT_ELEMENT(#1000,1.);
#998=DERIVED_UNIT_ELEMENT(#1617,-3.);
#999=DIMENSIONAL_EXPONENTS(0.,1.,0.,0.,0.,0.,0.);
#1000=(
CONVERSION_BASED_UNIT('gram',#1002)
MASS_UNIT()
NAMED_UNIT(#999)
);
#1001=(
MASS_UNIT()
NAMED_UNIT(*)
SI_UNIT(.KILO.,.GRAM.)
);
#1002=MASS_MEASURE_WITH_UNIT(MASS_MEASURE(0.001),#1001);
#1003=DERIVED_UNIT((#997,#998));
#1004=MEASURE_REPRESENTATION_ITEM('density measure',
POSITIVE_RATIO_MEASURE(1.),#1003);
#1005=PROPERTY_DEFINITION_REPRESENTATION(#1010,#1007);
#1006=PROPERTY_DEFINITION_REPRESENTATION(#1011,#1008);
#1007=REPRESENTATION('material name',(#1009),#1614);
#1008=REPRESENTATION('density',(#1004),#1614);
#1009=DESCRIPTIVE_REPRESENTATION_ITEM('Generic','Generic');
#1010=PROPERTY_DEFINITION('material property','material name',#1624);
#1011=PROPERTY_DEFINITION('material property','density of part',#1624);
#1012=DATE_TIME_ROLE('creation_date');
#1013=APPLIED_DATE_AND_TIME_ASSIGNMENT(#1014,#1012,(#1624));
#1014=DATE_AND_TIME(#1015,#1016);
#1015=CALENDAR_DATE(2026,19,5);
#1016=LOCAL_TIME(0,0,0.,#1017);
#1017=COORDINATED_UNIVERSAL_TIME_OFFSET(0,0,.BEHIND.);
#1018=AXIS2_PLACEMENT_3D('',#1336,#1082,#1083);
#1019=AXIS2_PLACEMENT_3D('',#1337,#1084,#1085);
#1020=AXIS2_PLACEMENT_3D('',#1346,#1090,#1091);
#1021=AXIS2_PLACEMENT_3D('',#1352,#1095,#1096);
#1022=AXIS2_PLACEMENT_3D('',#1358,#1100,#1101);
#1023=AXIS2_PLACEMENT_3D('',#1365,#1106,#1107);
#1024=AXIS2_PLACEMENT_3D('',#1371,#1111,#1112);
#1025=AXIS2_PLACEMENT_3D('',#1377,#1116,#1117);
#1026=AXIS2_PLACEMENT_3D('',#1379,#1119,#1120);
#1027=AXIS2_PLACEMENT_3D('',#1384,#1122,#1123);
#1028=AXIS2_PLACEMENT_3D('',#1387,#1125,#1126);
#1029=AXIS2_PLACEMENT_3D('',#1388,#1127,#1128);
#1030=AXIS2_PLACEMENT_3D('',#1392,#1130,#1131);
#1031=AXIS2_PLACEMENT_3D('',#1394,#1133,#1134);
#1032=AXIS2_PLACEMENT_3D('',#1406,#1141,#1142);
#1033=AXIS2_PLACEMENT_3D('',#1409,#1144,#1145);
#1034=AXIS2_PLACEMENT_3D('',#1410,#1146,#1147);
#1035=AXIS2_PLACEMENT_3D('',#1412,#1149,#1150);
#1036=AXIS2_PLACEMENT_3D('',#1414,#1151,#1152);
#1037=AXIS2_PLACEMENT_3D('',#1417,#1154,#1155);
#1038=AXIS2_PLACEMENT_3D('',#1418,#1156,#1157);
#1039=AXIS2_PLACEMENT_3D('',#1420,#1158,#1159);
#1040=AXIS2_PLACEMENT_3D('',#1422,#1161,#1162);
#1041=AXIS2_PLACEMENT_3D('',#1424,#1163,#1164);
#1042=AXIS2_PLACEMENT_3D('',#1426,#1166,#1167);
#1043=AXIS2_PLACEMENT_3D('',#1428,#1169,#1170);
#1044=AXIS2_PLACEMENT_3D('',#1457,#1185,#1186);
#1045=AXIS2_PLACEMENT_3D('',#1487,#1202,#1203);
#1046=AXIS2_PLACEMENT_3D('',#1490,#1206,#1207);
#1047=AXIS2_PLACEMENT_3D('',#1492,#1209,#1210);
#1048=AXIS2_PLACEMENT_3D('',#1494,#1212,#1213);
#1049=AXIS2_PLACEMENT_3D('',#1495,#1214,#1215);
#1050=AXIS2_PLACEMENT_3D('',#1496,#1216,#1217);
#1051=AXIS2_PLACEMENT_3D('',#1502,#1221,#1222);
#1052=AXIS2_PLACEMENT_3D('',#1508,#1226,#1227);
#1053=AXIS2_PLACEMENT_3D('',#1512,#1230,#1231);
#1054=AXIS2_PLACEMENT_3D('',#1516,#1234,#1235);
#1055=AXIS2_PLACEMENT_3D('',#1520,#1238,#1239);
#1056=AXIS2_PLACEMENT_3D('',#1524,#1242,#1243);
#1057=AXIS2_PLACEMENT_3D('',#1528,#1246,#1247);
#1058=AXIS2_PLACEMENT_3D('',#1532,#1250,#1251);
#1059=AXIS2_PLACEMENT_3D('',#1536,#1254,#1255);
#1060=AXIS2_PLACEMENT_3D('',#1540,#1258,#1259);
#1061=AXIS2_PLACEMENT_3D('',#1544,#1262,#1263);
#1062=AXIS2_PLACEMENT_3D('',#1548,#1266,#1267);
#1063=AXIS2_PLACEMENT_3D('',#1552,#1270,#1271);
#1064=AXIS2_PLACEMENT_3D('',#1556,#1274,#1275);
#1065=AXIS2_PLACEMENT_3D('',#1558,#1277,#1278);
#1066=AXIS2_PLACEMENT_3D('',#1562,#1281,#1282);
#1067=AXIS2_PLACEMENT_3D('',#1566,#1285,#1286);
#1068=AXIS2_PLACEMENT_3D('',#1570,#1289,#1290);
#1069=AXIS2_PLACEMENT_3D('',#1574,#1293,#1294);
#1070=AXIS2_PLACEMENT_3D('',#1576,#1296,#1297);
#1071=AXIS2_PLACEMENT_3D('',#1577,#1298,#1299);
#1072=AXIS2_PLACEMENT_3D('',#1578,#1300,#1301);
#1073=AXIS2_PLACEMENT_3D('',#1581,#1304,#1305);
#1074=AXIS2_PLACEMENT_3D('',#1583,#1307,#1308);
#1075=AXIS2_PLACEMENT_3D('',#1585,#1310,#1311);
#1076=AXIS2_PLACEMENT_3D('',#1586,#1312,#1313);
#1077=AXIS2_PLACEMENT_3D('',#1595,#1318,#1319);
#1078=AXIS2_PLACEMENT_3D('',#1604,#1324,#1325);
#1079=AXIS2_PLACEMENT_3D('',#1607,#1328,#1329);
#1080=AXIS2_PLACEMENT_3D('',#1609,#1331,#1332);
#1081=AXIS2_PLACEMENT_3D('',#1611,#1334,#1335);
#1082=DIRECTION('axis',(0.,0.,1.));
#1083=DIRECTION('refdir',(1.,0.,0.));
#1084=DIRECTION('center_axis',(0.,0.,-1.));
#1085=DIRECTION('ref_axis',(1.,0.,0.));
#1086=DIRECTION('',(-1.,0.,0.));
#1087=DIRECTION('',(0.,-1.,0.));
#1088=DIRECTION('',(1.,0.,0.));
#1089=DIRECTION('',(0.,-1.,0.));
#1090=DIRECTION('center_axis',(1.,0.,0.));
#1091=DIRECTION('ref_axis',(0.,0.,1.));
#1092=DIRECTION('',(0.,0.,-1.));
#1093=DIRECTION('',(0.,0.,1.));
#1094=DIRECTION('',(0.,-1.,0.));
#1095=DIRECTION('center_axis',(0.,0.,1.));
#1096=DIRECTION('ref_axis',(-1.,0.,0.));
#1097=DIRECTION('',(1.,0.,0.));
#1098=DIRECTION('',(-1.,0.,0.));
#1099=DIRECTION('',(0.,-1.,0.));
#1100=DIRECTION('center_axis',(-1.,0.,0.));
#1101=DIRECTION('ref_axis',(0.,0.,-1.));
#1102=DIRECTION('',(0.,0.,1.));
#1103=DIRECTION('',(0.,1.,0.));
#1104=DIRECTION('',(0.,0.,1.));
#1105=DIRECTION('',(0.,-1.,0.));
#1106=DIRECTION('center_axis',(0.,0.,-1.));
#1107=DIRECTION('ref_axis',(-1.,0.,0.));
#1108=DIRECTION('',(-1.,0.,0.));
#1109=DIRECTION('',(0.,1.,0.));
#1110=DIRECTION('',(1.,0.,0.));
#1111=DIRECTION('center_axis',(0.,0.,1.));
#1112=DIRECTION('ref_axis',(1.,0.,0.));
#1113=DIRECTION('',(-1.,0.,0.));
#1114=DIRECTION('',(0.,1.,0.));
#1115=DIRECTION('',(1.,0.,0.));
#1116=DIRECTION('center_axis',(0.,1.,0.));
#1117=DIRECTION('ref_axis',(0.,0.,1.));
#1118=DIRECTION('',(0.,0.,1.));
#1119=DIRECTION('center_axis',(1.,-8.8817841970015E-16,2.66453525910041E-15));
#1120=DIRECTION('ref_axis',(-1.12908532369457E-15,-0.983294177442945,-0.182023516631237));
#1121=DIRECTION('',(-1.,0.,-2.66453525910041E-15));
#1122=DIRECTION('center_axis',(0.707106781186549,-7.8504622934189E-16,-0.707106781186546));
#1123=DIRECTION('ref_axis',(-0.707106781186546,4.66121198671746E-16,-0.707106781186549));
#1124=DIRECTION('',(1.,-8.8817841970015E-16,2.66453525910041E-15));
#1125=DIRECTION('center_axis',(-0.707106781186423,-1.57009245868405E-15,
-0.707106781186672));
#1126=DIRECTION('ref_axis',(-0.707106781186672,2.82616642563034E-15,0.707106781186423));
#1127=DIRECTION('center_axis',(5.32907051820074E-15,1.77635683940024E-15,
1.));
#1128=DIRECTION('ref_axis',(0.182023516631235,-0.983294177442945,2.25817064738915E-15));
#1129=DIRECTION('',(5.32907051820074E-15,1.77635683940024E-15,1.));
#1130=DIRECTION('center_axis',(0.707106781186545,-1.57009245868378E-15,
-0.70710678118655));
#1131=DIRECTION('ref_axis',(0.70710678118655,8.83177008009622E-16,0.707106781186545));
#1132=DIRECTION('',(-5.32907051820074E-15,0.,-1.));
#1133=DIRECTION('center_axis',(0.,-1.,0.));
#1134=DIRECTION('ref_axis',(0.,0.,-1.));
#1135=DIRECTION('',(1.,0.,0.));
#1136=DIRECTION('',(0.,0.,1.));
#1137=DIRECTION('',(-1.,0.,0.));
#1138=DIRECTION('',(0.,0.,1.));
#1139=DIRECTION('',(1.,0.,0.));
#1140=DIRECTION('',(1.72701359386135E-16,0.,-1.));
#1141=DIRECTION('center_axis',(-1.,0.,0.));
#1142=DIRECTION('ref_axis',(0.,-0.983294177442945,0.182023516631237));
#1143=DIRECTION('',(-1.,0.,0.));
#1144=DIRECTION('center_axis',(0.707106781186549,0.,0.707106781186546));
#1145=DIRECTION('ref_axis',(0.707106781186546,0.,-0.707106781186549));
#1146=DIRECTION('center_axis',(0.,0.,-1.));
#1147=DIRECTION('ref_axis',(-0.182023516631236,-0.983294177442945,0.));
#1148=DIRECTION('',(0.,0.,-1.));
#1149=DIRECTION('center_axis',(1.,-8.8817841970015E-16,2.66453525910041E-15));
#1150=DIRECTION('ref_axis',(0.,0.992469757572792,0.12248991919094));
#1151=DIRECTION('center_axis',(0.707106781186547,2.707227265785E-14,-0.707106781186548));
#1152=DIRECTION('ref_axis',(0.707106781186548,2.70722726578501E-14,0.707106781186547));
#1153=DIRECTION('',(-1.,0.,0.));
#1154=DIRECTION('center_axis',(0.707106781186557,-9.41830117201992E-14,
0.707106781186538));
#1155=DIRECTION('ref_axis',(-0.707106781186538,-9.29269377532551E-14,0.707106781186557));
#1156=DIRECTION('center_axis',(0.,0.,-1.));
#1157=DIRECTION('ref_axis',(0.122489919190931,0.992469757572793,0.));
#1158=DIRECTION('center_axis',(-0.707106781186548,1.78107056959536E-15,
-0.707106781186547));
#1159=DIRECTION('ref_axis',(0.707106781186547,1.78107056959536E-15,-0.707106781186548));
#1160=DIRECTION('',(0.,0.,1.));
#1161=DIRECTION('center_axis',(-1.,0.,0.));
#1162=DIRECTION('ref_axis',(0.,0.992469757572794,-0.122489919190929));
#1163=DIRECTION('center_axis',(-0.707106781186541,-4.27456936702883E-17,
0.707106781186554));
#1164=DIRECTION('ref_axis',(-0.707106781186554,-2.55489362756433E-15,-0.707106781186541));
#1165=DIRECTION('',(1.,0.,0.));
#1166=DIRECTION('center_axis',(5.32907051820074E-15,1.77635683940024E-15,
1.));
#1167=DIRECTION('ref_axis',(-0.12248991919093,0.992469757572794,-2.22044604925031E-15));
#1168=DIRECTION('',(0.,0.,-1.));
#1169=DIRECTION('center_axis',(0.,1.,0.));
#1170=DIRECTION('ref_axis',(0.,0.,1.));
#1171=DIRECTION('',(0.,0.,-1.));
#1172=DIRECTION('',(-1.,0.,0.));
#1173=DIRECTION('',(0.,0.,1.));
#1174=DIRECTION('',(1.,0.,0.));
#1175=DIRECTION('',(0.,0.,1.));
#1176=DIRECTION('',(-1.,0.,0.));
#1177=DIRECTION('',(0.,0.,-1.));
#1178=DIRECTION('',(1.,0.,0.));
#1179=DIRECTION('',(0.,0.,1.));
#1180=DIRECTION('',(1.,0.,0.));
#1181=DIRECTION('',(0.,0.,-1.));
#1182=DIRECTION('',(-1.,0.,0.));
#1183=DIRECTION('',(0.,0.,-1.));
#1184=DIRECTION('',(1.,0.,0.));
#1185=DIRECTION('center_axis',(0.,1.,0.));
#1186=DIRECTION('ref_axis',(0.,0.,1.));
#1187=DIRECTION('',(0.,0.,-1.));
#1188=DIRECTION('',(1.,0.,0.));
#1189=DIRECTION('',(-1.72701359386135E-16,0.,1.));
#1190=DIRECTION('',(-1.,0.,0.));
#1191=DIRECTION('',(0.,0.,1.));
#1192=DIRECTION('',(0.,0.,-1.));
#1193=DIRECTION('',(-1.,0.,0.));
#1194=DIRECTION('',(0.,0.,1.));
#1195=DIRECTION('',(1.,0.,0.));
#1196=DIRECTION('',(0.,0.,1.));
#1197=DIRECTION('',(-1.,0.,0.));
#1198=DIRECTION('',(0.,0.,-1.));
#1199=DIRECTION('',(-1.,0.,0.));
#1200=DIRECTION('',(0.,0.,1.));
#1201=DIRECTION('',(1.,0.,0.));
#1202=DIRECTION('center_axis',(0.,0.,1.));
#1203=DIRECTION('ref_axis',(1.,0.,0.));
#1204=DIRECTION('',(0.,1.,0.));
#1205=DIRECTION('',(0.,1.,0.));
#1206=DIRECTION('center_axis',(-1.,0.,0.));
#1207=DIRECTION('ref_axis',(0.,0.,1.));
#1208=DIRECTION('',(0.,1.,0.));
#1209=DIRECTION('center_axis',(0.,0.,-1.));
#1210=DIRECTION('ref_axis',(-1.,0.,0.));
#1211=DIRECTION('',(0.,1.,0.));
#1212=DIRECTION('center_axis',(1.,0.,0.));
#1213=DIRECTION('ref_axis',(0.,0.,-1.));
#1214=DIRECTION('center_axis',(-1.,0.,0.));
#1215=DIRECTION('ref_axis',(0.,0.,1.));
#1216=DIRECTION('center_axis',(0.,0.,1.));
#1217=DIRECTION('ref_axis',(1.,0.,0.));
#1218=DIRECTION('',(0.,1.,0.));
#1219=DIRECTION('',(1.,0.,0.));
#1220=DIRECTION('',(0.,1.,0.));
#1221=DIRECTION('center_axis',(0.,0.,1.));
#1222=DIRECTION('ref_axis',(1.,0.,0.));
#1223=DIRECTION('',(0.,1.,0.));
#1224=DIRECTION('',(1.,0.,0.));
#1225=DIRECTION('',(0.,1.,0.));
#1226=DIRECTION('center_axis',(-1.,0.,0.));
#1227=DIRECTION('ref_axis',(0.,0.,1.));
#1228=DIRECTION('',(0.,0.,1.));
#1229=DIRECTION('',(0.,1.,0.));
#1230=DIRECTION('center_axis',(-1.,0.,0.));
#1231=DIRECTION('ref_axis',(0.,0.,1.));
#1232=DIRECTION('',(0.,1.,0.));
#1233=DIRECTION('',(0.,0.,1.));
#1234=DIRECTION('center_axis',(1.,0.,0.));
#1235=DIRECTION('ref_axis',(0.,0.,-1.));
#1236=DIRECTION('',(0.,1.,0.));
#1237=DIRECTION('',(0.,0.,-1.));
#1238=DIRECTION('center_axis',(0.,0.,1.));
#1239=DIRECTION('ref_axis',(1.,0.,0.));
#1240=DIRECTION('',(1.,0.,0.));
#1241=DIRECTION('',(0.,1.,0.));
#1242=DIRECTION('center_axis',(0.,0.,1.));
#1243=DIRECTION('ref_axis',(1.,0.,0.));
#1244=DIRECTION('',(0.,1.,0.));
#1245=DIRECTION('',(1.,0.,0.));
#1246=DIRECTION('center_axis',(0.,0.,-1.));
#1247=DIRECTION('ref_axis',(-1.,0.,0.));
#1248=DIRECTION('',(0.,1.,0.));
#1249=DIRECTION('',(-1.,0.,0.));
#1250=DIRECTION('center_axis',(1.,0.,0.));
#1251=DIRECTION('ref_axis',(0.,0.,-1.));
#1252=DIRECTION('',(0.,0.,-1.));
#1253=DIRECTION('',(0.,1.,0.));
#1254=DIRECTION('center_axis',(1.,0.,0.));
#1255=DIRECTION('ref_axis',(0.,0.,-1.));
#1256=DIRECTION('',(0.,1.,0.));
#1257=DIRECTION('',(0.,0.,-1.));
#1258=DIRECTION('center_axis',(1.,0.,0.));
#1259=DIRECTION('ref_axis',(0.,0.,-1.));
#1260=DIRECTION('',(0.,1.,0.));
#1261=DIRECTION('',(0.,0.,-1.));
#1262=DIRECTION('center_axis',(0.,0.,-1.));
#1263=DIRECTION('ref_axis',(-1.,0.,0.));
#1264=DIRECTION('',(-1.,0.,0.));
#1265=DIRECTION('',(0.,1.,0.));
#1266=DIRECTION('center_axis',(0.,0.,-1.));
#1267=DIRECTION('ref_axis',(-1.,0.,0.));
#1268=DIRECTION('',(0.,1.,0.));
#1269=DIRECTION('',(-1.,0.,0.));
#1270=DIRECTION('center_axis',(0.,0.,1.));
#1271=DIRECTION('ref_axis',(1.,0.,0.));
#1272=DIRECTION('',(0.,1.,0.));
#1273=DIRECTION('',(1.,0.,0.));
#1274=DIRECTION('center_axis',(-1.,0.,0.));
#1275=DIRECTION('ref_axis',(0.,0.,1.));
#1276=DIRECTION('',(0.,0.,1.));
#1277=DIRECTION('center_axis',(-1.,0.,0.));
#1278=DIRECTION('ref_axis',(0.,0.,1.));
#1279=DIRECTION('',(0.,1.,0.));
#1280=DIRECTION('',(0.,0.,1.));
#1281=DIRECTION('center_axis',(1.,0.,0.));
#1282=DIRECTION('ref_axis',(0.,0.,-1.));
#1283=DIRECTION('',(0.,0.,-1.));
#1284=DIRECTION('',(0.,1.,0.));
#1285=DIRECTION('center_axis',(0.,0.,-1.));
#1286=DIRECTION('ref_axis',(-1.,0.,0.));
#1287=DIRECTION('',(-1.,0.,0.));
#1288=DIRECTION('',(0.,1.,0.));
#1289=DIRECTION('center_axis',(1.,0.,0.));
#1290=DIRECTION('ref_axis',(0.,0.,-1.));
#1291=DIRECTION('',(0.,0.,-1.));
#1292=DIRECTION('',(0.,1.,0.));
#1293=DIRECTION('center_axis',(0.,0.,1.));
#1294=DIRECTION('ref_axis',(1.,0.,0.));
#1295=DIRECTION('',(1.,0.,0.));
#1296=DIRECTION('center_axis',(0.,1.,0.));
#1297=DIRECTION('ref_axis',(0.,0.,1.));
#1298=DIRECTION('center_axis',(0.,1.,0.));
#1299=DIRECTION('ref_axis',(0.,0.,1.));
#1300=DIRECTION('center_axis',(1.,0.,0.));
#1301=DIRECTION('ref_axis',(0.,0.,-1.));
#1302=DIRECTION('',(0.,1.,0.));
#1303=DIRECTION('',(0.,1.,0.));
#1304=DIRECTION('center_axis',(0.,0.,-1.));
#1305=DIRECTION('ref_axis',(-1.,0.,0.));
#1306=DIRECTION('',(0.,1.,0.));
#1307=DIRECTION('center_axis',(-1.,0.,-1.72701359386135E-16));
#1308=DIRECTION('ref_axis',(-1.72701359386135E-16,0.,1.));
#1309=DIRECTION('',(0.,1.,0.));
#1310=DIRECTION('center_axis',(0.,0.,1.));
#1311=DIRECTION('ref_axis',(1.,0.,0.));
#1312=DIRECTION('center_axis',(0.,1.,0.));
#1313=DIRECTION('ref_axis',(0.,0.,1.));
#1314=DIRECTION('',(-1.,0.,0.));
#1315=DIRECTION('',(0.,0.,-1.));
#1316=DIRECTION('',(1.,0.,0.));
#1317=DIRECTION('',(0.,0.,1.));
#1318=DIRECTION('center_axis',(0.,1.,0.));
#1319=DIRECTION('ref_axis',(0.,0.,1.));
#1320=DIRECTION('',(1.,0.,0.));
#1321=DIRECTION('',(0.,0.,-1.));
#1322=DIRECTION('',(-1.,0.,0.));
#1323=DIRECTION('',(0.,0.,1.));
#1324=DIRECTION('center_axis',(-1.,0.,0.));
#1325=DIRECTION('ref_axis',(0.,0.,-1.));
#1326=DIRECTION('',(0.,-1.,0.));
#1327=DIRECTION('',(0.,-1.,0.));
#1328=DIRECTION('center_axis',(0.,0.,1.));
#1329=DIRECTION('ref_axis',(-1.,0.,0.));
#1330=DIRECTION('',(0.,-1.,0.));
#1331=DIRECTION('center_axis',(1.,0.,0.));
#1332=DIRECTION('ref_axis',(0.,0.,1.));
#1333=DIRECTION('',(0.,-1.,0.));
#1334=DIRECTION('center_axis',(0.,0.,-1.));
#1335=DIRECTION('ref_axis',(1.,0.,0.));
#1336=CARTESIAN_POINT('',(0.,0.,0.));
#1337=CARTESIAN_POINT('Origin',(-35.,2.,-85.));
#1338=CARTESIAN_POINT('',(35.,1.001,-85.));
#1339=CARTESIAN_POINT('',(-35.,1.001,-85.));
#1340=CARTESIAN_POINT('',(17.5,1.001,-85.));
#1341=CARTESIAN_POINT('',(-35.,1.,-85.));
#1342=CARTESIAN_POINT('',(-35.,2.,-85.));
#1343=CARTESIAN_POINT('',(35.,1.,-85.));
#1344=CARTESIAN_POINT('',(17.5,1.,-85.));
#1345=CARTESIAN_POINT('',(35.,2.,-85.));
#1346=CARTESIAN_POINT('Origin',(35.,2.,-85.));
#1347=CARTESIAN_POINT('',(35.,1.001,85.));
#1348=CARTESIAN_POINT('',(35.,1.001,42.5));
#1349=CARTESIAN_POINT('',(35.,1.,85.));
#1350=CARTESIAN_POINT('',(35.,1.,42.5));
#1351=CARTESIAN_POINT('',(35.,2.,85.));
#1352=CARTESIAN_POINT('Origin',(35.,2.,85.));
#1353=CARTESIAN_POINT('',(-35.,1.001,85.));
#1354=CARTESIAN_POINT('',(-17.5,1.001,85.));
#1355=CARTESIAN_POINT('',(-35.,1.,85.));
#1356=CARTESIAN_POINT('',(-17.5,1.,85.));
#1357=CARTESIAN_POINT('',(-35.,2.,85.));
#1358=CARTESIAN_POINT('Origin',(-35.,2.,85.));
#1359=CARTESIAN_POINT('',(-35.,1.001,-42.5));
#1360=CARTESIAN_POINT('',(-35.,0.,85.));
#1361=CARTESIAN_POINT('',(-35.,1.,85.));
#1362=CARTESIAN_POINT('',(-35.,0.,-85.));
#1363=CARTESIAN_POINT('',(-35.,0.,42.5));
#1364=CARTESIAN_POINT('',(-35.,1.,-85.));
#1365=CARTESIAN_POINT('Origin',(35.,0.,-85.));
#1366=CARTESIAN_POINT('',(-37.,0.,-85.));
#1367=CARTESIAN_POINT('',(35.,0.,-85.));
#1368=CARTESIAN_POINT('',(-37.,1.,-85.));
#1369=CARTESIAN_POINT('',(-37.,0.,-85.));
#1370=CARTESIAN_POINT('',(17.5,1.,-85.));
#1371=CARTESIAN_POINT('Origin',(-35.,0.,85.));
#1372=CARTESIAN_POINT('',(-37.,1.,85.));
#1373=CARTESIAN_POINT('',(-17.5,1.,85.));
#1374=CARTESIAN_POINT('',(-37.,0.,85.));
#1375=CARTESIAN_POINT('',(-37.,0.,85.));
#1376=CARTESIAN_POINT('',(-37.,0.,85.));
#1377=CARTESIAN_POINT('Origin',(0.,0.,0.));
#1378=CARTESIAN_POINT('',(-37.,0.,-85.));
#1379=CARTESIAN_POINT('Origin',(44.,8.,-89.2524741035697));
#1380=CARTESIAN_POINT('',(39.2524741035686,0.,-89.2524741035697));
#1381=CARTESIAN_POINT('',(-39.2524741035696,0.,-89.2524741035699));
#1382=CARTESIAN_POINT('',(44.,0.,-89.2524741035697));
#1383=CARTESIAN_POINT('',(-42.1161967285485,0.530120969708828,-92.1161967285485));
#1384=CARTESIAN_POINT('Origin',(-39.2524741035696,8.00000000000007,-89.2524741035699));
#1385=CARTESIAN_POINT('',(42.1161967285475,0.530120969708436,-92.1161967285476));
#1386=CARTESIAN_POINT('',(44.,0.53012096970883,-92.1161967285486));
#1387=CARTESIAN_POINT('Origin',(39.2524741035686,8.00000000000001,-89.2524741035697));
#1388=CARTESIAN_POINT('Origin',(39.2524741035696,8.,94.));
#1389=CARTESIAN_POINT('',(42.1161967285485,0.530120969708818,92.1161967285485));
#1390=CARTESIAN_POINT('',(42.1161967285485,0.530120969708826,94.));
#1391=CARTESIAN_POINT('',(39.2524741035696,0.,89.2524741035696));
#1392=CARTESIAN_POINT('Origin',(39.2524741035696,7.99999999999999,89.2524741035696));
#1393=CARTESIAN_POINT('',(39.2524741035696,0.,94.));
#1394=CARTESIAN_POINT('Origin',(-4.44089209850063E-15,0.,-2.66453525910038E-14));
#1395=CARTESIAN_POINT('',(-39.2524741035696,0.,89.2524741035696));
#1396=CARTESIAN_POINT('',(-44.,0.,89.2524741035696));
#1397=CARTESIAN_POINT('',(-39.2524741035696,0.,-94.));
#1398=CARTESIAN_POINT('',(38.9999999999999,0.,-89.));
#1399=CARTESIAN_POINT('',(-39.,0.,-89.));
#1400=CARTESIAN_POINT('',(41.,0.,-89.));
#1401=CARTESIAN_POINT('',(-39.,0.,88.9999999999999));
#1402=CARTESIAN_POINT('',(-39.,0.,-89.));
#1403=CARTESIAN_POINT('',(38.9999999999999,0.,88.9999999999999));
#1404=CARTESIAN_POINT('',(-41.,0.,88.9999999999999));
#1405=CARTESIAN_POINT('',(38.9999999999999,0.,91.));
#1406=CARTESIAN_POINT('Origin',(-44.,8.,89.2524741035696));
#1407=CARTESIAN_POINT('',(-42.1161967285485,0.530120969708826,92.1161967285485));
#1408=CARTESIAN_POINT('',(-44.,0.530120969708825,92.1161967285485));
#1409=CARTESIAN_POINT('Origin',(-39.2524741035696,8.,89.2524741035696));
#1410=CARTESIAN_POINT('Origin',(-39.2524741035696,8.,-94.));
#1411=CARTESIAN_POINT('',(-42.1161967285485,0.530120969708824,-94.));
#1412=CARTESIAN_POINT('Origin',(44.,-6.93975806058234,-94.9799193535275));
#1413=CARTESIAN_POINT('',(-44.,1.,-94.));
#1414=CARTESIAN_POINT('Origin',(-44.9799193535274,-6.93975806058235,-94.9799193535277));
#1415=CARTESIAN_POINT('',(44.,1.,-94.));
#1416=CARTESIAN_POINT('',(44.,1.,-94.));
#1417=CARTESIAN_POINT('Origin',(44.9799193535264,-6.93975806058234,-94.9799193535275));
#1418=CARTESIAN_POINT('Origin',(-44.9799193535274,-6.93975806058235,-94.));
#1419=CARTESIAN_POINT('',(-44.,1.,94.));
#1420=CARTESIAN_POINT('Origin',(-44.9799193535274,-6.93975806058235,94.9799193535274));
#1421=CARTESIAN_POINT('',(-44.,1.,-94.));
#1422=CARTESIAN_POINT('Origin',(-44.,-6.93975806058235,94.9799193535274));
#1423=CARTESIAN_POINT('',(44.,1.,94.));
#1424=CARTESIAN_POINT('Origin',(44.9799193535274,-6.93975806058235,94.9799193535274));
#1425=CARTESIAN_POINT('',(-44.,1.,94.));
#1426=CARTESIAN_POINT('Origin',(44.9799193535274,-6.93975806058235,94.));
#1427=CARTESIAN_POINT('',(44.,1.,94.));
#1428=CARTESIAN_POINT('Origin',(0.,1.001,0.));
#1429=CARTESIAN_POINT('',(44.,1.001,94.));
#1430=CARTESIAN_POINT('',(44.,1.001,-94.));
#1431=CARTESIAN_POINT('',(44.,1.001,94.));
#1432=CARTESIAN_POINT('',(-44.,1.001,-94.));
#1433=CARTESIAN_POINT('',(44.,1.001,-94.));
#1434=CARTESIAN_POINT('',(-44.,1.001,94.));
#1435=CARTESIAN_POINT('',(-44.,1.001,-94.));
#1436=CARTESIAN_POINT('',(-44.,1.001,94.));
#1437=CARTESIAN_POINT('',(-38.95,1.001,-88.95));
#1438=CARTESIAN_POINT('',(-38.95,1.001,88.95));
#1439=CARTESIAN_POINT('',(-38.95,1.001,-44.475));
#1440=CARTESIAN_POINT('',(38.9499999999999,1.001,-88.95));
#1441=CARTESIAN_POINT('',(19.475,1.001,-88.95));
#1442=CARTESIAN_POINT('',(38.9499999999999,1.001,88.95));
#1443=CARTESIAN_POINT('',(38.9499999999999,1.001,44.475));
#1444=CARTESIAN_POINT('',(37.0499999999999,1.001,88.95));
#1445=CARTESIAN_POINT('',(18.525,1.001,88.95));
#1446=CARTESIAN_POINT('',(37.0499999999999,1.001,-87.05));
#1447=CARTESIAN_POINT('',(37.0499999999999,1.001,-43.525));
#1448=CARTESIAN_POINT('',(-37.05,1.001,-87.05));
#1449=CARTESIAN_POINT('',(-18.525,1.001,-87.05));
#1450=CARTESIAN_POINT('',(-37.05,1.001,87.05));
#1451=CARTESIAN_POINT('',(-37.05,1.001,43.525));
#1452=CARTESIAN_POINT('',(36.9999999999999,1.001,87.05));
#1453=CARTESIAN_POINT('',(18.5,1.001,87.05));
#1454=CARTESIAN_POINT('',(36.9999999999999,1.001,88.95));
#1455=CARTESIAN_POINT('',(36.9999999999999,1.001,44.475));
#1456=CARTESIAN_POINT('',(-19.475,1.001,88.95));
#1457=CARTESIAN_POINT('Origin',(0.,1.,0.));
#1458=CARTESIAN_POINT('',(-39.,1.,88.9999999999999));
#1459=CARTESIAN_POINT('',(-39.,1.,-89.));
#1460=CARTESIAN_POINT('',(-39.,1.,-89.));
#1461=CARTESIAN_POINT('',(38.9999999999999,1.,-89.));
#1462=CARTESIAN_POINT('',(41.,1.,-89.));
#1463=CARTESIAN_POINT('',(38.9999999999999,1.,88.9999999999999));
#1464=CARTESIAN_POINT('',(38.9999999999999,1.,91.));
#1465=CARTESIAN_POINT('',(-41.,1.,88.9999999999999));
#1466=CARTESIAN_POINT('',(-37.,1.,-85.));
#1467=CARTESIAN_POINT('',(-38.95,1.,88.95));
#1468=CARTESIAN_POINT('',(-38.95,1.,-88.95));
#1469=CARTESIAN_POINT('',(-38.95,1.,-44.475));
#1470=CARTESIAN_POINT('',(36.9999999999999,1.,88.95));
#1471=CARTESIAN_POINT('',(-19.475,1.,88.95));
#1472=CARTESIAN_POINT('',(36.9999999999999,1.,87.05));
#1473=CARTESIAN_POINT('',(36.9999999999999,1.,44.475));
#1474=CARTESIAN_POINT('',(-37.05,1.,87.05));
#1475=CARTESIAN_POINT('',(18.5,1.,87.05));
#1476=CARTESIAN_POINT('',(-37.05,1.,-87.05));
#1477=CARTESIAN_POINT('',(-37.05,1.,43.525));
#1478=CARTESIAN_POINT('',(37.0499999999999,1.,-87.05));
#1479=CARTESIAN_POINT('',(-18.525,1.,-87.05));
#1480=CARTESIAN_POINT('',(37.0499999999999,1.,88.95));
#1481=CARTESIAN_POINT('',(37.0499999999999,1.,-43.525));
#1482=CARTESIAN_POINT('',(38.9499999999999,1.,88.95));
#1483=CARTESIAN_POINT('',(18.525,1.,88.95));
#1484=CARTESIAN_POINT('',(38.9499999999999,1.,-88.95));
#1485=CARTESIAN_POINT('',(38.9499999999999,1.,44.475));
#1486=CARTESIAN_POINT('',(19.475,1.,-88.95));
#1487=CARTESIAN_POINT('Origin',(-44.,1.,94.));
#1488=CARTESIAN_POINT('',(44.,1.,94.));
#1489=CARTESIAN_POINT('',(-44.,1.,94.));
#1490=CARTESIAN_POINT('Origin',(-44.,1.,-94.));
#1491=CARTESIAN_POINT('',(-44.,1.,-94.));
#1492=CARTESIAN_POINT('Origin',(44.,1.,-94.));
#1493=CARTESIAN_POINT('',(44.,1.,-94.));
#1494=CARTESIAN_POINT('Origin',(44.,1.,94.));
#1495=CARTESIAN_POINT('Origin',(-37.,0.,-85.));
#1496=CARTESIAN_POINT('Origin',(-37.05,0.,-87.05));
#1497=CARTESIAN_POINT('',(-37.05,0.,-87.05));
#1498=CARTESIAN_POINT('',(-37.05,0.,-87.05));
#1499=CARTESIAN_POINT('',(37.0499999999999,0.,-87.05));
#1500=CARTESIAN_POINT('',(-39.,0.,-87.05));
#1501=CARTESIAN_POINT('',(37.0499999999999,0.,-87.05));
#1502=CARTESIAN_POINT('Origin',(-37.05,0.,-87.05));
#1503=CARTESIAN_POINT('',(37.0499999999999,2.5,-87.05));
#1504=CARTESIAN_POINT('',(37.0499999999999,0.,-87.05));
#1505=CARTESIAN_POINT('',(-37.05,2.5,-87.05));
#1506=CARTESIAN_POINT('',(-39.,2.5,-87.05));
#1507=CARTESIAN_POINT('',(-37.05,0.,-87.05));
#1508=CARTESIAN_POINT('Origin',(37.0499999999999,0.,-87.05));
#1509=CARTESIAN_POINT('',(37.0499999999999,0.,88.95));
#1510=CARTESIAN_POINT('',(37.0499999999999,0.,-89.));
#1511=CARTESIAN_POINT('',(37.0499999999999,0.,88.95));
#1512=CARTESIAN_POINT('Origin',(37.0499999999999,0.,-87.05));
#1513=CARTESIAN_POINT('',(37.0499999999999,2.5,88.95));
#1514=CARTESIAN_POINT('',(37.0499999999999,0.,88.95));
#1515=CARTESIAN_POINT('',(37.0499999999999,2.5,-89.));
#1516=CARTESIAN_POINT('Origin',(-37.05,0.,87.05));
#1517=CARTESIAN_POINT('',(-37.05,0.,87.05));
#1518=CARTESIAN_POINT('',(-37.05,0.,87.05));
#1519=CARTESIAN_POINT('',(-37.05,0.,88.95));
#1520=CARTESIAN_POINT('Origin',(37.0499999999999,0.,88.95));
#1521=CARTESIAN_POINT('',(38.9499999999999,0.,88.95));
#1522=CARTESIAN_POINT('',(-39.,0.,88.95));
#1523=CARTESIAN_POINT('',(38.9499999999999,0.,88.95));
#1524=CARTESIAN_POINT('Origin',(37.0499999999999,0.,88.95));
#1525=CARTESIAN_POINT('',(38.9499999999999,2.5,88.95));
#1526=CARTESIAN_POINT('',(38.9499999999999,0.,88.95));
#1527=CARTESIAN_POINT('',(-39.,2.5,88.95));
#1528=CARTESIAN_POINT('Origin',(36.9999999999999,0.,87.05));
#1529=CARTESIAN_POINT('',(36.9999999999999,0.,87.05));
#1530=CARTESIAN_POINT('',(36.9999999999999,0.,87.05));
#1531=CARTESIAN_POINT('',(38.9999999999999,0.,87.05));
#1532=CARTESIAN_POINT('Origin',(38.9499999999999,0.,88.95));
#1533=CARTESIAN_POINT('',(38.9499999999999,0.,-88.95));
#1534=CARTESIAN_POINT('',(38.9499999999999,0.,88.95));
#1535=CARTESIAN_POINT('',(38.9499999999999,0.,-88.95));
#1536=CARTESIAN_POINT('Origin',(38.9499999999999,0.,88.95));
#1537=CARTESIAN_POINT('',(38.9499999999999,2.5,-88.95));
#1538=CARTESIAN_POINT('',(38.9499999999999,0.,-88.95));
#1539=CARTESIAN_POINT('',(38.9499999999999,2.5,88.95));
#1540=CARTESIAN_POINT('Origin',(36.9999999999999,0.,88.95));
#1541=CARTESIAN_POINT('',(36.9999999999999,0.,88.95));
#1542=CARTESIAN_POINT('',(36.9999999999999,0.,88.95));
#1543=CARTESIAN_POINT('',(36.9999999999999,0.,89.));
#1544=CARTESIAN_POINT('Origin',(38.9499999999999,0.,-88.95));
#1545=CARTESIAN_POINT('',(-38.95,0.,-88.95));
#1546=CARTESIAN_POINT('',(38.9499999999999,0.,-88.95));
#1547=CARTESIAN_POINT('',(-38.95,0.,-88.95));
#1548=CARTESIAN_POINT('Origin',(38.9499999999999,0.,-88.95));
#1549=CARTESIAN_POINT('',(-38.95,2.5,-88.95));
#1550=CARTESIAN_POINT('',(-38.95,0.,-88.95));
#1551=CARTESIAN_POINT('',(38.9499999999999,2.5,-88.95));
#1552=CARTESIAN_POINT('Origin',(-38.95,0.,88.95));
#1553=CARTESIAN_POINT('',(-38.95,0.,88.95));
#1554=CARTESIAN_POINT('',(-38.95,0.,88.95));
#1555=CARTESIAN_POINT('',(-39.,0.,88.95));
#1556=CARTESIAN_POINT('Origin',(-38.95,0.,-88.95));
#1557=CARTESIAN_POINT('',(-38.95,0.,-88.95));
#1558=CARTESIAN_POINT('Origin',(-38.95,0.,-88.95));
#1559=CARTESIAN_POINT('',(-38.95,2.5,88.95));
#1560=CARTESIAN_POINT('',(-38.95,0.,88.95));
#1561=CARTESIAN_POINT('',(-38.95,2.5,-88.95));
#1562=CARTESIAN_POINT('Origin',(-37.05,0.,87.05));
#1563=CARTESIAN_POINT('',(-37.05,2.5,87.05));
#1564=CARTESIAN_POINT('',(-37.05,2.5,88.95));
#1565=CARTESIAN_POINT('',(-37.05,0.,87.05));
#1566=CARTESIAN_POINT('Origin',(36.9999999999999,0.,87.05));
#1567=CARTESIAN_POINT('',(36.9999999999999,2.5,87.05));
#1568=CARTESIAN_POINT('',(38.9999999999999,2.5,87.05));
#1569=CARTESIAN_POINT('',(36.9999999999999,0.,87.05));
#1570=CARTESIAN_POINT('Origin',(36.9999999999999,0.,88.95));
#1571=CARTESIAN_POINT('',(36.9999999999999,2.5,88.95));
#1572=CARTESIAN_POINT('',(36.9999999999999,2.5,89.));
#1573=CARTESIAN_POINT('',(36.9999999999999,0.,88.95));
#1574=CARTESIAN_POINT('Origin',(-38.95,0.,88.95));
#1575=CARTESIAN_POINT('',(-39.,2.5,88.95));
#1576=CARTESIAN_POINT('Origin',(-3.99680288865056E-14,2.5,-1.77635683940025E-14));
#1577=CARTESIAN_POINT('Origin',(-3.99680288865056E-14,0.,-1.77635683940025E-14));
#1578=CARTESIAN_POINT('Origin',(-39.,0.,88.9999999999999));
#1579=CARTESIAN_POINT('',(-39.,0.,-89.));
#1580=CARTESIAN_POINT('',(-39.,0.,88.9999999999999));
#1581=CARTESIAN_POINT('Origin',(38.9999999999999,0.,88.9999999999999));
#1582=CARTESIAN_POINT('',(38.9999999999999,0.,88.9999999999999));
#1583=CARTESIAN_POINT('Origin',(38.9999999999999,0.,-89.));
#1584=CARTESIAN_POINT('',(38.9999999999999,0.,-89.));
#1585=CARTESIAN_POINT('Origin',(-39.,0.,-89.));
#1586=CARTESIAN_POINT('Origin',(0.,0.,0.));
#1587=CARTESIAN_POINT('',(34.75,0.,84.75));
#1588=CARTESIAN_POINT('',(-34.75,0.,84.75));
#1589=CARTESIAN_POINT('',(-17.375,0.,84.75));
#1590=CARTESIAN_POINT('',(-34.75,0.,-84.75));
#1591=CARTESIAN_POINT('',(-34.75,0.,-42.375));
#1592=CARTESIAN_POINT('',(34.75,0.,-84.75));
#1593=CARTESIAN_POINT('',(17.375,0.,-84.75));
#1594=CARTESIAN_POINT('',(34.75,0.,42.375));
#1595=CARTESIAN_POINT('Origin',(0.,2.,0.));
#1596=CARTESIAN_POINT('',(-34.75,2.,84.75));
#1597=CARTESIAN_POINT('',(34.75,2.,84.75));
#1598=CARTESIAN_POINT('',(-17.375,2.,84.75));
#1599=CARTESIAN_POINT('',(34.75,2.,-84.75));
#1600=CARTESIAN_POINT('',(34.75,2.,42.375));
#1601=CARTESIAN_POINT('',(-34.75,2.,-84.75));
#1602=CARTESIAN_POINT('',(17.375,2.,-84.75));
#1603=CARTESIAN_POINT('',(-34.75,2.,-42.375));
#1604=CARTESIAN_POINT('Origin',(34.75,2.,84.75));
#1605=CARTESIAN_POINT('',(34.75,2.,84.75));
#1606=CARTESIAN_POINT('',(34.75,2.,-84.75));
#1607=CARTESIAN_POINT('Origin',(34.75,2.,-84.75));
#1608=CARTESIAN_POINT('',(-34.75,2.,-84.75));
#1609=CARTESIAN_POINT('Origin',(-34.75,2.,-84.75));
#1610=CARTESIAN_POINT('',(-34.75,2.,84.75));
#1611=CARTESIAN_POINT('Origin',(-34.75,2.,84.75));
#1612=UNCERTAINTY_MEASURE_WITH_UNIT(LENGTH_MEASURE(0.01),#1616,
'DISTANCE_ACCURACY_VALUE',
'Maximum model space distance between geometric entities at asserted c
onnectivities');
#1613=UNCERTAINTY_MEASURE_WITH_UNIT(LENGTH_MEASURE(0.01),#1616,
'DISTANCE_ACCURACY_VALUE',
'Maximum model space distance between geometric entities at asserted c
onnectivities');
#1614=(
GEOMETRIC_REPRESENTATION_CONTEXT(3)
GLOBAL_UNCERTAINTY_ASSIGNED_CONTEXT((#1612))
GLOBAL_UNIT_ASSIGNED_CONTEXT((#1616,#1618,#1619))
REPRESENTATION_CONTEXT('','3D')
);
#1615=(
GEOMETRIC_REPRESENTATION_CONTEXT(3)
GLOBAL_UNCERTAINTY_ASSIGNED_CONTEXT((#1613))
GLOBAL_UNIT_ASSIGNED_CONTEXT((#1616,#1618,#1619))
REPRESENTATION_CONTEXT('','3D')
);
#1616=(
LENGTH_UNIT()
NAMED_UNIT(*)
SI_UNIT(.MILLI.,.METRE.)
);
#1617=(
LENGTH_UNIT()
NAMED_UNIT(*)
SI_UNIT(.CENTI.,.METRE.)
);
#1618=(
NAMED_UNIT(*)
PLANE_ANGLE_UNIT()
SI_UNIT($,.RADIAN.)
);
#1619=(
NAMED_UNIT(*)
SI_UNIT($,.STERADIAN.)
SOLID_ANGLE_UNIT()
);
#1620=SHAPE_DEFINITION_REPRESENTATION(#1621,#1622);
#1621=PRODUCT_DEFINITION_SHAPE('',$,#1624);
#1622=SHAPE_REPRESENTATION('',(#1018),#1614);
#1623=PRODUCT_DEFINITION_CONTEXT('part definition',#1628,'design');
#1624=PRODUCT_DEFINITION('big door slotty with toly rinces  .5',
'big door slotty with toly rinces  .5',#1625,#1623);
#1625=PRODUCT_DEFINITION_FORMATION('',$,#1630);
#1626=PRODUCT_RELATED_PRODUCT_CATEGORY(
'big door slotty with toly rinces  .5',
'big door slotty with toly rinces  .5',(#1630));
#1627=APPLICATION_PROTOCOL_DEFINITION('international standard',
'automotive_design',2009,#1628);
#1628=APPLICATION_CONTEXT(
'Core Data for Automotive Mechanical Design Process');
#1629=PRODUCT_CONTEXT('part definition',#1628,'mechanical');
#1630=PRODUCT('big door slotty with toly rinces  .5',
'big door slotty with toly rinces  .5',$,(#1629));
#1631=PRESENTATION_STYLE_ASSIGNMENT((#1632));
#1632=SURFACE_STYLE_USAGE(.BOTH.,#1635);
#1633=SURFACE_STYLE_RENDERING_WITH_PROPERTIES($,#1639,(#1634));
#1634=SURFACE_STYLE_TRANSPARENT(0.);
#1635=SURFACE_SIDE_STYLE('',(#1636,#1633));
#1636=SURFACE_STYLE_FILL_AREA(#1637);
#1637=FILL_AREA_STYLE('',(#1638));
#1638=FILL_AREA_STYLE_COLOUR('',#1639);
#1639=COLOUR_RGB('',0.749019607843137,0.749019607843137,0.749019607843137);
ENDSEC;
END-ISO-10303-21;
