ISO-10303-21;
HEADER;
/* Generated by software containing ST-Developer
 * from STEP Tools, Inc. (www.steptools.com) 
 */

FILE_DESCRIPTION(
/* description */ (''),
/* implementation_level */ '2;1');

FILE_NAME(
/* name */ 'BULK HEAD with half holes.stp',
/* time_stamp */ '2026-05-22T23:05:14+12:00',
/* author */ ('Jake'),
/* organization */ (''),
/* preprocessor_version */ 'ST-DEVELOPER v20.1',
/* originating_system */ 'Autodesk Inventor 2026',
/* authorisation */ '');

FILE_SCHEMA (('AUTOMOTIVE_DESIGN { 1 0 10303 214 3 1 1 }'));
ENDSEC;

DATA;
#10=MECHANICAL_DESIGN_GEOMETRIC_PRESENTATION_REPRESENTATION('',(#17),#1448);
#11=GEOMETRICALLY_BOUNDED_WIREFRAME_SHAPE_REPRESENTATION('',(#12,#13),#1447);
#12=GEOMETRIC_CURVE_SET('Sketch5',(#1443));
#13=GEOMETRIC_CURVE_SET('Sketch6',(#1444));
#14=SHAPE_REPRESENTATION_RELATIONSHIP('SRR','None',#1455,#16);
#15=SHAPE_REPRESENTATION_RELATIONSHIP('SRR','None',#1455,#11);
#16=ADVANCED_BREP_SHAPE_REPRESENTATION('',(#18),#1447);
#17=STYLED_ITEM('',(#1464),#18);
#18=MANIFOLD_SOLID_BREP('Solid1',#829);
#19=FACE_BOUND('',#104,.T.);
#20=FACE_BOUND('',#111,.T.);
#21=FACE_BOUND('',#129,.T.);
#22=PLANE('',#885);
#23=PLANE('',#886);
#24=PLANE('',#887);
#25=PLANE('',#888);
#26=PLANE('',#892);
#27=PLANE('',#893);
#28=PLANE('',#897);
#29=PLANE('',#907);
#30=PLANE('',#910);
#31=PLANE('',#913);
#32=PLANE('',#922);
#33=PLANE('',#924);
#34=PLANE('',#926);
#35=PLANE('',#928);
#36=PLANE('',#932);
#37=PLANE('',#935);
#38=PLANE('',#938);
#39=PLANE('',#941);
#40=PLANE('',#942);
#41=FACE_OUTER_BOUND('',#84,.T.);
#42=FACE_OUTER_BOUND('',#85,.T.);
#43=FACE_OUTER_BOUND('',#86,.T.);
#44=FACE_OUTER_BOUND('',#87,.T.);
#45=FACE_OUTER_BOUND('',#88,.T.);
#46=FACE_OUTER_BOUND('',#89,.T.);
#47=FACE_OUTER_BOUND('',#90,.T.);
#48=FACE_OUTER_BOUND('',#91,.T.);
#49=FACE_OUTER_BOUND('',#92,.T.);
#50=FACE_OUTER_BOUND('',#93,.T.);
#51=FACE_OUTER_BOUND('',#94,.T.);
#52=FACE_OUTER_BOUND('',#95,.T.);
#53=FACE_OUTER_BOUND('',#96,.T.);
#54=FACE_OUTER_BOUND('',#97,.T.);
#55=FACE_OUTER_BOUND('',#98,.T.);
#56=FACE_OUTER_BOUND('',#99,.T.);
#57=FACE_OUTER_BOUND('',#100,.T.);
#58=FACE_OUTER_BOUND('',#101,.T.);
#59=FACE_OUTER_BOUND('',#102,.T.);
#60=FACE_OUTER_BOUND('',#103,.T.);
#61=FACE_OUTER_BOUND('',#105,.T.);
#62=FACE_OUTER_BOUND('',#106,.T.);
#63=FACE_OUTER_BOUND('',#107,.T.);
#64=FACE_OUTER_BOUND('',#108,.T.);
#65=FACE_OUTER_BOUND('',#109,.T.);
#66=FACE_OUTER_BOUND('',#110,.T.);
#67=FACE_OUTER_BOUND('',#112,.T.);
#68=FACE_OUTER_BOUND('',#113,.T.);
#69=FACE_OUTER_BOUND('',#114,.T.);
#70=FACE_OUTER_BOUND('',#115,.T.);
#71=FACE_OUTER_BOUND('',#116,.T.);
#72=FACE_OUTER_BOUND('',#117,.T.);
#73=FACE_OUTER_BOUND('',#118,.T.);
#74=FACE_OUTER_BOUND('',#119,.T.);
#75=FACE_OUTER_BOUND('',#120,.T.);
#76=FACE_OUTER_BOUND('',#121,.T.);
#77=FACE_OUTER_BOUND('',#122,.T.);
#78=FACE_OUTER_BOUND('',#123,.T.);
#79=FACE_OUTER_BOUND('',#124,.T.);
#80=FACE_OUTER_BOUND('',#125,.T.);
#81=FACE_OUTER_BOUND('',#126,.T.);
#82=FACE_OUTER_BOUND('',#127,.T.);
#83=FACE_OUTER_BOUND('',#128,.T.);
#84=EDGE_LOOP('',(#522,#523,#524,#525));
#85=EDGE_LOOP('',(#526,#527,#528,#529));
#86=EDGE_LOOP('',(#530,#531,#532,#533));
#87=EDGE_LOOP('',(#534,#535,#536,#537));
#88=EDGE_LOOP('',(#538,#539,#540,#541));
#89=EDGE_LOOP('',(#542,#543,#544,#545));
#90=EDGE_LOOP('',(#546,#547,#548,#549));
#91=EDGE_LOOP('',(#550,#551,#552,#553));
#92=EDGE_LOOP('',(#554,#555,#556,#557));
#93=EDGE_LOOP('',(#558,#559,#560,#561));
#94=EDGE_LOOP('',(#562,#563,#564,#565));
#95=EDGE_LOOP('',(#566,#567,#568,#569));
#96=EDGE_LOOP('',(#570,#571,#572,#573));
#97=EDGE_LOOP('',(#574,#575,#576,#577));
#98=EDGE_LOOP('',(#578,#579,#580,#581));
#99=EDGE_LOOP('',(#582,#583,#584,#585));
#100=EDGE_LOOP('',(#586,#587,#588,#589));
#101=EDGE_LOOP('',(#590,#591,#592,#593));
#102=EDGE_LOOP('',(#594,#595,#596,#597));
#103=EDGE_LOOP('',(#598,#599,#600,#601,#602,#603,#604,#605,#606,#607,#608,
#609,#610,#611,#612,#613,#614,#615,#616,#617,#618,#619,#620,#621,#622,#623,
#624,#625));
#104=EDGE_LOOP('',(#626,#627,#628,#629));
#105=EDGE_LOOP('',(#630,#631,#632,#633));
#106=EDGE_LOOP('',(#634,#635,#636,#637));
#107=EDGE_LOOP('',(#638,#639,#640,#641));
#108=EDGE_LOOP('',(#642,#643,#644,#645));
#109=EDGE_LOOP('',(#646,#647,#648,#649));
#110=EDGE_LOOP('',(#650,#651,#652,#653,#654,#655,#656,#657,#658,#659,#660,
#661,#662,#663,#664,#665,#666,#667,#668,#669,#670,#671,#672,#673,#674,#675,
#676,#677));
#111=EDGE_LOOP('',(#678,#679,#680,#681,#682,#683,#684,#685));
#112=EDGE_LOOP('',(#686,#687,#688,#689));
#113=EDGE_LOOP('',(#690,#691,#692,#693));
#114=EDGE_LOOP('',(#694,#695,#696,#697));
#115=EDGE_LOOP('',(#698,#699,#700,#701));
#116=EDGE_LOOP('',(#702,#703,#704,#705));
#117=EDGE_LOOP('',(#706,#707,#708,#709));
#118=EDGE_LOOP('',(#710,#711,#712,#713));
#119=EDGE_LOOP('',(#714,#715,#716,#717));
#120=EDGE_LOOP('',(#718,#719,#720,#721));
#121=EDGE_LOOP('',(#722,#723,#724,#725));
#122=EDGE_LOOP('',(#726,#727,#728,#729));
#123=EDGE_LOOP('',(#730,#731,#732,#733));
#124=EDGE_LOOP('',(#734,#735,#736,#737));
#125=EDGE_LOOP('',(#738,#739,#740,#741));
#126=EDGE_LOOP('',(#742,#743,#744,#745));
#127=EDGE_LOOP('',(#746,#747,#748,#749));
#128=EDGE_LOOP('',(#750,#751,#752,#753,#754,#755,#756,#757));
#129=EDGE_LOOP('',(#758,#759,#760,#761));
#130=CIRCLE('',#853,1.3);
#131=CIRCLE('',#854,1.3);
#132=CIRCLE('',#856,1.3);
#133=CIRCLE('',#857,1.3);
#134=CIRCLE('',#859,1.3);
#135=CIRCLE('',#860,1.3);
#136=CIRCLE('',#862,1.3);
#137=CIRCLE('',#863,1.3);
#138=CIRCLE('',#865,1.3);
#139=CIRCLE('',#866,1.3);
#140=CIRCLE('',#868,1.3);
#141=CIRCLE('',#869,1.3);
#142=CIRCLE('',#871,1.3);
#143=CIRCLE('',#872,1.3);
#144=CIRCLE('',#874,1.3);
#145=CIRCLE('',#875,1.3);
#146=CIRCLE('',#877,1.3);
#147=CIRCLE('',#878,1.3);
#148=CIRCLE('',#880,1.3);
#149=CIRCLE('',#881,1.3);
#150=CIRCLE('',#883,22.);
#151=CIRCLE('',#884,22.);
#152=CIRCLE('',#890,22.);
#153=CIRCLE('',#891,22.);
#154=CIRCLE('',#895,14.);
#155=CIRCLE('',#896,14.);
#156=CIRCLE('',#898,14.);
#157=CIRCLE('',#899,22.);
#158=CIRCLE('',#900,22.);
#159=CIRCLE('',#901,14.);
#160=CIRCLE('',#902,14.);
#161=CIRCLE('',#903,5.);
#162=CIRCLE('',#904,5.);
#163=CIRCLE('',#906,14.);
#164=CIRCLE('',#909,5.);
#165=CIRCLE('',#912,5.);
#166=CIRCLE('',#914,14.);
#167=CIRCLE('',#915,22.);
#168=CIRCLE('',#916,22.);
#169=CIRCLE('',#917,14.);
#170=CIRCLE('',#918,14.5);
#171=CIRCLE('',#919,7.5);
#172=CIRCLE('',#920,7.5);
#173=CIRCLE('',#921,14.5);
#174=CIRCLE('',#931,7.5);
#175=CIRCLE('',#934,7.5);
#176=CIRCLE('',#937,14.5);
#177=CIRCLE('',#940,14.5);
#178=LINE('',#1203,#250);
#179=LINE('',#1207,#251);
#180=LINE('',#1212,#252);
#181=LINE('',#1216,#253);
#182=LINE('',#1221,#254);
#183=LINE('',#1225,#255);
#184=LINE('',#1230,#256);
#185=LINE('',#1234,#257);
#186=LINE('',#1239,#258);
#187=LINE('',#1243,#259);
#188=LINE('',#1248,#260);
#189=LINE('',#1252,#261);
#190=LINE('',#1257,#262);
#191=LINE('',#1261,#263);
#192=LINE('',#1266,#264);
#193=LINE('',#1270,#265);
#194=LINE('',#1275,#266);
#195=LINE('',#1279,#267);
#196=LINE('',#1284,#268);
#197=LINE('',#1288,#269);
#198=LINE('',#1294,#270);
#199=LINE('',#1298,#271);
#200=LINE('',#1300,#272);
#201=LINE('',#1301,#273);
#202=LINE('',#1304,#274);
#203=LINE('',#1306,#275);
#204=LINE('',#1307,#276);
#205=LINE('',#1310,#277);
#206=LINE('',#1312,#278);
#207=LINE('',#1313,#279);
#208=LINE('',#1315,#280);
#209=LINE('',#1316,#281);
#210=LINE('',#1321,#282);
#211=LINE('',#1325,#283);
#212=LINE('',#1327,#284);
#213=LINE('',#1328,#285);
#214=LINE('',#1330,#286);
#215=LINE('',#1331,#287);
#216=LINE('',#1336,#288);
#217=LINE('',#1340,#289);
#218=LINE('',#1342,#290);
#219=LINE('',#1344,#291);
#220=LINE('',#1348,#292);
#221=LINE('',#1351,#293);
#222=LINE('',#1355,#294);
#223=LINE('',#1360,#295);
#224=LINE('',#1364,#296);
#225=LINE('',#1365,#297);
#226=LINE('',#1366,#298);
#227=LINE('',#1370,#299);
#228=LINE('',#1373,#300);
#229=LINE('',#1374,#301);
#230=LINE('',#1378,#302);
#231=LINE('',#1380,#303);
#232=LINE('',#1382,#304);
#233=LINE('',#1384,#305);
#234=LINE('',#1390,#306);
#235=LINE('',#1394,#307);
#236=LINE('',#1398,#308);
#237=LINE('',#1401,#309);
#238=LINE('',#1412,#310);
#239=LINE('',#1415,#311);
#240=LINE('',#1418,#312);
#241=LINE('',#1419,#313);
#242=LINE('',#1422,#314);
#243=LINE('',#1426,#315);
#244=LINE('',#1427,#316);
#245=LINE('',#1430,#317);
#246=LINE('',#1434,#318);
#247=LINE('',#1435,#319);
#248=LINE('',#1438,#320);
#249=LINE('',#1441,#321);
#250=VECTOR('',#947,10.);
#251=VECTOR('',#950,10.);
#252=VECTOR('',#955,10.);
#253=VECTOR('',#958,10.);
#254=VECTOR('',#963,10.);
#255=VECTOR('',#966,10.);
#256=VECTOR('',#971,10.);
#257=VECTOR('',#974,10.);
#258=VECTOR('',#979,10.);
#259=VECTOR('',#982,10.);
#260=VECTOR('',#987,10.);
#261=VECTOR('',#990,10.);
#262=VECTOR('',#995,10.);
#263=VECTOR('',#998,10.);
#264=VECTOR('',#1003,10.);
#265=VECTOR('',#1006,10.);
#266=VECTOR('',#1011,10.);
#267=VECTOR('',#1014,10.);
#268=VECTOR('',#1019,10.);
#269=VECTOR('',#1022,10.);
#270=VECTOR('',#1029,10.);
#271=VECTOR('',#1034,10.);
#272=VECTOR('',#1035,10.);
#273=VECTOR('',#1036,10.);
#274=VECTOR('',#1039,10.);
#275=VECTOR('',#1040,10.);
#276=VECTOR('',#1041,10.);
#277=VECTOR('',#1044,10.);
#278=VECTOR('',#1045,10.);
#279=VECTOR('',#1046,10.);
#280=VECTOR('',#1049,10.);
#281=VECTOR('',#1050,10.);
#282=VECTOR('',#1055,10.);
#283=VECTOR('',#1060,10.);
#284=VECTOR('',#1061,10.);
#285=VECTOR('',#1062,10.);
#286=VECTOR('',#1065,10.);
#287=VECTOR('',#1066,10.);
#288=VECTOR('',#1071,10.);
#289=VECTOR('',#1078,10.);
#290=VECTOR('',#1081,10.);
#291=VECTOR('',#1084,10.);
#292=VECTOR('',#1089,10.);
#293=VECTOR('',#1090,10.);
#294=VECTOR('',#1093,10.);
#295=VECTOR('',#1100,10.);
#296=VECTOR('',#1103,10.);
#297=VECTOR('',#1104,10.);
#298=VECTOR('',#1105,10.);
#299=VECTOR('',#1110,10.);
#300=VECTOR('',#1113,10.);
#301=VECTOR('',#1114,10.);
#302=VECTOR('',#1121,10.);
#303=VECTOR('',#1124,10.);
#304=VECTOR('',#1127,10.);
#305=VECTOR('',#1130,10.);
#306=VECTOR('',#1135,10.);
#307=VECTOR('',#1138,10.);
#308=VECTOR('',#1141,10.);
#309=VECTOR('',#1144,10.);
#310=VECTOR('',#1163,10.);
#311=VECTOR('',#1166,10.);
#312=VECTOR('',#1169,10.);
#313=VECTOR('',#1170,10.);
#314=VECTOR('',#1173,10.);
#315=VECTOR('',#1178,10.);
#316=VECTOR('',#1179,10.);
#317=VECTOR('',#1182,10.);
#318=VECTOR('',#1187,10.);
#319=VECTOR('',#1188,10.);
#320=VECTOR('',#1191,10.);
#321=VECTOR('',#1196,10.);
#322=VERTEX_POINT('',#1201);
#323=VERTEX_POINT('',#1202);
#324=VERTEX_POINT('',#1204);
#325=VERTEX_POINT('',#1206);
#326=VERTEX_POINT('',#1210);
#327=VERTEX_POINT('',#1211);
#328=VERTEX_POINT('',#1213);
#329=VERTEX_POINT('',#1215);
#330=VERTEX_POINT('',#1219);
#331=VERTEX_POINT('',#1220);
#332=VERTEX_POINT('',#1222);
#333=VERTEX_POINT('',#1224);
#334=VERTEX_POINT('',#1228);
#335=VERTEX_POINT('',#1229);
#336=VERTEX_POINT('',#1231);
#337=VERTEX_POINT('',#1233);
#338=VERTEX_POINT('',#1237);
#339=VERTEX_POINT('',#1238);
#340=VERTEX_POINT('',#1240);
#341=VERTEX_POINT('',#1242);
#342=VERTEX_POINT('',#1246);
#343=VERTEX_POINT('',#1247);
#344=VERTEX_POINT('',#1249);
#345=VERTEX_POINT('',#1251);
#346=VERTEX_POINT('',#1255);
#347=VERTEX_POINT('',#1256);
#348=VERTEX_POINT('',#1258);
#349=VERTEX_POINT('',#1260);
#350=VERTEX_POINT('',#1264);
#351=VERTEX_POINT('',#1265);
#352=VERTEX_POINT('',#1267);
#353=VERTEX_POINT('',#1269);
#354=VERTEX_POINT('',#1273);
#355=VERTEX_POINT('',#1274);
#356=VERTEX_POINT('',#1276);
#357=VERTEX_POINT('',#1278);
#358=VERTEX_POINT('',#1282);
#359=VERTEX_POINT('',#1283);
#360=VERTEX_POINT('',#1285);
#361=VERTEX_POINT('',#1287);
#362=VERTEX_POINT('',#1291);
#363=VERTEX_POINT('',#1293);
#364=VERTEX_POINT('',#1297);
#365=VERTEX_POINT('',#1299);
#366=VERTEX_POINT('',#1303);
#367=VERTEX_POINT('',#1305);
#368=VERTEX_POINT('',#1309);
#369=VERTEX_POINT('',#1311);
#370=VERTEX_POINT('',#1318);
#371=VERTEX_POINT('',#1320);
#372=VERTEX_POINT('',#1324);
#373=VERTEX_POINT('',#1326);
#374=VERTEX_POINT('',#1333);
#375=VERTEX_POINT('',#1335);
#376=VERTEX_POINT('',#1346);
#377=VERTEX_POINT('',#1349);
#378=VERTEX_POINT('',#1350);
#379=VERTEX_POINT('',#1352);
#380=VERTEX_POINT('',#1354);
#381=VERTEX_POINT('',#1358);
#382=VERTEX_POINT('',#1362);
#383=VERTEX_POINT('',#1363);
#384=VERTEX_POINT('',#1368);
#385=VERTEX_POINT('',#1372);
#386=VERTEX_POINT('',#1386);
#387=VERTEX_POINT('',#1387);
#388=VERTEX_POINT('',#1389);
#389=VERTEX_POINT('',#1391);
#390=VERTEX_POINT('',#1393);
#391=VERTEX_POINT('',#1395);
#392=VERTEX_POINT('',#1397);
#393=VERTEX_POINT('',#1399);
#394=VERTEX_POINT('',#1411);
#395=VERTEX_POINT('',#1413);
#396=VERTEX_POINT('',#1417);
#397=VERTEX_POINT('',#1421);
#398=VERTEX_POINT('',#1425);
#399=VERTEX_POINT('',#1429);
#400=VERTEX_POINT('',#1433);
#401=VERTEX_POINT('',#1437);
#402=EDGE_CURVE('',#322,#323,#178,.T.);
#403=EDGE_CURVE('',#324,#322,#130,.T.);
#404=EDGE_CURVE('',#325,#324,#179,.T.);
#405=EDGE_CURVE('',#323,#325,#131,.T.);
#406=EDGE_CURVE('',#326,#327,#180,.T.);
#407=EDGE_CURVE('',#328,#326,#132,.T.);
#408=EDGE_CURVE('',#329,#328,#181,.T.);
#409=EDGE_CURVE('',#327,#329,#133,.T.);
#410=EDGE_CURVE('',#330,#331,#182,.T.);
#411=EDGE_CURVE('',#332,#330,#134,.T.);
#412=EDGE_CURVE('',#333,#332,#183,.T.);
#413=EDGE_CURVE('',#331,#333,#135,.T.);
#414=EDGE_CURVE('',#334,#335,#184,.T.);
#415=EDGE_CURVE('',#336,#334,#136,.T.);
#416=EDGE_CURVE('',#337,#336,#185,.T.);
#417=EDGE_CURVE('',#335,#337,#137,.T.);
#418=EDGE_CURVE('',#338,#339,#186,.T.);
#419=EDGE_CURVE('',#340,#338,#138,.T.);
#420=EDGE_CURVE('',#341,#340,#187,.T.);
#421=EDGE_CURVE('',#339,#341,#139,.T.);
#422=EDGE_CURVE('',#342,#343,#188,.T.);
#423=EDGE_CURVE('',#344,#342,#140,.T.);
#424=EDGE_CURVE('',#345,#344,#189,.T.);
#425=EDGE_CURVE('',#343,#345,#141,.T.);
#426=EDGE_CURVE('',#346,#347,#190,.T.);
#427=EDGE_CURVE('',#348,#346,#142,.T.);
#428=EDGE_CURVE('',#349,#348,#191,.T.);
#429=EDGE_CURVE('',#347,#349,#143,.T.);
#430=EDGE_CURVE('',#350,#351,#192,.T.);
#431=EDGE_CURVE('',#352,#350,#144,.T.);
#432=EDGE_CURVE('',#353,#352,#193,.T.);
#433=EDGE_CURVE('',#351,#353,#145,.T.);
#434=EDGE_CURVE('',#354,#355,#194,.T.);
#435=EDGE_CURVE('',#356,#354,#146,.T.);
#436=EDGE_CURVE('',#357,#356,#195,.T.);
#437=EDGE_CURVE('',#355,#357,#147,.T.);
#438=EDGE_CURVE('',#358,#359,#196,.T.);
#439=EDGE_CURVE('',#360,#358,#148,.T.);
#440=EDGE_CURVE('',#361,#360,#197,.T.);
#441=EDGE_CURVE('',#359,#361,#149,.T.);
#442=EDGE_CURVE('',#328,#362,#150,.T.);
#443=EDGE_CURVE('',#362,#363,#198,.T.);
#444=EDGE_CURVE('',#329,#363,#151,.T.);
#445=EDGE_CURVE('',#336,#364,#199,.T.);
#446=EDGE_CURVE('',#364,#365,#200,.T.);
#447=EDGE_CURVE('',#337,#365,#201,.T.);
#448=EDGE_CURVE('',#340,#366,#202,.T.);
#449=EDGE_CURVE('',#366,#367,#203,.T.);
#450=EDGE_CURVE('',#341,#367,#204,.T.);
#451=EDGE_CURVE('',#344,#368,#205,.T.);
#452=EDGE_CURVE('',#368,#369,#206,.T.);
#453=EDGE_CURVE('',#345,#369,#207,.T.);
#454=EDGE_CURVE('',#324,#342,#208,.T.);
#455=EDGE_CURVE('',#325,#343,#209,.T.);
#456=EDGE_CURVE('',#348,#370,#152,.T.);
#457=EDGE_CURVE('',#370,#371,#210,.T.);
#458=EDGE_CURVE('',#349,#371,#153,.T.);
#459=EDGE_CURVE('',#332,#372,#211,.T.);
#460=EDGE_CURVE('',#372,#373,#212,.T.);
#461=EDGE_CURVE('',#333,#373,#213,.T.);
#462=EDGE_CURVE('',#363,#351,#214,.T.);
#463=EDGE_CURVE('',#362,#350,#215,.T.);
#464=EDGE_CURVE('',#356,#374,#154,.T.);
#465=EDGE_CURVE('',#374,#375,#216,.T.);
#466=EDGE_CURVE('',#357,#375,#155,.T.);
#467=EDGE_CURVE('',#369,#355,#156,.T.);
#468=EDGE_CURVE('',#375,#335,#217,.T.);
#469=EDGE_CURVE('',#365,#327,#157,.T.);
#470=EDGE_CURVE('',#353,#331,#218,.T.);
#471=EDGE_CURVE('',#373,#347,#158,.T.);
#472=EDGE_CURVE('',#371,#339,#219,.T.);
#473=EDGE_CURVE('',#367,#359,#159,.T.);
#474=EDGE_CURVE('',#361,#376,#160,.T.);
#475=EDGE_CURVE('',#376,#323,#220,.T.);
#476=EDGE_CURVE('',#377,#378,#221,.T.);
#477=EDGE_CURVE('',#378,#379,#161,.T.);
#478=EDGE_CURVE('',#379,#380,#222,.T.);
#479=EDGE_CURVE('',#380,#377,#162,.T.);
#480=EDGE_CURVE('',#360,#381,#163,.T.);
#481=EDGE_CURVE('',#381,#376,#223,.T.);
#482=EDGE_CURVE('',#382,#383,#224,.T.);
#483=EDGE_CURVE('',#382,#378,#225,.T.);
#484=EDGE_CURVE('',#383,#377,#226,.T.);
#485=EDGE_CURVE('',#384,#382,#164,.T.);
#486=EDGE_CURVE('',#384,#379,#227,.T.);
#487=EDGE_CURVE('',#385,#384,#228,.T.);
#488=EDGE_CURVE('',#385,#380,#229,.T.);
#489=EDGE_CURVE('',#383,#385,#165,.T.);
#490=EDGE_CURVE('',#381,#322,#230,.T.);
#491=EDGE_CURVE('',#366,#358,#166,.T.);
#492=EDGE_CURVE('',#370,#338,#231,.T.);
#493=EDGE_CURVE('',#372,#346,#167,.T.);
#494=EDGE_CURVE('',#352,#330,#232,.T.);
#495=EDGE_CURVE('',#364,#326,#168,.T.);
#496=EDGE_CURVE('',#374,#334,#233,.T.);
#497=EDGE_CURVE('',#368,#354,#169,.T.);
#498=EDGE_CURVE('',#386,#387,#170,.T.);
#499=EDGE_CURVE('',#388,#386,#234,.T.);
#500=EDGE_CURVE('',#389,#388,#171,.T.);
#501=EDGE_CURVE('',#390,#389,#235,.T.);
#502=EDGE_CURVE('',#391,#390,#172,.T.);
#503=EDGE_CURVE('',#392,#391,#236,.T.);
#504=EDGE_CURVE('',#393,#392,#173,.T.);
#505=EDGE_CURVE('',#387,#393,#237,.T.);
#506=EDGE_CURVE('',#394,#390,#238,.T.);
#507=EDGE_CURVE('',#394,#395,#174,.T.);
#508=EDGE_CURVE('',#395,#391,#239,.T.);
#509=EDGE_CURVE('',#396,#389,#240,.T.);
#510=EDGE_CURVE('',#396,#394,#241,.T.);
#511=EDGE_CURVE('',#397,#388,#242,.T.);
#512=EDGE_CURVE('',#397,#396,#175,.T.);
#513=EDGE_CURVE('',#398,#386,#243,.T.);
#514=EDGE_CURVE('',#398,#397,#244,.T.);
#515=EDGE_CURVE('',#399,#387,#245,.T.);
#516=EDGE_CURVE('',#399,#398,#176,.T.);
#517=EDGE_CURVE('',#400,#393,#246,.T.);
#518=EDGE_CURVE('',#400,#399,#247,.T.);
#519=EDGE_CURVE('',#401,#392,#248,.T.);
#520=EDGE_CURVE('',#401,#400,#177,.T.);
#521=EDGE_CURVE('',#395,#401,#249,.T.);
#522=ORIENTED_EDGE('',*,*,#402,.F.);
#523=ORIENTED_EDGE('',*,*,#403,.F.);
#524=ORIENTED_EDGE('',*,*,#404,.F.);
#525=ORIENTED_EDGE('',*,*,#405,.F.);
#526=ORIENTED_EDGE('',*,*,#406,.F.);
#527=ORIENTED_EDGE('',*,*,#407,.F.);
#528=ORIENTED_EDGE('',*,*,#408,.F.);
#529=ORIENTED_EDGE('',*,*,#409,.F.);
#530=ORIENTED_EDGE('',*,*,#410,.F.);
#531=ORIENTED_EDGE('',*,*,#411,.F.);
#532=ORIENTED_EDGE('',*,*,#412,.F.);
#533=ORIENTED_EDGE('',*,*,#413,.F.);
#534=ORIENTED_EDGE('',*,*,#414,.F.);
#535=ORIENTED_EDGE('',*,*,#415,.F.);
#536=ORIENTED_EDGE('',*,*,#416,.F.);
#537=ORIENTED_EDGE('',*,*,#417,.F.);
#538=ORIENTED_EDGE('',*,*,#418,.F.);
#539=ORIENTED_EDGE('',*,*,#419,.F.);
#540=ORIENTED_EDGE('',*,*,#420,.F.);
#541=ORIENTED_EDGE('',*,*,#421,.F.);
#542=ORIENTED_EDGE('',*,*,#422,.F.);
#543=ORIENTED_EDGE('',*,*,#423,.F.);
#544=ORIENTED_EDGE('',*,*,#424,.F.);
#545=ORIENTED_EDGE('',*,*,#425,.F.);
#546=ORIENTED_EDGE('',*,*,#426,.F.);
#547=ORIENTED_EDGE('',*,*,#427,.F.);
#548=ORIENTED_EDGE('',*,*,#428,.F.);
#549=ORIENTED_EDGE('',*,*,#429,.F.);
#550=ORIENTED_EDGE('',*,*,#430,.F.);
#551=ORIENTED_EDGE('',*,*,#431,.F.);
#552=ORIENTED_EDGE('',*,*,#432,.F.);
#553=ORIENTED_EDGE('',*,*,#433,.F.);
#554=ORIENTED_EDGE('',*,*,#434,.F.);
#555=ORIENTED_EDGE('',*,*,#435,.F.);
#556=ORIENTED_EDGE('',*,*,#436,.F.);
#557=ORIENTED_EDGE('',*,*,#437,.F.);
#558=ORIENTED_EDGE('',*,*,#438,.F.);
#559=ORIENTED_EDGE('',*,*,#439,.F.);
#560=ORIENTED_EDGE('',*,*,#440,.F.);
#561=ORIENTED_EDGE('',*,*,#441,.F.);
#562=ORIENTED_EDGE('',*,*,#408,.T.);
#563=ORIENTED_EDGE('',*,*,#442,.T.);
#564=ORIENTED_EDGE('',*,*,#443,.T.);
#565=ORIENTED_EDGE('',*,*,#444,.F.);
#566=ORIENTED_EDGE('',*,*,#416,.T.);
#567=ORIENTED_EDGE('',*,*,#445,.T.);
#568=ORIENTED_EDGE('',*,*,#446,.T.);
#569=ORIENTED_EDGE('',*,*,#447,.F.);
#570=ORIENTED_EDGE('',*,*,#420,.T.);
#571=ORIENTED_EDGE('',*,*,#448,.T.);
#572=ORIENTED_EDGE('',*,*,#449,.T.);
#573=ORIENTED_EDGE('',*,*,#450,.F.);
#574=ORIENTED_EDGE('',*,*,#424,.T.);
#575=ORIENTED_EDGE('',*,*,#451,.T.);
#576=ORIENTED_EDGE('',*,*,#452,.T.);
#577=ORIENTED_EDGE('',*,*,#453,.F.);
#578=ORIENTED_EDGE('',*,*,#404,.T.);
#579=ORIENTED_EDGE('',*,*,#454,.T.);
#580=ORIENTED_EDGE('',*,*,#422,.T.);
#581=ORIENTED_EDGE('',*,*,#455,.F.);
#582=ORIENTED_EDGE('',*,*,#428,.T.);
#583=ORIENTED_EDGE('',*,*,#456,.T.);
#584=ORIENTED_EDGE('',*,*,#457,.T.);
#585=ORIENTED_EDGE('',*,*,#458,.F.);
#586=ORIENTED_EDGE('',*,*,#412,.T.);
#587=ORIENTED_EDGE('',*,*,#459,.T.);
#588=ORIENTED_EDGE('',*,*,#460,.T.);
#589=ORIENTED_EDGE('',*,*,#461,.F.);
#590=ORIENTED_EDGE('',*,*,#430,.T.);
#591=ORIENTED_EDGE('',*,*,#462,.F.);
#592=ORIENTED_EDGE('',*,*,#443,.F.);
#593=ORIENTED_EDGE('',*,*,#463,.T.);
#594=ORIENTED_EDGE('',*,*,#436,.T.);
#595=ORIENTED_EDGE('',*,*,#464,.T.);
#596=ORIENTED_EDGE('',*,*,#465,.T.);
#597=ORIENTED_EDGE('',*,*,#466,.F.);
#598=ORIENTED_EDGE('',*,*,#405,.T.);
#599=ORIENTED_EDGE('',*,*,#455,.T.);
#600=ORIENTED_EDGE('',*,*,#425,.T.);
#601=ORIENTED_EDGE('',*,*,#453,.T.);
#602=ORIENTED_EDGE('',*,*,#467,.T.);
#603=ORIENTED_EDGE('',*,*,#437,.T.);
#604=ORIENTED_EDGE('',*,*,#466,.T.);
#605=ORIENTED_EDGE('',*,*,#468,.T.);
#606=ORIENTED_EDGE('',*,*,#417,.T.);
#607=ORIENTED_EDGE('',*,*,#447,.T.);
#608=ORIENTED_EDGE('',*,*,#469,.T.);
#609=ORIENTED_EDGE('',*,*,#409,.T.);
#610=ORIENTED_EDGE('',*,*,#444,.T.);
#611=ORIENTED_EDGE('',*,*,#462,.T.);
#612=ORIENTED_EDGE('',*,*,#433,.T.);
#613=ORIENTED_EDGE('',*,*,#470,.T.);
#614=ORIENTED_EDGE('',*,*,#413,.T.);
#615=ORIENTED_EDGE('',*,*,#461,.T.);
#616=ORIENTED_EDGE('',*,*,#471,.T.);
#617=ORIENTED_EDGE('',*,*,#429,.T.);
#618=ORIENTED_EDGE('',*,*,#458,.T.);
#619=ORIENTED_EDGE('',*,*,#472,.T.);
#620=ORIENTED_EDGE('',*,*,#421,.T.);
#621=ORIENTED_EDGE('',*,*,#450,.T.);
#622=ORIENTED_EDGE('',*,*,#473,.T.);
#623=ORIENTED_EDGE('',*,*,#441,.T.);
#624=ORIENTED_EDGE('',*,*,#474,.T.);
#625=ORIENTED_EDGE('',*,*,#475,.T.);
#626=ORIENTED_EDGE('',*,*,#476,.T.);
#627=ORIENTED_EDGE('',*,*,#477,.T.);
#628=ORIENTED_EDGE('',*,*,#478,.T.);
#629=ORIENTED_EDGE('',*,*,#479,.T.);
#630=ORIENTED_EDGE('',*,*,#440,.T.);
#631=ORIENTED_EDGE('',*,*,#480,.T.);
#632=ORIENTED_EDGE('',*,*,#481,.T.);
#633=ORIENTED_EDGE('',*,*,#474,.F.);
#634=ORIENTED_EDGE('',*,*,#482,.F.);
#635=ORIENTED_EDGE('',*,*,#483,.T.);
#636=ORIENTED_EDGE('',*,*,#476,.F.);
#637=ORIENTED_EDGE('',*,*,#484,.F.);
#638=ORIENTED_EDGE('',*,*,#485,.F.);
#639=ORIENTED_EDGE('',*,*,#486,.T.);
#640=ORIENTED_EDGE('',*,*,#477,.F.);
#641=ORIENTED_EDGE('',*,*,#483,.F.);
#642=ORIENTED_EDGE('',*,*,#487,.F.);
#643=ORIENTED_EDGE('',*,*,#488,.T.);
#644=ORIENTED_EDGE('',*,*,#478,.F.);
#645=ORIENTED_EDGE('',*,*,#486,.F.);
#646=ORIENTED_EDGE('',*,*,#489,.F.);
#647=ORIENTED_EDGE('',*,*,#484,.T.);
#648=ORIENTED_EDGE('',*,*,#479,.F.);
#649=ORIENTED_EDGE('',*,*,#488,.F.);
#650=ORIENTED_EDGE('',*,*,#403,.T.);
#651=ORIENTED_EDGE('',*,*,#490,.F.);
#652=ORIENTED_EDGE('',*,*,#480,.F.);
#653=ORIENTED_EDGE('',*,*,#439,.T.);
#654=ORIENTED_EDGE('',*,*,#491,.F.);
#655=ORIENTED_EDGE('',*,*,#448,.F.);
#656=ORIENTED_EDGE('',*,*,#419,.T.);
#657=ORIENTED_EDGE('',*,*,#492,.F.);
#658=ORIENTED_EDGE('',*,*,#456,.F.);
#659=ORIENTED_EDGE('',*,*,#427,.T.);
#660=ORIENTED_EDGE('',*,*,#493,.F.);
#661=ORIENTED_EDGE('',*,*,#459,.F.);
#662=ORIENTED_EDGE('',*,*,#411,.T.);
#663=ORIENTED_EDGE('',*,*,#494,.F.);
#664=ORIENTED_EDGE('',*,*,#431,.T.);
#665=ORIENTED_EDGE('',*,*,#463,.F.);
#666=ORIENTED_EDGE('',*,*,#442,.F.);
#667=ORIENTED_EDGE('',*,*,#407,.T.);
#668=ORIENTED_EDGE('',*,*,#495,.F.);
#669=ORIENTED_EDGE('',*,*,#445,.F.);
#670=ORIENTED_EDGE('',*,*,#415,.T.);
#671=ORIENTED_EDGE('',*,*,#496,.F.);
#672=ORIENTED_EDGE('',*,*,#464,.F.);
#673=ORIENTED_EDGE('',*,*,#435,.T.);
#674=ORIENTED_EDGE('',*,*,#497,.F.);
#675=ORIENTED_EDGE('',*,*,#451,.F.);
#676=ORIENTED_EDGE('',*,*,#423,.T.);
#677=ORIENTED_EDGE('',*,*,#454,.F.);
#678=ORIENTED_EDGE('',*,*,#498,.F.);
#679=ORIENTED_EDGE('',*,*,#499,.F.);
#680=ORIENTED_EDGE('',*,*,#500,.F.);
#681=ORIENTED_EDGE('',*,*,#501,.F.);
#682=ORIENTED_EDGE('',*,*,#502,.F.);
#683=ORIENTED_EDGE('',*,*,#503,.F.);
#684=ORIENTED_EDGE('',*,*,#504,.F.);
#685=ORIENTED_EDGE('',*,*,#505,.F.);
#686=ORIENTED_EDGE('',*,*,#414,.T.);
#687=ORIENTED_EDGE('',*,*,#468,.F.);
#688=ORIENTED_EDGE('',*,*,#465,.F.);
#689=ORIENTED_EDGE('',*,*,#496,.T.);
#690=ORIENTED_EDGE('',*,*,#434,.T.);
#691=ORIENTED_EDGE('',*,*,#467,.F.);
#692=ORIENTED_EDGE('',*,*,#452,.F.);
#693=ORIENTED_EDGE('',*,*,#497,.T.);
#694=ORIENTED_EDGE('',*,*,#402,.T.);
#695=ORIENTED_EDGE('',*,*,#475,.F.);
#696=ORIENTED_EDGE('',*,*,#481,.F.);
#697=ORIENTED_EDGE('',*,*,#490,.T.);
#698=ORIENTED_EDGE('',*,*,#438,.T.);
#699=ORIENTED_EDGE('',*,*,#473,.F.);
#700=ORIENTED_EDGE('',*,*,#449,.F.);
#701=ORIENTED_EDGE('',*,*,#491,.T.);
#702=ORIENTED_EDGE('',*,*,#418,.T.);
#703=ORIENTED_EDGE('',*,*,#472,.F.);
#704=ORIENTED_EDGE('',*,*,#457,.F.);
#705=ORIENTED_EDGE('',*,*,#492,.T.);
#706=ORIENTED_EDGE('',*,*,#426,.T.);
#707=ORIENTED_EDGE('',*,*,#471,.F.);
#708=ORIENTED_EDGE('',*,*,#460,.F.);
#709=ORIENTED_EDGE('',*,*,#493,.T.);
#710=ORIENTED_EDGE('',*,*,#410,.T.);
#711=ORIENTED_EDGE('',*,*,#470,.F.);
#712=ORIENTED_EDGE('',*,*,#432,.T.);
#713=ORIENTED_EDGE('',*,*,#494,.T.);
#714=ORIENTED_EDGE('',*,*,#406,.T.);
#715=ORIENTED_EDGE('',*,*,#469,.F.);
#716=ORIENTED_EDGE('',*,*,#446,.F.);
#717=ORIENTED_EDGE('',*,*,#495,.T.);
#718=ORIENTED_EDGE('',*,*,#502,.T.);
#719=ORIENTED_EDGE('',*,*,#506,.F.);
#720=ORIENTED_EDGE('',*,*,#507,.T.);
#721=ORIENTED_EDGE('',*,*,#508,.T.);
#722=ORIENTED_EDGE('',*,*,#501,.T.);
#723=ORIENTED_EDGE('',*,*,#509,.F.);
#724=ORIENTED_EDGE('',*,*,#510,.T.);
#725=ORIENTED_EDGE('',*,*,#506,.T.);
#726=ORIENTED_EDGE('',*,*,#500,.T.);
#727=ORIENTED_EDGE('',*,*,#511,.F.);
#728=ORIENTED_EDGE('',*,*,#512,.T.);
#729=ORIENTED_EDGE('',*,*,#509,.T.);
#730=ORIENTED_EDGE('',*,*,#499,.T.);
#731=ORIENTED_EDGE('',*,*,#513,.F.);
#732=ORIENTED_EDGE('',*,*,#514,.T.);
#733=ORIENTED_EDGE('',*,*,#511,.T.);
#734=ORIENTED_EDGE('',*,*,#498,.T.);
#735=ORIENTED_EDGE('',*,*,#515,.F.);
#736=ORIENTED_EDGE('',*,*,#516,.T.);
#737=ORIENTED_EDGE('',*,*,#513,.T.);
#738=ORIENTED_EDGE('',*,*,#505,.T.);
#739=ORIENTED_EDGE('',*,*,#517,.F.);
#740=ORIENTED_EDGE('',*,*,#518,.T.);
#741=ORIENTED_EDGE('',*,*,#515,.T.);
#742=ORIENTED_EDGE('',*,*,#504,.T.);
#743=ORIENTED_EDGE('',*,*,#519,.F.);
#744=ORIENTED_EDGE('',*,*,#520,.T.);
#745=ORIENTED_EDGE('',*,*,#517,.T.);
#746=ORIENTED_EDGE('',*,*,#503,.T.);
#747=ORIENTED_EDGE('',*,*,#508,.F.);
#748=ORIENTED_EDGE('',*,*,#521,.T.);
#749=ORIENTED_EDGE('',*,*,#519,.T.);
#750=ORIENTED_EDGE('',*,*,#514,.F.);
#751=ORIENTED_EDGE('',*,*,#516,.F.);
#752=ORIENTED_EDGE('',*,*,#518,.F.);
#753=ORIENTED_EDGE('',*,*,#520,.F.);
#754=ORIENTED_EDGE('',*,*,#521,.F.);
#755=ORIENTED_EDGE('',*,*,#507,.F.);
#756=ORIENTED_EDGE('',*,*,#510,.F.);
#757=ORIENTED_EDGE('',*,*,#512,.F.);
#758=ORIENTED_EDGE('',*,*,#482,.T.);
#759=ORIENTED_EDGE('',*,*,#489,.T.);
#760=ORIENTED_EDGE('',*,*,#487,.T.);
#761=ORIENTED_EDGE('',*,*,#485,.T.);
#762=CYLINDRICAL_SURFACE('',#852,1.3);
#763=CYLINDRICAL_SURFACE('',#855,1.3);
#764=CYLINDRICAL_SURFACE('',#858,1.3);
#765=CYLINDRICAL_SURFACE('',#861,1.3);
#766=CYLINDRICAL_SURFACE('',#864,1.3);
#767=CYLINDRICAL_SURFACE('',#867,1.3);
#768=CYLINDRICAL_SURFACE('',#870,1.3);
#769=CYLINDRICAL_SURFACE('',#873,1.3);
#770=CYLINDRICAL_SURFACE('',#876,1.3);
#771=CYLINDRICAL_SURFACE('',#879,1.3);
#772=CYLINDRICAL_SURFACE('',#882,22.);
#773=CYLINDRICAL_SURFACE('',#889,22.);
#774=CYLINDRICAL_SURFACE('',#894,14.);
#775=CYLINDRICAL_SURFACE('',#905,14.);
#776=CYLINDRICAL_SURFACE('',#908,5.);
#777=CYLINDRICAL_SURFACE('',#911,5.);
#778=CYLINDRICAL_SURFACE('',#923,14.);
#779=CYLINDRICAL_SURFACE('',#925,14.);
#780=CYLINDRICAL_SURFACE('',#927,22.);
#781=CYLINDRICAL_SURFACE('',#929,22.);
#782=CYLINDRICAL_SURFACE('',#930,7.5);
#783=CYLINDRICAL_SURFACE('',#933,7.5);
#784=CYLINDRICAL_SURFACE('',#936,14.5);
#785=CYLINDRICAL_SURFACE('',#939,14.5);
#786=ADVANCED_FACE('',(#41),#762,.F.);
#787=ADVANCED_FACE('',(#42),#763,.F.);
#788=ADVANCED_FACE('',(#43),#764,.F.);
#789=ADVANCED_FACE('',(#44),#765,.F.);
#790=ADVANCED_FACE('',(#45),#766,.F.);
#791=ADVANCED_FACE('',(#46),#767,.F.);
#792=ADVANCED_FACE('',(#47),#768,.F.);
#793=ADVANCED_FACE('',(#48),#769,.F.);
#794=ADVANCED_FACE('',(#49),#770,.F.);
#795=ADVANCED_FACE('',(#50),#771,.F.);
#796=ADVANCED_FACE('',(#51),#772,.T.);
#797=ADVANCED_FACE('',(#52),#22,.T.);
#798=ADVANCED_FACE('',(#53),#23,.T.);
#799=ADVANCED_FACE('',(#54),#24,.T.);
#800=ADVANCED_FACE('',(#55),#25,.T.);
#801=ADVANCED_FACE('',(#56),#773,.T.);
#802=ADVANCED_FACE('',(#57),#26,.T.);
#803=ADVANCED_FACE('',(#58),#27,.T.);
#804=ADVANCED_FACE('',(#59),#774,.T.);
#805=ADVANCED_FACE('',(#60,#19),#28,.T.);
#806=ADVANCED_FACE('',(#61),#775,.T.);
#807=ADVANCED_FACE('',(#62),#29,.F.);
#808=ADVANCED_FACE('',(#63),#776,.F.);
#809=ADVANCED_FACE('',(#64),#30,.F.);
#810=ADVANCED_FACE('',(#65),#777,.F.);
#811=ADVANCED_FACE('',(#66,#20),#31,.F.);
#812=ADVANCED_FACE('',(#67),#32,.T.);
#813=ADVANCED_FACE('',(#68),#778,.T.);
#814=ADVANCED_FACE('',(#69),#33,.T.);
#815=ADVANCED_FACE('',(#70),#779,.T.);
#816=ADVANCED_FACE('',(#71),#34,.T.);
#817=ADVANCED_FACE('',(#72),#780,.T.);
#818=ADVANCED_FACE('',(#73),#35,.T.);
#819=ADVANCED_FACE('',(#74),#781,.T.);
#820=ADVANCED_FACE('',(#75),#782,.T.);
#821=ADVANCED_FACE('',(#76),#36,.T.);
#822=ADVANCED_FACE('',(#77),#783,.T.);
#823=ADVANCED_FACE('',(#78),#37,.T.);
#824=ADVANCED_FACE('',(#79),#784,.T.);
#825=ADVANCED_FACE('',(#80),#38,.T.);
#826=ADVANCED_FACE('',(#81),#785,.T.);
#827=ADVANCED_FACE('',(#82),#39,.T.);
#828=ADVANCED_FACE('',(#83,#21),#40,.F.);
#829=CLOSED_SHELL('',(#786,#787,#788,#789,#790,#791,#792,#793,#794,#795,
#796,#797,#798,#799,#800,#801,#802,#803,#804,#805,#806,#807,#808,#809,#810,
#811,#812,#813,#814,#815,#816,#817,#818,#819,#820,#821,#822,#823,#824,#825,
#826,#827,#828));
#830=DERIVED_UNIT_ELEMENT(#833,1.);
#831=DERIVED_UNIT_ELEMENT(#1450,-3.);
#832=DIMENSIONAL_EXPONENTS(0.,1.,0.,0.,0.,0.,0.);
#833=(
CONVERSION_BASED_UNIT('gram',#835)
MASS_UNIT()
NAMED_UNIT(#832)
);
#834=(
MASS_UNIT()
NAMED_UNIT(*)
SI_UNIT(.KILO.,.GRAM.)
);
#835=MASS_MEASURE_WITH_UNIT(MASS_MEASURE(0.001),#834);
#836=DERIVED_UNIT((#830,#831));
#837=MEASURE_REPRESENTATION_ITEM('density measure',
POSITIVE_RATIO_MEASURE(1.),#836);
#838=PROPERTY_DEFINITION_REPRESENTATION(#843,#840);
#839=PROPERTY_DEFINITION_REPRESENTATION(#844,#841);
#840=REPRESENTATION('material name',(#842),#1447);
#841=REPRESENTATION('density',(#837),#1447);
#842=DESCRIPTIVE_REPRESENTATION_ITEM('Generic','Generic');
#843=PROPERTY_DEFINITION('material property','material name',#1457);
#844=PROPERTY_DEFINITION('material property','density of part',#1457);
#845=DATE_TIME_ROLE('creation_date');
#846=APPLIED_DATE_AND_TIME_ASSIGNMENT(#847,#845,(#1457));
#847=DATE_AND_TIME(#848,#849);
#848=CALENDAR_DATE(2026,13,5);
#849=LOCAL_TIME(0,0,0.,#850);
#850=COORDINATED_UNIVERSAL_TIME_OFFSET(0,0,.BEHIND.);
#851=AXIS2_PLACEMENT_3D('',#1199,#943,#944);
#852=AXIS2_PLACEMENT_3D('',#1200,#945,#946);
#853=AXIS2_PLACEMENT_3D('',#1205,#948,#949);
#854=AXIS2_PLACEMENT_3D('',#1208,#951,#952);
#855=AXIS2_PLACEMENT_3D('',#1209,#953,#954);
#856=AXIS2_PLACEMENT_3D('',#1214,#956,#957);
#857=AXIS2_PLACEMENT_3D('',#1217,#959,#960);
#858=AXIS2_PLACEMENT_3D('',#1218,#961,#962);
#859=AXIS2_PLACEMENT_3D('',#1223,#964,#965);
#860=AXIS2_PLACEMENT_3D('',#1226,#967,#968);
#861=AXIS2_PLACEMENT_3D('',#1227,#969,#970);
#862=AXIS2_PLACEMENT_3D('',#1232,#972,#973);
#863=AXIS2_PLACEMENT_3D('',#1235,#975,#976);
#864=AXIS2_PLACEMENT_3D('',#1236,#977,#978);
#865=AXIS2_PLACEMENT_3D('',#1241,#980,#981);
#866=AXIS2_PLACEMENT_3D('',#1244,#983,#984);
#867=AXIS2_PLACEMENT_3D('',#1245,#985,#986);
#868=AXIS2_PLACEMENT_3D('',#1250,#988,#989);
#869=AXIS2_PLACEMENT_3D('',#1253,#991,#992);
#870=AXIS2_PLACEMENT_3D('',#1254,#993,#994);
#871=AXIS2_PLACEMENT_3D('',#1259,#996,#997);
#872=AXIS2_PLACEMENT_3D('',#1262,#999,#1000);
#873=AXIS2_PLACEMENT_3D('',#1263,#1001,#1002);
#874=AXIS2_PLACEMENT_3D('',#1268,#1004,#1005);
#875=AXIS2_PLACEMENT_3D('',#1271,#1007,#1008);
#876=AXIS2_PLACEMENT_3D('',#1272,#1009,#1010);
#877=AXIS2_PLACEMENT_3D('',#1277,#1012,#1013);
#878=AXIS2_PLACEMENT_3D('',#1280,#1015,#1016);
#879=AXIS2_PLACEMENT_3D('',#1281,#1017,#1018);
#880=AXIS2_PLACEMENT_3D('',#1286,#1020,#1021);
#881=AXIS2_PLACEMENT_3D('',#1289,#1023,#1024);
#882=AXIS2_PLACEMENT_3D('',#1290,#1025,#1026);
#883=AXIS2_PLACEMENT_3D('',#1292,#1027,#1028);
#884=AXIS2_PLACEMENT_3D('',#1295,#1030,#1031);
#885=AXIS2_PLACEMENT_3D('',#1296,#1032,#1033);
#886=AXIS2_PLACEMENT_3D('',#1302,#1037,#1038);
#887=AXIS2_PLACEMENT_3D('',#1308,#1042,#1043);
#888=AXIS2_PLACEMENT_3D('',#1314,#1047,#1048);
#889=AXIS2_PLACEMENT_3D('',#1317,#1051,#1052);
#890=AXIS2_PLACEMENT_3D('',#1319,#1053,#1054);
#891=AXIS2_PLACEMENT_3D('',#1322,#1056,#1057);
#892=AXIS2_PLACEMENT_3D('',#1323,#1058,#1059);
#893=AXIS2_PLACEMENT_3D('',#1329,#1063,#1064);
#894=AXIS2_PLACEMENT_3D('',#1332,#1067,#1068);
#895=AXIS2_PLACEMENT_3D('',#1334,#1069,#1070);
#896=AXIS2_PLACEMENT_3D('',#1337,#1072,#1073);
#897=AXIS2_PLACEMENT_3D('',#1338,#1074,#1075);
#898=AXIS2_PLACEMENT_3D('',#1339,#1076,#1077);
#899=AXIS2_PLACEMENT_3D('',#1341,#1079,#1080);
#900=AXIS2_PLACEMENT_3D('',#1343,#1082,#1083);
#901=AXIS2_PLACEMENT_3D('',#1345,#1085,#1086);
#902=AXIS2_PLACEMENT_3D('',#1347,#1087,#1088);
#903=AXIS2_PLACEMENT_3D('',#1353,#1091,#1092);
#904=AXIS2_PLACEMENT_3D('',#1356,#1094,#1095);
#905=AXIS2_PLACEMENT_3D('',#1357,#1096,#1097);
#906=AXIS2_PLACEMENT_3D('',#1359,#1098,#1099);
#907=AXIS2_PLACEMENT_3D('',#1361,#1101,#1102);
#908=AXIS2_PLACEMENT_3D('',#1367,#1106,#1107);
#909=AXIS2_PLACEMENT_3D('',#1369,#1108,#1109);
#910=AXIS2_PLACEMENT_3D('',#1371,#1111,#1112);
#911=AXIS2_PLACEMENT_3D('',#1375,#1115,#1116);
#912=AXIS2_PLACEMENT_3D('',#1376,#1117,#1118);
#913=AXIS2_PLACEMENT_3D('',#1377,#1119,#1120);
#914=AXIS2_PLACEMENT_3D('',#1379,#1122,#1123);
#915=AXIS2_PLACEMENT_3D('',#1381,#1125,#1126);
#916=AXIS2_PLACEMENT_3D('',#1383,#1128,#1129);
#917=AXIS2_PLACEMENT_3D('',#1385,#1131,#1132);
#918=AXIS2_PLACEMENT_3D('',#1388,#1133,#1134);
#919=AXIS2_PLACEMENT_3D('',#1392,#1136,#1137);
#920=AXIS2_PLACEMENT_3D('',#1396,#1139,#1140);
#921=AXIS2_PLACEMENT_3D('',#1400,#1142,#1143);
#922=AXIS2_PLACEMENT_3D('',#1402,#1145,#1146);
#923=AXIS2_PLACEMENT_3D('',#1403,#1147,#1148);
#924=AXIS2_PLACEMENT_3D('',#1404,#1149,#1150);
#925=AXIS2_PLACEMENT_3D('',#1405,#1151,#1152);
#926=AXIS2_PLACEMENT_3D('',#1406,#1153,#1154);
#927=AXIS2_PLACEMENT_3D('',#1407,#1155,#1156);
#928=AXIS2_PLACEMENT_3D('',#1408,#1157,#1158);
#929=AXIS2_PLACEMENT_3D('',#1409,#1159,#1160);
#930=AXIS2_PLACEMENT_3D('',#1410,#1161,#1162);
#931=AXIS2_PLACEMENT_3D('',#1414,#1164,#1165);
#932=AXIS2_PLACEMENT_3D('',#1416,#1167,#1168);
#933=AXIS2_PLACEMENT_3D('',#1420,#1171,#1172);
#934=AXIS2_PLACEMENT_3D('',#1423,#1174,#1175);
#935=AXIS2_PLACEMENT_3D('',#1424,#1176,#1177);
#936=AXIS2_PLACEMENT_3D('',#1428,#1180,#1181);
#937=AXIS2_PLACEMENT_3D('',#1431,#1183,#1184);
#938=AXIS2_PLACEMENT_3D('',#1432,#1185,#1186);
#939=AXIS2_PLACEMENT_3D('',#1436,#1189,#1190);
#940=AXIS2_PLACEMENT_3D('',#1439,#1192,#1193);
#941=AXIS2_PLACEMENT_3D('',#1440,#1194,#1195);
#942=AXIS2_PLACEMENT_3D('',#1442,#1197,#1198);
#943=DIRECTION('axis',(0.,0.,1.));
#944=DIRECTION('refdir',(1.,0.,0.));
#945=DIRECTION('center_axis',(0.,0.,-1.));
#946=DIRECTION('ref_axis',(-1.83697019872103E-16,1.,0.));
#947=DIRECTION('',(0.,0.,1.));
#948=DIRECTION('center_axis',(0.,0.,1.));
#949=DIRECTION('ref_axis',(1.,0.,0.));
#950=DIRECTION('',(0.,0.,-1.));
#951=DIRECTION('center_axis',(0.,0.,-1.));
#952=DIRECTION('ref_axis',(1.,0.,0.));
#953=DIRECTION('center_axis',(0.,0.,-1.));
#954=DIRECTION('ref_axis',(-0.711472808282931,-0.702713628069073,0.));
#955=DIRECTION('',(0.,0.,1.));
#956=DIRECTION('center_axis',(0.,0.,1.));
#957=DIRECTION('ref_axis',(1.,0.,0.));
#958=DIRECTION('',(0.,0.,-1.));
#959=DIRECTION('center_axis',(0.,0.,-1.));
#960=DIRECTION('ref_axis',(1.,0.,0.));
#961=DIRECTION('center_axis',(0.,0.,-1.));
#962=DIRECTION('ref_axis',(6.12323399573677E-17,-1.,0.));
#963=DIRECTION('',(0.,0.,1.));
#964=DIRECTION('center_axis',(0.,0.,1.));
#965=DIRECTION('ref_axis',(1.,0.,0.));
#966=DIRECTION('',(0.,0.,-1.));
#967=DIRECTION('center_axis',(0.,0.,-1.));
#968=DIRECTION('ref_axis',(1.,0.,0.));
#969=DIRECTION('center_axis',(0.,0.,-1.));
#970=DIRECTION('ref_axis',(-1.,-1.22464679914735E-16,0.));
#971=DIRECTION('',(0.,0.,1.));
#972=DIRECTION('center_axis',(0.,0.,1.));
#973=DIRECTION('ref_axis',(1.,0.,0.));
#974=DIRECTION('',(0.,0.,-1.));
#975=DIRECTION('center_axis',(0.,0.,-1.));
#976=DIRECTION('ref_axis',(1.,0.,0.));
#977=DIRECTION('center_axis',(0.,0.,-1.));
#978=DIRECTION('ref_axis',(1.,0.,0.));
#979=DIRECTION('',(0.,0.,1.));
#980=DIRECTION('center_axis',(0.,0.,1.));
#981=DIRECTION('ref_axis',(1.,0.,0.));
#982=DIRECTION('',(0.,0.,-1.));
#983=DIRECTION('center_axis',(0.,0.,-1.));
#984=DIRECTION('ref_axis',(1.,0.,0.));
#985=DIRECTION('center_axis',(0.,0.,-1.));
#986=DIRECTION('ref_axis',(-1.83697019872103E-16,1.,0.));
#987=DIRECTION('',(0.,0.,1.));
#988=DIRECTION('center_axis',(0.,0.,1.));
#989=DIRECTION('ref_axis',(1.,0.,0.));
#990=DIRECTION('',(0.,0.,-1.));
#991=DIRECTION('center_axis',(0.,0.,-1.));
#992=DIRECTION('ref_axis',(1.,0.,0.));
#993=DIRECTION('center_axis',(0.,0.,-1.));
#994=DIRECTION('ref_axis',(1.,0.,0.));
#995=DIRECTION('',(0.,0.,1.));
#996=DIRECTION('center_axis',(0.,0.,1.));
#997=DIRECTION('ref_axis',(1.,0.,0.));
#998=DIRECTION('',(0.,0.,-1.));
#999=DIRECTION('center_axis',(0.,0.,-1.));
#1000=DIRECTION('ref_axis',(1.,0.,0.));
#1001=DIRECTION('center_axis',(0.,0.,-1.));
#1002=DIRECTION('ref_axis',(6.12323399573677E-17,-1.,0.));
#1003=DIRECTION('',(0.,0.,1.));
#1004=DIRECTION('center_axis',(0.,0.,1.));
#1005=DIRECTION('ref_axis',(1.,0.,0.));
#1006=DIRECTION('',(0.,0.,-1.));
#1007=DIRECTION('center_axis',(0.,0.,-1.));
#1008=DIRECTION('ref_axis',(1.,0.,0.));
#1009=DIRECTION('center_axis',(0.,0.,-1.));
#1010=DIRECTION('ref_axis',(-0.70339151347704,0.710802629967334,0.));
#1011=DIRECTION('',(0.,0.,1.));
#1012=DIRECTION('center_axis',(0.,0.,1.));
#1013=DIRECTION('ref_axis',(1.,0.,0.));
#1014=DIRECTION('',(0.,0.,-1.));
#1015=DIRECTION('center_axis',(0.,0.,-1.));
#1016=DIRECTION('ref_axis',(1.,0.,0.));
#1017=DIRECTION('center_axis',(0.,0.,-1.));
#1018=DIRECTION('ref_axis',(1.,0.,0.));
#1019=DIRECTION('',(0.,0.,1.));
#1020=DIRECTION('center_axis',(0.,0.,1.));
#1021=DIRECTION('ref_axis',(1.,0.,0.));
#1022=DIRECTION('',(0.,0.,-1.));
#1023=DIRECTION('center_axis',(0.,0.,-1.));
#1024=DIRECTION('ref_axis',(1.,0.,0.));
#1025=DIRECTION('center_axis',(0.,0.,1.));
#1026=DIRECTION('ref_axis',(0.995103236859768,0.098841023827222,0.));
#1027=DIRECTION('center_axis',(0.,0.,1.));
#1028=DIRECTION('ref_axis',(0.995103236859768,0.098841023827222,0.));
#1029=DIRECTION('',(0.,0.,1.));
#1030=DIRECTION('center_axis',(0.,0.,1.));
#1031=DIRECTION('ref_axis',(0.995103236859768,0.098841023827222,0.));
#1032=DIRECTION('center_axis',(1.,0.,0.));
#1033=DIRECTION('ref_axis',(0.,1.,0.));
#1034=DIRECTION('',(0.,1.,0.));
#1035=DIRECTION('',(0.,0.,1.));
#1036=DIRECTION('',(0.,1.,0.));
#1037=DIRECTION('center_axis',(-1.,0.,0.));
#1038=DIRECTION('ref_axis',(0.,-1.,0.));
#1039=DIRECTION('',(0.,-1.,0.));
#1040=DIRECTION('',(0.,0.,1.));
#1041=DIRECTION('',(0.,-1.,0.));
#1042=DIRECTION('center_axis',(0.,-1.,0.));
#1043=DIRECTION('ref_axis',(1.,0.,0.));
#1044=DIRECTION('',(1.,0.,0.));
#1045=DIRECTION('',(0.,0.,1.));
#1046=DIRECTION('',(1.,0.,0.));
#1047=DIRECTION('center_axis',(0.,-1.,0.));
#1048=DIRECTION('ref_axis',(1.,0.,0.));
#1049=DIRECTION('',(1.,0.,0.));
#1050=DIRECTION('',(1.,0.,0.));
#1051=DIRECTION('center_axis',(0.,0.,1.));
#1052=DIRECTION('ref_axis',(-0.0178305095870404,0.999841023827222,0.));
#1053=DIRECTION('center_axis',(0.,0.,1.));
#1054=DIRECTION('ref_axis',(-0.0178305095870404,0.999841023827222,0.));
#1055=DIRECTION('',(0.,0.,1.));
#1056=DIRECTION('center_axis',(0.,0.,1.));
#1057=DIRECTION('ref_axis',(-0.0178305095870404,0.999841023827222,0.));
#1058=DIRECTION('center_axis',(0.,1.,0.));
#1059=DIRECTION('ref_axis',(-1.,0.,0.));
#1060=DIRECTION('',(-1.,0.,0.));
#1061=DIRECTION('',(0.,0.,1.));
#1062=DIRECTION('',(-1.,0.,0.));
#1063=DIRECTION('center_axis',(0.,1.,0.));
#1064=DIRECTION('ref_axis',(-1.,0.,0.));
#1065=DIRECTION('',(-1.,0.,0.));
#1066=DIRECTION('',(-1.,0.,0.));
#1067=DIRECTION('center_axis',(0.,0.,1.));
#1068=DIRECTION('ref_axis',(0.0876202932497352,-0.996153946039883,0.));
#1069=DIRECTION('center_axis',(0.,0.,1.));
#1070=DIRECTION('ref_axis',(0.0876202932497352,-0.996153946039883,0.));
#1071=DIRECTION('',(0.,0.,1.));
#1072=DIRECTION('center_axis',(0.,0.,1.));
#1073=DIRECTION('ref_axis',(0.0876202932497352,-0.996153946039883,0.));
#1074=DIRECTION('center_axis',(0.,0.,1.));
#1075=DIRECTION('ref_axis',(1.,0.,0.));
#1076=DIRECTION('center_axis',(0.,0.,1.));
#1077=DIRECTION('ref_axis',(0.0876202932497352,-0.996153946039883,0.));
#1078=DIRECTION('',(0.,1.,0.));
#1079=DIRECTION('center_axis',(0.,0.,1.));
#1080=DIRECTION('ref_axis',(0.995103236859768,0.098841023827222,0.));
#1081=DIRECTION('',(-1.,0.,0.));
#1082=DIRECTION('center_axis',(0.,0.,1.));
#1083=DIRECTION('ref_axis',(-0.0178305095870404,0.999841023827222,0.));
#1084=DIRECTION('',(0.,-1.,0.));
#1085=DIRECTION('center_axis',(0.,0.,1.));
#1086=DIRECTION('ref_axis',(-0.995691721821163,-0.0927253746113114,0.));
#1087=DIRECTION('center_axis',(0.,0.,1.));
#1088=DIRECTION('ref_axis',(-0.995691721821163,-0.0927253746113114,0.));
#1089=DIRECTION('',(1.,0.,0.));
#1090=DIRECTION('',(1.,0.,0.));
#1091=DIRECTION('center_axis',(0.,0.,-1.));
#1092=DIRECTION('ref_axis',(2.22044604925031E-16,1.,0.));
#1093=DIRECTION('',(-1.,0.,0.));
#1094=DIRECTION('center_axis',(0.,0.,-1.));
#1095=DIRECTION('ref_axis',(0.,-1.,0.));
#1096=DIRECTION('center_axis',(0.,0.,1.));
#1097=DIRECTION('ref_axis',(-0.995691721821163,-0.0927253746113114,0.));
#1098=DIRECTION('center_axis',(0.,0.,1.));
#1099=DIRECTION('ref_axis',(-0.995691721821163,-0.0927253746113114,0.));
#1100=DIRECTION('',(0.,0.,1.));
#1101=DIRECTION('center_axis',(0.,1.,0.));
#1102=DIRECTION('ref_axis',(-1.,0.,0.));
#1103=DIRECTION('',(-1.,0.,0.));
#1104=DIRECTION('',(0.,0.,1.));
#1105=DIRECTION('',(0.,0.,1.));
#1106=DIRECTION('center_axis',(0.,0.,1.));
#1107=DIRECTION('ref_axis',(2.22044604925031E-16,1.,0.));
#1108=DIRECTION('center_axis',(0.,0.,1.));
#1109=DIRECTION('ref_axis',(2.22044604925031E-16,1.,0.));
#1110=DIRECTION('',(0.,0.,1.));
#1111=DIRECTION('center_axis',(0.,-1.,0.));
#1112=DIRECTION('ref_axis',(1.,0.,0.));
#1113=DIRECTION('',(1.,0.,0.));
#1114=DIRECTION('',(0.,0.,1.));
#1115=DIRECTION('center_axis',(0.,0.,1.));
#1116=DIRECTION('ref_axis',(0.,-1.,0.));
#1117=DIRECTION('center_axis',(0.,0.,1.));
#1118=DIRECTION('ref_axis',(0.,-1.,0.));
#1119=DIRECTION('center_axis',(0.,0.,1.));
#1120=DIRECTION('ref_axis',(1.,0.,0.));
#1121=DIRECTION('',(1.,0.,0.));
#1122=DIRECTION('center_axis',(0.,0.,1.));
#1123=DIRECTION('ref_axis',(-0.995691721821163,-0.0927253746113114,0.));
#1124=DIRECTION('',(0.,-1.,0.));
#1125=DIRECTION('center_axis',(0.,0.,1.));
#1126=DIRECTION('ref_axis',(-0.0178305095870404,0.999841023827222,0.));
#1127=DIRECTION('',(-1.,0.,0.));
#1128=DIRECTION('center_axis',(0.,0.,1.));
#1129=DIRECTION('ref_axis',(0.995103236859768,0.098841023827222,0.));
#1130=DIRECTION('',(0.,1.,0.));
#1131=DIRECTION('center_axis',(0.,0.,1.));
#1132=DIRECTION('ref_axis',(0.0876202932497352,-0.996153946039883,0.));
#1133=DIRECTION('center_axis',(0.,0.,-1.));
#1134=DIRECTION('ref_axis',(0.00671598063912153,0.999977447547721,0.));
#1135=DIRECTION('',(0.,1.,0.));
#1136=DIRECTION('center_axis',(0.,0.,-1.));
#1137=DIRECTION('ref_axis',(-0.97458504166813,-0.224017848745874,0.));
#1138=DIRECTION('',(-1.,0.,0.));
#1139=DIRECTION('center_axis',(0.,0.,-1.));
#1140=DIRECTION('ref_axis',(0.212851708334796,-0.97708451541254,0.));
#1141=DIRECTION('',(0.,-1.,0.));
#1142=DIRECTION('center_axis',(0.,0.,-1.));
#1143=DIRECTION('ref_axis',(0.993284019360879,0.115701585478755,0.));
#1144=DIRECTION('',(1.,0.,0.));
#1145=DIRECTION('center_axis',(1.,0.,0.));
#1146=DIRECTION('ref_axis',(0.,1.,0.));
#1147=DIRECTION('center_axis',(0.,0.,1.));
#1148=DIRECTION('ref_axis',(0.0876202932497352,-0.996153946039883,0.));
#1149=DIRECTION('center_axis',(0.,-1.,0.));
#1150=DIRECTION('ref_axis',(1.,0.,0.));
#1151=DIRECTION('center_axis',(0.,0.,1.));
#1152=DIRECTION('ref_axis',(-0.995691721821163,-0.0927253746113114,0.));
#1153=DIRECTION('center_axis',(-1.,0.,0.));
#1154=DIRECTION('ref_axis',(0.,-1.,0.));
#1155=DIRECTION('center_axis',(0.,0.,1.));
#1156=DIRECTION('ref_axis',(-0.0178305095870404,0.999841023827222,0.));
#1157=DIRECTION('center_axis',(0.,1.,0.));
#1158=DIRECTION('ref_axis',(-1.,0.,0.));
#1159=DIRECTION('center_axis',(0.,0.,1.));
#1160=DIRECTION('ref_axis',(0.995103236859768,0.098841023827222,0.));
#1161=DIRECTION('center_axis',(0.,0.,1.));
#1162=DIRECTION('ref_axis',(0.212851708334796,-0.97708451541254,0.));
#1163=DIRECTION('',(0.,0.,1.));
#1164=DIRECTION('center_axis',(0.,0.,1.));
#1165=DIRECTION('ref_axis',(0.212851708334796,-0.97708451541254,0.));
#1166=DIRECTION('',(0.,0.,1.));
#1167=DIRECTION('center_axis',(0.,-1.,0.));
#1168=DIRECTION('ref_axis',(1.,0.,0.));
#1169=DIRECTION('',(0.,0.,1.));
#1170=DIRECTION('',(1.,0.,0.));
#1171=DIRECTION('center_axis',(0.,0.,1.));
#1172=DIRECTION('ref_axis',(-0.97458504166813,-0.224017848745874,0.));
#1173=DIRECTION('',(0.,0.,1.));
#1174=DIRECTION('center_axis',(0.,0.,1.));
#1175=DIRECTION('ref_axis',(-0.97458504166813,-0.224017848745874,0.));
#1176=DIRECTION('center_axis',(-1.,0.,0.));
#1177=DIRECTION('ref_axis',(0.,-1.,0.));
#1178=DIRECTION('',(0.,0.,1.));
#1179=DIRECTION('',(0.,-1.,0.));
#1180=DIRECTION('center_axis',(0.,0.,1.));
#1181=DIRECTION('ref_axis',(0.00671598063912153,0.999977447547721,0.));
#1182=DIRECTION('',(0.,0.,1.));
#1183=DIRECTION('center_axis',(0.,0.,1.));
#1184=DIRECTION('ref_axis',(0.00671598063912153,0.999977447547721,0.));
#1185=DIRECTION('center_axis',(0.,1.,0.));
#1186=DIRECTION('ref_axis',(-1.,0.,0.));
#1187=DIRECTION('',(0.,0.,1.));
#1188=DIRECTION('',(-1.,0.,0.));
#1189=DIRECTION('center_axis',(0.,0.,1.));
#1190=DIRECTION('ref_axis',(0.993284019360879,0.115701585478755,0.));
#1191=DIRECTION('',(0.,0.,1.));
#1192=DIRECTION('center_axis',(0.,0.,1.));
#1193=DIRECTION('ref_axis',(0.993284019360879,0.115701585478755,0.));
#1194=DIRECTION('center_axis',(1.,0.,0.));
#1195=DIRECTION('ref_axis',(0.,1.,0.));
#1196=DIRECTION('',(0.,1.,0.));
#1197=DIRECTION('center_axis',(0.,0.,1.));
#1198=DIRECTION('ref_axis',(1.,0.,0.));
#1199=CARTESIAN_POINT('',(0.,0.,0.));
#1200=CARTESIAN_POINT('Origin',(-13.,-22.421,4.));
#1201=CARTESIAN_POINT('',(-13.746929715569,-23.485,2.));
#1202=CARTESIAN_POINT('',(-13.746929715569,-23.485,4.));
#1203=CARTESIAN_POINT('',(-13.746929715569,-23.485,4.));
#1204=CARTESIAN_POINT('',(-12.253070284431,-23.485,2.));
#1205=CARTESIAN_POINT('Origin',(-13.,-22.421,2.));
#1206=CARTESIAN_POINT('',(-12.253070284431,-23.485,4.));
#1207=CARTESIAN_POINT('',(-12.253070284431,-23.485,4.));
#1208=CARTESIAN_POINT('Origin',(-13.,-22.421,4.));
#1209=CARTESIAN_POINT('Origin',(34.7234172077653,16.4180915878903,4.));
#1210=CARTESIAN_POINT('',(35.9982178405042,16.1633694907562,2.));
#1211=CARTESIAN_POINT('',(35.9982178405042,16.1633694907562,4.));
#1212=CARTESIAN_POINT('',(35.9982178405042,16.1633694907562,4.));
#1213=CARTESIAN_POINT('',(34.4845057543115,17.6959496854147,2.));
#1214=CARTESIAN_POINT('Origin',(34.7234172077653,16.4180915878903,2.));
#1215=CARTESIAN_POINT('',(34.4845057543115,17.6959496854147,4.));
#1216=CARTESIAN_POINT('',(34.4845057543115,17.6959496854147,4.));
#1217=CARTESIAN_POINT('Origin',(34.7234172077653,16.4180915878903,4.));
#1218=CARTESIAN_POINT('Origin',(-11.5,22.485,4.));
#1219=CARTESIAN_POINT('',(-10.6693376137082,23.485,2.));
#1220=CARTESIAN_POINT('',(-10.6693376137082,23.485,4.));
#1221=CARTESIAN_POINT('',(-10.6693376137082,23.485,4.));
#1222=CARTESIAN_POINT('',(-12.3306623862918,23.485,2.));
#1223=CARTESIAN_POINT('Origin',(-11.5,22.485,2.));
#1224=CARTESIAN_POINT('',(-12.3306623862918,23.485,4.));
#1225=CARTESIAN_POINT('',(-12.3306623862918,23.485,4.));
#1226=CARTESIAN_POINT('Origin',(-11.5,22.485,4.));
#1227=CARTESIAN_POINT('Origin',(40.5,-3.455,4.));
#1228=CARTESIAN_POINT('',(41.5,-4.28566238629181,2.));
#1229=CARTESIAN_POINT('',(41.5,-4.28566238629181,4.));
#1230=CARTESIAN_POINT('',(41.5,-4.28566238629181,4.));
#1231=CARTESIAN_POINT('',(41.5,-2.6243376137082,2.));
#1232=CARTESIAN_POINT('Origin',(40.5,-3.455,2.));
#1233=CARTESIAN_POINT('',(41.5,-2.6243376137082,4.));
#1234=CARTESIAN_POINT('',(41.5,-2.6243376137082,4.));
#1235=CARTESIAN_POINT('Origin',(40.5,-3.455,4.));
#1236=CARTESIAN_POINT('Origin',(-40.5,-3.455,4.));
#1237=CARTESIAN_POINT('',(-41.5,-2.62433761370819,2.));
#1238=CARTESIAN_POINT('',(-41.5,-2.62433761370819,4.));
#1239=CARTESIAN_POINT('',(-41.5,-2.62433761370819,4.));
#1240=CARTESIAN_POINT('',(-41.5,-4.28566238629181,2.));
#1241=CARTESIAN_POINT('Origin',(-40.5,-3.455,2.));
#1242=CARTESIAN_POINT('',(-41.5,-4.28566238629181,4.));
#1243=CARTESIAN_POINT('',(-41.5,-4.28566238629181,4.));
#1244=CARTESIAN_POINT('Origin',(-40.5,-3.455,4.));
#1245=CARTESIAN_POINT('Origin',(13.,-22.421,4.));
#1246=CARTESIAN_POINT('',(12.253070284431,-23.485,2.));
#1247=CARTESIAN_POINT('',(12.253070284431,-23.485,4.));
#1248=CARTESIAN_POINT('',(12.253070284431,-23.485,4.));
#1249=CARTESIAN_POINT('',(13.746929715569,-23.485,2.));
#1250=CARTESIAN_POINT('Origin',(13.,-22.421,2.));
#1251=CARTESIAN_POINT('',(13.746929715569,-23.485,4.));
#1252=CARTESIAN_POINT('',(13.746929715569,-23.485,4.));
#1253=CARTESIAN_POINT('Origin',(13.,-22.421,4.));
#1254=CARTESIAN_POINT('Origin',(-33.7417892270139,17.2750210020324,4.));
#1255=CARTESIAN_POINT('',(-33.4950494887192,18.5513906591248,2.));
#1256=CARTESIAN_POINT('',(-33.4950494887192,18.5513906591249,4.));
#1257=CARTESIAN_POINT('',(-33.4950494887192,18.5513906591249,4.));
#1258=CARTESIAN_POINT('',(-35.0375674416654,17.1703366267215,2.));
#1259=CARTESIAN_POINT('Origin',(-33.7417892270139,17.2750210020324,2.));
#1260=CARTESIAN_POINT('',(-35.0375674416655,17.1703366267214,4.));
#1261=CARTESIAN_POINT('',(-35.0375674416655,17.1703366267214,4.));
#1262=CARTESIAN_POINT('Origin',(-33.7417892270139,17.2750210020324,4.));
#1263=CARTESIAN_POINT('Origin',(11.5,22.485,4.));
#1264=CARTESIAN_POINT('',(12.3306623862918,23.485,2.));
#1265=CARTESIAN_POINT('',(12.3306623862918,23.485,4.));
#1266=CARTESIAN_POINT('',(12.3306623862918,23.485,4.));
#1267=CARTESIAN_POINT('',(10.6693376137082,23.485,2.));
#1268=CARTESIAN_POINT('Origin',(11.5,22.485,2.));
#1269=CARTESIAN_POINT('',(10.6693376137082,23.485,4.));
#1270=CARTESIAN_POINT('',(10.6693376137082,23.485,4.));
#1271=CARTESIAN_POINT('Origin',(11.5,22.485,4.));
#1272=CARTESIAN_POINT('Origin',(36.8306445394394,-18.9068480014701,4.));
#1273=CARTESIAN_POINT('',(36.6424752400398,-20.1931575733709,2.));
#1274=CARTESIAN_POINT('',(36.6424752400398,-20.1931575733709,4.));
#1275=CARTESIAN_POINT('',(36.6424752400398,-20.1931575733709,4.));
#1276=CARTESIAN_POINT('',(38.118855618043,-18.7321705359436,2.));
#1277=CARTESIAN_POINT('Origin',(36.8306445394394,-18.9068480014701,2.));
#1278=CARTESIAN_POINT('',(38.118855618043,-18.7321705359436,4.));
#1279=CARTESIAN_POINT('',(38.118855618043,-18.7321705359436,4.));
#1280=CARTESIAN_POINT('Origin',(36.8306445394394,-18.9068480014701,4.));
#1281=CARTESIAN_POINT('Origin',(-36.6476515903021,-19.0418002395051,4.));
#1282=CARTESIAN_POINT('',(-37.9428750070477,-18.9304615637729,2.));
#1283=CARTESIAN_POINT('',(-37.9428750070477,-18.9304615637729,4.));
#1284=CARTESIAN_POINT('',(-37.9428750070477,-18.9304615637729,4.));
#1285=CARTESIAN_POINT('',(-36.4785389389992,-20.3307536564948,2.));
#1286=CARTESIAN_POINT('Origin',(-36.6476515903021,-19.0418002395051,2.));
#1287=CARTESIAN_POINT('',(-36.4785389389992,-20.3307536564948,4.));
#1288=CARTESIAN_POINT('',(-36.4785389389992,-20.3307536564948,4.));
#1289=CARTESIAN_POINT('Origin',(-36.6476515903021,-19.0418002395051,4.));
#1290=CARTESIAN_POINT('Origin',(19.6077287890851,1.48849747580111,2.));
#1291=CARTESIAN_POINT('',(20.,23.485,2.));
#1292=CARTESIAN_POINT('Origin',(19.6077287890851,1.48849747580111,2.));
#1293=CARTESIAN_POINT('',(20.,23.485,4.));
#1294=CARTESIAN_POINT('',(20.,23.485,2.));
#1295=CARTESIAN_POINT('Origin',(19.6077287890851,1.48849747580111,4.));
#1296=CARTESIAN_POINT('Origin',(41.5,-10.837,2.));
#1297=CARTESIAN_POINT('',(41.5,3.663,2.));
#1298=CARTESIAN_POINT('',(41.5,-10.837,2.));
#1299=CARTESIAN_POINT('',(41.5,3.663,4.));
#1300=CARTESIAN_POINT('',(41.5,3.663,2.));
#1301=CARTESIAN_POINT('',(41.5,-10.837,4.));
#1302=CARTESIAN_POINT('Origin',(-41.5,3.663,2.));
#1303=CARTESIAN_POINT('',(-41.5,-10.837,2.));
#1304=CARTESIAN_POINT('',(-41.5,3.663,2.));
#1305=CARTESIAN_POINT('',(-41.5,-10.837,4.));
#1306=CARTESIAN_POINT('',(-41.5,-10.837,2.));
#1307=CARTESIAN_POINT('',(-41.5,3.663,4.));
#1308=CARTESIAN_POINT('Origin',(-28.787,-23.485,2.));
#1309=CARTESIAN_POINT('',(28.787,-23.485,2.));
#1310=CARTESIAN_POINT('',(-28.787,-23.485,2.));
#1311=CARTESIAN_POINT('',(28.787,-23.485,4.));
#1312=CARTESIAN_POINT('',(28.787,-23.485,2.));
#1313=CARTESIAN_POINT('',(-28.787,-23.485,4.));
#1314=CARTESIAN_POINT('Origin',(-28.787,-23.485,2.));
#1315=CARTESIAN_POINT('',(-28.787,-23.485,2.));
#1316=CARTESIAN_POINT('',(-28.787,-23.485,4.));
#1317=CARTESIAN_POINT('Origin',(-19.6077287890851,1.48849747580112,2.));
#1318=CARTESIAN_POINT('',(-41.5,3.663,2.));
#1319=CARTESIAN_POINT('Origin',(-19.6077287890851,1.48849747580112,2.));
#1320=CARTESIAN_POINT('',(-41.5,3.663,4.));
#1321=CARTESIAN_POINT('',(-41.5,3.663,2.));
#1322=CARTESIAN_POINT('Origin',(-19.6077287890851,1.48849747580112,4.));
#1323=CARTESIAN_POINT('Origin',(20.,23.485,2.));
#1324=CARTESIAN_POINT('',(-20.,23.485,2.));
#1325=CARTESIAN_POINT('',(20.,23.485,2.));
#1326=CARTESIAN_POINT('',(-20.,23.485,4.));
#1327=CARTESIAN_POINT('',(-20.,23.485,2.));
#1328=CARTESIAN_POINT('',(20.,23.485,4.));
#1329=CARTESIAN_POINT('Origin',(20.,23.485,2.));
#1330=CARTESIAN_POINT('',(20.,23.485,4.));
#1331=CARTESIAN_POINT('',(20.,23.485,2.));
#1332=CARTESIAN_POINT('Origin',(27.5603158945037,-9.53884475544163,2.));
#1333=CARTESIAN_POINT('',(41.5,-10.837,2.));
#1334=CARTESIAN_POINT('Origin',(27.5603158945037,-9.53884475544163,2.));
#1335=CARTESIAN_POINT('',(41.5,-10.837,4.));
#1336=CARTESIAN_POINT('',(41.5,-10.837,2.));
#1337=CARTESIAN_POINT('Origin',(27.5603158945037,-9.53884475544163,4.));
#1338=CARTESIAN_POINT('Origin',(0.,0.000163505279023868,4.));
#1339=CARTESIAN_POINT('Origin',(27.5603158945037,-9.53884475544163,4.));
#1340=CARTESIAN_POINT('',(41.5,-10.837,4.));
#1341=CARTESIAN_POINT('Origin',(19.6077287890851,1.48849747580111,4.));
#1342=CARTESIAN_POINT('',(20.,23.485,4.));
#1343=CARTESIAN_POINT('Origin',(-19.6077287890851,1.48849747580112,4.));
#1344=CARTESIAN_POINT('',(-41.5,3.663,4.));
#1345=CARTESIAN_POINT('Origin',(-27.5603158945037,-9.53884475544164,4.));
#1346=CARTESIAN_POINT('',(-28.787,-23.485,4.));
#1347=CARTESIAN_POINT('Origin',(-27.5603158945037,-9.53884475544164,4.));
#1348=CARTESIAN_POINT('',(-28.787,-23.485,4.));
#1349=CARTESIAN_POINT('',(-8.,5.,4.));
#1350=CARTESIAN_POINT('',(8.,5.,4.));
#1351=CARTESIAN_POINT('',(4.,5.,4.));
#1352=CARTESIAN_POINT('',(8.,-5.,4.));
#1353=CARTESIAN_POINT('Origin',(8.,-4.89858719658941E-16,4.));
#1354=CARTESIAN_POINT('',(-8.,-5.,4.));
#1355=CARTESIAN_POINT('',(-4.,-5.,4.));
#1356=CARTESIAN_POINT('Origin',(-8.,-4.89858719658941E-16,4.));
#1357=CARTESIAN_POINT('Origin',(-27.5603158945037,-9.53884475544164,2.));
#1358=CARTESIAN_POINT('',(-28.787,-23.485,2.));
#1359=CARTESIAN_POINT('Origin',(-27.5603158945037,-9.53884475544164,2.));
#1360=CARTESIAN_POINT('',(-28.787,-23.485,2.));
#1361=CARTESIAN_POINT('Origin',(8.,5.,0.));
#1362=CARTESIAN_POINT('',(8.,5.,0.));
#1363=CARTESIAN_POINT('',(-8.,5.,0.));
#1364=CARTESIAN_POINT('',(4.,5.,0.));
#1365=CARTESIAN_POINT('',(8.,5.,0.));
#1366=CARTESIAN_POINT('',(-8.,5.,0.));
#1367=CARTESIAN_POINT('Origin',(8.,-4.89858719658941E-16,0.));
#1368=CARTESIAN_POINT('',(8.,-5.,0.));
#1369=CARTESIAN_POINT('Origin',(8.,-4.89858719658941E-16,0.));
#1370=CARTESIAN_POINT('',(8.,-5.,0.));
#1371=CARTESIAN_POINT('Origin',(-8.,-5.,0.));
#1372=CARTESIAN_POINT('',(-8.,-5.,0.));
#1373=CARTESIAN_POINT('',(-4.,-5.,0.));
#1374=CARTESIAN_POINT('',(-8.,-5.,0.));
#1375=CARTESIAN_POINT('Origin',(-8.,-4.89858719658941E-16,0.));
#1376=CARTESIAN_POINT('Origin',(-8.,-4.89858719658941E-16,0.));
#1377=CARTESIAN_POINT('Origin',(-4.44089209850063E-15,0.,2.));
#1378=CARTESIAN_POINT('',(-28.787,-23.485,2.));
#1379=CARTESIAN_POINT('Origin',(-27.5603158945037,-9.53884475544164,2.));
#1380=CARTESIAN_POINT('',(-41.5,3.663,2.));
#1381=CARTESIAN_POINT('Origin',(-19.6077287890851,1.48849747580112,2.));
#1382=CARTESIAN_POINT('',(20.,23.485,2.));
#1383=CARTESIAN_POINT('Origin',(19.6077287890851,1.48849747580111,2.));
#1384=CARTESIAN_POINT('',(41.5,-10.837,2.));
#1385=CARTESIAN_POINT('Origin',(27.5603158945037,-9.53884475544163,2.));
#1386=CARTESIAN_POINT('',(-34.5,3.663,2.));
#1387=CARTESIAN_POINT('',(-20.,16.485,2.));
#1388=CARTESIAN_POINT('Origin',(-20.0973817192673,1.98532701055805,2.));
#1389=CARTESIAN_POINT('',(-34.5,-10.837,2.));
#1390=CARTESIAN_POINT('',(-34.5,1.8315,2.));
#1391=CARTESIAN_POINT('',(-28.787,-16.485,2.));
#1392=CARTESIAN_POINT('Origin',(-27.190612187489,-9.15686613440595,2.));
#1393=CARTESIAN_POINT('',(28.787,-16.485,2.));
#1394=CARTESIAN_POINT('',(-14.3935,-16.485,2.));
#1395=CARTESIAN_POINT('',(34.5,-10.837,2.));
#1396=CARTESIAN_POINT('Origin',(27.190612187489,-9.15686613440595,2.));
#1397=CARTESIAN_POINT('',(34.5,3.663,2.));
#1398=CARTESIAN_POINT('',(34.5,-5.4185,2.));
#1399=CARTESIAN_POINT('',(20.,16.485,2.));
#1400=CARTESIAN_POINT('Origin',(20.0973817192673,1.98532701055805,2.));
#1401=CARTESIAN_POINT('',(10.,16.485,2.));
#1402=CARTESIAN_POINT('Origin',(41.5,-10.837,2.));
#1403=CARTESIAN_POINT('Origin',(27.5603158945037,-9.53884475544163,2.));
#1404=CARTESIAN_POINT('Origin',(-28.787,-23.485,2.));
#1405=CARTESIAN_POINT('Origin',(-27.5603158945037,-9.53884475544164,2.));
#1406=CARTESIAN_POINT('Origin',(-41.5,3.663,2.));
#1407=CARTESIAN_POINT('Origin',(-19.6077287890851,1.48849747580112,2.));
#1408=CARTESIAN_POINT('Origin',(20.,23.485,2.));
#1409=CARTESIAN_POINT('Origin',(19.6077287890851,1.48849747580111,2.));
#1410=CARTESIAN_POINT('Origin',(27.190612187489,-9.15686613440595,0.));
#1411=CARTESIAN_POINT('',(28.787,-16.485,0.));
#1412=CARTESIAN_POINT('',(28.787,-16.485,0.));
#1413=CARTESIAN_POINT('',(34.5,-10.837,0.));
#1414=CARTESIAN_POINT('Origin',(27.190612187489,-9.15686613440595,0.));
#1415=CARTESIAN_POINT('',(34.5,-10.837,0.));
#1416=CARTESIAN_POINT('Origin',(-28.787,-16.485,0.));
#1417=CARTESIAN_POINT('',(-28.787,-16.485,0.));
#1418=CARTESIAN_POINT('',(-28.787,-16.485,0.));
#1419=CARTESIAN_POINT('',(-28.787,-16.485,0.));
#1420=CARTESIAN_POINT('Origin',(-27.190612187489,-9.15686613440595,0.));
#1421=CARTESIAN_POINT('',(-34.5,-10.837,0.));
#1422=CARTESIAN_POINT('',(-34.5,-10.837,0.));
#1423=CARTESIAN_POINT('Origin',(-27.190612187489,-9.15686613440595,0.));
#1424=CARTESIAN_POINT('Origin',(-34.5,3.663,0.));
#1425=CARTESIAN_POINT('',(-34.5,3.663,0.));
#1426=CARTESIAN_POINT('',(-34.5,3.663,0.));
#1427=CARTESIAN_POINT('',(-34.5,3.663,0.));
#1428=CARTESIAN_POINT('Origin',(-20.0973817192673,1.98532701055805,0.));
#1429=CARTESIAN_POINT('',(-20.,16.485,0.));
#1430=CARTESIAN_POINT('',(-20.,16.485,0.));
#1431=CARTESIAN_POINT('Origin',(-20.0973817192673,1.98532701055805,0.));
#1432=CARTESIAN_POINT('Origin',(20.,16.485,0.));
#1433=CARTESIAN_POINT('',(20.,16.485,0.));
#1434=CARTESIAN_POINT('',(20.,16.485,0.));
#1435=CARTESIAN_POINT('',(20.,16.485,0.));
#1436=CARTESIAN_POINT('Origin',(20.0973817192673,1.98532701055805,0.));
#1437=CARTESIAN_POINT('',(34.5,3.663,0.));
#1438=CARTESIAN_POINT('',(34.5,3.663,0.));
#1439=CARTESIAN_POINT('Origin',(20.0973817192673,1.98532701055805,0.));
#1440=CARTESIAN_POINT('Origin',(34.5,-10.837,0.));
#1441=CARTESIAN_POINT('',(34.5,-10.837,0.));
#1442=CARTESIAN_POINT('Origin',(0.,0.000163505279023868,0.));
#1443=CARTESIAN_POINT('',(0.,0.,4.));
#1444=CARTESIAN_POINT('',(0.,0.,4.));
#1445=UNCERTAINTY_MEASURE_WITH_UNIT(LENGTH_MEASURE(0.01),#1449,
'DISTANCE_ACCURACY_VALUE',
'Maximum model space distance between geometric entities at asserted c
onnectivities');
#1446=UNCERTAINTY_MEASURE_WITH_UNIT(LENGTH_MEASURE(0.01),#1449,
'DISTANCE_ACCURACY_VALUE',
'Maximum model space distance between geometric entities at asserted c
onnectivities');
#1447=(
GEOMETRIC_REPRESENTATION_CONTEXT(3)
GLOBAL_UNCERTAINTY_ASSIGNED_CONTEXT((#1445))
GLOBAL_UNIT_ASSIGNED_CONTEXT((#1449,#1451,#1452))
REPRESENTATION_CONTEXT('','3D')
);
#1448=(
GEOMETRIC_REPRESENTATION_CONTEXT(3)
GLOBAL_UNCERTAINTY_ASSIGNED_CONTEXT((#1446))
GLOBAL_UNIT_ASSIGNED_CONTEXT((#1449,#1451,#1452))
REPRESENTATION_CONTEXT('','3D')
);
#1449=(
LENGTH_UNIT()
NAMED_UNIT(*)
SI_UNIT(.MILLI.,.METRE.)
);
#1450=(
LENGTH_UNIT()
NAMED_UNIT(*)
SI_UNIT(.CENTI.,.METRE.)
);
#1451=(
NAMED_UNIT(*)
PLANE_ANGLE_UNIT()
SI_UNIT($,.RADIAN.)
);
#1452=(
NAMED_UNIT(*)
SI_UNIT($,.STERADIAN.)
SOLID_ANGLE_UNIT()
);
#1453=SHAPE_DEFINITION_REPRESENTATION(#1454,#1455);
#1454=PRODUCT_DEFINITION_SHAPE('',$,#1457);
#1455=SHAPE_REPRESENTATION('',(#851),#1447);
#1456=PRODUCT_DEFINITION_CONTEXT('part definition',#1461,'design');
#1457=PRODUCT_DEFINITION('BULK HEAD with half holes',
'BULK HEAD with half holes',#1458,#1456);
#1458=PRODUCT_DEFINITION_FORMATION('',$,#1463);
#1459=PRODUCT_RELATED_PRODUCT_CATEGORY('BULK HEAD with half holes',
'BULK HEAD with half holes',(#1463));
#1460=APPLICATION_PROTOCOL_DEFINITION('international standard',
'automotive_design',2009,#1461);
#1461=APPLICATION_CONTEXT(
'Core Data for Automotive Mechanical Design Process');
#1462=PRODUCT_CONTEXT('part definition',#1461,'mechanical');
#1463=PRODUCT('BULK HEAD with half holes','BULK HEAD with half holes',$,
(#1462));
#1464=PRESENTATION_STYLE_ASSIGNMENT((#1466));
#1465=PRESENTATION_STYLE_ASSIGNMENT((#1467));
#1466=SURFACE_STYLE_USAGE(.BOTH.,#1470);
#1467=SURFACE_STYLE_USAGE(.BOTH.,#1471);
#1468=SURFACE_STYLE_RENDERING_WITH_PROPERTIES($,#1478,(#1469));
#1469=SURFACE_STYLE_TRANSPARENT(0.);
#1470=SURFACE_SIDE_STYLE('',(#1472,#1468));
#1471=SURFACE_SIDE_STYLE('',(#1473));
#1472=SURFACE_STYLE_FILL_AREA(#1474);
#1473=SURFACE_STYLE_FILL_AREA(#1475);
#1474=FILL_AREA_STYLE('',(#1476));
#1475=FILL_AREA_STYLE('',(#1477));
#1476=FILL_AREA_STYLE_COLOUR('',#1478);
#1477=FILL_AREA_STYLE_COLOUR('',#1479);
#1478=COLOUR_RGB('',0.749019607843137,0.749019607843137,0.749019607843137);
#1479=COLOUR_RGB('',0.913725490196078,0.913725490196078,0.);
ENDSEC;
END-ISO-10303-21;
