ISO-10303-21;
HEADER;
/* Generated by software containing ST-Developer
 * from STEP Tools, Inc. (www.steptools.com) 
 */

FILE_DESCRIPTION(
/* description */ (''),
/* implementation_level */ '2;1');

FILE_NAME(
/* name */ 'front wingy mo bobs.stp',
/* time_stamp */ '2026-05-11T01:01:49+12:00',
/* author */ ('Jake'),
/* organization */ (''),
/* preprocessor_version */ 'ST-DEVELOPER v20.1',
/* originating_system */ 'Autodesk Inventor 2026',
/* authorisation */ '');

FILE_SCHEMA (('AUTOMOTIVE_DESIGN { 1 0 10303 214 3 1 1 }'));
ENDSEC;

DATA;
#10=MECHANICAL_DESIGN_GEOMETRIC_PRESENTATION_REPRESENTATION('',(#13),#1258);
#11=SHAPE_REPRESENTATION_RELATIONSHIP('SRR','None',#1265,#12);
#12=ADVANCED_BREP_SHAPE_REPRESENTATION('',(#14),#1257);
#13=STYLED_ITEM('',(#1274),#14);
#14=MANIFOLD_SOLID_BREP('Solid1',#587);
#15=B_SPLINE_SURFACE_WITH_KNOTS('',4,1,((#1209,#1210),(#1211,#1212),(#1213,
#1214),(#1215,#1216),(#1217,#1218),(#1219,#1220),(#1221,#1222),(#1223,#1224),
(#1225,#1226),(#1227,#1228)),.UNSPECIFIED.,.F.,.F.,.F.,(5,1,1,1,1,1,5),
(2,2),(0.,0.36860228481658,0.499990577914662,0.626325703172215,0.73677459435987,
0.845496950258261,1.),(0.,33.),.UNSPECIFIED.);
#16=B_SPLINE_SURFACE_WITH_KNOTS('',3,1,((#1246,#1247),(#1248,#1249),(#1250,
#1251),(#1252,#1253)),.UNSPECIFIED.,.F.,.F.,.F.,(4,4),(2,2),(1.,1.99814799753497),
(0.,33.),.UNSPECIFIED.);
#17=FACE_BOUND('',#129,.T.);
#18=FACE_BOUND('',#131,.T.);
#19=FACE_BOUND('',#145,.T.);
#20=ELLIPSE('',#618,73.8457202551374,70.);
#21=ELLIPSE('',#619,73.5394560763133,70.);
#22=ELLIPSE('',#620,73.0821455623739,70.);
#23=ELLIPSE('',#621,72.6546048093306,70.);
#24=ELLIPSE('',#622,72.1543484483091,70.);
#25=ELLIPSE('',#623,71.7346666542754,70.0000000000001);
#26=ELLIPSE('',#624,71.3050937871903,70.0000000000001);
#27=ELLIPSE('',#625,70.9809664628484,70.);
#28=ELLIPSE('',#626,70.6443939743275,70.);
#29=ELLIPSE('',#627,70.37754187239,70.0000000000001);
#30=ELLIPSE('',#628,70.1616533442593,70.0000000000001);
#31=ELLIPSE('',#629,70.0314929156876,70.);
#32=ELLIPSE('',#630,70.0034999125044,70.0000000000001);
#33=ELLIPSE('',#631,70.1258868036619,70.);
#34=ELLIPSE('',#633,7.60510354959089,7.5);
#35=ELLIPSE('',#635,38.7084794844747,38.);
#36=ELLIPSE('',#636,7.63983147719896,7.5);
#37=ELLIPSE('',#637,7.63983147719896,7.5);
#38=ELLIPSE('',#639,38.9416761837495,38.);
#39=ELLIPSE('',#641,39.1695034433678,38.);
#40=ELLIPSE('',#643,39.441071182208,38.);
#41=ELLIPSE('',#645,39.6731647338601,38.);
#42=ELLIPSE('',#647,39.9214190128557,38.);
#43=ELLIPSE('',#649,40.0876767099317,38.);
#44=ELLIPSE('',#653,39.8981904351563,38.);
#45=ELLIPSE('',#655,38.3498138717778,38.);
#46=ELLIPSE('',#656,38.5325246512605,38.);
#47=ELLIPSE('',#658,38.3498138717778,38.);
#48=ELLIPSE('',#660,38.0683385505593,38.);
#49=ELLIPSE('',#661,38.0018999525024,38.);
#50=ELLIPSE('',#662,38.0170961542304,38.);
#51=ELLIPSE('',#663,38.0877546725979,38.);
#52=ELLIPSE('',#664,38.2049513021545,38.);
#53=ELLIPSE('',#666,7.60510354959089,7.5);
#54=ELLIPSE('',#668,7.56904221153509,7.5);
#55=ELLIPSE('',#670,7.54045091489892,7.5);
#56=ELLIPSE('',#672,7.51732000117063,7.5);
#57=ELLIPSE('',#677,7.54045091489892,7.5);
#58=ELLIPSE('',#678,7.56904221153509,7.5);
#59=PLANE('',#612);
#60=PLANE('',#615);
#61=PLANE('',#632);
#62=PLANE('',#634);
#63=PLANE('',#638);
#64=PLANE('',#640);
#65=PLANE('',#642);
#66=PLANE('',#644);
#67=PLANE('',#646);
#68=PLANE('',#648);
#69=PLANE('',#665);
#70=PLANE('',#667);
#71=PLANE('',#669);
#72=PLANE('',#671);
#73=PLANE('',#673);
#74=PLANE('',#674);
#75=PLANE('',#675);
#76=PLANE('',#680);
#77=PLANE('',#681);
#78=PLANE('',#682);
#79=PLANE('',#683);
#80=PLANE('',#684);
#81=FACE_OUTER_BOUND('',#113,.T.);
#82=FACE_OUTER_BOUND('',#114,.T.);
#83=FACE_OUTER_BOUND('',#115,.T.);
#84=FACE_OUTER_BOUND('',#116,.T.);
#85=FACE_OUTER_BOUND('',#117,.T.);
#86=FACE_OUTER_BOUND('',#118,.T.);
#87=FACE_OUTER_BOUND('',#119,.T.);
#88=FACE_OUTER_BOUND('',#120,.T.);
#89=FACE_OUTER_BOUND('',#121,.T.);
#90=FACE_OUTER_BOUND('',#122,.T.);
#91=FACE_OUTER_BOUND('',#123,.T.);
#92=FACE_OUTER_BOUND('',#124,.T.);
#93=FACE_OUTER_BOUND('',#125,.T.);
#94=FACE_OUTER_BOUND('',#126,.T.);
#95=FACE_OUTER_BOUND('',#127,.T.);
#96=FACE_OUTER_BOUND('',#128,.T.);
#97=FACE_OUTER_BOUND('',#130,.T.);
#98=FACE_OUTER_BOUND('',#132,.T.);
#99=FACE_OUTER_BOUND('',#133,.T.);
#100=FACE_OUTER_BOUND('',#134,.T.);
#101=FACE_OUTER_BOUND('',#135,.T.);
#102=FACE_OUTER_BOUND('',#136,.T.);
#103=FACE_OUTER_BOUND('',#137,.T.);
#104=FACE_OUTER_BOUND('',#138,.T.);
#105=FACE_OUTER_BOUND('',#139,.T.);
#106=FACE_OUTER_BOUND('',#140,.T.);
#107=FACE_OUTER_BOUND('',#141,.T.);
#108=FACE_OUTER_BOUND('',#142,.T.);
#109=FACE_OUTER_BOUND('',#143,.T.);
#110=FACE_OUTER_BOUND('',#144,.T.);
#111=FACE_OUTER_BOUND('',#146,.T.);
#112=FACE_OUTER_BOUND('',#147,.T.);
#113=EDGE_LOOP('',(#373,#374,#375,#376));
#114=EDGE_LOOP('',(#377));
#115=EDGE_LOOP('',(#378,#379,#380,#381));
#116=EDGE_LOOP('',(#382));
#117=EDGE_LOOP('',(#383,#384,#385,#386,#387,#388,#389,#390,#391,#392,#393,
#394,#395,#396,#397,#398,#399,#400,#401));
#118=EDGE_LOOP('',(#402,#403,#404,#405));
#119=EDGE_LOOP('',(#406,#407,#408,#409,#410,#411,#412));
#120=EDGE_LOOP('',(#413,#414,#415,#416));
#121=EDGE_LOOP('',(#417,#418,#419,#420));
#122=EDGE_LOOP('',(#421,#422,#423,#424));
#123=EDGE_LOOP('',(#425,#426,#427,#428));
#124=EDGE_LOOP('',(#429,#430,#431,#432));
#125=EDGE_LOOP('',(#433,#434,#435,#436,#437));
#126=EDGE_LOOP('',(#438,#439,#440,#441));
#127=EDGE_LOOP('',(#442,#443,#444,#445,#446));
#128=EDGE_LOOP('',(#447,#448,#449,#450,#451,#452,#453,#454,#455,#456,#457,
#458));
#129=EDGE_LOOP('',(#459));
#130=EDGE_LOOP('',(#460,#461,#462,#463,#464,#465,#466,#467,#468,#469,#470));
#131=EDGE_LOOP('',(#471));
#132=EDGE_LOOP('',(#472,#473,#474,#475));
#133=EDGE_LOOP('',(#476,#477,#478,#479,#480));
#134=EDGE_LOOP('',(#481,#482,#483,#484));
#135=EDGE_LOOP('',(#485,#486,#487,#488,#489,#490));
#136=EDGE_LOOP('',(#491,#492,#493,#494));
#137=EDGE_LOOP('',(#495,#496,#497,#498));
#138=EDGE_LOOP('',(#499,#500,#501,#502));
#139=EDGE_LOOP('',(#503,#504,#505,#506,#507));
#140=EDGE_LOOP('',(#508,#509,#510,#511,#512,#513,#514,#515,#516,#517,#518,
#519));
#141=EDGE_LOOP('',(#520,#521,#522,#523));
#142=EDGE_LOOP('',(#524,#525,#526,#527));
#143=EDGE_LOOP('',(#528,#529,#530,#531));
#144=EDGE_LOOP('',(#532,#533,#534,#535,#536,#537));
#145=EDGE_LOOP('',(#538));
#146=EDGE_LOOP('',(#539,#540,#541,#542));
#147=EDGE_LOOP('',(#543,#544,#545,#546));
#148=CIRCLE('',#611,3.5);
#149=CIRCLE('',#614,2.5);
#150=CIRCLE('',#617,70.);
#151=CIRCLE('',#654,38.);
#152=CIRCLE('',#659,38.);
#153=CIRCLE('',#679,7.5);
#154=LINE('',#907,#186);
#155=LINE('',#947,#187);
#156=LINE('',#962,#188);
#157=LINE('',#1037,#189);
#158=LINE('',#1040,#190);
#159=LINE('',#1043,#191);
#160=LINE('',#1047,#192);
#161=LINE('',#1053,#193);
#162=LINE('',#1057,#194);
#163=LINE('',#1061,#195);
#164=LINE('',#1065,#196);
#165=LINE('',#1069,#197);
#166=LINE('',#1073,#198);
#167=LINE('',#1075,#199);
#168=LINE('',#1085,#200);
#169=LINE('',#1116,#201);
#170=LINE('',#1117,#202);
#171=LINE('',#1124,#203);
#172=LINE('',#1188,#204);
#173=LINE('',#1192,#205);
#174=LINE('',#1196,#206);
#175=LINE('',#1200,#207);
#176=LINE('',#1202,#208);
#177=LINE('',#1204,#209);
#178=LINE('',#1206,#210);
#179=LINE('',#1208,#211);
#180=LINE('',#1234,#212);
#181=LINE('',#1237,#213);
#182=LINE('',#1241,#214);
#183=LINE('',#1242,#215);
#184=LINE('',#1244,#216);
#185=LINE('',#1245,#217);
#186=VECTOR('',#689,3.5);
#187=VECTOR('',#696,2.5);
#188=VECTOR('',#705,10.);
#189=VECTOR('',#736,10.);
#190=VECTOR('',#739,10.);
#191=VECTOR('',#742,10.);
#192=VECTOR('',#745,10.);
#193=VECTOR('',#752,10.);
#194=VECTOR('',#757,10.);
#195=VECTOR('',#762,10.);
#196=VECTOR('',#767,10.);
#197=VECTOR('',#772,10.);
#198=VECTOR('',#777,10.);
#199=VECTOR('',#778,10.);
#200=VECTOR('',#783,10.);
#201=VECTOR('',#786,10.);
#202=VECTOR('',#787,10.);
#203=VECTOR('',#794,10.);
#204=VECTOR('',#817,10.);
#205=VECTOR('',#822,10.);
#206=VECTOR('',#827,10.);
#207=VECTOR('',#832,10.);
#208=VECTOR('',#835,10.);
#209=VECTOR('',#838,10.);
#210=VECTOR('',#841,10.);
#211=VECTOR('',#844,10.);
#212=VECTOR('',#851,7.5);
#213=VECTOR('',#856,10.);
#214=VECTOR('',#861,10.);
#215=VECTOR('',#862,10.);
#216=VECTOR('',#865,10.);
#217=VECTOR('',#866,10.);
#218=B_SPLINE_CURVE_WITH_KNOTS('',3,(#872,#873,#874,#875,#876,#877,#878,
#879,#880,#881,#882,#883,#884,#885,#886,#887,#888,#889,#890,#891,#892,#893,
#894,#895,#896,#897,#898,#899,#900,#901,#902,#903,#904,#905),
 .UNSPECIFIED.,.T.,.F.,(4,2,2,2,2,2,2,2,2,2,2,2,2,2,2,2,4),(0.,0.131803144930804,
0.263606289861608,0.405647759127003,0.547689228392398,0.685997358804521,
0.824305489216645,0.955670042054882,1.08703459489312,1.21839914773136,1.34976370056959,
1.48807183098172,1.62637996139384,1.76842143065924,1.91046289992463,2.04226604485544,
2.17406918978624),.UNSPECIFIED.);
#219=B_SPLINE_CURVE_WITH_KNOTS('',3,(#912,#913,#914,#915,#916,#917,#918,
#919,#920,#921,#922,#923,#924,#925,#926,#927,#928,#929,#930,#931,#932,#933,
#934,#935,#936,#937,#938,#939,#940,#941,#942,#943,#944,#945),
 .UNSPECIFIED.,.T.,.F.,(4,2,2,2,2,2,2,2,2,2,2,2,2,2,2,2,4),(0.,0.0937345809437331,
0.187469161887466,0.288360739113073,0.389252316338679,0.492438986541108,
0.595625656743537,0.689634138954357,0.783642621165178,0.879988769503615,
0.976334917842052,1.07719511737508,1.17805531690811,1.27894689413371,1.37983847135932,
1.47357305230305,1.56730763324679),.UNSPECIFIED.);
#220=B_SPLINE_CURVE_WITH_KNOTS('',3,(#953,#954,#955,#956,#957,#958),
 .UNSPECIFIED.,.F.,.F.,(4,2,4),(-0.625165583355053,-0.27251071466103,0.),
 .UNSPECIFIED.);
#221=B_SPLINE_CURVE_WITH_KNOTS('',3,(#992,#993,#994,#995,#996,#997,#998,
#999,#1000,#1001,#1002,#1003,#1004,#1005,#1006,#1007,#1008,#1009),
 .UNSPECIFIED.,.F.,.F.,(4,2,2,2,2,2,2,2,4),(-5.06313277262048,-4.32690767593492,
-3.81803198647242,-3.0586631721454,-2.50757102938697,-1.96754054030574,
-1.62987964415061,-0.726996099174377,0.),.UNSPECIFIED.);
#222=B_SPLINE_CURVE_WITH_KNOTS('',3,(#1010,#1011,#1012,#1013,#1014,#1015,
#1016,#1017,#1018,#1019,#1020,#1021,#1022,#1023,#1024,#1025,#1026,#1027,
#1028,#1029,#1030,#1031,#1032,#1033,#1034),.UNSPECIFIED.,.F.,.F.,(4,2,2,
2,2,2,3,2,2,2,2,4),(-0.368412293884888,-0.108318248378434,-0.0641398849449528,
-0.0199615215114721,-0.00998076075573628,-0.00499038037786814,0.,0.00499038037786802,
0.00998076075573604,0.0199615215114721,0.0641398849449528,0.100349080606566),
 .UNSPECIFIED.);
#223=B_SPLINE_CURVE_WITH_KNOTS('',3,(#1080,#1081,#1082,#1083),
 .UNSPECIFIED.,.F.,.F.,(4,4),(-0.266514366670799,0.),.UNSPECIFIED.);
#224=B_SPLINE_CURVE_WITH_KNOTS('',3,(#1087,#1088,#1089,#1090,#1091,#1092,
#1093,#1094,#1095,#1096,#1097,#1098,#1099,#1100,#1101,#1102),
 .UNSPECIFIED.,.F.,.F.,(4,2,2,2,2,2,2,4),(1.32385253409498,1.32860051373047,
1.33334849336596,1.34284445263694,1.38442528494725,1.42600611725756,1.68721412807722,
1.69129404888993),.UNSPECIFIED.);
#225=B_SPLINE_CURVE_WITH_KNOTS('',3,(#1103,#1104,#1105,#1106,#1107,#1108,
#1109,#1110,#1111,#1112,#1113,#1114),.UNSPECIFIED.,.F.,.F.,(4,2,2,2,2,4),
(1.22253432594829,1.2632797832427,1.30486061555301,1.314356574824,1.31910455445949,
1.32385253409498),.UNSPECIFIED.);
#226=B_SPLINE_CURVE_WITH_KNOTS('',3,(#1133,#1134,#1135,#1136,#1137,#1138),
 .UNSPECIFIED.,.F.,.F.,(4,2,4),(-0.867929832778019,-0.485942110197534,0.),
 .UNSPECIFIED.);
#227=B_SPLINE_CURVE_WITH_KNOTS('',3,(#1140,#1141,#1142,#1143,#1144,#1145,
#1146,#1147,#1148,#1149,#1150,#1151,#1152,#1153,#1154,#1155,#1156,#1157,
#1158,#1159,#1160,#1161,#1162,#1163,#1164,#1165,#1166,#1167,#1168,#1169,
#1170,#1171,#1172,#1173,#1174,#1175,#1176),.UNSPECIFIED.,.F.,.F.,(4,3,3,
3,3,3,3,3,3,3,3,3,4),(-6.41514084399545,-4.61283388032962,-3.63556673736638,
-2.54031581175663,-1.90523685881747,-1.66183631152038,-1.40834979600602,
-1.13651317957222,-0.92039790989273,-0.539948608782619,-0.250215097696944,
-0.0267830893059228,0.),.UNSPECIFIED.);
#228=VERTEX_POINT('',#871);
#229=VERTEX_POINT('',#906);
#230=VERTEX_POINT('',#911);
#231=VERTEX_POINT('',#946);
#232=VERTEX_POINT('',#951);
#233=VERTEX_POINT('',#952);
#234=VERTEX_POINT('',#959);
#235=VERTEX_POINT('',#961);
#236=VERTEX_POINT('',#963);
#237=VERTEX_POINT('',#965);
#238=VERTEX_POINT('',#967);
#239=VERTEX_POINT('',#969);
#240=VERTEX_POINT('',#971);
#241=VERTEX_POINT('',#973);
#242=VERTEX_POINT('',#975);
#243=VERTEX_POINT('',#977);
#244=VERTEX_POINT('',#979);
#245=VERTEX_POINT('',#981);
#246=VERTEX_POINT('',#983);
#247=VERTEX_POINT('',#985);
#248=VERTEX_POINT('',#987);
#249=VERTEX_POINT('',#989);
#250=VERTEX_POINT('',#991);
#251=VERTEX_POINT('',#1036);
#252=VERTEX_POINT('',#1038);
#253=VERTEX_POINT('',#1042);
#254=VERTEX_POINT('',#1044);
#255=VERTEX_POINT('',#1046);
#256=VERTEX_POINT('',#1048);
#257=VERTEX_POINT('',#1052);
#258=VERTEX_POINT('',#1056);
#259=VERTEX_POINT('',#1060);
#260=VERTEX_POINT('',#1064);
#261=VERTEX_POINT('',#1068);
#262=VERTEX_POINT('',#1072);
#263=VERTEX_POINT('',#1074);
#264=VERTEX_POINT('',#1078);
#265=VERTEX_POINT('',#1079);
#266=VERTEX_POINT('',#1084);
#267=VERTEX_POINT('',#1086);
#268=VERTEX_POINT('',#1119);
#269=VERTEX_POINT('',#1121);
#270=VERTEX_POINT('',#1123);
#271=VERTEX_POINT('',#1125);
#272=VERTEX_POINT('',#1129);
#273=VERTEX_POINT('',#1131);
#274=VERTEX_POINT('',#1139);
#275=VERTEX_POINT('',#1177);
#276=VERTEX_POINT('',#1179);
#277=VERTEX_POINT('',#1181);
#278=VERTEX_POINT('',#1183);
#279=VERTEX_POINT('',#1187);
#280=VERTEX_POINT('',#1191);
#281=VERTEX_POINT('',#1195);
#282=VERTEX_POINT('',#1199);
#283=VERTEX_POINT('',#1230);
#284=VERTEX_POINT('',#1233);
#285=VERTEX_POINT('',#1240);
#286=EDGE_CURVE('',#228,#228,#218,.T.);
#287=EDGE_CURVE('',#228,#229,#154,.T.);
#288=EDGE_CURVE('',#229,#229,#148,.T.);
#289=EDGE_CURVE('',#230,#230,#219,.T.);
#290=EDGE_CURVE('',#230,#231,#155,.T.);
#291=EDGE_CURVE('',#231,#231,#149,.T.);
#292=EDGE_CURVE('',#232,#233,#220,.T.);
#293=EDGE_CURVE('',#234,#232,#150,.T.);
#294=EDGE_CURVE('',#235,#234,#156,.T.);
#295=EDGE_CURVE('',#236,#235,#20,.T.);
#296=EDGE_CURVE('',#237,#236,#21,.T.);
#297=EDGE_CURVE('',#238,#237,#22,.T.);
#298=EDGE_CURVE('',#239,#238,#23,.T.);
#299=EDGE_CURVE('',#240,#239,#24,.T.);
#300=EDGE_CURVE('',#241,#240,#25,.T.);
#301=EDGE_CURVE('',#242,#241,#26,.T.);
#302=EDGE_CURVE('',#243,#242,#27,.T.);
#303=EDGE_CURVE('',#244,#243,#28,.T.);
#304=EDGE_CURVE('',#245,#244,#29,.T.);
#305=EDGE_CURVE('',#246,#245,#30,.T.);
#306=EDGE_CURVE('',#247,#246,#31,.T.);
#307=EDGE_CURVE('',#248,#247,#32,.T.);
#308=EDGE_CURVE('',#249,#248,#33,.T.);
#309=EDGE_CURVE('',#250,#249,#221,.T.);
#310=EDGE_CURVE('',#233,#250,#222,.T.);
#311=EDGE_CURVE('',#251,#242,#157,.T.);
#312=EDGE_CURVE('',#251,#252,#34,.T.);
#313=EDGE_CURVE('',#252,#243,#158,.T.);
#314=EDGE_CURVE('',#253,#241,#159,.T.);
#315=EDGE_CURVE('',#253,#254,#35,.T.);
#316=EDGE_CURVE('',#254,#255,#160,.T.);
#317=EDGE_CURVE('',#255,#256,#36,.T.);
#318=EDGE_CURVE('',#256,#251,#37,.T.);
#319=EDGE_CURVE('',#257,#240,#161,.T.);
#320=EDGE_CURVE('',#257,#253,#38,.T.);
#321=EDGE_CURVE('',#258,#239,#162,.T.);
#322=EDGE_CURVE('',#258,#257,#39,.T.);
#323=EDGE_CURVE('',#259,#238,#163,.T.);
#324=EDGE_CURVE('',#259,#258,#40,.T.);
#325=EDGE_CURVE('',#260,#237,#164,.T.);
#326=EDGE_CURVE('',#260,#259,#41,.T.);
#327=EDGE_CURVE('',#261,#236,#165,.T.);
#328=EDGE_CURVE('',#261,#260,#42,.T.);
#329=EDGE_CURVE('',#262,#235,#166,.T.);
#330=EDGE_CURVE('',#263,#262,#167,.T.);
#331=EDGE_CURVE('',#263,#261,#43,.T.);
#332=EDGE_CURVE('',#264,#265,#223,.T.);
#333=EDGE_CURVE('',#264,#266,#168,.T.);
#334=EDGE_CURVE('',#267,#266,#224,.T.);
#335=EDGE_CURVE('',#265,#267,#225,.T.);
#336=EDGE_CURVE('',#265,#250,#169,.T.);
#337=EDGE_CURVE('',#266,#233,#170,.T.);
#338=EDGE_CURVE('',#268,#263,#44,.T.);
#339=EDGE_CURVE('',#269,#268,#151,.T.);
#340=EDGE_CURVE('',#269,#270,#171,.T.);
#341=EDGE_CURVE('',#271,#270,#45,.T.);
#342=EDGE_CURVE('',#254,#271,#46,.T.);
#343=EDGE_CURVE('',#270,#272,#47,.T.);
#344=EDGE_CURVE('',#273,#269,#152,.T.);
#345=EDGE_CURVE('',#266,#273,#226,.T.);
#346=EDGE_CURVE('',#274,#264,#227,.T.);
#347=EDGE_CURVE('',#275,#274,#48,.T.);
#348=EDGE_CURVE('',#276,#275,#49,.T.);
#349=EDGE_CURVE('',#277,#276,#50,.T.);
#350=EDGE_CURVE('',#278,#277,#51,.T.);
#351=EDGE_CURVE('',#272,#278,#52,.T.);
#352=EDGE_CURVE('',#271,#279,#172,.T.);
#353=EDGE_CURVE('',#279,#255,#53,.T.);
#354=EDGE_CURVE('',#272,#280,#173,.T.);
#355=EDGE_CURVE('',#280,#279,#54,.T.);
#356=EDGE_CURVE('',#278,#281,#174,.T.);
#357=EDGE_CURVE('',#281,#280,#55,.T.);
#358=EDGE_CURVE('',#282,#245,#175,.T.);
#359=EDGE_CURVE('',#282,#281,#56,.T.);
#360=EDGE_CURVE('',#277,#246,#176,.T.);
#361=EDGE_CURVE('',#276,#247,#177,.T.);
#362=EDGE_CURVE('',#275,#248,#178,.T.);
#363=EDGE_CURVE('',#274,#249,#179,.T.);
#364=EDGE_CURVE('',#283,#282,#57,.T.);
#365=EDGE_CURVE('',#252,#283,#58,.T.);
#366=EDGE_CURVE('',#256,#284,#180,.T.);
#367=EDGE_CURVE('',#284,#284,#153,.T.);
#368=EDGE_CURVE('',#283,#244,#181,.T.);
#369=EDGE_CURVE('',#285,#262,#182,.T.);
#370=EDGE_CURVE('',#268,#285,#183,.T.);
#371=EDGE_CURVE('',#273,#232,#184,.T.);
#372=EDGE_CURVE('',#234,#285,#185,.T.);
#373=ORIENTED_EDGE('',*,*,#286,.F.);
#374=ORIENTED_EDGE('',*,*,#287,.T.);
#375=ORIENTED_EDGE('',*,*,#288,.T.);
#376=ORIENTED_EDGE('',*,*,#287,.F.);
#377=ORIENTED_EDGE('',*,*,#288,.F.);
#378=ORIENTED_EDGE('',*,*,#289,.F.);
#379=ORIENTED_EDGE('',*,*,#290,.T.);
#380=ORIENTED_EDGE('',*,*,#291,.T.);
#381=ORIENTED_EDGE('',*,*,#290,.F.);
#382=ORIENTED_EDGE('',*,*,#291,.F.);
#383=ORIENTED_EDGE('',*,*,#292,.F.);
#384=ORIENTED_EDGE('',*,*,#293,.F.);
#385=ORIENTED_EDGE('',*,*,#294,.F.);
#386=ORIENTED_EDGE('',*,*,#295,.F.);
#387=ORIENTED_EDGE('',*,*,#296,.F.);
#388=ORIENTED_EDGE('',*,*,#297,.F.);
#389=ORIENTED_EDGE('',*,*,#298,.F.);
#390=ORIENTED_EDGE('',*,*,#299,.F.);
#391=ORIENTED_EDGE('',*,*,#300,.F.);
#392=ORIENTED_EDGE('',*,*,#301,.F.);
#393=ORIENTED_EDGE('',*,*,#302,.F.);
#394=ORIENTED_EDGE('',*,*,#303,.F.);
#395=ORIENTED_EDGE('',*,*,#304,.F.);
#396=ORIENTED_EDGE('',*,*,#305,.F.);
#397=ORIENTED_EDGE('',*,*,#306,.F.);
#398=ORIENTED_EDGE('',*,*,#307,.F.);
#399=ORIENTED_EDGE('',*,*,#308,.F.);
#400=ORIENTED_EDGE('',*,*,#309,.F.);
#401=ORIENTED_EDGE('',*,*,#310,.F.);
#402=ORIENTED_EDGE('',*,*,#302,.T.);
#403=ORIENTED_EDGE('',*,*,#311,.F.);
#404=ORIENTED_EDGE('',*,*,#312,.T.);
#405=ORIENTED_EDGE('',*,*,#313,.T.);
#406=ORIENTED_EDGE('',*,*,#301,.T.);
#407=ORIENTED_EDGE('',*,*,#314,.F.);
#408=ORIENTED_EDGE('',*,*,#315,.T.);
#409=ORIENTED_EDGE('',*,*,#316,.T.);
#410=ORIENTED_EDGE('',*,*,#317,.T.);
#411=ORIENTED_EDGE('',*,*,#318,.T.);
#412=ORIENTED_EDGE('',*,*,#311,.T.);
#413=ORIENTED_EDGE('',*,*,#300,.T.);
#414=ORIENTED_EDGE('',*,*,#319,.F.);
#415=ORIENTED_EDGE('',*,*,#320,.T.);
#416=ORIENTED_EDGE('',*,*,#314,.T.);
#417=ORIENTED_EDGE('',*,*,#299,.T.);
#418=ORIENTED_EDGE('',*,*,#321,.F.);
#419=ORIENTED_EDGE('',*,*,#322,.T.);
#420=ORIENTED_EDGE('',*,*,#319,.T.);
#421=ORIENTED_EDGE('',*,*,#298,.T.);
#422=ORIENTED_EDGE('',*,*,#323,.F.);
#423=ORIENTED_EDGE('',*,*,#324,.T.);
#424=ORIENTED_EDGE('',*,*,#321,.T.);
#425=ORIENTED_EDGE('',*,*,#297,.T.);
#426=ORIENTED_EDGE('',*,*,#325,.F.);
#427=ORIENTED_EDGE('',*,*,#326,.T.);
#428=ORIENTED_EDGE('',*,*,#323,.T.);
#429=ORIENTED_EDGE('',*,*,#296,.T.);
#430=ORIENTED_EDGE('',*,*,#327,.F.);
#431=ORIENTED_EDGE('',*,*,#328,.T.);
#432=ORIENTED_EDGE('',*,*,#325,.T.);
#433=ORIENTED_EDGE('',*,*,#295,.T.);
#434=ORIENTED_EDGE('',*,*,#329,.F.);
#435=ORIENTED_EDGE('',*,*,#330,.F.);
#436=ORIENTED_EDGE('',*,*,#331,.T.);
#437=ORIENTED_EDGE('',*,*,#327,.T.);
#438=ORIENTED_EDGE('',*,*,#332,.F.);
#439=ORIENTED_EDGE('',*,*,#333,.T.);
#440=ORIENTED_EDGE('',*,*,#334,.F.);
#441=ORIENTED_EDGE('',*,*,#335,.F.);
#442=ORIENTED_EDGE('',*,*,#310,.T.);
#443=ORIENTED_EDGE('',*,*,#336,.F.);
#444=ORIENTED_EDGE('',*,*,#335,.T.);
#445=ORIENTED_EDGE('',*,*,#334,.T.);
#446=ORIENTED_EDGE('',*,*,#337,.T.);
#447=ORIENTED_EDGE('',*,*,#338,.F.);
#448=ORIENTED_EDGE('',*,*,#339,.F.);
#449=ORIENTED_EDGE('',*,*,#340,.T.);
#450=ORIENTED_EDGE('',*,*,#341,.F.);
#451=ORIENTED_EDGE('',*,*,#342,.F.);
#452=ORIENTED_EDGE('',*,*,#315,.F.);
#453=ORIENTED_EDGE('',*,*,#320,.F.);
#454=ORIENTED_EDGE('',*,*,#322,.F.);
#455=ORIENTED_EDGE('',*,*,#324,.F.);
#456=ORIENTED_EDGE('',*,*,#326,.F.);
#457=ORIENTED_EDGE('',*,*,#328,.F.);
#458=ORIENTED_EDGE('',*,*,#331,.F.);
#459=ORIENTED_EDGE('',*,*,#289,.T.);
#460=ORIENTED_EDGE('',*,*,#343,.F.);
#461=ORIENTED_EDGE('',*,*,#340,.F.);
#462=ORIENTED_EDGE('',*,*,#344,.F.);
#463=ORIENTED_EDGE('',*,*,#345,.F.);
#464=ORIENTED_EDGE('',*,*,#333,.F.);
#465=ORIENTED_EDGE('',*,*,#346,.F.);
#466=ORIENTED_EDGE('',*,*,#347,.F.);
#467=ORIENTED_EDGE('',*,*,#348,.F.);
#468=ORIENTED_EDGE('',*,*,#349,.F.);
#469=ORIENTED_EDGE('',*,*,#350,.F.);
#470=ORIENTED_EDGE('',*,*,#351,.F.);
#471=ORIENTED_EDGE('',*,*,#286,.T.);
#472=ORIENTED_EDGE('',*,*,#342,.T.);
#473=ORIENTED_EDGE('',*,*,#352,.T.);
#474=ORIENTED_EDGE('',*,*,#353,.T.);
#475=ORIENTED_EDGE('',*,*,#316,.F.);
#476=ORIENTED_EDGE('',*,*,#341,.T.);
#477=ORIENTED_EDGE('',*,*,#343,.T.);
#478=ORIENTED_EDGE('',*,*,#354,.T.);
#479=ORIENTED_EDGE('',*,*,#355,.T.);
#480=ORIENTED_EDGE('',*,*,#352,.F.);
#481=ORIENTED_EDGE('',*,*,#351,.T.);
#482=ORIENTED_EDGE('',*,*,#356,.T.);
#483=ORIENTED_EDGE('',*,*,#357,.T.);
#484=ORIENTED_EDGE('',*,*,#354,.F.);
#485=ORIENTED_EDGE('',*,*,#305,.T.);
#486=ORIENTED_EDGE('',*,*,#358,.F.);
#487=ORIENTED_EDGE('',*,*,#359,.T.);
#488=ORIENTED_EDGE('',*,*,#356,.F.);
#489=ORIENTED_EDGE('',*,*,#350,.T.);
#490=ORIENTED_EDGE('',*,*,#360,.T.);
#491=ORIENTED_EDGE('',*,*,#306,.T.);
#492=ORIENTED_EDGE('',*,*,#360,.F.);
#493=ORIENTED_EDGE('',*,*,#349,.T.);
#494=ORIENTED_EDGE('',*,*,#361,.T.);
#495=ORIENTED_EDGE('',*,*,#307,.T.);
#496=ORIENTED_EDGE('',*,*,#361,.F.);
#497=ORIENTED_EDGE('',*,*,#348,.T.);
#498=ORIENTED_EDGE('',*,*,#362,.T.);
#499=ORIENTED_EDGE('',*,*,#308,.T.);
#500=ORIENTED_EDGE('',*,*,#362,.F.);
#501=ORIENTED_EDGE('',*,*,#347,.T.);
#502=ORIENTED_EDGE('',*,*,#363,.T.);
#503=ORIENTED_EDGE('',*,*,#309,.T.);
#504=ORIENTED_EDGE('',*,*,#363,.F.);
#505=ORIENTED_EDGE('',*,*,#346,.T.);
#506=ORIENTED_EDGE('',*,*,#332,.T.);
#507=ORIENTED_EDGE('',*,*,#336,.T.);
#508=ORIENTED_EDGE('',*,*,#359,.F.);
#509=ORIENTED_EDGE('',*,*,#364,.F.);
#510=ORIENTED_EDGE('',*,*,#365,.F.);
#511=ORIENTED_EDGE('',*,*,#312,.F.);
#512=ORIENTED_EDGE('',*,*,#318,.F.);
#513=ORIENTED_EDGE('',*,*,#366,.T.);
#514=ORIENTED_EDGE('',*,*,#367,.F.);
#515=ORIENTED_EDGE('',*,*,#366,.F.);
#516=ORIENTED_EDGE('',*,*,#317,.F.);
#517=ORIENTED_EDGE('',*,*,#353,.F.);
#518=ORIENTED_EDGE('',*,*,#355,.F.);
#519=ORIENTED_EDGE('',*,*,#357,.F.);
#520=ORIENTED_EDGE('',*,*,#303,.T.);
#521=ORIENTED_EDGE('',*,*,#313,.F.);
#522=ORIENTED_EDGE('',*,*,#365,.T.);
#523=ORIENTED_EDGE('',*,*,#368,.T.);
#524=ORIENTED_EDGE('',*,*,#304,.T.);
#525=ORIENTED_EDGE('',*,*,#368,.F.);
#526=ORIENTED_EDGE('',*,*,#364,.T.);
#527=ORIENTED_EDGE('',*,*,#358,.T.);
#528=ORIENTED_EDGE('',*,*,#338,.T.);
#529=ORIENTED_EDGE('',*,*,#330,.T.);
#530=ORIENTED_EDGE('',*,*,#369,.F.);
#531=ORIENTED_EDGE('',*,*,#370,.F.);
#532=ORIENTED_EDGE('',*,*,#293,.T.);
#533=ORIENTED_EDGE('',*,*,#371,.F.);
#534=ORIENTED_EDGE('',*,*,#344,.T.);
#535=ORIENTED_EDGE('',*,*,#339,.T.);
#536=ORIENTED_EDGE('',*,*,#370,.T.);
#537=ORIENTED_EDGE('',*,*,#372,.F.);
#538=ORIENTED_EDGE('',*,*,#367,.T.);
#539=ORIENTED_EDGE('',*,*,#292,.T.);
#540=ORIENTED_EDGE('',*,*,#337,.F.);
#541=ORIENTED_EDGE('',*,*,#345,.T.);
#542=ORIENTED_EDGE('',*,*,#371,.T.);
#543=ORIENTED_EDGE('',*,*,#372,.T.);
#544=ORIENTED_EDGE('',*,*,#369,.T.);
#545=ORIENTED_EDGE('',*,*,#329,.T.);
#546=ORIENTED_EDGE('',*,*,#294,.T.);
#547=CYLINDRICAL_SURFACE('',#610,3.5);
#548=CYLINDRICAL_SURFACE('',#613,2.5);
#549=CYLINDRICAL_SURFACE('',#616,70.);
#550=CYLINDRICAL_SURFACE('',#650,75.3666476338835);
#551=CYLINDRICAL_SURFACE('',#651,1.67841358698504);
#552=CYLINDRICAL_SURFACE('',#652,38.);
#553=CYLINDRICAL_SURFACE('',#657,38.);
#554=CYLINDRICAL_SURFACE('',#676,7.5);
#555=ADVANCED_FACE('',(#81),#547,.F.);
#556=ADVANCED_FACE('',(#82),#59,.F.);
#557=ADVANCED_FACE('',(#83),#548,.F.);
#558=ADVANCED_FACE('',(#84),#60,.F.);
#559=ADVANCED_FACE('',(#85),#549,.T.);
#560=ADVANCED_FACE('',(#86),#61,.T.);
#561=ADVANCED_FACE('',(#87),#62,.T.);
#562=ADVANCED_FACE('',(#88),#63,.T.);
#563=ADVANCED_FACE('',(#89),#64,.T.);
#564=ADVANCED_FACE('',(#90),#65,.T.);
#565=ADVANCED_FACE('',(#91),#66,.T.);
#566=ADVANCED_FACE('',(#92),#67,.T.);
#567=ADVANCED_FACE('',(#93),#68,.T.);
#568=ADVANCED_FACE('',(#94),#550,.T.);
#569=ADVANCED_FACE('',(#95),#551,.T.);
#570=ADVANCED_FACE('',(#96,#17),#552,.T.);
#571=ADVANCED_FACE('',(#97,#18),#553,.T.);
#572=ADVANCED_FACE('',(#98),#69,.T.);
#573=ADVANCED_FACE('',(#99),#70,.T.);
#574=ADVANCED_FACE('',(#100),#71,.T.);
#575=ADVANCED_FACE('',(#101),#72,.T.);
#576=ADVANCED_FACE('',(#102),#73,.T.);
#577=ADVANCED_FACE('',(#103),#74,.T.);
#578=ADVANCED_FACE('',(#104),#75,.T.);
#579=ADVANCED_FACE('',(#105),#15,.T.);
#580=ADVANCED_FACE('',(#106),#554,.F.);
#581=ADVANCED_FACE('',(#107),#76,.T.);
#582=ADVANCED_FACE('',(#108),#77,.T.);
#583=ADVANCED_FACE('',(#109),#78,.T.);
#584=ADVANCED_FACE('',(#110,#19),#79,.T.);
#585=ADVANCED_FACE('',(#111),#16,.T.);
#586=ADVANCED_FACE('',(#112),#80,.T.);
#587=CLOSED_SHELL('',(#555,#556,#557,#558,#559,#560,#561,#562,#563,#564,
#565,#566,#567,#568,#569,#570,#571,#572,#573,#574,#575,#576,#577,#578,#579,
#580,#581,#582,#583,#584,#585,#586));
#588=DERIVED_UNIT_ELEMENT(#591,1.);
#589=DERIVED_UNIT_ELEMENT(#1260,-3.);
#590=DIMENSIONAL_EXPONENTS(0.,1.,0.,0.,0.,0.,0.);
#591=(
CONVERSION_BASED_UNIT('gram',#593)
MASS_UNIT()
NAMED_UNIT(#590)
);
#592=(
MASS_UNIT()
NAMED_UNIT(*)
SI_UNIT(.KILO.,.GRAM.)
);
#593=MASS_MEASURE_WITH_UNIT(MASS_MEASURE(0.001),#592);
#594=DERIVED_UNIT((#588,#589));
#595=MEASURE_REPRESENTATION_ITEM('density measure',
POSITIVE_RATIO_MEASURE(1.),#594);
#596=PROPERTY_DEFINITION_REPRESENTATION(#601,#598);
#597=PROPERTY_DEFINITION_REPRESENTATION(#602,#599);
#598=REPRESENTATION('material name',(#600),#1257);
#599=REPRESENTATION('density',(#595),#1257);
#600=DESCRIPTIVE_REPRESENTATION_ITEM('Generic','Generic');
#601=PROPERTY_DEFINITION('material property','material name',#1267);
#602=PROPERTY_DEFINITION('material property','density of part',#1267);
#603=DATE_TIME_ROLE('creation_date');
#604=APPLIED_DATE_AND_TIME_ASSIGNMENT(#605,#603,(#1267));
#605=DATE_AND_TIME(#606,#607);
#606=CALENDAR_DATE(2026,8,5);
#607=LOCAL_TIME(0,0,0.,#608);
#608=COORDINATED_UNIVERSAL_TIME_OFFSET(0,0,.BEHIND.);
#609=AXIS2_PLACEMENT_3D('',#869,#685,#686);
#610=AXIS2_PLACEMENT_3D('',#870,#687,#688);
#611=AXIS2_PLACEMENT_3D('',#908,#690,#691);
#612=AXIS2_PLACEMENT_3D('',#909,#692,#693);
#613=AXIS2_PLACEMENT_3D('',#910,#694,#695);
#614=AXIS2_PLACEMENT_3D('',#948,#697,#698);
#615=AXIS2_PLACEMENT_3D('',#949,#699,#700);
#616=AXIS2_PLACEMENT_3D('',#950,#701,#702);
#617=AXIS2_PLACEMENT_3D('',#960,#703,#704);
#618=AXIS2_PLACEMENT_3D('',#964,#706,#707);
#619=AXIS2_PLACEMENT_3D('',#966,#708,#709);
#620=AXIS2_PLACEMENT_3D('',#968,#710,#711);
#621=AXIS2_PLACEMENT_3D('',#970,#712,#713);
#622=AXIS2_PLACEMENT_3D('',#972,#714,#715);
#623=AXIS2_PLACEMENT_3D('',#974,#716,#717);
#624=AXIS2_PLACEMENT_3D('',#976,#718,#719);
#625=AXIS2_PLACEMENT_3D('',#978,#720,#721);
#626=AXIS2_PLACEMENT_3D('',#980,#722,#723);
#627=AXIS2_PLACEMENT_3D('',#982,#724,#725);
#628=AXIS2_PLACEMENT_3D('',#984,#726,#727);
#629=AXIS2_PLACEMENT_3D('',#986,#728,#729);
#630=AXIS2_PLACEMENT_3D('',#988,#730,#731);
#631=AXIS2_PLACEMENT_3D('',#990,#732,#733);
#632=AXIS2_PLACEMENT_3D('',#1035,#734,#735);
#633=AXIS2_PLACEMENT_3D('',#1039,#737,#738);
#634=AXIS2_PLACEMENT_3D('',#1041,#740,#741);
#635=AXIS2_PLACEMENT_3D('',#1045,#743,#744);
#636=AXIS2_PLACEMENT_3D('',#1049,#746,#747);
#637=AXIS2_PLACEMENT_3D('',#1050,#748,#749);
#638=AXIS2_PLACEMENT_3D('',#1051,#750,#751);
#639=AXIS2_PLACEMENT_3D('',#1054,#753,#754);
#640=AXIS2_PLACEMENT_3D('',#1055,#755,#756);
#641=AXIS2_PLACEMENT_3D('',#1058,#758,#759);
#642=AXIS2_PLACEMENT_3D('',#1059,#760,#761);
#643=AXIS2_PLACEMENT_3D('',#1062,#763,#764);
#644=AXIS2_PLACEMENT_3D('',#1063,#765,#766);
#645=AXIS2_PLACEMENT_3D('',#1066,#768,#769);
#646=AXIS2_PLACEMENT_3D('',#1067,#770,#771);
#647=AXIS2_PLACEMENT_3D('',#1070,#773,#774);
#648=AXIS2_PLACEMENT_3D('',#1071,#775,#776);
#649=AXIS2_PLACEMENT_3D('',#1076,#779,#780);
#650=AXIS2_PLACEMENT_3D('',#1077,#781,#782);
#651=AXIS2_PLACEMENT_3D('',#1115,#784,#785);
#652=AXIS2_PLACEMENT_3D('',#1118,#788,#789);
#653=AXIS2_PLACEMENT_3D('',#1120,#790,#791);
#654=AXIS2_PLACEMENT_3D('',#1122,#792,#793);
#655=AXIS2_PLACEMENT_3D('',#1126,#795,#796);
#656=AXIS2_PLACEMENT_3D('',#1127,#797,#798);
#657=AXIS2_PLACEMENT_3D('',#1128,#799,#800);
#658=AXIS2_PLACEMENT_3D('',#1130,#801,#802);
#659=AXIS2_PLACEMENT_3D('',#1132,#803,#804);
#660=AXIS2_PLACEMENT_3D('',#1178,#805,#806);
#661=AXIS2_PLACEMENT_3D('',#1180,#807,#808);
#662=AXIS2_PLACEMENT_3D('',#1182,#809,#810);
#663=AXIS2_PLACEMENT_3D('',#1184,#811,#812);
#664=AXIS2_PLACEMENT_3D('',#1185,#813,#814);
#665=AXIS2_PLACEMENT_3D('',#1186,#815,#816);
#666=AXIS2_PLACEMENT_3D('',#1189,#818,#819);
#667=AXIS2_PLACEMENT_3D('',#1190,#820,#821);
#668=AXIS2_PLACEMENT_3D('',#1193,#823,#824);
#669=AXIS2_PLACEMENT_3D('',#1194,#825,#826);
#670=AXIS2_PLACEMENT_3D('',#1197,#828,#829);
#671=AXIS2_PLACEMENT_3D('',#1198,#830,#831);
#672=AXIS2_PLACEMENT_3D('',#1201,#833,#834);
#673=AXIS2_PLACEMENT_3D('',#1203,#836,#837);
#674=AXIS2_PLACEMENT_3D('',#1205,#839,#840);
#675=AXIS2_PLACEMENT_3D('',#1207,#842,#843);
#676=AXIS2_PLACEMENT_3D('',#1229,#845,#846);
#677=AXIS2_PLACEMENT_3D('',#1231,#847,#848);
#678=AXIS2_PLACEMENT_3D('',#1232,#849,#850);
#679=AXIS2_PLACEMENT_3D('',#1235,#852,#853);
#680=AXIS2_PLACEMENT_3D('',#1236,#854,#855);
#681=AXIS2_PLACEMENT_3D('',#1238,#857,#858);
#682=AXIS2_PLACEMENT_3D('',#1239,#859,#860);
#683=AXIS2_PLACEMENT_3D('',#1243,#863,#864);
#684=AXIS2_PLACEMENT_3D('',#1254,#867,#868);
#685=DIRECTION('axis',(0.,0.,1.));
#686=DIRECTION('refdir',(1.,0.,0.));
#687=DIRECTION('center_axis',(0.,0.,1.));
#688=DIRECTION('ref_axis',(1.,0.,0.));
#689=DIRECTION('',(0.,0.,1.));
#690=DIRECTION('center_axis',(0.,0.,1.));
#691=DIRECTION('ref_axis',(1.,0.,0.));
#692=DIRECTION('center_axis',(0.,0.,1.));
#693=DIRECTION('ref_axis',(1.,0.,0.));
#694=DIRECTION('center_axis',(0.,0.,1.));
#695=DIRECTION('ref_axis',(1.,0.,0.));
#696=DIRECTION('',(0.,0.,1.));
#697=DIRECTION('center_axis',(0.,0.,1.));
#698=DIRECTION('ref_axis',(1.,0.,0.));
#699=DIRECTION('center_axis',(0.,0.,1.));
#700=DIRECTION('ref_axis',(1.,0.,0.));
#701=DIRECTION('center_axis',(0.,-1.,0.));
#702=DIRECTION('ref_axis',(0.999999597490424,0.,0.00089722850519688));
#703=DIRECTION('center_axis',(0.,-1.,0.));
#704=DIRECTION('ref_axis',(0.999999597490424,0.,0.00089722850519688));
#705=DIRECTION('',(0.,-1.,0.));
#706=DIRECTION('center_axis',(0.318501870098068,0.947922232434725,0.));
#707=DIRECTION('ref_axis',(0.947922232434725,-0.318501870098068,5.87279625001736E-19));
#708=DIRECTION('center_axis',(0.306502131000396,0.951869972050919,0.));
#709=DIRECTION('ref_axis',(0.951869972050918,-0.306502131000396,1.0615057628105E-18));
#710=DIRECTION('center_axis',(0.287347885566345,0.957826285221152,0.));
#711=DIRECTION('ref_axis',(0.957826285221151,-0.287347885566345,3.56049373474454E-19));
#712=DIRECTION('center_axis',(0.267842624030086,0.963462676367215,0.));
#713=DIRECTION('ref_axis',(0.963462676367215,-0.267842624030086,1.19381523065832E-19));
#714=DIRECTION('center_axis',(0.242535625036333,0.970142500145332,0.));
#715=DIRECTION('ref_axis',(0.970142500145332,-0.242535625036333,1.0818829093146E-18));
#716=DIRECTION('center_axis',(0.218583297745979,0.975818293508834,0.));
#717=DIRECTION('ref_axis',(0.975818293508834,-0.218583297745979,1.20912493002671E-18));
#718=DIRECTION('center_axis',(0.190449227099111,0.981697046902634,0.));
#719=DIRECTION('ref_axis',(0.981697046902633,-0.190449227099111,2.55445937033865E-18));
#720=DIRECTION('center_axis',(0.165678217500113,0.9861798660721,0.));
#721=DIRECTION('ref_axis',(0.9861798660721,-0.165678217500113,9.7757106583482E-19));
#722=DIRECTION('center_axis',(0.134759454564217,0.990878342383945,0.));
#723=DIRECTION('ref_axis',(0.990878342383945,-0.134759454564217,1.47334279060321E-18));
#724=DIRECTION('center_axis',(0.103442089710951,0.994635477989917,0.));
#725=DIRECTION('ref_axis',(0.994635477989917,-0.103442089710951,-2.09514983807463E-18));
#726=DIRECTION('center_axis',(0.0678433271326193,0.997695987244399,0.));
#727=DIRECTION('ref_axis',(0.997695987244399,-0.0678433271326193,9.14812658364949E-18));
#728=DIRECTION('center_axis',(0.0299865091056708,0.999550303522367,0.));
#729=DIRECTION('ref_axis',(0.999550303522367,-0.0299865091056708,9.71008291086395E-17));
#730=DIRECTION('center_axis',(-0.00999950003749638,0.999950003749688,0.));
#731=DIRECTION('ref_axis',(0.999950003749687,0.00999950003749638,-3.87691312799766E-16));
#732=DIRECTION('center_axis',(-0.0598922907279471,0.998204845465779,0.));
#733=DIRECTION('ref_axis',(0.998204845465779,0.0598922907279472,1.84292712507307E-17));
#734=DIRECTION('center_axis',(0.165678217500113,0.9861798660721,0.));
#735=DIRECTION('ref_axis',(-0.9861798660721,0.165678217500113,0.));
#736=DIRECTION('',(0.,0.,1.));
#737=DIRECTION('center_axis',(-0.165678217500113,-0.9861798660721,0.));
#738=DIRECTION('ref_axis',(-0.9861798660721,0.165678217500113,0.));
#739=DIRECTION('',(0.,0.,1.));
#740=DIRECTION('center_axis',(0.190449227099111,0.981697046902634,0.));
#741=DIRECTION('ref_axis',(-0.981697046902634,0.190449227099111,0.));
#742=DIRECTION('',(0.,0.,1.));
#743=DIRECTION('center_axis',(0.190449227099111,0.981697046902634,0.));
#744=DIRECTION('ref_axis',(-0.981697046902633,0.190449227099111,-3.58520613380864E-17));
#745=DIRECTION('',(0.,0.,1.));
#746=DIRECTION('center_axis',(-0.190449227099111,-0.981697046902634,0.));
#747=DIRECTION('ref_axis',(-0.981697046902633,0.190449227099111,0.));
#748=DIRECTION('center_axis',(-0.190449227099111,-0.981697046902634,0.));
#749=DIRECTION('ref_axis',(-0.981697046902633,0.190449227099111,0.));
#750=DIRECTION('center_axis',(0.218583297745979,0.975818293508834,0.));
#751=DIRECTION('ref_axis',(-0.975818293508834,0.218583297745979,0.));
#752=DIRECTION('',(0.,0.,1.));
#753=DIRECTION('center_axis',(0.218583297745979,0.975818293508834,0.));
#754=DIRECTION('ref_axis',(-0.975818293508834,0.218583297745979,4.27648396304185E-17));
#755=DIRECTION('center_axis',(0.242535625036333,0.970142500145332,0.));
#756=DIRECTION('ref_axis',(-0.970142500145332,0.242535625036333,0.));
#757=DIRECTION('',(0.,0.,1.));
#758=DIRECTION('center_axis',(0.242535625036333,0.970142500145332,0.));
#759=DIRECTION('ref_axis',(-0.970142500145332,0.242535625036333,4.96021170118509E-17));
#760=DIRECTION('center_axis',(0.267842624030086,0.963462676367215,0.));
#761=DIRECTION('ref_axis',(-0.963462676367215,0.267842624030086,0.));
#762=DIRECTION('',(0.,0.,1.));
#763=DIRECTION('center_axis',(0.267842624030086,0.963462676367215,0.));
#764=DIRECTION('ref_axis',(-0.963462676367215,0.267842624030086,-4.22233597369681E-17));
#765=DIRECTION('center_axis',(0.287347885566345,0.957826285221152,0.));
#766=DIRECTION('ref_axis',(-0.957826285221151,0.287347885566345,0.));
#767=DIRECTION('',(0.,0.,1.));
#768=DIRECTION('center_axis',(0.287347885566345,0.957826285221152,0.));
#769=DIRECTION('ref_axis',(-0.957826285221151,0.287347885566345,-2.09881735942836E-17));
#770=DIRECTION('center_axis',(0.306502131000396,0.951869972050919,0.));
#771=DIRECTION('ref_axis',(-0.951869972050919,0.306502131000396,0.));
#772=DIRECTION('',(0.,0.,1.));
#773=DIRECTION('center_axis',(0.306502131000396,0.951869972050919,0.));
#774=DIRECTION('ref_axis',(-0.951869972050918,0.306502131000396,0.));
#775=DIRECTION('center_axis',(0.318501870098068,0.947922232434725,0.));
#776=DIRECTION('ref_axis',(-0.947922232434725,0.318501870098068,0.));
#777=DIRECTION('',(-0.947922232434725,0.318501870098068,0.));
#778=DIRECTION('',(0.,0.,1.));
#779=DIRECTION('center_axis',(0.318501870098068,0.947922232434725,0.));
#780=DIRECTION('ref_axis',(-0.947922232434725,0.318501870098068,-6.923717684231E-18));
#781=DIRECTION('center_axis',(0.,-1.,0.));
#782=DIRECTION('ref_axis',(0.995071873338405,0.,0.0991562750954186));
#783=DIRECTION('',(0.,-1.,0.));
#784=DIRECTION('center_axis',(0.,0.,1.));
#785=DIRECTION('ref_axis',(-0.968628931673163,0.248511554511469,0.));
#786=DIRECTION('',(0.,0.,1.));
#787=DIRECTION('',(0.,0.,1.));
#788=DIRECTION('center_axis',(0.,-1.,0.));
#789=DIRECTION('ref_axis',(-0.998553527560919,0.,-0.0537666494738654));
#790=DIRECTION('center_axis',(0.304775727103783,0.952424147199324,0.));
#791=DIRECTION('ref_axis',(-0.952424147199325,0.304775727103783,-3.47830005733444E-17));
#792=DIRECTION('center_axis',(0.,-1.,0.));
#793=DIRECTION('ref_axis',(-0.998553527560919,0.,-0.0537666494738654));
#794=DIRECTION('',(0.,1.,0.));
#795=DIRECTION('center_axis',(0.134759454564217,0.990878342383945,0.));
#796=DIRECTION('ref_axis',(-0.990878342383945,0.134759454564217,-2.38836620792521E-16));
#797=DIRECTION('center_axis',(0.165678217500113,0.9861798660721,0.));
#798=DIRECTION('ref_axis',(-0.9861798660721,0.165678217500113,8.64378626632894E-17));
#799=DIRECTION('center_axis',(0.,-1.,0.));
#800=DIRECTION('ref_axis',(0.0307540560629609,0.,0.999526982144893));
#801=DIRECTION('center_axis',(0.134759454564217,0.990878342383945,0.));
#802=DIRECTION('ref_axis',(0.990878342383945,-0.134759454564217,3.61873667867456E-17));
#803=DIRECTION('center_axis',(0.,-1.,0.));
#804=DIRECTION('ref_axis',(0.0307540560629609,0.,0.999526982144893));
#805=DIRECTION('center_axis',(-0.0598922907279471,0.998204845465779,0.));
#806=DIRECTION('ref_axis',(0.998204845465779,0.0598922907279471,7.03580231995399E-16));
#807=DIRECTION('center_axis',(-0.00999950003749638,0.999950003749688,0.));
#808=DIRECTION('ref_axis',(0.999950003749688,0.00999950003749638,1.44686963976232E-14));
#809=DIRECTION('center_axis',(0.0299865091056708,0.999550303522367,0.));
#810=DIRECTION('ref_axis',(0.999550303522367,-0.0299865091056708,-2.40561828505991E-15));
#811=DIRECTION('center_axis',(0.0678433271326193,0.997695987244399,0.));
#812=DIRECTION('ref_axis',(0.997695987244399,-0.0678433271326193,3.64363505465414E-17));
#813=DIRECTION('center_axis',(0.103442089710951,0.994635477989917,0.));
#814=DIRECTION('ref_axis',(0.994635477989917,-0.103442089710951,-4.06835287442852E-16));
#815=DIRECTION('center_axis',(0.165678217500113,0.9861798660721,0.));
#816=DIRECTION('ref_axis',(-0.9861798660721,0.165678217500113,0.));
#817=DIRECTION('',(0.,0.,1.));
#818=DIRECTION('center_axis',(-0.165678217500113,-0.9861798660721,0.));
#819=DIRECTION('ref_axis',(-0.9861798660721,0.165678217500113,0.));
#820=DIRECTION('center_axis',(0.134759454564217,0.990878342383945,0.));
#821=DIRECTION('ref_axis',(-0.990878342383945,0.134759454564217,0.));
#822=DIRECTION('',(0.,0.,1.));
#823=DIRECTION('center_axis',(-0.134759454564217,-0.990878342383945,0.));
#824=DIRECTION('ref_axis',(-0.990878342383945,0.134759454564217,0.));
#825=DIRECTION('center_axis',(0.103442089710951,0.994635477989917,0.));
#826=DIRECTION('ref_axis',(-0.994635477989917,0.103442089710951,0.));
#827=DIRECTION('',(0.,0.,1.));
#828=DIRECTION('center_axis',(-0.103442089710951,-0.994635477989917,0.));
#829=DIRECTION('ref_axis',(-0.994635477989917,0.103442089710951,0.));
#830=DIRECTION('center_axis',(0.0678433271326193,0.997695987244399,0.));
#831=DIRECTION('ref_axis',(-0.997695987244399,0.0678433271326193,0.));
#832=DIRECTION('',(0.,0.,1.));
#833=DIRECTION('center_axis',(-0.0678433271326193,-0.997695987244399,0.));
#834=DIRECTION('ref_axis',(-0.997695987244399,0.0678433271326193,0.));
#835=DIRECTION('',(0.,0.,1.));
#836=DIRECTION('center_axis',(0.0299865091056708,0.999550303522367,0.));
#837=DIRECTION('ref_axis',(-0.999550303522367,0.0299865091056708,0.));
#838=DIRECTION('',(0.,0.,1.));
#839=DIRECTION('center_axis',(-0.00999950003749638,0.999950003749688,0.));
#840=DIRECTION('ref_axis',(-0.999950003749687,-0.00999950003749638,0.));
#841=DIRECTION('',(0.,0.,1.));
#842=DIRECTION('center_axis',(-0.0598922907279471,0.998204845465779,0.));
#843=DIRECTION('ref_axis',(-0.998204845465779,-0.0598922907279471,0.));
#844=DIRECTION('',(0.,0.,1.));
#845=DIRECTION('center_axis',(0.,-1.,0.));
#846=DIRECTION('ref_axis',(-1.,0.,0.));
#847=DIRECTION('center_axis',(-0.103442089710951,-0.994635477989917,0.));
#848=DIRECTION('ref_axis',(-0.994635477989917,0.103442089710951,0.));
#849=DIRECTION('center_axis',(-0.134759454564217,-0.990878342383945,0.));
#850=DIRECTION('ref_axis',(-0.990878342383945,0.134759454564217,0.));
#851=DIRECTION('',(0.,-1.,0.));
#852=DIRECTION('center_axis',(0.,1.,0.));
#853=DIRECTION('ref_axis',(-1.,0.,0.));
#854=DIRECTION('center_axis',(0.134759454564217,0.990878342383945,0.));
#855=DIRECTION('ref_axis',(-0.990878342383945,0.134759454564217,0.));
#856=DIRECTION('',(0.,0.,1.));
#857=DIRECTION('center_axis',(0.103442089710951,0.994635477989917,0.));
#858=DIRECTION('ref_axis',(-0.994635477989917,0.103442089710951,0.));
#859=DIRECTION('center_axis',(0.304775727103783,0.952424147199324,0.));
#860=DIRECTION('ref_axis',(-0.952424147199324,0.304775727103783,0.));
#861=DIRECTION('',(-0.952424147199324,0.304775727103783,0.));
#862=DIRECTION('',(0.,0.,1.));
#863=DIRECTION('center_axis',(0.,-1.,0.));
#864=DIRECTION('ref_axis',(1.,0.,0.));
#865=DIRECTION('',(0.,0.,1.));
#866=DIRECTION('',(1.,0.,0.));
#867=DIRECTION('center_axis',(0.,0.,1.));
#868=DIRECTION('ref_axis',(1.,0.,0.));
#869=CARTESIAN_POINT('',(0.,0.,0.));
#870=CARTESIAN_POINT('Origin',(25.55,5.0645,0.));
#871=CARTESIAN_POINT('',(22.05,5.0645,3.507066283967));
#872=CARTESIAN_POINT('Ctrl Pts',(22.05,5.0645,3.507066283967));
#873=CARTESIAN_POINT('Ctrl Pts',(22.05,4.62515618356399,3.507066283967));
#874=CARTESIAN_POINT('Ctrl Pts',(22.1379103407107,4.1601199917229,3.46591481759015));
#875=CARTESIAN_POINT('Ctrl Pts',(22.4860340401599,3.31168155540541,3.30771114168893));
#876=CARTESIAN_POINT('Ctrl Pts',(22.7459600595563,2.92802517318728,3.19139065495674));
#877=CARTESIAN_POINT('Ctrl Pts',(23.3552274482946,2.30067456231634,2.92974895488146));
#878=CARTESIAN_POINT('Ctrl Pts',(23.7542013095208,2.02314802048668,2.76388704009016));
#879=CARTESIAN_POINT('Ctrl Pts',(24.6279018138269,1.65503524301522,2.42213440954827));
#880=CARTESIAN_POINT('Ctrl Pts',(25.1028070625275,1.5645,2.24664552179468));
#881=CARTESIAN_POINT('Ctrl Pts',(25.985439167415,1.5645,1.9396466237273));
#882=CARTESIAN_POINT('Ctrl Pts',(26.4547779182766,1.65077401856427,1.78621010368056));
#883=CARTESIAN_POINT('Ctrl Pts',(27.3255867439547,2.01172420091623,1.51910297092257));
#884=CARTESIAN_POINT('Ctrl Pts',(27.7268272740171,2.28664486271757,1.40501467463418));
#885=CARTESIAN_POINT('Ctrl Pts',(28.3461688490124,2.9159135831936,1.23627173161796));
#886=CARTESIAN_POINT('Ctrl Pts',(28.6107339319349,3.30501548313525,1.16842060572746));
#887=CARTESIAN_POINT('Ctrl Pts',(28.962687766825,4.16037577870068,1.0801217650697));
#888=CARTESIAN_POINT('Ctrl Pts',(29.05,4.62661815720587,1.05921450670633));
#889=CARTESIAN_POINT('Ctrl Pts',(29.05,5.50238184279412,1.05921450670633));
#890=CARTESIAN_POINT('Ctrl Pts',(28.962687766825,5.96862422129932,1.0801217650697));
#891=CARTESIAN_POINT('Ctrl Pts',(28.6107339319349,6.82398451686475,1.16842060572746));
#892=CARTESIAN_POINT('Ctrl Pts',(28.3461688490124,7.21308641680639,1.23627173161796));
#893=CARTESIAN_POINT('Ctrl Pts',(27.7268272740171,7.84235513728243,1.40501467463418));
#894=CARTESIAN_POINT('Ctrl Pts',(27.3255867439547,8.11727579908376,1.51910297092257));
#895=CARTESIAN_POINT('Ctrl Pts',(26.4547779182766,8.47822598143572,1.78621010368056));
#896=CARTESIAN_POINT('Ctrl Pts',(25.985439167415,8.5645,1.9396466237273));
#897=CARTESIAN_POINT('Ctrl Pts',(25.1028070625275,8.5645,2.24664552179468));
#898=CARTESIAN_POINT('Ctrl Pts',(24.6279018138269,8.47396475698478,2.42213440954827));
#899=CARTESIAN_POINT('Ctrl Pts',(23.7542013095208,8.10585197951331,2.76388704009016));
#900=CARTESIAN_POINT('Ctrl Pts',(23.3552274482946,7.82832543768366,2.92974895488146));
#901=CARTESIAN_POINT('Ctrl Pts',(22.7459600595563,7.20097482681272,3.19139065495674));
#902=CARTESIAN_POINT('Ctrl Pts',(22.4860340401599,6.81731844459459,3.30771114168893));
#903=CARTESIAN_POINT('Ctrl Pts',(22.1379103407107,5.9688800082771,3.46591481759014));
#904=CARTESIAN_POINT('Ctrl Pts',(22.05,5.50384381643601,3.507066283967));
#905=CARTESIAN_POINT('Ctrl Pts',(22.05,5.0645,3.507066283967));
#906=CARTESIAN_POINT('',(22.05,5.0645,300.));
#907=CARTESIAN_POINT('',(22.05,5.0645,0.));
#908=CARTESIAN_POINT('Origin',(25.55,5.0645,300.));
#909=CARTESIAN_POINT('Origin',(25.55,5.0645,300.));
#910=CARTESIAN_POINT('Origin',(49.275,3.5007,0.));
#911=CARTESIAN_POINT('',(46.775,3.5007,1.80938052035822));
#912=CARTESIAN_POINT('Ctrl Pts',(46.775,3.5007,1.80938052035822));
#913=CARTESIAN_POINT('Ctrl Pts',(46.775,3.18825139685422,1.80938052035822));
#914=CARTESIAN_POINT('Ctrl Pts',(46.8372708294385,2.85607405579104,1.82939092751726));
#915=CARTESIAN_POINT('Ctrl Pts',(47.0867843936518,2.24779203911486,1.91172057454761));
#916=CARTESIAN_POINT('Ctrl Pts',(47.2739219532118,1.97167502223253,1.97426719231315));
#917=CARTESIAN_POINT('Ctrl Pts',(47.7144041326596,1.52044917977971,2.12675411073225));
#918=CARTESIAN_POINT('Ctrl Pts',(48.0025120089072,1.32236878227393,2.22911834105668));
#919=CARTESIAN_POINT('Ctrl Pts',(48.6269514226934,1.06258894153106,2.46162529441421));
#920=CARTESIAN_POINT('Ctrl Pts',(48.9631295337261,1.0007,2.59196823871237));
#921=CARTESIAN_POINT('Ctrl Pts',(49.5939649308121,1.0007,2.8465296094793));
#922=CARTESIAN_POINT('Ctrl Pts',(49.9335265716992,1.06517018579222,2.98909497033766));
#923=CARTESIAN_POINT('Ctrl Pts',(50.559697912929,1.3292917201651,3.26219977523197));
#924=CARTESIAN_POINT('Ctrl Pts',(50.8464004328571,1.52893969586581,3.39252961748516));
#925=CARTESIAN_POINT('Ctrl Pts',(51.2808291325275,1.97899837156341,3.59448199182587));
#926=CARTESIAN_POINT('Ctrl Pts',(51.4651608206423,2.25182005990459,3.68261533626199));
#927=CARTESIAN_POINT('Ctrl Pts',(51.7123629436282,2.8558999747601,3.8020730685677));
#928=CARTESIAN_POINT('Ctrl Pts',(51.775,3.18733839263059,3.83296863510322));
#929=CARTESIAN_POINT('Ctrl Pts',(51.775,3.82185382779479,3.83296863510322));
#930=CARTESIAN_POINT('Ctrl Pts',(51.7092497985455,4.16082681086755,3.80052960548625));
#931=CARTESIAN_POINT('Ctrl Pts',(51.4509081278409,4.77614646177744,3.67576966496158));
#932=CARTESIAN_POINT('Ctrl Pts',(51.2585500901451,5.05268381578762,3.5839064565605));
#933=CARTESIAN_POINT('Ctrl Pts',(50.8168738514045,5.49436005452825,3.37906717906202));
#934=CARTESIAN_POINT('Ctrl Pts',(50.5341467984863,5.68590748297778,3.25085269861455));
#935=CARTESIAN_POINT('Ctrl Pts',(49.9191376005036,5.93907429920819,2.98303579165671));
#936=CARTESIAN_POINT('Ctrl Pts',(49.5867734732852,6.0007,2.84362763648553));
#937=CARTESIAN_POINT('Ctrl Pts',(48.9631295337261,6.0007,2.59196823871237));
#938=CARTESIAN_POINT('Ctrl Pts',(48.6269514226934,5.93881105846894,2.46162529441422));
#939=CARTESIAN_POINT('Ctrl Pts',(48.0025120089072,5.67903121772607,2.22911834105668));
#940=CARTESIAN_POINT('Ctrl Pts',(47.7144041326596,5.48095082022028,2.12675411073225));
#941=CARTESIAN_POINT('Ctrl Pts',(47.2739219532118,5.02972497776747,1.97426719231315));
#942=CARTESIAN_POINT('Ctrl Pts',(47.0867843936518,4.75360796088514,1.91172057454761));
#943=CARTESIAN_POINT('Ctrl Pts',(46.8372708294385,4.14532594420896,1.82939092751726));
#944=CARTESIAN_POINT('Ctrl Pts',(46.775,3.81314860314578,1.80938052035822));
#945=CARTESIAN_POINT('Ctrl Pts',(46.775,3.5007,1.80938052035822));
#946=CARTESIAN_POINT('',(46.775,3.5007,320.));
#947=CARTESIAN_POINT('',(46.775,3.5007,0.));
#948=CARTESIAN_POINT('Origin',(49.275,3.5007,320.));
#949=CARTESIAN_POINT('Origin',(49.275,3.5007,320.));
#950=CARTESIAN_POINT('Origin',(69.9998287176101,10.,260.063758355331));
#951=CARTESIAN_POINT('',(2.18313089193347,1.49022953865874E-6,277.410097912162));
#952=CARTESIAN_POINT('',(0.365000000000002,0.511,267.204530685346));
#953=CARTESIAN_POINT('Ctrl Pts',(2.18313089193348,2.98045907446741E-6,277.410097912162));
#954=CARTESIAN_POINT('Ctrl Pts',(1.64686862599743,0.000468729844844579,
275.31354400088));
#955=CARTESIAN_POINT('Ctrl Pts',(1.20794918629773,0.0532853980459337,273.187669001897));
#956=CARTESIAN_POINT('Ctrl Pts',(0.612277169714608,0.265982391607311,269.44940838588));
#957=CARTESIAN_POINT('Ctrl Pts',(0.456772633051717,0.385332562809224,268.099471916935));
#958=CARTESIAN_POINT('Ctrl Pts',(0.365000000000006,0.510999999999991,267.204530685346));
#959=CARTESIAN_POINT('',(67.0128394945904,0.,330.));
#960=CARTESIAN_POINT('Origin',(69.9998287176101,0.,260.063758355331));
#961=CARTESIAN_POINT('',(67.0128394945904,1.95328592981762,330.));
#962=CARTESIAN_POINT('',(67.0128394945904,10.,330.));
#963=CARTESIAN_POINT('',(65.7,2.3944,329.931572640588));
#964=CARTESIAN_POINT('Origin',(69.9998287176101,0.949657550883016,260.063758355331));
#965=CARTESIAN_POINT('',(62.05,3.5697,329.610866299232));
#966=CARTESIAN_POINT('Origin',(69.9998287176101,1.00985515292956,260.063758355331));
#967=CARTESIAN_POINT('',(58.4,4.6647,329.09595355237));
#968=CARTESIAN_POINT('Origin',(69.9998287176101,1.18475138471698,260.063758355331));
#969=CARTESIAN_POINT('',(54.75,5.6794,328.382443384271));
#970=CARTESIAN_POINT('Origin',(69.9998287176101,1.43994761650439,260.063758355331));
#971=CARTESIAN_POINT('',(51.1,6.5919,327.464028936724));
#972=CARTESIAN_POINT('Origin',(69.9998287176101,1.86694282059748,260.063758355331));
#973=CARTESIAN_POINT('',(47.45,7.4095,326.332191449878));
#974=CARTESIAN_POINT('Origin',(69.9998287176101,2.35833836725535,260.063758355331));
#975=CARTESIAN_POINT('',(43.8,8.1176,324.975767838691));
#976=CARTESIAN_POINT('Origin',(69.9998287176101,3.03483322878366,260.063758355331));
#977=CARTESIAN_POINT('',(40.15,8.7308,323.380325899137));
#978=CARTESIAN_POINT('Origin',(69.9998287176101,3.71602877544151,260.063758355331));
#979=CARTESIAN_POINT('',(36.5,9.2272,321.527255456381));
#980=CARTESIAN_POINT('Origin',(69.9998287176101,4.67122329440503,260.063758355331));
#981=CARTESIAN_POINT('',(32.85,9.6068,319.392421126813));
#982=CARTESIAN_POINT('Origin',(69.9998287176101,5.74321781336856,260.063758355331));
#983=CARTESIAN_POINT('',(29.2,9.855,316.944106249957));
#984=CARTESIAN_POINT('Origin',(69.9998287176101,7.08061164720251,260.063758355331));
#985=CARTESIAN_POINT('',(25.55,9.9645,314.139748655788));
#986=CARTESIAN_POINT('Origin',(69.9998287176101,8.63100513847171,260.063758355331));
#987=CARTESIAN_POINT('',(21.9,9.928,310.920483351506));
#988=CARTESIAN_POINT('Origin',(69.9998287176101,10.4089982871761,260.063758355331));
#989=CARTESIAN_POINT('',(18.25,9.709,307.201378444788));
#990=CARTESIAN_POINT('Origin',(69.9998287176101,12.8139897230566,260.063758355331));
#991=CARTESIAN_POINT('',(0.139927453431739,1.85284672257038,264.490291463674));
#992=CARTESIAN_POINT('Ctrl Pts',(0.139927453431724,1.85284672257028,264.490291463674));
#993=CARTESIAN_POINT('Ctrl Pts',(0.203095055376266,2.32544226966799,265.487207634169));
#994=CARTESIAN_POINT('Ctrl Pts',(0.354722137679011,2.77944195243739,267.439488662769));
#995=CARTESIAN_POINT('Ctrl Pts',(0.86274157502943,3.68499983365048,271.126153344099));
#996=CARTESIAN_POINT('Ctrl Pts',(1.07288097025216,4.03625079488672,272.36251572255));
#997=CARTESIAN_POINT('Ctrl Pts',(1.79615794342004,4.91111797890344,275.973555686334));
#998=CARTESIAN_POINT('Ctrl Pts',(2.37058728360084,5.39228429802638,278.275068778346));
#999=CARTESIAN_POINT('Ctrl Pts',(3.53714897618685,6.17759563649808,282.098694400402));
#1000=CARTESIAN_POINT('Ctrl Pts',(4.09705115726565,6.49261951753031,283.730144796129));
#1001=CARTESIAN_POINT('Ctrl Pts',(5.39457350396853,7.03454013403698,287.069402666384));
#1002=CARTESIAN_POINT('Ctrl Pts',(6.17934939849507,7.32292033845458,288.880679485825));
#1003=CARTESIAN_POINT('Ctrl Pts',(7.4979176690435,7.75975248591121,291.60527300604));
#1004=CARTESIAN_POINT('Ctrl Pts',(8.02725194399413,7.91448573184549,292.63280448216));
#1005=CARTESIAN_POINT('Ctrl Pts',(10.0700891935716,8.45048510240149,296.368426767331));
#1006=CARTESIAN_POINT('Ctrl Pts',(11.7791030626336,8.81038634537114,299.051417963528));
#1007=CARTESIAN_POINT('Ctrl Pts',(15.1102334624855,9.36372295226562,303.577147548204));
#1008=CARTESIAN_POINT('Ctrl Pts',(16.6223190364428,9.53587278391872,305.414436063922));
#1009=CARTESIAN_POINT('Ctrl Pts',(18.25,9.709,307.201378444788));
#1010=CARTESIAN_POINT('Ctrl Pts',(0.365000000000002,0.510999999999996,267.204530685346));
#1011=CARTESIAN_POINT('Ctrl Pts',(0.271992471071353,0.65187663161389,266.297547092105));
#1012=CARTESIAN_POINT('Ctrl Pts',(0.199217205758238,0.797899152103964,265.410311680252));
#1013=CARTESIAN_POINT('Ctrl Pts',(0.13573197810665,1.03377720638489,264.425925215458));
#1014=CARTESIAN_POINT('Ctrl Pts',(0.126119537577803,1.07363623260946,264.269512631766));
#1015=CARTESIAN_POINT('Ctrl Pts',(0.108333019675047,1.16650525667797,263.96278695203));
#1016=CARTESIAN_POINT('Ctrl Pts',(0.100096060123874,1.21526610206402,263.81120699063));
#1017=CARTESIAN_POINT('Ctrl Pts',(0.0920750955044661,1.3077316735788,263.656361866144));
#1018=CARTESIAN_POINT('Ctrl Pts',(0.0905465202679104,1.32828812698978,263.62645635554));
#1019=CARTESIAN_POINT('Ctrl Pts',(0.0887611131853273,1.36409485198951,263.591188706216));
#1020=CARTESIAN_POINT('Ctrl Pts',(0.0882533931065149,1.37681113936402,263.581100318852));
#1021=CARTESIAN_POINT('Ctrl Pts',(0.0875103564748849,1.40432232903574,263.566299215595));
#1022=CARTESIAN_POINT('Ctrl Pts',(0.0872738261137318,1.41910695169599,263.561567461545));
#1023=CARTESIAN_POINT('Ctrl Pts',(0.0872738261137318,1.43574155295555,263.561567461545));
#1024=CARTESIAN_POINT('Ctrl Pts',(0.0872738261137318,1.45237615421511,263.561567461545));
#1025=CARTESIAN_POINT('Ctrl Pts',(0.0875103564748849,1.46716077687536,263.566299215595));
#1026=CARTESIAN_POINT('Ctrl Pts',(0.0882533931065148,1.49467196654708,263.581100318852));
#1027=CARTESIAN_POINT('Ctrl Pts',(0.0887611131853273,1.50738825392159,263.591188706216));
#1028=CARTESIAN_POINT('Ctrl Pts',(0.0905465202679105,1.54319497892132,263.62645635554));
#1029=CARTESIAN_POINT('Ctrl Pts',(0.0920750955044661,1.5637514323323,263.656361866144));
#1030=CARTESIAN_POINT('Ctrl Pts',(0.100096060123874,1.65621700384708,263.81120699063));
#1031=CARTESIAN_POINT('Ctrl Pts',(0.108333019675039,1.70497784923309,263.96278695203));
#1032=CARTESIAN_POINT('Ctrl Pts',(0.12451531625509,1.78947072742279,264.241848089536));
#1033=CARTESIAN_POINT('Ctrl Pts',(0.132280880796946,1.82304250885179,264.369612639818));
#1034=CARTESIAN_POINT('Ctrl Pts',(0.139927453431743,1.8528467225704,264.490291463674));
#1035=CARTESIAN_POINT('Origin',(43.8,8.1176,0.));
#1036=CARTESIAN_POINT('',(43.8,8.1176,27.8558317527474));
#1037=CARTESIAN_POINT('',(43.8,8.1176,0.));
#1038=CARTESIAN_POINT('',(40.15,8.7308,31.742312288822));
#1039=CARTESIAN_POINT('Origin',(36.865,9.28268,25.));
#1040=CARTESIAN_POINT('',(40.15,8.7308,0.));
#1041=CARTESIAN_POINT('Origin',(47.45,7.4095,0.));
#1042=CARTESIAN_POINT('',(47.45,7.4095,2.03524248249579));
#1043=CARTESIAN_POINT('',(47.45,7.4095,0.));
#1044=CARTESIAN_POINT('',(43.8,8.1176,0.976813513768011));
#1045=CARTESIAN_POINT('Origin',(35.0549659526851,9.81413660517909,37.9568673199931));
#1046=CARTESIAN_POINT('',(43.8,8.1176,22.1441682472526));
#1047=CARTESIAN_POINT('',(43.8,8.1176,0.));
#1048=CARTESIAN_POINT('',(44.365,8.00799,25.));
#1049=CARTESIAN_POINT('Origin',(36.865,9.46299,25.));
#1050=CARTESIAN_POINT('Origin',(36.865,9.46299,25.));
#1051=CARTESIAN_POINT('Origin',(51.1,6.5919,0.));
#1052=CARTESIAN_POINT('',(51.1,6.5919,3.51043234595689));
#1053=CARTESIAN_POINT('',(51.1,6.5919,0.));
#1054=CARTESIAN_POINT('Origin',(35.0549659526851,10.1859876265985,37.9568673199931));
#1055=CARTESIAN_POINT('Origin',(54.75,5.6794,0.));
#1056=CARTESIAN_POINT('',(54.75,5.6794,5.4590884131954));
#1057=CARTESIAN_POINT('',(54.75,5.6794,0.));
#1058=CARTESIAN_POINT('Origin',(35.0549659526851,10.6031585118287,37.9568673199931));
#1059=CARTESIAN_POINT('Origin',(58.4,4.6647,0.));
#1060=CARTESIAN_POINT('',(58.4,4.6647,7.97338211013621));
#1061=CARTESIAN_POINT('',(58.4,4.6647,0.));
#1062=CARTESIAN_POINT('Origin',(35.0549659526851,11.1546194651536,37.9568673199931));
#1063=CARTESIAN_POINT('Origin',(62.05,3.5697,0.));
#1064=CARTESIAN_POINT('',(62.05,3.5697,11.2123700021464));
#1065=CARTESIAN_POINT('',(62.05,3.5697,0.));
#1066=CARTESIAN_POINT('Origin',(35.0549659526851,11.6682102141945,37.9568673199931));
#1067=CARTESIAN_POINT('Origin',(65.7,2.3944,0.));
#1068=CARTESIAN_POINT('',(65.7,2.3944,15.4872903716189));
#1069=CARTESIAN_POINT('',(65.7,2.3944,0.));
#1070=CARTESIAN_POINT('Origin',(35.0549659526851,12.2621009632354,37.9568673199931));
#1071=CARTESIAN_POINT('Origin',(69.35,1.168,0.));
#1072=CARTESIAN_POINT('',(69.35,1.168,330.));
#1073=CARTESIAN_POINT('',(69.35,1.168,330.));
#1074=CARTESIAN_POINT('',(69.35,1.168,21.5907242284302));
#1075=CARTESIAN_POINT('',(69.35,1.168,0.));
#1076=CARTESIAN_POINT('Origin',(35.0549659526851,12.6911314398978,37.9568673199931));
#1077=CARTESIAN_POINT('Origin',(75.3602312482839,10.,40.4478570148887));
#1078=CARTESIAN_POINT('',(0.365000000000002,2.72056504388349,32.9747809690839));
#1079=CARTESIAN_POINT('',(0.139927453431739,1.85284672257038,35.7534483641523));
#1080=CARTESIAN_POINT('Ctrl Pts',(0.365000000000002,2.72056504388349,32.9747809690839));
#1081=CARTESIAN_POINT('Ctrl Pts',(0.305705887516144,2.57178051834807,33.5698205016851));
#1082=CARTESIAN_POINT('Ctrl Pts',(0.190083809599095,2.22809716510175,34.9497739018621));
#1083=CARTESIAN_POINT('Ctrl Pts',(0.139927453431738,1.85284672257039,35.7534483641523));
#1084=CARTESIAN_POINT('',(0.365000000000002,0.510999999999997,32.9747809690839));
#1085=CARTESIAN_POINT('',(0.365000000000002,10.,32.9747809690839));
#1086=CARTESIAN_POINT('',(0.0872738261137374,1.43574155295555,36.6910689598985));
#1087=CARTESIAN_POINT('Ctrl Pts',(0.0872738261137374,1.43574155295555,36.6910689598985));
#1088=CARTESIAN_POINT('Ctrl Pts',(0.0872738261137374,1.41991495417058,36.6910689598985));
#1089=CARTESIAN_POINT('Ctrl Pts',(0.0874898863903428,1.40565802753018,36.6867363992542));
#1090=CARTESIAN_POINT('Ctrl Pts',(0.0881793839151861,1.3790556116275,36.672961779952));
#1091=CARTESIAN_POINT('Ctrl Pts',(0.0886536732030139,1.36671687222878,36.6635067320824));
#1092=CARTESIAN_POINT('Ctrl Pts',(0.0903236299358079,1.33198377629978,36.6303877576549));
#1093=CARTESIAN_POINT('Ctrl Pts',(0.0917579630110921,1.31201698512853,36.6021797899015));
#1094=CARTESIAN_POINT('Ctrl Pts',(0.0992174678014173,1.22306661475911,36.4571995037249));
#1095=CARTESIAN_POINT('Ctrl Pts',(0.10684811598175,1.17618217875754,36.3149746692629));
#1096=CARTESIAN_POINT('Ctrl Pts',(0.123223728727373,1.0872817600408,36.0268733496678));
#1097=CARTESIAN_POINT('Ctrl Pts',(0.132028995097525,1.04926303562654,35.8797819931397));
#1098=CARTESIAN_POINT('Ctrl Pts',(0.193237838438923,0.811884480345756,34.9007091639734));
#1099=CARTESIAN_POINT('Ctrl Pts',(0.267408058196627,0.660313847683206,33.9598941682278));
#1100=CARTESIAN_POINT('Ctrl Pts',(0.362074997236627,0.515442086613207,33.0041782867666));
#1101=CARTESIAN_POINT('Ctrl Pts',(0.363535309609476,0.513218537046959,32.9894797081133));
#1102=CARTESIAN_POINT('Ctrl Pts',(0.365000000000002,0.510999999999997,32.9747809690839));
#1103=CARTESIAN_POINT('Ctrl Pts',(0.139927453431738,1.85284672257038,35.7534483641523));
#1104=CARTESIAN_POINT('Ctrl Pts',(0.131674516288069,1.82067906861822,35.8856883298931));
#1105=CARTESIAN_POINT('Ctrl Pts',(0.12305923252807,1.78330832395885,36.0297673831811));
#1106=CARTESIAN_POINT('Ctrl Pts',(0.10684811598175,1.69530092715356,36.3149746692629));
#1107=CARTESIAN_POINT('Ctrl Pts',(0.0992174678014173,1.64841649115199,36.4571995037249));
#1108=CARTESIAN_POINT('Ctrl Pts',(0.0917579630110921,1.55946612078257,36.6021797899015));
#1109=CARTESIAN_POINT('Ctrl Pts',(0.0903236299358078,1.53949932961132,36.6303877576549));
#1110=CARTESIAN_POINT('Ctrl Pts',(0.0886536732030139,1.50476623368233,36.6635067320824));
#1111=CARTESIAN_POINT('Ctrl Pts',(0.0881793839151861,1.49242749428361,36.672961779952));
#1112=CARTESIAN_POINT('Ctrl Pts',(0.0874898863903427,1.46582507838092,36.6867363992542));
#1113=CARTESIAN_POINT('Ctrl Pts',(0.0872738261137374,1.45156815174052,36.6910689598985));
#1114=CARTESIAN_POINT('Ctrl Pts',(0.0872738261137374,1.43574155295555,36.6910689598985));
#1115=CARTESIAN_POINT('Origin',(1.76568741309878,1.43574155295555,0.));
#1116=CARTESIAN_POINT('',(0.139927453431737,1.85284672257038,0.));
#1117=CARTESIAN_POINT('',(0.365,0.511,0.));
#1118=CARTESIAN_POINT('Origin',(35.0549659526851,10.,37.9568673199931));
#1119=CARTESIAN_POINT('',(73.,0.,35.9137346399863));
#1120=CARTESIAN_POINT('Origin',(35.0549659526851,12.1424108951407,37.9568673199931));
#1121=CARTESIAN_POINT('',(36.865,0.,0.));
#1122=CARTESIAN_POINT('Origin',(35.0549659526851,0.,37.9568673199931));
#1123=CARTESIAN_POINT('',(36.865,9.17756,0.));
#1124=CARTESIAN_POINT('',(36.865,10.,0.));
#1125=CARTESIAN_POINT('',(40.15,8.7308,0.299987097957959));
#1126=CARTESIAN_POINT('Origin',(35.0549659526851,9.42372463043483,37.9568673199931));
#1127=CARTESIAN_POINT('Origin',(35.0549659526851,9.58676571994891,37.9568673199931));
#1128=CARTESIAN_POINT('Origin',(38.0336541303925,10.,37.9820253215059));
#1129=CARTESIAN_POINT('',(36.5,9.2272,0.0129865529469964));
#1130=CARTESIAN_POINT('Origin',(38.0336541303925,9.01862303826662,37.9820253215059));
#1131=CARTESIAN_POINT('',(2.18313089193348,1.49022953865874E-6,25.3828196509603));
#1132=CARTESIAN_POINT('Origin',(38.0336541303925,0.,37.9820253215059));
#1133=CARTESIAN_POINT('Ctrl Pts',(0.365000000000002,0.510999999999998,32.9747809690839));
#1134=CARTESIAN_POINT('Ctrl Pts',(0.455649954368834,0.386869885518349,32.2928366624507));
#1135=CARTESIAN_POINT('Ctrl Pts',(0.610201818837332,0.266533118692827,31.2688495855749));
#1136=CARTESIAN_POINT('Ctrl Pts',(1.20747237754182,0.0536987037737406,28.4745670106723));
#1137=CARTESIAN_POINT('Ctrl Pts',(1.64607086241474,0.000469422710858483,
26.9110019484936));
#1138=CARTESIAN_POINT('Ctrl Pts',(2.18313089193348,2.98045907438796E-6,
25.3828196509603));
#1139=CARTESIAN_POINT('',(18.25,9.709,5.53811943382028));
#1140=CARTESIAN_POINT('Ctrl Pts',(18.25,9.709,5.53811943382026));
#1141=CARTESIAN_POINT('Ctrl Pts',(17.2712270768039,9.60489346121101,6.13495586441956));
#1142=CARTESIAN_POINT('Ctrl Pts',(16.0131353757452,9.47869715171021,6.95961451556896));
#1143=CARTESIAN_POINT('Ctrl Pts',(14.5851107298117,9.2677525643524,8.07941987664416));
#1144=CARTESIAN_POINT('Ctrl Pts',(13.8107911527658,9.15337181880425,8.68661332812315));
#1145=CARTESIAN_POINT('Ctrl Pts',(13.0003740065154,9.01591324584842,9.36822400113389));
#1146=CARTESIAN_POINT('Ctrl Pts',(12.1301193327915,8.84921739010064,10.1790239549363));
#1147=CARTESIAN_POINT('Ctrl Pts',(11.1548003079215,8.6623966301706,11.087710393727));
#1148=CARTESIAN_POINT('Ctrl Pts',(10.028676098023,8.42903567136594,12.2300437924816));
#1149=CARTESIAN_POINT('Ctrl Pts',(8.84076173160762,8.12688335676397,13.6555986748945));
#1150=CARTESIAN_POINT('Ctrl Pts',(8.15195207679315,7.95168097062699,14.4822036846789));
#1151=CARTESIAN_POINT('Ctrl Pts',(7.44298039400438,7.74866803709436,15.4039827925274));
#1152=CARTESIAN_POINT('Ctrl Pts',(6.73526743496324,7.50549805744204,16.4318283325367));
#1153=CARTESIAN_POINT('Ctrl Pts',(6.46402915700954,7.41230065913482,16.825760718136));
#1154=CARTESIAN_POINT('Ctrl Pts',(6.19640798803607,7.31533921481838,17.2304758658528));
#1155=CARTESIAN_POINT('Ctrl Pts',(5.9357982330888,7.21986746159192,17.6417291880686));
#1156=CARTESIAN_POINT('Ctrl Pts',(5.66438939927875,7.12043957482598,18.0700239178867));
#1157=CARTESIAN_POINT('Ctrl Pts',(5.34959428098417,7.00590984602072,18.5840801338631));
#1158=CARTESIAN_POINT('Ctrl Pts',(4.99073388523651,6.86331839725385,19.2159542976539));
#1159=CARTESIAN_POINT('Ctrl Pts',(4.6058952852258,6.71040463422182,19.8935703607738));
#1160=CARTESIAN_POINT('Ctrl Pts',(4.17508536927828,6.52119611441628,20.6988914259415));
#1161=CARTESIAN_POINT('Ctrl Pts',(3.72239456352241,6.26553480179079,21.6499260401868));
#1162=CARTESIAN_POINT('Ctrl Pts',(3.36249678061582,6.06227920565544,22.4060166096933));
#1163=CARTESIAN_POINT('Ctrl Pts',(2.99198781078013,5.81910815095097,23.2569360937133));
#1164=CARTESIAN_POINT('Ctrl Pts',(2.67543769578388,5.5859297892978,24.0609430875928));
#1165=CARTESIAN_POINT('Ctrl Pts',(2.11818290210245,5.17544262262736,25.4763169265758));
#1166=CARTESIAN_POINT('Ctrl Pts',(1.68237181798131,4.77374537196755,26.8430017595641));
#1167=CARTESIAN_POINT('Ctrl Pts',(1.36206027753611,4.38603820753226,28.0223965989508));
#1168=CARTESIAN_POINT('Ctrl Pts',(1.11812504889027,4.09077742587979,28.9205720109565));
#1169=CARTESIAN_POINT('Ctrl Pts',(0.932118910764526,3.79044947527677,29.7176683428809));
#1170=CARTESIAN_POINT('Ctrl Pts',(0.756017731731587,3.49047380475331,30.6078932010982));
#1171=CARTESIAN_POINT('Ctrl Pts',(0.620214869425744,3.25914341331067,31.294402425543));
#1172=CARTESIAN_POINT('Ctrl Pts',(0.497366729613625,3.03380854716288,32.0214512058625));
#1173=CARTESIAN_POINT('Ctrl Pts',(0.399371653810826,2.80390431019084,32.7226734153434));
#1174=CARTESIAN_POINT('Ctrl Pts',(0.387624854927052,2.77634538631519,32.8067298457316));
#1175=CARTESIAN_POINT('Ctrl Pts',(0.376169276492237,2.74859169668015,32.890756387206));
#1176=CARTESIAN_POINT('Ctrl Pts',(0.365000000000001,2.72056504388349,32.9747809690839));
#1177=CARTESIAN_POINT('',(21.9,9.928,3.57700818154698));
#1178=CARTESIAN_POINT('Origin',(38.0336541303925,10.8960192478236,37.9820253215059));
#1179=CARTESIAN_POINT('',(25.55,9.9645,2.0911019626296));
#1180=CARTESIAN_POINT('Origin',(38.0336541303925,10.0893365413039,37.9820253215059));
#1181=CARTESIAN_POINT('',(29.2,9.855,1.02304055860152));
#1182=CARTESIAN_POINT('Origin',(38.0336541303925,9.58999037608823,37.9820253215059));
#1183=CARTESIAN_POINT('',(32.85,9.6068,0.337241753839272));
#1184=CARTESIAN_POINT('Origin',(38.0336541303925,9.25431151913331,37.9820253215059));
#1185=CARTESIAN_POINT('Origin',(38.0336541303925,9.06769997043918,37.9820253215059));
#1186=CARTESIAN_POINT('Origin',(43.8,8.1176,0.));
#1187=CARTESIAN_POINT('',(40.15,8.7308,18.257687711178));
#1188=CARTESIAN_POINT('',(40.15,8.7308,0.));
#1189=CARTESIAN_POINT('Origin',(36.865,9.28268,25.));
#1190=CARTESIAN_POINT('Origin',(40.15,8.7308,0.));
#1191=CARTESIAN_POINT('',(36.5,9.2272,17.5088869318372));
#1192=CARTESIAN_POINT('',(36.5,9.2272,0.));
#1193=CARTESIAN_POINT('Origin',(36.865,9.17756,25.));
#1194=CARTESIAN_POINT('Origin',(36.5,9.2272,0.));
#1195=CARTESIAN_POINT('',(32.85,9.6068,18.6651933731171));
#1196=CARTESIAN_POINT('',(32.85,9.6068,0.));
#1197=CARTESIAN_POINT('Origin',(36.865,9.18924,25.));
#1198=CARTESIAN_POINT('Origin',(32.85,9.6068,0.));
#1199=CARTESIAN_POINT('',(32.85,9.6068,31.3348066268829));
#1200=CARTESIAN_POINT('',(32.85,9.6068,0.));
#1201=CARTESIAN_POINT('Origin',(36.865,9.33378,25.));
#1202=CARTESIAN_POINT('',(29.2,9.855,0.));
#1203=CARTESIAN_POINT('Origin',(29.2,9.855,0.));
#1204=CARTESIAN_POINT('',(25.55,9.9645,0.));
#1205=CARTESIAN_POINT('Origin',(25.55,9.9645,0.));
#1206=CARTESIAN_POINT('',(21.9,9.928,0.));
#1207=CARTESIAN_POINT('Origin',(21.9,9.928,0.));
#1208=CARTESIAN_POINT('',(18.25,9.709,0.));
#1209=CARTESIAN_POINT('Ctrl Pts',(18.25,9.709,0.));
#1210=CARTESIAN_POINT('Ctrl Pts',(18.25,9.709,330.));
#1211=CARTESIAN_POINT('Ctrl Pts',(15.4935695776924,9.41581408948045,0.));
#1212=CARTESIAN_POINT('Ctrl Pts',(15.4935695776924,9.41581408948045,330.));
#1213=CARTESIAN_POINT('Ctrl Pts',(13.8932166749663,9.23586499546285,0.));
#1214=CARTESIAN_POINT('Ctrl Pts',(13.8932166749663,9.23586499546285,330.));
#1215=CARTESIAN_POINT('Ctrl Pts',(8.26997205183907,8.18206636059203,0.));
#1216=CARTESIAN_POINT('Ctrl Pts',(8.26997205183907,8.18206636059203,330.));
#1217=CARTESIAN_POINT('Ctrl Pts',(5.59370952880345,7.06067472074282,0.));
#1218=CARTESIAN_POINT('Ctrl Pts',(5.59370952880345,7.06067472074282,330.));
#1219=CARTESIAN_POINT('Ctrl Pts',(3.80172563363578,6.49082980854864,0.));
#1220=CARTESIAN_POINT('Ctrl Pts',(3.80172563363578,6.49082980854864,330.));
#1221=CARTESIAN_POINT('Ctrl Pts',(1.03745755793058,4.42334647428626,0.));
#1222=CARTESIAN_POINT('Ctrl Pts',(1.03745755793058,4.42334647428626,330.));
#1223=CARTESIAN_POINT('Ctrl Pts',(0.833440687125883,3.46817774504048,0.));
#1224=CARTESIAN_POINT('Ctrl Pts',(0.833440687125883,3.46817774504048,330.));
#1225=CARTESIAN_POINT('Ctrl Pts',(0.261936359774256,2.7656701331274,0.));
#1226=CARTESIAN_POINT('Ctrl Pts',(0.261936359774256,2.7656701331274,330.));
#1227=CARTESIAN_POINT('Ctrl Pts',(0.139927453431736,1.85284672257038,0.));
#1228=CARTESIAN_POINT('Ctrl Pts',(0.139927453431736,1.85284672257038,330.));
#1229=CARTESIAN_POINT('Origin',(36.865,10.,25.));
#1230=CARTESIAN_POINT('',(36.5,9.2272,32.4911130681628));
#1231=CARTESIAN_POINT('Origin',(36.865,9.18924,25.));
#1232=CARTESIAN_POINT('Origin',(36.865,9.17756,25.));
#1233=CARTESIAN_POINT('',(44.365,0.,25.));
#1234=CARTESIAN_POINT('',(44.365,10.,25.));
#1235=CARTESIAN_POINT('Origin',(36.865,0.,25.));
#1236=CARTESIAN_POINT('Origin',(40.15,8.7308,0.));
#1237=CARTESIAN_POINT('',(36.5,9.2272,0.));
#1238=CARTESIAN_POINT('Origin',(36.5,9.2272,0.));
#1239=CARTESIAN_POINT('Origin',(73.,0.,0.));
#1240=CARTESIAN_POINT('',(73.,0.,330.));
#1241=CARTESIAN_POINT('',(73.,0.,330.));
#1242=CARTESIAN_POINT('',(73.,0.,0.));
#1243=CARTESIAN_POINT('Origin',(2.18313089193348,0.,0.));
#1244=CARTESIAN_POINT('',(2.18313089193348,1.49022953723406E-6,0.));
#1245=CARTESIAN_POINT('',(2.19,0.,330.));
#1246=CARTESIAN_POINT('Ctrl Pts',(0.365,0.511,0.));
#1247=CARTESIAN_POINT('Ctrl Pts',(0.365,0.511,330.));
#1248=CARTESIAN_POINT('Ctrl Pts',(0.526184554965445,0.290284419944355,0.));
#1249=CARTESIAN_POINT('Ctrl Pts',(0.526184554965445,0.290284419944355,330.));
#1250=CARTESIAN_POINT('Ctrl Pts',(0.950581797071258,0.00107346223698147,
0.));
#1251=CARTESIAN_POINT('Ctrl Pts',(0.950581797071258,0.00107346223698147,
330.));
#1252=CARTESIAN_POINT('Ctrl Pts',(2.18313089193348,2.98045907446813E-6,
0.));
#1253=CARTESIAN_POINT('Ctrl Pts',(2.18313089193348,2.98045907446813E-6,
330.));
#1254=CARTESIAN_POINT('Origin',(36.5436369130569,4.98225,330.));
#1255=UNCERTAINTY_MEASURE_WITH_UNIT(LENGTH_MEASURE(0.01),#1259,
'DISTANCE_ACCURACY_VALUE',
'Maximum model space distance between geometric entities at asserted c
onnectivities');
#1256=UNCERTAINTY_MEASURE_WITH_UNIT(LENGTH_MEASURE(0.01),#1259,
'DISTANCE_ACCURACY_VALUE',
'Maximum model space distance between geometric entities at asserted c
onnectivities');
#1257=(
GEOMETRIC_REPRESENTATION_CONTEXT(3)
GLOBAL_UNCERTAINTY_ASSIGNED_CONTEXT((#1255))
GLOBAL_UNIT_ASSIGNED_CONTEXT((#1259,#1261,#1262))
REPRESENTATION_CONTEXT('','3D')
);
#1258=(
GEOMETRIC_REPRESENTATION_CONTEXT(3)
GLOBAL_UNCERTAINTY_ASSIGNED_CONTEXT((#1256))
GLOBAL_UNIT_ASSIGNED_CONTEXT((#1259,#1261,#1262))
REPRESENTATION_CONTEXT('','3D')
);
#1259=(
LENGTH_UNIT()
NAMED_UNIT(*)
SI_UNIT(.MILLI.,.METRE.)
);
#1260=(
LENGTH_UNIT()
NAMED_UNIT(*)
SI_UNIT(.CENTI.,.METRE.)
);
#1261=(
NAMED_UNIT(*)
PLANE_ANGLE_UNIT()
SI_UNIT($,.RADIAN.)
);
#1262=(
NAMED_UNIT(*)
SI_UNIT($,.STERADIAN.)
SOLID_ANGLE_UNIT()
);
#1263=SHAPE_DEFINITION_REPRESENTATION(#1264,#1265);
#1264=PRODUCT_DEFINITION_SHAPE('',$,#1267);
#1265=SHAPE_REPRESENTATION('',(#609),#1257);
#1266=PRODUCT_DEFINITION_CONTEXT('part definition',#1271,'design');
#1267=PRODUCT_DEFINITION('front wingy mo bobs','front wingy mo bobs',#1268,
#1266);
#1268=PRODUCT_DEFINITION_FORMATION('',$,#1273);
#1269=PRODUCT_RELATED_PRODUCT_CATEGORY('front wingy mo bobs',
'front wingy mo bobs',(#1273));
#1270=APPLICATION_PROTOCOL_DEFINITION('international standard',
'automotive_design',2009,#1271);
#1271=APPLICATION_CONTEXT(
'Core Data for Automotive Mechanical Design Process');
#1272=PRODUCT_CONTEXT('part definition',#1271,'mechanical');
#1273=PRODUCT('front wingy mo bobs','front wingy mo bobs',$,(#1272));
#1274=PRESENTATION_STYLE_ASSIGNMENT((#1275));
#1275=SURFACE_STYLE_USAGE(.BOTH.,#1278);
#1276=SURFACE_STYLE_RENDERING_WITH_PROPERTIES($,#1282,(#1277));
#1277=SURFACE_STYLE_TRANSPARENT(0.);
#1278=SURFACE_SIDE_STYLE('',(#1279,#1276));
#1279=SURFACE_STYLE_FILL_AREA(#1280);
#1280=FILL_AREA_STYLE('',(#1281));
#1281=FILL_AREA_STYLE_COLOUR('',#1282);
#1282=COLOUR_RGB('',0.749019607843137,0.749019607843137,0.749019607843137);
ENDSEC;
END-ISO-10303-21;
