ISO-10303-21;
HEADER;
/* Generated by software containing ST-Developer
 * from STEP Tools, Inc. (www.steptools.com) 
 */

FILE_DESCRIPTION(
/* description */ (''),
/* implementation_level */ '2;1');

FILE_NAME(
/* name */ 'top hatchy mo bob.stp',
/* time_stamp */ '2026-05-22T23:04:46+12:00',
/* author */ ('Jake'),
/* organization */ (''),
/* preprocessor_version */ 'ST-DEVELOPER v20.1',
/* originating_system */ 'Autodesk Inventor 2026',
/* authorisation */ '');

FILE_SCHEMA (('AUTOMOTIVE_DESIGN { 1 0 10303 214 3 1 1 }'));
ENDSEC;

DATA;
#10=MECHANICAL_DESIGN_GEOMETRIC_PRESENTATION_REPRESENTATION('',(#16),#822);
#11=GEOMETRICALLY_BOUNDED_WIREFRAME_SHAPE_REPRESENTATION('',(#12),#821);
#12=GEOMETRIC_CURVE_SET('Sketch7',(#818));
#13=SHAPE_REPRESENTATION_RELATIONSHIP('SRR','None',#829,#15);
#14=SHAPE_REPRESENTATION_RELATIONSHIP('SRR','None',#829,#11);
#15=ADVANCED_BREP_SHAPE_REPRESENTATION('',(#17),#821);
#16=STYLED_ITEM('',(#838),#17);
#17=MANIFOLD_SOLID_BREP('Solid1',#492);
#18=FACE_BOUND('',#88,.T.);
#19=FACE_BOUND('',#94,.T.);
#20=FACE_BOUND('',#96,.T.);
#21=ELLIPSE('',#528,8.48528137423856,6.);
#22=ELLIPSE('',#529,8.48528137423875,6.);
#23=ELLIPSE('',#531,8.48528137423856,6.);
#24=ELLIPSE('',#533,8.48528137423858,6.);
#25=ELLIPSE('',#537,8.48528137423858,6.);
#26=ELLIPSE('',#538,8.4852813742386,6.);
#27=ELLIPSE('',#540,8.48528137423862,6.);
#28=ELLIPSE('',#542,8.48528137423847,6.);
#29=CYLINDRICAL_SURFACE('',#527,6.);
#30=CYLINDRICAL_SURFACE('',#530,6.);
#31=CYLINDRICAL_SURFACE('',#532,6.);
#32=CYLINDRICAL_SURFACE('',#535,6.);
#33=CYLINDRICAL_SURFACE('',#536,6.);
#34=CYLINDRICAL_SURFACE('',#539,6.);
#35=CYLINDRICAL_SURFACE('',#541,6.);
#36=CYLINDRICAL_SURFACE('',#543,6.);
#37=FACE_OUTER_BOUND('',#66,.T.);
#38=FACE_OUTER_BOUND('',#67,.T.);
#39=FACE_OUTER_BOUND('',#68,.T.);
#40=FACE_OUTER_BOUND('',#69,.T.);
#41=FACE_OUTER_BOUND('',#70,.T.);
#42=FACE_OUTER_BOUND('',#71,.T.);
#43=FACE_OUTER_BOUND('',#72,.T.);
#44=FACE_OUTER_BOUND('',#73,.T.);
#45=FACE_OUTER_BOUND('',#74,.T.);
#46=FACE_OUTER_BOUND('',#75,.T.);
#47=FACE_OUTER_BOUND('',#76,.T.);
#48=FACE_OUTER_BOUND('',#77,.T.);
#49=FACE_OUTER_BOUND('',#78,.T.);
#50=FACE_OUTER_BOUND('',#79,.T.);
#51=FACE_OUTER_BOUND('',#80,.T.);
#52=FACE_OUTER_BOUND('',#81,.T.);
#53=FACE_OUTER_BOUND('',#82,.T.);
#54=FACE_OUTER_BOUND('',#83,.T.);
#55=FACE_OUTER_BOUND('',#84,.T.);
#56=FACE_OUTER_BOUND('',#85,.T.);
#57=FACE_OUTER_BOUND('',#86,.T.);
#58=FACE_OUTER_BOUND('',#87,.T.);
#59=FACE_OUTER_BOUND('',#89,.T.);
#60=FACE_OUTER_BOUND('',#90,.T.);
#61=FACE_OUTER_BOUND('',#91,.T.);
#62=FACE_OUTER_BOUND('',#92,.T.);
#63=FACE_OUTER_BOUND('',#93,.T.);
#64=FACE_OUTER_BOUND('',#95,.T.);
#65=FACE_OUTER_BOUND('',#97,.T.);
#66=EDGE_LOOP('',(#314,#315,#316,#317));
#67=EDGE_LOOP('',(#318,#319,#320,#321));
#68=EDGE_LOOP('',(#322,#323,#324,#325));
#69=EDGE_LOOP('',(#326,#327,#328,#329));
#70=EDGE_LOOP('',(#330,#331,#332,#333));
#71=EDGE_LOOP('',(#334,#335,#336,#337));
#72=EDGE_LOOP('',(#338,#339,#340,#341));
#73=EDGE_LOOP('',(#342,#343,#344,#345));
#74=EDGE_LOOP('',(#346,#347,#348,#349));
#75=EDGE_LOOP('',(#350,#351,#352,#353));
#76=EDGE_LOOP('',(#354,#355,#356,#357));
#77=EDGE_LOOP('',(#358,#359,#360,#361));
#78=EDGE_LOOP('',(#362,#363,#364,#365));
#79=EDGE_LOOP('',(#366,#367,#368,#369));
#80=EDGE_LOOP('',(#370,#371,#372,#373));
#81=EDGE_LOOP('',(#374,#375,#376,#377));
#82=EDGE_LOOP('',(#378,#379,#380,#381));
#83=EDGE_LOOP('',(#382,#383,#384,#385));
#84=EDGE_LOOP('',(#386,#387,#388,#389));
#85=EDGE_LOOP('',(#390,#391,#392,#393));
#86=EDGE_LOOP('',(#394,#395,#396,#397));
#87=EDGE_LOOP('',(#398,#399,#400,#401));
#88=EDGE_LOOP('',(#402,#403,#404,#405));
#89=EDGE_LOOP('',(#406,#407,#408,#409));
#90=EDGE_LOOP('',(#410,#411,#412,#413));
#91=EDGE_LOOP('',(#414,#415,#416,#417));
#92=EDGE_LOOP('',(#418,#419,#420,#421));
#93=EDGE_LOOP('',(#422,#423,#424,#425));
#94=EDGE_LOOP('',(#426,#427,#428,#429));
#95=EDGE_LOOP('',(#430,#431,#432,#433));
#96=EDGE_LOOP('',(#434,#435,#436,#437));
#97=EDGE_LOOP('',(#438,#439,#440,#441));
#98=LINE('',#688,#154);
#99=LINE('',#690,#155);
#100=LINE('',#692,#156);
#101=LINE('',#693,#157);
#102=LINE('',#696,#158);
#103=LINE('',#698,#159);
#104=LINE('',#699,#160);
#105=LINE('',#702,#161);
#106=LINE('',#704,#162);
#107=LINE('',#705,#163);
#108=LINE('',#707,#164);
#109=LINE('',#708,#165);
#110=LINE('',#712,#166);
#111=LINE('',#714,#167);
#112=LINE('',#716,#168);
#113=LINE('',#717,#169);
#114=LINE('',#720,#170);
#115=LINE('',#722,#171);
#116=LINE('',#723,#172);
#117=LINE('',#726,#173);
#118=LINE('',#728,#174);
#119=LINE('',#729,#175);
#120=LINE('',#731,#176);
#121=LINE('',#732,#177);
#122=LINE('',#736,#178);
#123=LINE('',#738,#179);
#124=LINE('',#740,#180);
#125=LINE('',#741,#181);
#126=LINE('',#744,#182);
#127=LINE('',#746,#183);
#128=LINE('',#747,#184);
#129=LINE('',#750,#185);
#130=LINE('',#752,#186);
#131=LINE('',#753,#187);
#132=LINE('',#755,#188);
#133=LINE('',#756,#189);
#134=LINE('',#760,#190);
#135=LINE('',#764,#191);
#136=LINE('',#768,#192);
#137=LINE('',#770,#193);
#138=LINE('',#774,#194);
#139=LINE('',#777,#195);
#140=LINE('',#779,#196);
#141=LINE('',#781,#197);
#142=LINE('',#786,#198);
#143=LINE('',#790,#199);
#144=LINE('',#795,#200);
#145=LINE('',#797,#201);
#146=LINE('',#801,#202);
#147=LINE('',#803,#203);
#148=LINE('',#805,#204);
#149=LINE('',#806,#205);
#150=LINE('',#808,#206);
#151=LINE('',#809,#207);
#152=LINE('',#811,#208);
#153=LINE('',#813,#209);
#154=VECTOR('',#556,10.);
#155=VECTOR('',#557,10.);
#156=VECTOR('',#558,10.);
#157=VECTOR('',#559,10.);
#158=VECTOR('',#562,10.);
#159=VECTOR('',#563,10.);
#160=VECTOR('',#564,10.);
#161=VECTOR('',#567,10.);
#162=VECTOR('',#568,10.);
#163=VECTOR('',#569,10.);
#164=VECTOR('',#572,10.);
#165=VECTOR('',#573,10.);
#166=VECTOR('',#576,10.);
#167=VECTOR('',#577,10.);
#168=VECTOR('',#578,10.);
#169=VECTOR('',#579,10.);
#170=VECTOR('',#582,10.);
#171=VECTOR('',#583,10.);
#172=VECTOR('',#584,10.);
#173=VECTOR('',#587,10.);
#174=VECTOR('',#588,10.);
#175=VECTOR('',#589,10.);
#176=VECTOR('',#592,10.);
#177=VECTOR('',#593,10.);
#178=VECTOR('',#596,10.);
#179=VECTOR('',#597,10.);
#180=VECTOR('',#598,10.);
#181=VECTOR('',#599,10.);
#182=VECTOR('',#602,10.);
#183=VECTOR('',#603,10.);
#184=VECTOR('',#604,10.);
#185=VECTOR('',#607,10.);
#186=VECTOR('',#608,10.);
#187=VECTOR('',#609,10.);
#188=VECTOR('',#612,10.);
#189=VECTOR('',#613,10.);
#190=VECTOR('',#616,10.);
#191=VECTOR('',#619,10.);
#192=VECTOR('',#624,10.);
#193=VECTOR('',#625,10.);
#194=VECTOR('',#630,10.);
#195=VECTOR('',#633,10.);
#196=VECTOR('',#636,10.);
#197=VECTOR('',#639,10.);
#198=VECTOR('',#644,10.);
#199=VECTOR('',#649,10.);
#200=VECTOR('',#656,10.);
#201=VECTOR('',#659,10.);
#202=VECTOR('',#662,10.);
#203=VECTOR('',#663,10.);
#204=VECTOR('',#664,10.);
#205=VECTOR('',#665,10.);
#206=VECTOR('',#668,10.);
#207=VECTOR('',#669,10.);
#208=VECTOR('',#672,10.);
#209=VECTOR('',#675,10.);
#210=VERTEX_POINT('',#686);
#211=VERTEX_POINT('',#687);
#212=VERTEX_POINT('',#689);
#213=VERTEX_POINT('',#691);
#214=VERTEX_POINT('',#695);
#215=VERTEX_POINT('',#697);
#216=VERTEX_POINT('',#701);
#217=VERTEX_POINT('',#703);
#218=VERTEX_POINT('',#710);
#219=VERTEX_POINT('',#711);
#220=VERTEX_POINT('',#713);
#221=VERTEX_POINT('',#715);
#222=VERTEX_POINT('',#719);
#223=VERTEX_POINT('',#721);
#224=VERTEX_POINT('',#725);
#225=VERTEX_POINT('',#727);
#226=VERTEX_POINT('',#734);
#227=VERTEX_POINT('',#735);
#228=VERTEX_POINT('',#737);
#229=VERTEX_POINT('',#739);
#230=VERTEX_POINT('',#743);
#231=VERTEX_POINT('',#745);
#232=VERTEX_POINT('',#749);
#233=VERTEX_POINT('',#751);
#234=VERTEX_POINT('',#758);
#235=VERTEX_POINT('',#759);
#236=VERTEX_POINT('',#761);
#237=VERTEX_POINT('',#763);
#238=VERTEX_POINT('',#767);
#239=VERTEX_POINT('',#769);
#240=VERTEX_POINT('',#773);
#241=VERTEX_POINT('',#775);
#242=VERTEX_POINT('',#783);
#243=VERTEX_POINT('',#785);
#244=VERTEX_POINT('',#789);
#245=VERTEX_POINT('',#793);
#246=VERTEX_POINT('',#799);
#247=VERTEX_POINT('',#800);
#248=VERTEX_POINT('',#802);
#249=VERTEX_POINT('',#804);
#250=EDGE_CURVE('',#210,#211,#98,.T.);
#251=EDGE_CURVE('',#210,#212,#99,.T.);
#252=EDGE_CURVE('',#212,#213,#100,.T.);
#253=EDGE_CURVE('',#211,#213,#101,.T.);
#254=EDGE_CURVE('',#214,#210,#102,.T.);
#255=EDGE_CURVE('',#214,#215,#103,.T.);
#256=EDGE_CURVE('',#215,#212,#104,.T.);
#257=EDGE_CURVE('',#216,#214,#105,.T.);
#258=EDGE_CURVE('',#216,#217,#106,.T.);
#259=EDGE_CURVE('',#217,#215,#107,.T.);
#260=EDGE_CURVE('',#211,#216,#108,.T.);
#261=EDGE_CURVE('',#213,#217,#109,.T.);
#262=EDGE_CURVE('',#218,#219,#110,.T.);
#263=EDGE_CURVE('',#218,#220,#111,.T.);
#264=EDGE_CURVE('',#220,#221,#112,.T.);
#265=EDGE_CURVE('',#219,#221,#113,.T.);
#266=EDGE_CURVE('',#222,#218,#114,.T.);
#267=EDGE_CURVE('',#222,#223,#115,.T.);
#268=EDGE_CURVE('',#223,#220,#116,.T.);
#269=EDGE_CURVE('',#224,#222,#117,.T.);
#270=EDGE_CURVE('',#224,#225,#118,.T.);
#271=EDGE_CURVE('',#225,#223,#119,.T.);
#272=EDGE_CURVE('',#219,#224,#120,.T.);
#273=EDGE_CURVE('',#221,#225,#121,.T.);
#274=EDGE_CURVE('',#226,#227,#122,.T.);
#275=EDGE_CURVE('',#226,#228,#123,.T.);
#276=EDGE_CURVE('',#228,#229,#124,.T.);
#277=EDGE_CURVE('',#227,#229,#125,.T.);
#278=EDGE_CURVE('',#230,#226,#126,.T.);
#279=EDGE_CURVE('',#230,#231,#127,.T.);
#280=EDGE_CURVE('',#231,#228,#128,.T.);
#281=EDGE_CURVE('',#232,#230,#129,.T.);
#282=EDGE_CURVE('',#232,#233,#130,.T.);
#283=EDGE_CURVE('',#233,#231,#131,.T.);
#284=EDGE_CURVE('',#227,#232,#132,.T.);
#285=EDGE_CURVE('',#229,#233,#133,.T.);
#286=EDGE_CURVE('',#234,#235,#134,.T.);
#287=EDGE_CURVE('',#235,#236,#21,.T.);
#288=EDGE_CURVE('',#236,#237,#135,.T.);
#289=EDGE_CURVE('',#237,#234,#22,.T.);
#290=EDGE_CURVE('',#238,#234,#136,.T.);
#291=EDGE_CURVE('',#237,#239,#137,.T.);
#292=EDGE_CURVE('',#239,#238,#23,.T.);
#293=EDGE_CURVE('',#239,#240,#138,.T.);
#294=EDGE_CURVE('',#240,#241,#24,.T.);
#295=EDGE_CURVE('',#241,#238,#139,.T.);
#296=EDGE_CURVE('',#235,#241,#140,.T.);
#297=EDGE_CURVE('',#240,#236,#141,.T.);
#298=EDGE_CURVE('',#236,#242,#25,.T.);
#299=EDGE_CURVE('',#242,#243,#142,.T.);
#300=EDGE_CURVE('',#237,#243,#26,.T.);
#301=EDGE_CURVE('',#243,#244,#143,.T.);
#302=EDGE_CURVE('',#244,#239,#27,.T.);
#303=EDGE_CURVE('',#245,#240,#28,.T.);
#304=EDGE_CURVE('',#245,#242,#144,.T.);
#305=EDGE_CURVE('',#244,#245,#145,.T.);
#306=EDGE_CURVE('',#246,#247,#146,.T.);
#307=EDGE_CURVE('',#247,#248,#147,.T.);
#308=EDGE_CURVE('',#248,#249,#148,.T.);
#309=EDGE_CURVE('',#249,#246,#149,.T.);
#310=EDGE_CURVE('',#247,#244,#150,.T.);
#311=EDGE_CURVE('',#248,#243,#151,.T.);
#312=EDGE_CURVE('',#249,#242,#152,.T.);
#313=EDGE_CURVE('',#246,#245,#153,.T.);
#314=ORIENTED_EDGE('',*,*,#250,.F.);
#315=ORIENTED_EDGE('',*,*,#251,.T.);
#316=ORIENTED_EDGE('',*,*,#252,.T.);
#317=ORIENTED_EDGE('',*,*,#253,.F.);
#318=ORIENTED_EDGE('',*,*,#254,.F.);
#319=ORIENTED_EDGE('',*,*,#255,.T.);
#320=ORIENTED_EDGE('',*,*,#256,.T.);
#321=ORIENTED_EDGE('',*,*,#251,.F.);
#322=ORIENTED_EDGE('',*,*,#257,.F.);
#323=ORIENTED_EDGE('',*,*,#258,.T.);
#324=ORIENTED_EDGE('',*,*,#259,.T.);
#325=ORIENTED_EDGE('',*,*,#255,.F.);
#326=ORIENTED_EDGE('',*,*,#260,.F.);
#327=ORIENTED_EDGE('',*,*,#253,.T.);
#328=ORIENTED_EDGE('',*,*,#261,.T.);
#329=ORIENTED_EDGE('',*,*,#258,.F.);
#330=ORIENTED_EDGE('',*,*,#262,.F.);
#331=ORIENTED_EDGE('',*,*,#263,.T.);
#332=ORIENTED_EDGE('',*,*,#264,.T.);
#333=ORIENTED_EDGE('',*,*,#265,.F.);
#334=ORIENTED_EDGE('',*,*,#266,.F.);
#335=ORIENTED_EDGE('',*,*,#267,.T.);
#336=ORIENTED_EDGE('',*,*,#268,.T.);
#337=ORIENTED_EDGE('',*,*,#263,.F.);
#338=ORIENTED_EDGE('',*,*,#269,.F.);
#339=ORIENTED_EDGE('',*,*,#270,.T.);
#340=ORIENTED_EDGE('',*,*,#271,.T.);
#341=ORIENTED_EDGE('',*,*,#267,.F.);
#342=ORIENTED_EDGE('',*,*,#272,.F.);
#343=ORIENTED_EDGE('',*,*,#265,.T.);
#344=ORIENTED_EDGE('',*,*,#273,.T.);
#345=ORIENTED_EDGE('',*,*,#270,.F.);
#346=ORIENTED_EDGE('',*,*,#274,.F.);
#347=ORIENTED_EDGE('',*,*,#275,.T.);
#348=ORIENTED_EDGE('',*,*,#276,.T.);
#349=ORIENTED_EDGE('',*,*,#277,.F.);
#350=ORIENTED_EDGE('',*,*,#278,.F.);
#351=ORIENTED_EDGE('',*,*,#279,.T.);
#352=ORIENTED_EDGE('',*,*,#280,.T.);
#353=ORIENTED_EDGE('',*,*,#275,.F.);
#354=ORIENTED_EDGE('',*,*,#281,.F.);
#355=ORIENTED_EDGE('',*,*,#282,.T.);
#356=ORIENTED_EDGE('',*,*,#283,.T.);
#357=ORIENTED_EDGE('',*,*,#279,.F.);
#358=ORIENTED_EDGE('',*,*,#284,.F.);
#359=ORIENTED_EDGE('',*,*,#277,.T.);
#360=ORIENTED_EDGE('',*,*,#285,.T.);
#361=ORIENTED_EDGE('',*,*,#282,.F.);
#362=ORIENTED_EDGE('',*,*,#286,.T.);
#363=ORIENTED_EDGE('',*,*,#287,.T.);
#364=ORIENTED_EDGE('',*,*,#288,.T.);
#365=ORIENTED_EDGE('',*,*,#289,.T.);
#366=ORIENTED_EDGE('',*,*,#290,.T.);
#367=ORIENTED_EDGE('',*,*,#289,.F.);
#368=ORIENTED_EDGE('',*,*,#291,.T.);
#369=ORIENTED_EDGE('',*,*,#292,.T.);
#370=ORIENTED_EDGE('',*,*,#293,.T.);
#371=ORIENTED_EDGE('',*,*,#294,.T.);
#372=ORIENTED_EDGE('',*,*,#295,.T.);
#373=ORIENTED_EDGE('',*,*,#292,.F.);
#374=ORIENTED_EDGE('',*,*,#286,.F.);
#375=ORIENTED_EDGE('',*,*,#290,.F.);
#376=ORIENTED_EDGE('',*,*,#295,.F.);
#377=ORIENTED_EDGE('',*,*,#296,.F.);
#378=ORIENTED_EDGE('',*,*,#287,.F.);
#379=ORIENTED_EDGE('',*,*,#296,.T.);
#380=ORIENTED_EDGE('',*,*,#294,.F.);
#381=ORIENTED_EDGE('',*,*,#297,.T.);
#382=ORIENTED_EDGE('',*,*,#288,.F.);
#383=ORIENTED_EDGE('',*,*,#298,.T.);
#384=ORIENTED_EDGE('',*,*,#299,.T.);
#385=ORIENTED_EDGE('',*,*,#300,.F.);
#386=ORIENTED_EDGE('',*,*,#291,.F.);
#387=ORIENTED_EDGE('',*,*,#300,.T.);
#388=ORIENTED_EDGE('',*,*,#301,.T.);
#389=ORIENTED_EDGE('',*,*,#302,.T.);
#390=ORIENTED_EDGE('',*,*,#297,.F.);
#391=ORIENTED_EDGE('',*,*,#303,.F.);
#392=ORIENTED_EDGE('',*,*,#304,.T.);
#393=ORIENTED_EDGE('',*,*,#298,.F.);
#394=ORIENTED_EDGE('',*,*,#293,.F.);
#395=ORIENTED_EDGE('',*,*,#302,.F.);
#396=ORIENTED_EDGE('',*,*,#305,.T.);
#397=ORIENTED_EDGE('',*,*,#303,.T.);
#398=ORIENTED_EDGE('',*,*,#306,.T.);
#399=ORIENTED_EDGE('',*,*,#307,.T.);
#400=ORIENTED_EDGE('',*,*,#308,.T.);
#401=ORIENTED_EDGE('',*,*,#309,.T.);
#402=ORIENTED_EDGE('',*,*,#261,.F.);
#403=ORIENTED_EDGE('',*,*,#252,.F.);
#404=ORIENTED_EDGE('',*,*,#256,.F.);
#405=ORIENTED_EDGE('',*,*,#259,.F.);
#406=ORIENTED_EDGE('',*,*,#307,.F.);
#407=ORIENTED_EDGE('',*,*,#310,.T.);
#408=ORIENTED_EDGE('',*,*,#301,.F.);
#409=ORIENTED_EDGE('',*,*,#311,.F.);
#410=ORIENTED_EDGE('',*,*,#308,.F.);
#411=ORIENTED_EDGE('',*,*,#311,.T.);
#412=ORIENTED_EDGE('',*,*,#299,.F.);
#413=ORIENTED_EDGE('',*,*,#312,.F.);
#414=ORIENTED_EDGE('',*,*,#309,.F.);
#415=ORIENTED_EDGE('',*,*,#312,.T.);
#416=ORIENTED_EDGE('',*,*,#304,.F.);
#417=ORIENTED_EDGE('',*,*,#313,.F.);
#418=ORIENTED_EDGE('',*,*,#306,.F.);
#419=ORIENTED_EDGE('',*,*,#313,.T.);
#420=ORIENTED_EDGE('',*,*,#305,.F.);
#421=ORIENTED_EDGE('',*,*,#310,.F.);
#422=ORIENTED_EDGE('',*,*,#250,.T.);
#423=ORIENTED_EDGE('',*,*,#260,.T.);
#424=ORIENTED_EDGE('',*,*,#257,.T.);
#425=ORIENTED_EDGE('',*,*,#254,.T.);
#426=ORIENTED_EDGE('',*,*,#262,.T.);
#427=ORIENTED_EDGE('',*,*,#272,.T.);
#428=ORIENTED_EDGE('',*,*,#269,.T.);
#429=ORIENTED_EDGE('',*,*,#266,.T.);
#430=ORIENTED_EDGE('',*,*,#273,.F.);
#431=ORIENTED_EDGE('',*,*,#264,.F.);
#432=ORIENTED_EDGE('',*,*,#268,.F.);
#433=ORIENTED_EDGE('',*,*,#271,.F.);
#434=ORIENTED_EDGE('',*,*,#285,.F.);
#435=ORIENTED_EDGE('',*,*,#276,.F.);
#436=ORIENTED_EDGE('',*,*,#280,.F.);
#437=ORIENTED_EDGE('',*,*,#283,.F.);
#438=ORIENTED_EDGE('',*,*,#274,.T.);
#439=ORIENTED_EDGE('',*,*,#284,.T.);
#440=ORIENTED_EDGE('',*,*,#281,.T.);
#441=ORIENTED_EDGE('',*,*,#278,.T.);
#442=PLANE('',#515);
#443=PLANE('',#516);
#444=PLANE('',#517);
#445=PLANE('',#518);
#446=PLANE('',#519);
#447=PLANE('',#520);
#448=PLANE('',#521);
#449=PLANE('',#522);
#450=PLANE('',#523);
#451=PLANE('',#524);
#452=PLANE('',#525);
#453=PLANE('',#526);
#454=PLANE('',#534);
#455=PLANE('',#544);
#456=PLANE('',#545);
#457=PLANE('',#546);
#458=PLANE('',#547);
#459=PLANE('',#548);
#460=PLANE('',#549);
#461=PLANE('',#550);
#462=PLANE('',#551);
#463=ADVANCED_FACE('',(#37),#442,.F.);
#464=ADVANCED_FACE('',(#38),#443,.F.);
#465=ADVANCED_FACE('',(#39),#444,.F.);
#466=ADVANCED_FACE('',(#40),#445,.F.);
#467=ADVANCED_FACE('',(#41),#446,.F.);
#468=ADVANCED_FACE('',(#42),#447,.F.);
#469=ADVANCED_FACE('',(#43),#448,.F.);
#470=ADVANCED_FACE('',(#44),#449,.F.);
#471=ADVANCED_FACE('',(#45),#450,.F.);
#472=ADVANCED_FACE('',(#46),#451,.F.);
#473=ADVANCED_FACE('',(#47),#452,.F.);
#474=ADVANCED_FACE('',(#48),#453,.F.);
#475=ADVANCED_FACE('',(#49),#29,.T.);
#476=ADVANCED_FACE('',(#50),#30,.T.);
#477=ADVANCED_FACE('',(#51),#31,.T.);
#478=ADVANCED_FACE('',(#52),#454,.F.);
#479=ADVANCED_FACE('',(#53),#32,.T.);
#480=ADVANCED_FACE('',(#54),#33,.F.);
#481=ADVANCED_FACE('',(#55),#34,.F.);
#482=ADVANCED_FACE('',(#56),#35,.F.);
#483=ADVANCED_FACE('',(#57),#36,.F.);
#484=ADVANCED_FACE('',(#58,#18),#455,.T.);
#485=ADVANCED_FACE('',(#59),#456,.T.);
#486=ADVANCED_FACE('',(#60),#457,.T.);
#487=ADVANCED_FACE('',(#61),#458,.T.);
#488=ADVANCED_FACE('',(#62),#459,.T.);
#489=ADVANCED_FACE('',(#63,#19),#460,.T.);
#490=ADVANCED_FACE('',(#64,#20),#461,.T.);
#491=ADVANCED_FACE('',(#65),#462,.T.);
#492=CLOSED_SHELL('',(#463,#464,#465,#466,#467,#468,#469,#470,#471,#472,
#473,#474,#475,#476,#477,#478,#479,#480,#481,#482,#483,#484,#485,#486,#487,
#488,#489,#490,#491));
#493=DERIVED_UNIT_ELEMENT(#496,1.);
#494=DERIVED_UNIT_ELEMENT(#824,-3.);
#495=DIMENSIONAL_EXPONENTS(0.,1.,0.,0.,0.,0.,0.);
#496=(
CONVERSION_BASED_UNIT('gram',#498)
MASS_UNIT()
NAMED_UNIT(#495)
);
#497=(
MASS_UNIT()
NAMED_UNIT(*)
SI_UNIT(.KILO.,.GRAM.)
);
#498=MASS_MEASURE_WITH_UNIT(MASS_MEASURE(0.001),#497);
#499=DERIVED_UNIT((#493,#494));
#500=MEASURE_REPRESENTATION_ITEM('density measure',
POSITIVE_RATIO_MEASURE(1.),#499);
#501=PROPERTY_DEFINITION_REPRESENTATION(#506,#503);
#502=PROPERTY_DEFINITION_REPRESENTATION(#507,#504);
#503=REPRESENTATION('material name',(#505),#821);
#504=REPRESENTATION('density',(#500),#821);
#505=DESCRIPTIVE_REPRESENTATION_ITEM('Generic','Generic');
#506=PROPERTY_DEFINITION('material property','material name',#831);
#507=PROPERTY_DEFINITION('material property','density of part',#831);
#508=DATE_TIME_ROLE('creation_date');
#509=APPLIED_DATE_AND_TIME_ASSIGNMENT(#510,#508,(#831));
#510=DATE_AND_TIME(#511,#512);
#511=CALENDAR_DATE(2026,19,5);
#512=LOCAL_TIME(0,0,0.,#513);
#513=COORDINATED_UNIVERSAL_TIME_OFFSET(0,0,.BEHIND.);
#514=AXIS2_PLACEMENT_3D('',#684,#552,#553);
#515=AXIS2_PLACEMENT_3D('',#685,#554,#555);
#516=AXIS2_PLACEMENT_3D('',#694,#560,#561);
#517=AXIS2_PLACEMENT_3D('',#700,#565,#566);
#518=AXIS2_PLACEMENT_3D('',#706,#570,#571);
#519=AXIS2_PLACEMENT_3D('',#709,#574,#575);
#520=AXIS2_PLACEMENT_3D('',#718,#580,#581);
#521=AXIS2_PLACEMENT_3D('',#724,#585,#586);
#522=AXIS2_PLACEMENT_3D('',#730,#590,#591);
#523=AXIS2_PLACEMENT_3D('',#733,#594,#595);
#524=AXIS2_PLACEMENT_3D('',#742,#600,#601);
#525=AXIS2_PLACEMENT_3D('',#748,#605,#606);
#526=AXIS2_PLACEMENT_3D('',#754,#610,#611);
#527=AXIS2_PLACEMENT_3D('',#757,#614,#615);
#528=AXIS2_PLACEMENT_3D('',#762,#617,#618);
#529=AXIS2_PLACEMENT_3D('',#765,#620,#621);
#530=AXIS2_PLACEMENT_3D('',#766,#622,#623);
#531=AXIS2_PLACEMENT_3D('',#771,#626,#627);
#532=AXIS2_PLACEMENT_3D('',#772,#628,#629);
#533=AXIS2_PLACEMENT_3D('',#776,#631,#632);
#534=AXIS2_PLACEMENT_3D('',#778,#634,#635);
#535=AXIS2_PLACEMENT_3D('',#780,#637,#638);
#536=AXIS2_PLACEMENT_3D('',#782,#640,#641);
#537=AXIS2_PLACEMENT_3D('',#784,#642,#643);
#538=AXIS2_PLACEMENT_3D('',#787,#645,#646);
#539=AXIS2_PLACEMENT_3D('',#788,#647,#648);
#540=AXIS2_PLACEMENT_3D('',#791,#650,#651);
#541=AXIS2_PLACEMENT_3D('',#792,#652,#653);
#542=AXIS2_PLACEMENT_3D('',#794,#654,#655);
#543=AXIS2_PLACEMENT_3D('',#796,#657,#658);
#544=AXIS2_PLACEMENT_3D('',#798,#660,#661);
#545=AXIS2_PLACEMENT_3D('',#807,#666,#667);
#546=AXIS2_PLACEMENT_3D('',#810,#670,#671);
#547=AXIS2_PLACEMENT_3D('',#812,#673,#674);
#548=AXIS2_PLACEMENT_3D('',#814,#676,#677);
#549=AXIS2_PLACEMENT_3D('',#815,#678,#679);
#550=AXIS2_PLACEMENT_3D('',#816,#680,#681);
#551=AXIS2_PLACEMENT_3D('',#817,#682,#683);
#552=DIRECTION('axis',(0.,0.,1.));
#553=DIRECTION('refdir',(1.,0.,0.));
#554=DIRECTION('center_axis',(0.,0.,-1.));
#555=DIRECTION('ref_axis',(1.,0.,0.));
#556=DIRECTION('',(1.,0.,0.));
#557=DIRECTION('',(0.,-1.,0.));
#558=DIRECTION('',(1.,0.,0.));
#559=DIRECTION('',(0.,-1.,0.));
#560=DIRECTION('center_axis',(1.,0.,0.));
#561=DIRECTION('ref_axis',(0.,0.,1.));
#562=DIRECTION('',(0.,0.,1.));
#563=DIRECTION('',(0.,-1.,0.));
#564=DIRECTION('',(0.,0.,1.));
#565=DIRECTION('center_axis',(0.,0.,1.));
#566=DIRECTION('ref_axis',(-1.,0.,0.));
#567=DIRECTION('',(-1.,0.,0.));
#568=DIRECTION('',(0.,-1.,0.));
#569=DIRECTION('',(-1.,0.,0.));
#570=DIRECTION('center_axis',(-1.,0.,0.));
#571=DIRECTION('ref_axis',(0.,0.,-1.));
#572=DIRECTION('',(0.,0.,-1.));
#573=DIRECTION('',(0.,0.,-1.));
#574=DIRECTION('center_axis',(1.,0.,0.));
#575=DIRECTION('ref_axis',(0.,0.,1.));
#576=DIRECTION('',(0.,0.,1.));
#577=DIRECTION('',(0.,-1.,0.));
#578=DIRECTION('',(0.,0.,1.));
#579=DIRECTION('',(0.,-1.,0.));
#580=DIRECTION('center_axis',(0.,0.,-1.));
#581=DIRECTION('ref_axis',(1.,0.,0.));
#582=DIRECTION('',(1.,0.,0.));
#583=DIRECTION('',(0.,-1.,0.));
#584=DIRECTION('',(1.,0.,0.));
#585=DIRECTION('center_axis',(-1.,0.,0.));
#586=DIRECTION('ref_axis',(0.,0.,-1.));
#587=DIRECTION('',(0.,0.,-1.));
#588=DIRECTION('',(0.,-1.,0.));
#589=DIRECTION('',(0.,0.,-1.));
#590=DIRECTION('center_axis',(0.,0.,1.));
#591=DIRECTION('ref_axis',(-1.,0.,0.));
#592=DIRECTION('',(-1.,0.,0.));
#593=DIRECTION('',(-1.,0.,0.));
#594=DIRECTION('center_axis',(0.,0.,1.));
#595=DIRECTION('ref_axis',(-1.,0.,0.));
#596=DIRECTION('',(-1.,0.,0.));
#597=DIRECTION('',(0.,-1.,0.));
#598=DIRECTION('',(-1.,0.,0.));
#599=DIRECTION('',(0.,-1.,0.));
#600=DIRECTION('center_axis',(-1.,0.,2.23441111874245E-16));
#601=DIRECTION('ref_axis',(-2.23441111874245E-16,0.,-1.));
#602=DIRECTION('',(-2.23441111874245E-16,0.,-1.));
#603=DIRECTION('',(0.,-1.,0.));
#604=DIRECTION('',(-2.23441111874245E-16,0.,-1.));
#605=DIRECTION('center_axis',(0.,0.,-1.));
#606=DIRECTION('ref_axis',(1.,0.,0.));
#607=DIRECTION('',(1.,0.,0.));
#608=DIRECTION('',(0.,-1.,0.));
#609=DIRECTION('',(1.,0.,0.));
#610=DIRECTION('center_axis',(1.,0.,-3.07231528827087E-16));
#611=DIRECTION('ref_axis',(3.07231528827087E-16,0.,1.));
#612=DIRECTION('',(3.07231528827087E-16,0.,1.));
#613=DIRECTION('',(3.07231528827087E-16,0.,1.));
#614=DIRECTION('center_axis',(-1.,1.36590204448896E-15,2.05090397070412E-15));
#615=DIRECTION('ref_axis',(-7.65482824018872E-16,-0.966904363964136,0.255139081575344));
#616=DIRECTION('',(1.,0.,-2.05090397070412E-15));
#617=DIRECTION('center_axis',(-0.707106781186548,1.04672830578918E-15,0.707106781186548));
#618=DIRECTION('ref_axis',(0.707106781186547,-8.50466748453713E-16,0.707106781186547));
#619=DIRECTION('',(-1.,1.36590204448896E-15,2.05090397070412E-15));
#620=DIRECTION('center_axis',(0.707106781186534,0.,0.707106781186561));
#621=DIRECTION('ref_axis',(0.707106781186561,-1.93167719618938E-15,-0.707106781186534));
#622=DIRECTION('center_axis',(0.,0.,-1.));
#623=DIRECTION('ref_axis',(-0.255139081575345,-0.966904363964136,0.));
#624=DIRECTION('',(0.,0.,1.));
#625=DIRECTION('',(0.,0.,-1.));
#626=DIRECTION('center_axis',(-0.707106781186546,2.09345661157837E-15,0.707106781186549));
#627=DIRECTION('ref_axis',(0.707106781186549,-2.09345661157838E-15,0.707106781186546));
#628=DIRECTION('center_axis',(1.,1.50480733714876E-15,-1.9583930457926E-15));
#629=DIRECTION('ref_axis',(7.65482824018871E-16,-0.966904363964137,-0.255139081575341));
#630=DIRECTION('',(1.,1.50480733714876E-15,-1.9583930457926E-15));
#631=DIRECTION('center_axis',(-0.707106781186548,-1.04672830578918E-15,
-0.707106781186547));
#632=DIRECTION('ref_axis',(0.707106781186547,1.01401804623327E-15,-0.707106781186548));
#633=DIRECTION('',(-1.,0.,1.9583930457926E-15));
#634=DIRECTION('center_axis',(0.,1.,0.));
#635=DIRECTION('ref_axis',(0.,0.,1.));
#636=DIRECTION('',(6.63604203012467E-17,0.,-1.));
#637=DIRECTION('center_axis',(-6.63604203012467E-17,9.96402707225962E-17,
1.));
#638=DIRECTION('ref_axis',(0.25513908157534,-0.966904363964137,0.));
#639=DIRECTION('',(-6.63604203012467E-17,9.96402707225962E-17,1.));
#640=DIRECTION('center_axis',(1.,-1.36590204448896E-15,-2.05090397070412E-15));
#641=DIRECTION('ref_axis',(0.,0.739616196211557,-0.6730288866769));
#642=DIRECTION('center_axis',(0.707106781186545,-1.53102391491449E-14,-0.70710678118655));
#643=DIRECTION('ref_axis',(-0.70710678118655,-1.33785619529554E-14,-0.707106781186545));
#644=DIRECTION('',(-1.,0.,0.));
#645=DIRECTION('center_axis',(0.70710678118655,1.67807140956733E-14,0.707106781186545));
#646=DIRECTION('ref_axis',(0.707106781186545,1.67807140956732E-14,-0.70710678118655));
#647=DIRECTION('center_axis',(0.,0.,1.));
#648=DIRECTION('ref_axis',(0.673028886676898,0.739616196211559,0.));
#649=DIRECTION('',(0.,0.,-1.));
#650=DIRECTION('center_axis',(0.707106781186551,-1.69537111482054E-14,-0.707106781186544));
#651=DIRECTION('ref_axis',(-0.707106781186544,1.69537111482053E-14,-0.707106781186551));
#652=DIRECTION('center_axis',(6.63604203012467E-17,-9.96402707225962E-17,
-1.));
#653=DIRECTION('ref_axis',(-0.673028886676889,0.739616196211567,0.));
#654=DIRECTION('center_axis',(0.707106781186558,-2.59495578799062E-15,0.707106781186537));
#655=DIRECTION('ref_axis',(0.707106781186537,4.72307473294503E-15,-0.707106781186558));
#656=DIRECTION('',(0.,0.,1.));
#657=DIRECTION('center_axis',(-1.,-1.50480733714876E-15,1.9583930457926E-15));
#658=DIRECTION('ref_axis',(0.,0.739616196211568,0.673028886676888));
#659=DIRECTION('',(1.,0.,0.));
#660=DIRECTION('center_axis',(0.,1.,0.));
#661=DIRECTION('ref_axis',(0.,0.,1.));
#662=DIRECTION('',(-1.,0.,0.));
#663=DIRECTION('',(0.,0.,1.));
#664=DIRECTION('',(1.,0.,0.));
#665=DIRECTION('',(0.,0.,-1.));
#666=DIRECTION('center_axis',(-1.,0.,0.));
#667=DIRECTION('ref_axis',(0.,0.,-1.));
#668=DIRECTION('',(0.,-1.,0.));
#669=DIRECTION('',(0.,-1.,0.));
#670=DIRECTION('center_axis',(0.,0.,1.));
#671=DIRECTION('ref_axis',(-1.,0.,0.));
#672=DIRECTION('',(0.,-1.,0.));
#673=DIRECTION('center_axis',(1.,0.,0.));
#674=DIRECTION('ref_axis',(0.,0.,1.));
#675=DIRECTION('',(0.,-1.,0.));
#676=DIRECTION('center_axis',(0.,0.,-1.));
#677=DIRECTION('ref_axis',(1.,0.,0.));
#678=DIRECTION('center_axis',(0.,1.,0.));
#679=DIRECTION('ref_axis',(0.,0.,1.));
#680=DIRECTION('center_axis',(0.,1.,0.));
#681=DIRECTION('ref_axis',(0.,0.,1.));
#682=DIRECTION('center_axis',(0.,1.,0.));
#683=DIRECTION('ref_axis',(0.,0.,1.));
#684=CARTESIAN_POINT('',(0.,0.,0.));
#685=CARTESIAN_POINT('Origin',(-29.45,2.,82.95));
#686=CARTESIAN_POINT('',(-29.45,2.,82.95));
#687=CARTESIAN_POINT('',(29.45,2.,82.95));
#688=CARTESIAN_POINT('',(-14.725,2.,82.95));
#689=CARTESIAN_POINT('',(-29.45,1.,82.95));
#690=CARTESIAN_POINT('',(-29.45,2.,82.95));
#691=CARTESIAN_POINT('',(29.45,1.,82.95));
#692=CARTESIAN_POINT('',(29.5,1.,82.95));
#693=CARTESIAN_POINT('',(29.45,2.,82.95));
#694=CARTESIAN_POINT('Origin',(-29.45,2.,-82.95));
#695=CARTESIAN_POINT('',(-29.45,2.,-82.95));
#696=CARTESIAN_POINT('',(-29.45,2.,-41.475));
#697=CARTESIAN_POINT('',(-29.45,1.,-82.95));
#698=CARTESIAN_POINT('',(-29.45,2.,-82.95));
#699=CARTESIAN_POINT('',(-29.45,1.,83.));
#700=CARTESIAN_POINT('Origin',(29.4499999999999,2.,-82.95));
#701=CARTESIAN_POINT('',(29.4499999999999,2.,-82.95));
#702=CARTESIAN_POINT('',(14.725,2.,-82.95));
#703=CARTESIAN_POINT('',(29.4499999999999,1.,-82.95));
#704=CARTESIAN_POINT('',(29.4499999999999,2.,-82.95));
#705=CARTESIAN_POINT('',(-29.45,1.,-82.95));
#706=CARTESIAN_POINT('Origin',(29.4499999999999,2.,82.95));
#707=CARTESIAN_POINT('',(29.4499999999999,2.,41.475));
#708=CARTESIAN_POINT('',(29.4499999999999,1.,-83.));
#709=CARTESIAN_POINT('Origin',(28.0499999999999,2.,-81.55));
#710=CARTESIAN_POINT('',(28.0499999999999,2.,-81.55));
#711=CARTESIAN_POINT('',(28.05,2.,81.55));
#712=CARTESIAN_POINT('',(28.0499999999999,2.,-40.775));
#713=CARTESIAN_POINT('',(28.0499999999999,1.,-81.55));
#714=CARTESIAN_POINT('',(28.0499999999999,2.,-81.55));
#715=CARTESIAN_POINT('',(28.05,1.,81.55));
#716=CARTESIAN_POINT('',(28.0499999999999,1.,82.95));
#717=CARTESIAN_POINT('',(28.05,2.,81.55));
#718=CARTESIAN_POINT('Origin',(-28.05,2.,-81.55));
#719=CARTESIAN_POINT('',(-28.05,2.,-81.55));
#720=CARTESIAN_POINT('',(-14.025,2.,-81.55));
#721=CARTESIAN_POINT('',(-28.05,1.,-81.55));
#722=CARTESIAN_POINT('',(-28.05,2.,-81.55));
#723=CARTESIAN_POINT('',(29.4499999999999,1.,-81.55));
#724=CARTESIAN_POINT('Origin',(-28.05,2.,81.55));
#725=CARTESIAN_POINT('',(-28.05,2.,81.55));
#726=CARTESIAN_POINT('',(-28.05,2.,40.775));
#727=CARTESIAN_POINT('',(-28.05,1.,81.55));
#728=CARTESIAN_POINT('',(-28.05,2.,81.55));
#729=CARTESIAN_POINT('',(-28.05,1.,-83.));
#730=CARTESIAN_POINT('Origin',(28.05,2.,81.55));
#731=CARTESIAN_POINT('',(14.025,2.,81.55));
#732=CARTESIAN_POINT('',(-29.45,1.,81.55));
#733=CARTESIAN_POINT('Origin',(26.,2.,-79.5));
#734=CARTESIAN_POINT('',(26.,2.,-79.5));
#735=CARTESIAN_POINT('',(-26.,2.,-79.5));
#736=CARTESIAN_POINT('',(13.,2.,-79.5));
#737=CARTESIAN_POINT('',(26.,1.,-79.5));
#738=CARTESIAN_POINT('',(26.,2.,-79.5));
#739=CARTESIAN_POINT('',(-26.,1.,-79.5));
#740=CARTESIAN_POINT('',(-26.,1.,-79.5));
#741=CARTESIAN_POINT('',(-26.,2.,-79.5));
#742=CARTESIAN_POINT('Origin',(26.,2.,79.5));
#743=CARTESIAN_POINT('',(26.,2.,79.5));
#744=CARTESIAN_POINT('',(26.,2.,39.75));
#745=CARTESIAN_POINT('',(26.,1.,79.5));
#746=CARTESIAN_POINT('',(26.,2.,79.5));
#747=CARTESIAN_POINT('',(26.,1.,-79.5));
#748=CARTESIAN_POINT('Origin',(-26.,2.,79.5));
#749=CARTESIAN_POINT('',(-26.,2.,79.5));
#750=CARTESIAN_POINT('',(-13.,2.,79.5));
#751=CARTESIAN_POINT('',(-26.,1.,79.5));
#752=CARTESIAN_POINT('',(-26.,2.,79.5));
#753=CARTESIAN_POINT('',(26.,1.,79.5));
#754=CARTESIAN_POINT('Origin',(-26.,2.,-79.5));
#755=CARTESIAN_POINT('',(-26.,2.,-39.75));
#756=CARTESIAN_POINT('',(-26.,1.,79.5));
#757=CARTESIAN_POINT('Origin',(29.5,6.,81.1174911266293));
#758=CARTESIAN_POINT('',(-27.6174911266293,0.,81.1174911266295));
#759=CARTESIAN_POINT('',(27.6174911266293,0.,81.1174911266294));
#760=CARTESIAN_POINT('',(29.5,0.,81.1174911266293));
#761=CARTESIAN_POINT('',(30.5778322233453,0.781151411365309,84.0778322233454));
#762=CARTESIAN_POINT('Origin',(27.6174911266293,6.,81.1174911266293));
#763=CARTESIAN_POINT('',(-30.5778322233454,0.781151411365324,84.0778322233454));
#764=CARTESIAN_POINT('',(29.5,0.781151411365328,84.0778322233454));
#765=CARTESIAN_POINT('Origin',(-27.6174911266293,6.00000000000008,81.1174911266295));
#766=CARTESIAN_POINT('Origin',(-27.6174911266293,6.,83.));
#767=CARTESIAN_POINT('',(-27.6174911266293,0.,-81.1174911266294));
#768=CARTESIAN_POINT('',(-27.6174911266293,0.,83.));
#769=CARTESIAN_POINT('',(-30.5778322233453,0.781151411365306,-84.0778322233453));
#770=CARTESIAN_POINT('',(-30.5778322233454,0.781151411365324,83.));
#771=CARTESIAN_POINT('Origin',(-27.6174911266293,6.,-81.1174911266294));
#772=CARTESIAN_POINT('Origin',(-29.5,6.,-81.1174911266293));
#773=CARTESIAN_POINT('',(30.5778322233453,0.781151411365318,-84.0778322233453));
#774=CARTESIAN_POINT('',(-29.5,0.781151411365297,-84.0778322233453));
#775=CARTESIAN_POINT('',(27.6174911266294,0.,-81.1174911266295));
#776=CARTESIAN_POINT('Origin',(27.6174911266294,6.00000000000009,-81.1174911266295));
#777=CARTESIAN_POINT('',(-29.5,0.,-81.1174911266293));
#778=CARTESIAN_POINT('Origin',(0.,0.,0.));
#779=CARTESIAN_POINT('',(27.6174911266294,0.,-83.));
#780=CARTESIAN_POINT('Origin',(27.6174911266294,6.,-83.));
#781=CARTESIAN_POINT('',(30.5778322233453,0.7811514113653,-83.));
#782=CARTESIAN_POINT('Origin',(29.5,-4.43769717726934,87.0381733200614));
#783=CARTESIAN_POINT('',(31.,0.999,84.5));
#784=CARTESIAN_POINT('Origin',(33.5381733200613,-4.43769717726934,87.0381733200614));
#785=CARTESIAN_POINT('',(-31.,0.999,84.5));
#786=CARTESIAN_POINT('',(-31.,0.999,84.5));
#787=CARTESIAN_POINT('Origin',(-33.5381733200614,-4.43769717726935,87.0381733200615));
#788=CARTESIAN_POINT('Origin',(-33.5381733200614,-4.43769717726935,83.));
#789=CARTESIAN_POINT('',(-31.,0.999,-84.5));
#790=CARTESIAN_POINT('',(-31.,0.999,-84.5));
#791=CARTESIAN_POINT('Origin',(-33.5381733200614,-4.43769717726935,-87.0381733200613));
#792=CARTESIAN_POINT('Origin',(33.5381733200613,-4.4376971772694,-83.));
#793=CARTESIAN_POINT('',(31.,0.999,-84.5));
#794=CARTESIAN_POINT('Origin',(33.5381733200613,-4.43769717726931,-87.0381733200614));
#795=CARTESIAN_POINT('',(31.,0.999,84.5));
#796=CARTESIAN_POINT('Origin',(-29.5,-4.43769717726941,-87.0381733200613));
#797=CARTESIAN_POINT('',(31.,0.999,-84.5));
#798=CARTESIAN_POINT('Origin',(0.,1.,0.));
#799=CARTESIAN_POINT('',(31.,1.,-84.5));
#800=CARTESIAN_POINT('',(-31.,1.,-84.5));
#801=CARTESIAN_POINT('',(31.,1.,-84.5));
#802=CARTESIAN_POINT('',(-31.,1.,84.5));
#803=CARTESIAN_POINT('',(-31.,1.,-84.5));
#804=CARTESIAN_POINT('',(31.,1.,84.5));
#805=CARTESIAN_POINT('',(-31.,1.,84.5));
#806=CARTESIAN_POINT('',(31.,1.,84.5));
#807=CARTESIAN_POINT('Origin',(-31.,1.,84.5));
#808=CARTESIAN_POINT('',(-31.,1.,-84.5));
#809=CARTESIAN_POINT('',(-31.,1.,84.5));
#810=CARTESIAN_POINT('Origin',(31.,1.,84.5));
#811=CARTESIAN_POINT('',(31.,1.,84.5));
#812=CARTESIAN_POINT('Origin',(31.,1.,-84.5));
#813=CARTESIAN_POINT('',(31.,1.,-84.5));
#814=CARTESIAN_POINT('Origin',(-31.,1.,-84.5));
#815=CARTESIAN_POINT('Origin',(-8.88178419700125E-15,2.,1.77635683940025E-14));
#816=CARTESIAN_POINT('Origin',(-4.44089209850063E-15,1.,0.));
#817=CARTESIAN_POINT('Origin',(0.,2.,0.));
#818=CARTESIAN_POINT('',(0.,2.,0.));
#819=UNCERTAINTY_MEASURE_WITH_UNIT(LENGTH_MEASURE(0.01),#823,
'DISTANCE_ACCURACY_VALUE',
'Maximum model space distance between geometric entities at asserted c
onnectivities');
#820=UNCERTAINTY_MEASURE_WITH_UNIT(LENGTH_MEASURE(0.01),#823,
'DISTANCE_ACCURACY_VALUE',
'Maximum model space distance between geometric entities at asserted c
onnectivities');
#821=(
GEOMETRIC_REPRESENTATION_CONTEXT(3)
GLOBAL_UNCERTAINTY_ASSIGNED_CONTEXT((#819))
GLOBAL_UNIT_ASSIGNED_CONTEXT((#823,#825,#826))
REPRESENTATION_CONTEXT('','3D')
);
#822=(
GEOMETRIC_REPRESENTATION_CONTEXT(3)
GLOBAL_UNCERTAINTY_ASSIGNED_CONTEXT((#820))
GLOBAL_UNIT_ASSIGNED_CONTEXT((#823,#825,#826))
REPRESENTATION_CONTEXT('','3D')
);
#823=(
LENGTH_UNIT()
NAMED_UNIT(*)
SI_UNIT(.MILLI.,.METRE.)
);
#824=(
LENGTH_UNIT()
NAMED_UNIT(*)
SI_UNIT(.CENTI.,.METRE.)
);
#825=(
NAMED_UNIT(*)
PLANE_ANGLE_UNIT()
SI_UNIT($,.RADIAN.)
);
#826=(
NAMED_UNIT(*)
SI_UNIT($,.STERADIAN.)
SOLID_ANGLE_UNIT()
);
#827=SHAPE_DEFINITION_REPRESENTATION(#828,#829);
#828=PRODUCT_DEFINITION_SHAPE('',$,#831);
#829=SHAPE_REPRESENTATION('',(#514),#821);
#830=PRODUCT_DEFINITION_CONTEXT('part definition',#835,'design');
#831=PRODUCT_DEFINITION('top hatchy mo bob','top hatchy mo bob',#832,#830);
#832=PRODUCT_DEFINITION_FORMATION('',$,#837);
#833=PRODUCT_RELATED_PRODUCT_CATEGORY('top hatchy mo bob',
'top hatchy mo bob',(#837));
#834=APPLICATION_PROTOCOL_DEFINITION('international standard',
'automotive_design',2009,#835);
#835=APPLICATION_CONTEXT(
'Core Data for Automotive Mechanical Design Process');
#836=PRODUCT_CONTEXT('part definition',#835,'mechanical');
#837=PRODUCT('top hatchy mo bob','top hatchy mo bob',$,(#836));
#838=PRESENTATION_STYLE_ASSIGNMENT((#840));
#839=PRESENTATION_STYLE_ASSIGNMENT((#841));
#840=SURFACE_STYLE_USAGE(.BOTH.,#844);
#841=SURFACE_STYLE_USAGE(.BOTH.,#845);
#842=SURFACE_STYLE_RENDERING_WITH_PROPERTIES($,#852,(#843));
#843=SURFACE_STYLE_TRANSPARENT(0.);
#844=SURFACE_SIDE_STYLE('',(#846,#842));
#845=SURFACE_SIDE_STYLE('',(#847));
#846=SURFACE_STYLE_FILL_AREA(#848);
#847=SURFACE_STYLE_FILL_AREA(#849);
#848=FILL_AREA_STYLE('',(#850));
#849=FILL_AREA_STYLE('',(#851));
#850=FILL_AREA_STYLE_COLOUR('',#852);
#851=FILL_AREA_STYLE_COLOUR('',#853);
#852=COLOUR_RGB('',0.749019607843137,0.749019607843137,0.749019607843137);
#853=COLOUR_RGB('',0.913725490196078,0.913725490196078,0.);
ENDSEC;
END-ISO-10303-21;
