%TF.GenerationSoftware,KiCad,Pcbnew,10.0.1*%
%TF.CreationDate,2026-05-29T11:04:26+12:00*%
%TF.ProjectId,Njord SAA PCB,4e6a6f72-6420-4534-9141-205043422e6b,rev?*%
%TF.SameCoordinates,Original*%
%TF.FileFunction,Copper,L1,Top*%
%TF.FilePolarity,Positive*%
%FSLAX46Y46*%
G04 Gerber Fmt 4.6, Leading zero omitted, Abs format (unit mm)*
G04 Created by KiCad (PCBNEW 10.0.1) date 2026-05-29 11:04:26*
%MOMM*%
%LPD*%
G01*
G04 APERTURE LIST*
G04 Aperture macros list*
%AMRoundRect*
0 Rectangle with rounded corners*
0 $1 Rounding radius*
0 $2 $3 $4 $5 $6 $7 $8 $9 X,Y pos of 4 corners*
0 Add a 4 corners polygon primitive as box body*
4,1,4,$2,$3,$4,$5,$6,$7,$8,$9,$2,$3,0*
0 Add four circle primitives for the rounded corners*
1,1,$1+$1,$2,$3*
1,1,$1+$1,$4,$5*
1,1,$1+$1,$6,$7*
1,1,$1+$1,$8,$9*
0 Add four rect primitives between the rounded corners*
20,1,$1+$1,$2,$3,$4,$5,0*
20,1,$1+$1,$4,$5,$6,$7,0*
20,1,$1+$1,$6,$7,$8,$9,0*
20,1,$1+$1,$8,$9,$2,$3,0*%
G04 Aperture macros list end*
%TA.AperFunction,SMDPad,CuDef*%
%ADD10RoundRect,0.237500X-0.300000X-0.237500X0.300000X-0.237500X0.300000X0.237500X-0.300000X0.237500X0*%
%TD*%
%TA.AperFunction,ComponentPad*%
%ADD11C,1.600000*%
%TD*%
%TA.AperFunction,ComponentPad*%
%ADD12R,1.700000X1.700000*%
%TD*%
%TA.AperFunction,ComponentPad*%
%ADD13C,1.700000*%
%TD*%
%TA.AperFunction,SMDPad,CuDef*%
%ADD14RoundRect,0.160000X-0.197500X-0.160000X0.197500X-0.160000X0.197500X0.160000X-0.197500X0.160000X0*%
%TD*%
%TA.AperFunction,SMDPad,CuDef*%
%ADD15RoundRect,0.150000X-0.825000X-0.150000X0.825000X-0.150000X0.825000X0.150000X-0.825000X0.150000X0*%
%TD*%
%TA.AperFunction,ComponentPad*%
%ADD16RoundRect,0.250000X0.275000X0.600000X-0.275000X0.600000X-0.275000X-0.600000X0.275000X-0.600000X0*%
%TD*%
%TA.AperFunction,ComponentPad*%
%ADD17O,1.050000X1.700000*%
%TD*%
%TA.AperFunction,ComponentPad*%
%ADD18C,1.200000*%
%TD*%
%TA.AperFunction,ComponentPad*%
%ADD19C,1.900000*%
%TD*%
%TA.AperFunction,SMDPad,CuDef*%
%ADD20RoundRect,0.100000X-0.217500X-0.100000X0.217500X-0.100000X0.217500X0.100000X-0.217500X0.100000X0*%
%TD*%
%TA.AperFunction,ComponentPad*%
%ADD21R,2.000000X2.000000*%
%TD*%
%TA.AperFunction,ComponentPad*%
%ADD22C,2.000000*%
%TD*%
%TA.AperFunction,ComponentPad*%
%ADD23R,1.800000X1.800000*%
%TD*%
%TA.AperFunction,ComponentPad*%
%ADD24C,1.800000*%
%TD*%
%TA.AperFunction,SMDPad,CuDef*%
%ADD25RoundRect,0.250000X-0.350000X-0.450000X0.350000X-0.450000X0.350000X0.450000X-0.350000X0.450000X0*%
%TD*%
G04 APERTURE END LIST*
D10*
%TO.P,C6,1*%
%TO.N,GND*%
X92512500Y-95845000D03*
%TO.P,C6,2*%
%TO.N,Net-(BMP280-Pin_1)*%
X94237500Y-95845000D03*
%TD*%
D11*
%TO.P,C8,1*%
%TO.N,Net-(Buck_Converter1-Pin_1)*%
X100075000Y-91575000D03*
%TO.P,C8,2*%
%TO.N,GND*%
X105075000Y-91575000D03*
%TD*%
D12*
%TO.P,Buck_Converter1,1,Pin_1_1*%
%TO.N,Net-(Buck_Converter1-Pin_1)*%
X97845000Y-114445000D03*
D13*
%TO.P,Buck_Converter1,2,Pin_2_2*%
%TO.N,GND*%
X97845000Y-116985000D03*
%TO.P,Buck_Converter1,3,Pin_3_3*%
%TO.N,Net-(Buck_Converter1-Pin_3)*%
X97845000Y-119525000D03*
%TD*%
D12*
%TO.P,Servo_Controller1,1,Pin_1_1*%
%TO.N,GND*%
X88905000Y-86845000D03*
D13*
%TO.P,Servo_Controller1,2,Pin_2_2*%
%TO.N,unconnected-(Servo_Controller1-Pin_2-Pad2)*%
X88905000Y-89385000D03*
%TO.P,Servo_Controller1,3,Pin_3_3*%
%TO.N,Net-(BMP280-Pin_4)*%
X88905000Y-91925000D03*
%TO.P,Servo_Controller1,4,Pin_4_4*%
%TO.N,Net-(BMP280-Pin_3)*%
X88905000Y-94465000D03*
%TO.P,Servo_Controller1,5,Pin_5_5*%
%TO.N,Net-(BMP280-Pin_1)*%
X88905000Y-97005000D03*
%TO.P,Servo_Controller1,6,Pin_6_6*%
%TO.N,unconnected-(Servo_Controller1-Pin_6-Pad6)*%
X88905000Y-99545000D03*
%TD*%
D12*
%TO.P,ESC_2,1,Pin_1_1*%
%TO.N,Net-(ESC_2-Pin_1)*%
X107025000Y-114445000D03*
D13*
%TO.P,ESC_2,2,Pin_2_2*%
%TO.N,unconnected-(ESC_2-Pin_2-Pad2)*%
X107025000Y-116985000D03*
%TO.P,ESC_2,3,Pin_3_3*%
%TO.N,Net-(ESC_1-Pin_3)*%
X107025000Y-119525000D03*
%TD*%
D14*
%TO.P,R3,1*%
%TO.N,Net-(D2-GK)*%
X111067500Y-82785000D03*
%TO.P,R3,2*%
%TO.N,Net-(ESP32_L1-Pin_6)*%
X112262500Y-82785000D03*
%TD*%
D11*
%TO.P,C11,1*%
%TO.N,GND*%
X111595000Y-115425000D03*
%TO.P,C11,2*%
%TO.N,Net-(BMP280-Pin_1)*%
X113595000Y-115425000D03*
%TD*%
D10*
%TO.P,C5,1*%
%TO.N,Net-(BMP280-Pin_1)*%
X92512500Y-93335000D03*
%TO.P,C5,2*%
%TO.N,GND*%
X94237500Y-93335000D03*
%TD*%
%TO.P,C10,1*%
%TO.N,Net-(BMP280-Pin_5)*%
X92512500Y-103375000D03*
%TO.P,C10,2*%
%TO.N,Net-(BMP280-Pin_1)*%
X94237500Y-103375000D03*
%TD*%
%TO.P,C9,1*%
%TO.N,Net-(BMP280-Pin_5)*%
X92512500Y-100865000D03*
%TO.P,C9,2*%
%TO.N,Net-(BMP280-Pin_1)*%
X94237500Y-100865000D03*
%TD*%
D14*
%TO.P,R1,1*%
%TO.N,Net-(D1-GK)*%
X111067500Y-80795000D03*
%TO.P,R1,2*%
%TO.N,Net-(ESP32_L1-Pin_4)*%
X112262500Y-80795000D03*
%TD*%
D12*
%TO.P,GY-521,1,Pin_1_1*%
%TO.N,unconnected-(GY-521-Pin_1-Pad1)*%
X79725000Y-104135000D03*
D13*
%TO.P,GY-521,2,Pin_2_2*%
%TO.N,unconnected-(GY-521-Pin_2-Pad2)*%
X79725000Y-106675000D03*
%TO.P,GY-521,3,Pin_3_3*%
%TO.N,unconnected-(GY-521-Pin_3-Pad3)*%
X79725000Y-109215000D03*
%TO.P,GY-521,4,Pin_4_4*%
%TO.N,unconnected-(GY-521-Pin_4-Pad4)*%
X79725000Y-111755000D03*
%TO.P,GY-521,5,Pin_5_5*%
%TO.N,Net-(BMP280-Pin_3)*%
X79725000Y-114295000D03*
%TO.P,GY-521,6,Pin_6_6*%
X79725000Y-116835000D03*
%TO.P,GY-521,7,Pin_7_7*%
%TO.N,Net-(BMP280-Pin_5)*%
X79725000Y-119375000D03*
%TO.P,GY-521,8,Pin_8_8*%
%TO.N,Net-(BMP280-Pin_1)*%
X79725000Y-121915000D03*
%TD*%
D15*
%TO.P,U1,1,A1_1*%
%TO.N,unconnected-(U1-A1-Pad1)*%
X83770000Y-118045000D03*
%TO.P,U1,2,A0_2*%
%TO.N,GND*%
X83770000Y-119315000D03*
%TO.P,U1,3,SDA_3*%
%TO.N,Net-(BMP280-Pin_3)*%
X83770000Y-120585000D03*
%TO.P,U1,4,SCL_4*%
%TO.N,Net-(BMP280-Pin_4)*%
X83770000Y-121855000D03*
%TO.P,U1,5,VS_5*%
%TO.N,Net-(BMP280-Pin_1)*%
X88720000Y-121855000D03*
%TO.P,U1,6,GND_6*%
%TO.N,GND*%
X88720000Y-120585000D03*
%TO.P,U1,7,IN-_7*%
%TO.N,Net-(U1-IN-)*%
X88720000Y-119315000D03*
%TO.P,U1,8,IN+_8*%
%TO.N,Net-(U1-IN+)*%
X88720000Y-118045000D03*
%TD*%
D10*
%TO.P,C3,1*%
%TO.N,Net-(Hall_Effect_Switch1-V_{CC})*%
X92512500Y-90825000D03*
%TO.P,C3,2*%
%TO.N,GND*%
X94237500Y-90825000D03*
%TD*%
D16*
%TO.P,Hall_Effect_Switch1,1,V_{CC}_1*%
%TO.N,Net-(Hall_Effect_Switch1-V_{CC})*%
X105985000Y-81425000D03*
D17*
%TO.P,Hall_Effect_Switch1,2,GND_2*%
%TO.N,GND*%
X107255000Y-81425000D03*
%TO.P,Hall_Effect_Switch1,3,V_{OUT}_3*%
%TO.N,Net-(Buck_Converter1-Pin_3)*%
X108525000Y-81425000D03*
%TD*%
D12*
%TO.P,GY-TOF10M1,1,Pin_1_1*%
%TO.N,unconnected-(GY-TOF10M1-Pin_1-Pad1)*%
X84315000Y-86845000D03*
D13*
%TO.P,GY-TOF10M1,2,Pin_2_2*%
%TO.N,unconnected-(GY-TOF10M1-Pin_2-Pad2)*%
X84315000Y-89385000D03*
%TO.P,GY-TOF10M1,3,Pin_3_3*%
%TO.N,unconnected-(GY-TOF10M1-Pin_3-Pad3)*%
X84315000Y-91925000D03*
%TO.P,GY-TOF10M1,4,Pin_4_4*%
%TO.N,unconnected-(GY-TOF10M1-Pin_4-Pad4)*%
X84315000Y-94465000D03*
%TO.P,GY-TOF10M1,5,Pin_5_5*%
%TO.N,unconnected-(GY-TOF10M1-Pin_5-Pad5)*%
X84315000Y-97005000D03*
%TO.P,GY-TOF10M1,6,Pin_6_6*%
%TO.N,unconnected-(GY-TOF10M1-Pin_6-Pad6)*%
X84315000Y-99545000D03*
%TD*%
D18*
%TO.P,U3,1,V+_IN_1*%
%TO.N,unconnected-(U3-V+_IN-Pad1)*%
X82680000Y-81000000D03*
%TO.P,U3,2,V-_IN_2*%
%TO.N,unconnected-(U3-V-_IN-Pad2)*%
X93680000Y-81000000D03*
D19*
%TO.P,U3,3,V+_OUT_3*%
%TO.N,Net-(BMP280-Pin_5)*%
X85680000Y-71000000D03*
%TO.P,U3,4,V-_OUT_4*%
%TO.N,GND*%
X90680000Y-71000000D03*
%TD*%
D12*
%TO.P,INA226,1,Pin_1_1*%
%TO.N,unconnected-(INA226-Pin_1-Pad1)*%
X84315000Y-104135000D03*
D13*
%TO.P,INA226,2,Pin_2_2*%
%TO.N,Net-(BMP280-Pin_1)*%
X84315000Y-106675000D03*
%TO.P,INA226,3,Pin_3_3*%
%TO.N,Net-(BMP280-Pin_3)*%
X84315000Y-109215000D03*
%TO.P,INA226,4,Pin_4_4*%
%TO.N,GND*%
X84315000Y-111755000D03*
%TO.P,INA226,5,Pin_5_5*%
%TO.N,Net-(BMP280-Pin_1)*%
X84315000Y-114295000D03*
%TD*%
D12*
%TO.P,BMP280,1,Pin_1_1*%
%TO.N,Net-(BMP280-Pin_1)*%
X79725000Y-86845000D03*
D13*
%TO.P,BMP280,2,Pin_2_2*%
%TO.N,unconnected-(BMP280-Pin_2-Pad2)*%
X79725000Y-89385000D03*
%TO.P,BMP280,3,Pin_3_3*%
%TO.N,Net-(BMP280-Pin_3)*%
X79725000Y-91925000D03*
%TO.P,BMP280,4,Pin_4_4*%
%TO.N,Net-(BMP280-Pin_4)*%
X79725000Y-94465000D03*
%TO.P,BMP280,5,Pin_5_5*%
%TO.N,Net-(BMP280-Pin_5)*%
X79725000Y-97005000D03*
%TO.P,BMP280,6,Pin_6_6*%
%TO.N,Net-(BMP280-Pin_1)*%
X79725000Y-99545000D03*
%TD*%
D12*
%TO.P,ESC_1,1,Pin_1_1*%
%TO.N,Net-(ESC_1-Pin_1)*%
X102435000Y-114445000D03*
D13*
%TO.P,ESC_1,2,Pin_2_2*%
%TO.N,unconnected-(ESC_1-Pin_2-Pad2)*%
X102435000Y-116985000D03*
%TO.P,ESC_1,3,Pin_3_3*%
%TO.N,Net-(ESC_1-Pin_3)*%
X102435000Y-119525000D03*
%TD*%
D10*
%TO.P,C7,1*%
%TO.N,Net-(Buck_Converter1-Pin_1)*%
X92512500Y-98355000D03*
%TO.P,C7,2*%
%TO.N,GND*%
X94237500Y-98355000D03*
%TD*%
D20*
%TO.P,R5,1*%
%TO.N,Net-(BMP280-Pin_1)*%
X87607500Y-102715000D03*
%TO.P,R5,2*%
%TO.N,Net-(BMP280-Pin_3)*%
X88422500Y-102715000D03*
%TD*%
D11*
%TO.P,C4,1*%
%TO.N,Net-(Buck_Converter1-Pin_1)*%
X107745000Y-74025000D03*
%TO.P,C4,2*%
%TO.N,GND*%
X112745000Y-74025000D03*
%TD*%
D12*
%TO.P,ESP32_L1,1,Pin_1_1*%
%TO.N,Net-(BMP280-Pin_1)*%
X70545000Y-70545000D03*
D13*
%TO.P,ESP32_L1,2,Pin_2_2*%
%TO.N,unconnected-(ESP32_L1-Pin_2-Pad2)*%
X70545000Y-73085000D03*
%TO.P,ESP32_L1,3,Pin_3_3*%
%TO.N,unconnected-(ESP32_L1-Pin_3-Pad3)*%
X70545000Y-75625000D03*
%TO.P,ESP32_L1,4,Pin_4_4*%
%TO.N,Net-(ESP32_L1-Pin_4)*%
X70545000Y-78165000D03*
%TO.P,ESP32_L1,5,Pin_5_5*%
%TO.N,Net-(ESP32_L1-Pin_5)*%
X70545000Y-80705000D03*
%TO.P,ESP32_L1,6,Pin_6_6*%
%TO.N,Net-(ESP32_L1-Pin_6)*%
X70545000Y-83245000D03*
%TO.P,ESP32_L1,7,Pin_7_7*%
%TO.N,Net-(ESP32_L1-Pin_7)*%
X70545000Y-85785000D03*
%TO.P,ESP32_L1,8,Pin_8_8*%
%TO.N,Net-(BZ1-+)*%
X70545000Y-88325000D03*
%TO.P,ESP32_L1,9,Pin_9_9*%
%TO.N,unconnected-(ESP32_L1-Pin_9-Pad9)*%
X70545000Y-90865000D03*
%TO.P,ESP32_L1,10,Pin_10_10*%
%TO.N,unconnected-(ESP32_L1-Pin_10-Pad10)*%
X70545000Y-93405000D03*
%TO.P,ESP32_L1,11,Pin_11_11*%
%TO.N,unconnected-(ESP32_L1-Pin_11-Pad11)*%
X70545000Y-95945000D03*
%TO.P,ESP32_L1,12,Pin_12_12*%
%TO.N,Net-(BMP280-Pin_3)*%
X70545000Y-98485000D03*
%TO.P,ESP32_L1,13,Pin_13_13*%
%TO.N,unconnected-(ESP32_L1-Pin_13-Pad13)*%
X70545000Y-101025000D03*
%TO.P,ESP32_L1,14,Pin_14_14*%
%TO.N,unconnected-(ESP32_L1-Pin_14-Pad14)*%
X70545000Y-103565000D03*
%TO.P,ESP32_L1,15,Pin_15_15*%
%TO.N,Net-(BMP280-Pin_4)*%
X70545000Y-106105000D03*
%TO.P,ESP32_L1,16,Pin_16_16*%
%TO.N,unconnected-(ESP32_L1-Pin_16-Pad16)*%
X70545000Y-108645000D03*
%TO.P,ESP32_L1,17,Pin_17_17*%
%TO.N,unconnected-(ESP32_L1-Pin_17-Pad17)*%
X70545000Y-111185000D03*
%TO.P,ESP32_L1,18,Pin_18_18*%
%TO.N,unconnected-(ESP32_L1-Pin_18-Pad18)*%
X70545000Y-113725000D03*
%TO.P,ESP32_L1,19,Pin_19_19*%
%TO.N,unconnected-(ESP32_L1-Pin_19-Pad19)*%
X70545000Y-116265000D03*
%TO.P,ESP32_L1,20,Pin_20_20*%
%TO.N,unconnected-(ESP32_L1-Pin_20-Pad20)*%
X70545000Y-118805000D03*
%TO.P,ESP32_L1,21,Pin_21_21*%
%TO.N,Net-(Buck_Converter1-Pin_1)*%
X70545000Y-121345000D03*
%TO.P,ESP32_L1,22,Pin_22_22*%
%TO.N,GND*%
X70545000Y-123885000D03*
%TD*%
D10*
%TO.P,C13,1*%
%TO.N,Net-(Buck_Converter1-Pin_1)*%
X92512500Y-108395000D03*
%TO.P,C13,2*%
%TO.N,GND*%
X94237500Y-108395000D03*
%TD*%
%TO.P,C12,1*%
%TO.N,GND*%
X92512500Y-105885000D03*
%TO.P,C12,2*%
%TO.N,Net-(BMP280-Pin_1)*%
X94237500Y-105885000D03*
%TD*%
%TO.P,C1,1*%
%TO.N,Net-(Buck_Converter1-Pin_1)*%
X92512500Y-85805000D03*
%TO.P,C1,2*%
%TO.N,GND*%
X94237500Y-85805000D03*
%TD*%
D12*
%TO.P,ESP32_R1,1,Pin_1_1*%
%TO.N,unconnected-(ESP32_R1-Pin_1-Pad1)*%
X75135000Y-70545000D03*
D13*
%TO.P,ESP32_R1,2,Pin_2_2*%
%TO.N,Net-(ESC_1-Pin_3)*%
X75135000Y-73085000D03*
%TO.P,ESP32_R1,3,Pin_3_3*%
%TO.N,Net-(ESC_1-Pin_1)*%
X75135000Y-75625000D03*
%TO.P,ESP32_R1,4,Pin_4_4*%
%TO.N,Net-(ESC_2-Pin_1)*%
X75135000Y-78165000D03*
%TO.P,ESP32_R1,5,Pin_5_5*%
%TO.N,unconnected-(ESP32_R1-Pin_5-Pad5)*%
X75135000Y-80705000D03*
%TO.P,ESP32_R1,6,Pin_6_6*%
%TO.N,unconnected-(ESP32_R1-Pin_6-Pad6)*%
X75135000Y-83245000D03*
%TO.P,ESP32_R1,7,Pin_7_7*%
%TO.N,unconnected-(ESP32_R1-Pin_7-Pad7)*%
X75135000Y-85785000D03*
%TO.P,ESP32_R1,8,Pin_8_8*%
%TO.N,unconnected-(ESP32_R1-Pin_8-Pad8)*%
X75135000Y-88325000D03*
%TO.P,ESP32_R1,9,Pin_9_9*%
%TO.N,unconnected-(ESP32_R1-Pin_9-Pad9)*%
X75135000Y-90865000D03*
%TO.P,ESP32_R1,10,Pin_10_10*%
%TO.N,unconnected-(ESP32_R1-Pin_10-Pad10)*%
X75135000Y-93405000D03*
%TO.P,ESP32_R1,11,Pin_11_11*%
%TO.N,unconnected-(ESP32_R1-Pin_11-Pad11)*%
X75135000Y-95945000D03*
%TO.P,ESP32_R1,12,Pin_12_12*%
%TO.N,unconnected-(ESP32_R1-Pin_12-Pad12)*%
X75135000Y-98485000D03*
%TO.P,ESP32_R1,13,Pin_13_13*%
%TO.N,unconnected-(ESP32_R1-Pin_13-Pad13)*%
X75135000Y-101025000D03*
%TO.P,ESP32_R1,14,Pin_14_14*%
%TO.N,unconnected-(ESP32_R1-Pin_14-Pad14)*%
X75135000Y-103565000D03*
%TO.P,ESP32_R1,15,Pin_15_15*%
%TO.N,unconnected-(ESP32_R1-Pin_15-Pad15)*%
X75135000Y-106105000D03*
%TO.P,ESP32_R1,16,Pin_16_16*%
%TO.N,unconnected-(ESP32_R1-Pin_16-Pad16)*%
X75135000Y-108645000D03*
%TO.P,ESP32_R1,17,Pin_17_17*%
%TO.N,unconnected-(ESP32_R1-Pin_17-Pad17)*%
X75135000Y-111185000D03*
%TO.P,ESP32_R1,18,Pin_18_18*%
%TO.N,unconnected-(ESP32_R1-Pin_18-Pad18)*%
X75135000Y-113725000D03*
%TO.P,ESP32_R1,19,Pin_19_19*%
%TO.N,unconnected-(ESP32_R1-Pin_19-Pad19)*%
X75135000Y-116265000D03*
%TO.P,ESP32_R1,20,Pin_20_20*%
%TO.N,unconnected-(ESP32_R1-Pin_20-Pad20)*%
X75135000Y-118805000D03*
%TO.P,ESP32_R1,21,Pin_21_21*%
%TO.N,unconnected-(ESP32_R1-Pin_21-Pad21)*%
X75135000Y-121345000D03*
%TO.P,ESP32_R1,22,Pin_22_22*%
%TO.N,unconnected-(ESP32_R1-Pin_22-Pad22)*%
X75135000Y-123885000D03*
%TD*%
D21*
%TO.P,BZ1,1,+_1*%
%TO.N,Net-(BZ1-+)*%
X98525000Y-105375000D03*
D22*
%TO.P,BZ1,2,-_2*%
%TO.N,GND*%
X106125000Y-105375000D03*
%TD*%
D23*
%TO.P,D2,1,A_1*%
%TO.N,GND*%
X96385000Y-79575000D03*
D24*
%TO.P,D2,2,RK_2*%
%TO.N,Net-(D2-RK)*%
X98544000Y-79575000D03*
%TO.P,D2,3,GK_3*%
%TO.N,Net-(D2-GK)*%
X100703000Y-79575000D03*
%TO.P,D2,4,BK_4*%
%TO.N,unconnected-(D2-BK-Pad4)*%
X102862000Y-79575000D03*
%TD*%
D20*
%TO.P,R6,1*%
%TO.N,Net-(BMP280-Pin_4)*%
X87607500Y-104465000D03*
%TO.P,R6,2*%
%TO.N,Net-(BMP280-Pin_1)*%
X88422500Y-104465000D03*
%TD*%
D10*
%TO.P,C2,1*%
%TO.N,GND*%
X92512500Y-88315000D03*
%TO.P,C2,2*%
%TO.N,Net-(BMP280-Pin_1)*%
X94237500Y-88315000D03*
%TD*%
D25*
%TO.P,R4,1*%
%TO.N,Net-(D2-RK)*%
X110695000Y-123125000D03*
%TO.P,R4,2*%
%TO.N,Net-(ESP32_L1-Pin_7)*%
X112695000Y-123125000D03*
%TD*%
D23*
%TO.P,D1,1,A_1*%
%TO.N,GND*%
X96385000Y-72025000D03*
D24*
%TO.P,D1,2,RK_2*%
%TO.N,Net-(D1-RK)*%
X98544000Y-72025000D03*
%TO.P,D1,3,GK_3*%
%TO.N,Net-(D1-GK)*%
X100703000Y-72025000D03*
%TO.P,D1,4,BK_4*%
%TO.N,unconnected-(D1-BK-Pad4)*%
X102862000Y-72025000D03*
%TD*%
D25*
%TO.P,R2,1*%
%TO.N,Net-(D1-RK)*%
X110695000Y-120175000D03*
%TO.P,R2,2*%
%TO.N,Net-(ESP32_L1-Pin_5)*%
X112695000Y-120175000D03*
%TD*%
M02*
