%TF.GenerationSoftware,KiCad,Pcbnew,10.0.1*%
%TF.CreationDate,2026-05-29T11:04:26+12:00*%
%TF.ProjectId,Njord SAA PCB,4e6a6f72-6420-4534-9141-205043422e6b,rev?*%
%TF.SameCoordinates,Original*%
%TF.FileFunction,Soldermask,Top*%
%TF.FilePolarity,Negative*%
%FSLAX46Y46*%
G04 Gerber Fmt 4.6, Leading zero omitted, Abs format (unit mm)*
G04 Created by KiCad (PCBNEW 10.0.1) date 2026-05-29 11:04:26*
%MOMM*%
%LPD*%
G01*
G04 APERTURE LIST*
G04 Aperture macros list*
%AMRoundRect*
0 Rectangle with rounded corners*
0 $1 Rounding radius*
0 $2 $3 $4 $5 $6 $7 $8 $9 X,Y pos of 4 corners*
0 Add a 4 corners polygon primitive as box body*
4,1,4,$2,$3,$4,$5,$6,$7,$8,$9,$2,$3,0*
0 Add four circle primitives for the rounded corners*
1,1,$1+$1,$2,$3*
1,1,$1+$1,$4,$5*
1,1,$1+$1,$6,$7*
1,1,$1+$1,$8,$9*
0 Add four rect primitives between the rounded corners*
20,1,$1+$1,$2,$3,$4,$5,0*
20,1,$1+$1,$4,$5,$6,$7,0*
20,1,$1+$1,$6,$7,$8,$9,0*
20,1,$1+$1,$8,$9,$2,$3,0*%
G04 Aperture macros list end*
%ADD10RoundRect,0.237500X-0.300000X-0.237500X0.300000X-0.237500X0.300000X0.237500X-0.300000X0.237500X0*%
%ADD11C,1.600000*%
%ADD12R,1.700000X1.700000*%
%ADD13C,1.700000*%
%ADD14RoundRect,0.160000X-0.197500X-0.160000X0.197500X-0.160000X0.197500X0.160000X-0.197500X0.160000X0*%
%ADD15RoundRect,0.150000X-0.825000X-0.150000X0.825000X-0.150000X0.825000X0.150000X-0.825000X0.150000X0*%
%ADD16RoundRect,0.250000X0.275000X0.600000X-0.275000X0.600000X-0.275000X-0.600000X0.275000X-0.600000X0*%
%ADD17O,1.050000X1.700000*%
%ADD18C,1.200000*%
%ADD19C,1.900000*%
%ADD20RoundRect,0.100000X-0.217500X-0.100000X0.217500X-0.100000X0.217500X0.100000X-0.217500X0.100000X0*%
%ADD21R,2.000000X2.000000*%
%ADD22C,2.000000*%
%ADD23R,1.800000X1.800000*%
%ADD24C,1.800000*%
%ADD25RoundRect,0.250000X-0.350000X-0.450000X0.350000X-0.450000X0.350000X0.450000X-0.350000X0.450000X0*%
G04 APERTURE END LIST*
D10*
%TO.C,C6*%
X92512500Y-95845000D03*
X94237500Y-95845000D03*
%TD*%
D11*
%TO.C,C8*%
X100075000Y-91575000D03*
X105075000Y-91575000D03*
%TD*%
D12*
%TO.C,Buck_Converter1*%
X97845000Y-114445000D03*
D13*
X97845000Y-116985000D03*
X97845000Y-119525000D03*
%TD*%
D12*
%TO.C,Servo_Controller1*%
X88905000Y-86845000D03*
D13*
X88905000Y-89385000D03*
X88905000Y-91925000D03*
X88905000Y-94465000D03*
X88905000Y-97005000D03*
X88905000Y-99545000D03*
%TD*%
D12*
%TO.C,ESC_2*%
X107025000Y-114445000D03*
D13*
X107025000Y-116985000D03*
X107025000Y-119525000D03*
%TD*%
D14*
%TO.C,R3*%
X111067500Y-82785000D03*
X112262500Y-82785000D03*
%TD*%
D11*
%TO.C,C11*%
X111595000Y-115425000D03*
X113595000Y-115425000D03*
%TD*%
D10*
%TO.C,C5*%
X92512500Y-93335000D03*
X94237500Y-93335000D03*
%TD*%
%TO.C,C10*%
X92512500Y-103375000D03*
X94237500Y-103375000D03*
%TD*%
%TO.C,C9*%
X92512500Y-100865000D03*
X94237500Y-100865000D03*
%TD*%
D14*
%TO.C,R1*%
X111067500Y-80795000D03*
X112262500Y-80795000D03*
%TD*%
D12*
%TO.C,GY-521*%
X79725000Y-104135000D03*
D13*
X79725000Y-106675000D03*
X79725000Y-109215000D03*
X79725000Y-111755000D03*
X79725000Y-114295000D03*
X79725000Y-116835000D03*
X79725000Y-119375000D03*
X79725000Y-121915000D03*
%TD*%
D15*
%TO.C,U1*%
X83770000Y-118045000D03*
X83770000Y-119315000D03*
X83770000Y-120585000D03*
X83770000Y-121855000D03*
X88720000Y-121855000D03*
X88720000Y-120585000D03*
X88720000Y-119315000D03*
X88720000Y-118045000D03*
%TD*%
D10*
%TO.C,C3*%
X92512500Y-90825000D03*
X94237500Y-90825000D03*
%TD*%
D16*
%TO.C,Hall_Effect_Switch1*%
X105985000Y-81425000D03*
D17*
X107255000Y-81425000D03*
X108525000Y-81425000D03*
%TD*%
D12*
%TO.C,GY-TOF10M1*%
X84315000Y-86845000D03*
D13*
X84315000Y-89385000D03*
X84315000Y-91925000D03*
X84315000Y-94465000D03*
X84315000Y-97005000D03*
X84315000Y-99545000D03*
%TD*%
D18*
%TO.C,U3*%
X82680000Y-81000000D03*
X93680000Y-81000000D03*
D19*
X85680000Y-71000000D03*
X90680000Y-71000000D03*
%TD*%
D12*
%TO.C,INA226*%
X84315000Y-104135000D03*
D13*
X84315000Y-106675000D03*
X84315000Y-109215000D03*
X84315000Y-111755000D03*
X84315000Y-114295000D03*
%TD*%
D12*
%TO.C,BMP280*%
X79725000Y-86845000D03*
D13*
X79725000Y-89385000D03*
X79725000Y-91925000D03*
X79725000Y-94465000D03*
X79725000Y-97005000D03*
X79725000Y-99545000D03*
%TD*%
D12*
%TO.C,ESC_1*%
X102435000Y-114445000D03*
D13*
X102435000Y-116985000D03*
X102435000Y-119525000D03*
%TD*%
D10*
%TO.C,C7*%
X92512500Y-98355000D03*
X94237500Y-98355000D03*
%TD*%
D20*
%TO.C,R5*%
X87607500Y-102715000D03*
X88422500Y-102715000D03*
%TD*%
D11*
%TO.C,C4*%
X107745000Y-74025000D03*
X112745000Y-74025000D03*
%TD*%
D12*
%TO.C,ESP32_L1*%
X70545000Y-70545000D03*
D13*
X70545000Y-73085000D03*
X70545000Y-75625000D03*
X70545000Y-78165000D03*
X70545000Y-80705000D03*
X70545000Y-83245000D03*
X70545000Y-85785000D03*
X70545000Y-88325000D03*
X70545000Y-90865000D03*
X70545000Y-93405000D03*
X70545000Y-95945000D03*
X70545000Y-98485000D03*
X70545000Y-101025000D03*
X70545000Y-103565000D03*
X70545000Y-106105000D03*
X70545000Y-108645000D03*
X70545000Y-111185000D03*
X70545000Y-113725000D03*
X70545000Y-116265000D03*
X70545000Y-118805000D03*
X70545000Y-121345000D03*
X70545000Y-123885000D03*
%TD*%
D10*
%TO.C,C13*%
X92512500Y-108395000D03*
X94237500Y-108395000D03*
%TD*%
%TO.C,C12*%
X92512500Y-105885000D03*
X94237500Y-105885000D03*
%TD*%
%TO.C,C1*%
X92512500Y-85805000D03*
X94237500Y-85805000D03*
%TD*%
D12*
%TO.C,ESP32_R1*%
X75135000Y-70545000D03*
D13*
X75135000Y-73085000D03*
X75135000Y-75625000D03*
X75135000Y-78165000D03*
X75135000Y-80705000D03*
X75135000Y-83245000D03*
X75135000Y-85785000D03*
X75135000Y-88325000D03*
X75135000Y-90865000D03*
X75135000Y-93405000D03*
X75135000Y-95945000D03*
X75135000Y-98485000D03*
X75135000Y-101025000D03*
X75135000Y-103565000D03*
X75135000Y-106105000D03*
X75135000Y-108645000D03*
X75135000Y-111185000D03*
X75135000Y-113725000D03*
X75135000Y-116265000D03*
X75135000Y-118805000D03*
X75135000Y-121345000D03*
X75135000Y-123885000D03*
%TD*%
D21*
%TO.C,BZ1*%
X98525000Y-105375000D03*
D22*
X106125000Y-105375000D03*
%TD*%
D23*
%TO.C,D2*%
X96385000Y-79575000D03*
D24*
X98544000Y-79575000D03*
X100703000Y-79575000D03*
X102862000Y-79575000D03*
%TD*%
D20*
%TO.C,R6*%
X87607500Y-104465000D03*
X88422500Y-104465000D03*
%TD*%
D10*
%TO.C,C2*%
X92512500Y-88315000D03*
X94237500Y-88315000D03*
%TD*%
D25*
%TO.C,R4*%
X110695000Y-123125000D03*
X112695000Y-123125000D03*
%TD*%
D23*
%TO.C,D1*%
X96385000Y-72025000D03*
D24*
X98544000Y-72025000D03*
X100703000Y-72025000D03*
X102862000Y-72025000D03*
%TD*%
D25*
%TO.C,R2*%
X110695000Y-120175000D03*
X112695000Y-120175000D03*
%TD*%
M02*
